<svg width="32" height="32" viewBox="0 0 32 32" fill="none" xmlns="http://www.w3.org/2000/svg">
<path d="M13 10V25.4648C13 25.6294 12.9594 25.7915 12.8817 25.9367C12.804 26.0818 12.6917 26.2055 12.5547 26.2969L11.1807 27.2129C11.0473 27.3018 10.8946 27.3573 10.7353 27.3748C10.576 27.3924 10.4149 27.3713 10.2654 27.3135C10.1159 27.2558 9.98253 27.1629 9.87645 27.0428C9.77037 26.9227 9.69471 26.7788 9.65584 26.6234L8 20" stroke="#A1AFAF" stroke-width="2" stroke-linecap="round" stroke-linejoin="round"/>
<path d="M8 20.0018C6.67392 20.0018 5.40215 19.475 4.46447 18.5373C3.52678 17.5996 3 16.3279 3 15.0018C3 13.6757 3.52678 12.4039 4.46447 11.4662C5.40215 10.5286 6.67392 10.0018 8 10.0018H13C13 10.0018 19.8065 10.0018 26.3564 4.50831C26.5021 4.38571 26.6797 4.30725 26.8684 4.28216C27.0572 4.25707 27.2492 4.28639 27.4218 4.36668C27.5945 4.44698 27.7406 4.5749 27.843 4.7354C27.9454 4.8959 27.9999 5.08232 28 5.27272V24.7308C27.9999 24.9212 27.9454 25.1076 27.843 25.2681C27.7406 25.4286 27.5945 25.5566 27.4218 25.6369C27.2492 25.7171 27.0572 25.7465 26.8684 25.7214C26.6797 25.6963 26.5021 25.6178 26.3564 25.4952C19.8065 20.0018 13 20.0018 13 20.0018H8Z" stroke="#A1AFAF" stroke-width="2" stroke-linecap="round" stroke-linejoin="round"/>
</svg>
