<svg width="32" height="32" viewBox="0 0 32 32" fill="none" xmlns="http://www.w3.org/2000/svg">
<path d="M26.6742 13.4929C27.0475 13.8662 27.0475 14.4529 26.6742 14.8262L16.0608 25.4395C14.3008 27.1995 12.2742 28.1596 10.3809 28.1596C9.90085 28.1596 9.42084 28.1062 8.94084 27.9729C7.07418 27.4662 5.63416 26.0262 5.1275 24.0796C4.4875 21.6796 5.34084 19.0662 7.50084 16.9062L19.3142 5.09292C21.2342 3.17292 23.9009 3.78622 25.4475 5.33289C27.5542 7.43956 26.9675 9.91956 25.5542 11.3329L13.6342 23.2529C12.0608 24.8262 10.2742 24.7195 9.3675 23.7862C8.46084 22.8529 8.35416 21.1195 9.9275 19.5195L17.9809 11.4662C18.3542 11.0929 18.9409 11.0929 19.3142 11.4662C19.6875 11.8396 19.6875 12.4262 19.3142 12.7996L11.2608 20.8529C10.5675 21.5462 10.4608 22.2129 10.7008 22.4796C10.9675 22.7462 11.6342 22.6396 12.3275 21.9462L24.2475 10.0262C25.4475 8.82625 24.9408 7.46622 24.1408 6.66622C23.2342 5.75956 21.7675 5.30621 20.6475 6.45288L8.83417 18.2662C7.15417 19.9462 6.46084 21.8929 6.94084 23.6262C7.28751 24.9062 8.22085 25.8662 9.44752 26.1862C11.1009 26.6395 12.9942 25.8929 14.7542 24.1329L25.3675 13.5195C25.7142 13.1462 26.3008 13.1462 26.6742 13.4929Z" fill="#395B65"/>
</svg>
