<svg width="346" height="182" viewBox="0 0 346 182" fill="none" xmlns="http://www.w3.org/2000/svg">
<path d="M308.541 150.451C308.541 150.451 305.918 145.955 304.607 143.521C303.692 141.758 302.879 139.945 302.172 138.089C302.172 138.089 305.356 139.962 306.293 140.711C307.229 141.46 311.163 146.143 311.163 146.143L312.286 144.832L310.975 140.524L315.283 145.394L317.344 136.591L320.528 145.019L326.521 137.527L326.896 145.019L334.2 139.213L331.578 148.39L328.769 152.324H308.728L308.541 150.451Z" fill="#44AD92" stroke="#263238" stroke-width="0.678136" stroke-miterlimit="10"/>
<path d="M307.417 150.451C307.417 150.451 305.731 149.702 302.922 146.33C301.127 144.145 299.499 141.829 298.052 139.4C298.052 139.4 304.42 142.959 306.667 144.645C308.585 146.283 310.341 148.102 311.912 150.076C311.912 150.076 310.039 145.394 309.852 143.146C309.664 140.899 309.477 136.029 309.477 136.029C309.477 136.029 314.909 141.461 315.283 142.959C315.658 144.457 317.718 149.514 317.718 149.514C318.339 147.232 318.839 144.919 319.216 142.584C319.591 139.775 322.588 135.28 322.588 135.28C322.588 135.28 322.962 138.464 323.15 141.648C323.337 144.832 321.464 150.826 321.464 150.826C321.464 150.826 323.899 145.019 326.334 142.21C328.245 140.122 330.311 138.181 332.515 136.404C332.515 136.404 330.642 142.21 329.892 144.832C329.193 146.873 328.249 148.823 327.083 150.638C328.841 148.417 330.716 146.291 332.702 144.27C334.53 142.807 336.472 141.492 338.508 140.337C338.508 140.337 336.448 144.27 334.95 146.518C333.551 148.469 332.051 150.344 330.454 152.137H307.417V150.451Z" fill="#44AD92" stroke="#263238" stroke-width="0.678136" stroke-miterlimit="10"/>
<path d="M333.788 150.076L332.492 161.501L330.267 181.04H306.795L304.57 161.501L303.273 150.076H333.788Z" fill="white" stroke="#263238" stroke-width="0.678136" stroke-miterlimit="10"/>
<path d="M332.492 161.501L330.267 181.04H306.795L304.57 161.501H332.492Z" fill="#44AD92" stroke="#263238" stroke-width="0.678136" stroke-miterlimit="10"/>
<path d="M308.916 166.933C309.536 166.933 310.04 166.43 310.04 165.809C310.04 165.188 309.536 164.685 308.916 164.685C308.295 164.685 307.792 165.188 307.792 165.809C307.792 166.43 308.295 166.933 308.916 166.933Z" fill="#263238"/>
<path d="M317.157 166.933C317.777 166.933 318.28 166.43 318.28 165.809C318.28 165.188 317.777 164.685 317.157 164.685C316.536 164.685 316.033 165.188 316.033 165.809C316.033 166.43 316.536 166.933 317.157 166.933Z" fill="#263238"/>
<path d="M312.099 172.739C312.72 172.739 313.223 172.236 313.223 171.615C313.223 170.995 312.72 170.492 312.099 170.492C311.479 170.492 310.976 170.995 310.976 171.615C310.976 172.236 311.479 172.739 312.099 172.739Z" fill="#263238"/>
<path d="M322.026 172.739C322.647 172.739 323.15 172.236 323.15 171.615C323.15 170.995 322.647 170.492 322.026 170.492C321.405 170.492 320.902 170.995 320.902 171.615C320.902 172.236 321.405 172.739 322.026 172.739Z" fill="#263238"/>
<path d="M328.581 172.739C329.202 172.739 329.705 172.236 329.705 171.615C329.705 170.995 329.202 170.492 328.581 170.492C327.961 170.492 327.458 170.995 327.458 171.615C327.458 172.236 327.961 172.739 328.581 172.739Z" fill="#263238"/>
<path d="M325.398 166.933C326.018 166.933 326.522 166.43 326.522 165.809C326.522 165.188 326.018 164.685 325.398 164.685C324.777 164.685 324.274 165.188 324.274 165.809C324.274 166.43 324.777 166.933 325.398 166.933Z" fill="#263238"/>
<path d="M308.916 177.422C309.536 177.422 310.04 176.919 310.04 176.298C310.04 175.677 309.536 175.174 308.916 175.174C308.295 175.174 307.792 175.677 307.792 176.298C307.792 176.919 308.295 177.422 308.916 177.422Z" fill="#263238"/>
<path d="M317.157 177.422C317.777 177.422 318.28 176.919 318.28 176.298C318.28 175.677 317.777 175.174 317.157 175.174C316.536 175.174 316.033 175.677 316.033 176.298C316.033 176.919 316.536 177.422 317.157 177.422Z" fill="#263238"/>
<path d="M325.398 177.422C326.018 177.422 326.522 176.919 326.522 176.298C326.522 175.677 326.018 175.174 325.398 175.174C324.777 175.174 324.274 175.677 324.274 176.298C324.274 176.919 324.777 177.422 325.398 177.422Z" fill="#263238"/>
<path d="M194.797 54.4508C194.811 48.7408 191.793 44.1046 188.057 44.0955C184.321 44.0863 181.28 48.7078 181.266 54.4178C181.253 60.1277 184.27 64.764 188.006 64.7731C191.743 64.7823 194.783 60.1608 194.797 54.4508Z" fill="white" stroke="#263238" stroke-width="0.678136" stroke-linecap="round" stroke-linejoin="round"/>
<path d="M196.528 28.5496C196.528 28.5496 192.88 30.6399 189.404 28.3773C185.927 26.1147 188.362 25.0808 189.059 23.6873C189.756 22.2938 188.018 21.9492 187.665 20.0388C187.313 18.1283 188.534 16.5625 189.231 16.3902C189.928 16.2179 189.756 14.3 189.756 12.3895C189.756 10.4791 192.003 8.74094 193.052 8.74094C194.101 8.74094 194.79 7.35492 195.487 5.61679C196.184 3.87867 197.577 2.31285 199.982 3.36921C202.387 4.42558 203.631 4.4106 204.852 2.67247C206.073 0.934342 209.017 0.589717 210.096 1.45878C211.175 2.32785 211.655 4.06596 213.745 2.32784C215.835 0.589708 218.435 0.941832 219.648 2.15553C220.862 3.36922 220.69 4.76272 222.645 4.06597C224.601 3.36922 227.68 4.4106 228.377 6.50085C229.073 8.5911 232.872 10.8462 234.288 10.3217C235.704 9.7973 238.109 10.3217 236.887 12.9289C235.666 15.5361 237.067 17.2743 238.109 17.2743C239.15 17.2743 241.413 17.971 240.191 20.2261C238.97 22.4811 238.109 24.2268 239.495 24.916C240.881 25.6053 243.143 25.7851 241.413 28.7444C239.682 31.7037 238.281 31.5239 238.805 33.2395C239.33 34.9552 240.364 35.4871 238.805 36.7158C237.247 37.9445 235.329 38.4539 235.329 39.4953C235.329 40.5367 237.412 41.0537 234.977 41.9227C233.573 42.4352 232.115 42.7871 230.632 42.9716C230.632 42.9716 227.163 33.5842 217.251 30.46C207.339 27.3359 201.615 27.673 199.353 28.8942C197.09 30.1154 196.528 28.5496 196.528 28.5496Z" fill="#263238" stroke="#263238" stroke-width="0.678136" stroke-linecap="round" stroke-linejoin="round"/>
<path d="M200.027 92.261L187.291 98.1347C187.291 98.1347 180.706 134.59 181.178 144.705C181.65 154.819 187.291 179.984 187.291 179.984H217.888C217.888 179.984 213.183 149.17 215.536 138.119C217.888 127.069 223.537 96.7262 223.537 96.7262C223.537 96.7262 214.127 94.1415 211.303 93.6695C208.478 93.1975 200.027 92.261 200.027 92.261Z" fill="white" stroke="#263238" stroke-width="0.678136" stroke-miterlimit="10"/>
<path d="M185.418 109.29L220.63 112.332C220.345 113.83 220.06 115.329 219.768 116.827L184.706 113.83C184.923 112.242 185.185 110.721 185.418 109.29ZM215.55 138.089C215.82 136.816 216.135 135.287 216.479 133.594L182.271 130.642C182.076 132.215 181.904 133.736 181.747 135.182L215.55 138.112V138.089ZM218.547 122.94L183.717 119.944C183.492 121.442 183.267 122.94 183.058 124.484L217.663 127.481C217.985 126.027 218.277 124.514 218.577 122.97L218.547 122.94ZM181.2 141.85C181.155 142.929 181.147 143.88 181.2 144.675C181.2 145.221 181.267 145.813 181.32 146.435L214.891 148.578C214.891 146.975 214.891 145.431 214.891 143.993L181.2 141.85ZM187.508 98.0073L187.298 98.1047C187.298 98.1047 186.998 99.7829 186.549 102.517L221.881 105.574C222.196 103.874 222.488 102.345 222.727 101.079L187.508 98.0073ZM215.977 165L184.174 164.663C184.474 166.251 184.781 167.787 185.073 169.248L216.539 169.608C216.389 168.169 216.194 166.626 216.03 165.06L215.977 165ZM182.81 157.448L215.453 159.366C215.323 157.833 215.211 156.297 215.116 154.759L182.069 152.818C182.338 154.339 182.593 155.897 182.863 157.478L182.81 157.448Z" fill="#263238"/>
<path d="M198.147 85.6457C198.147 85.6457 195.562 95.5201 195.33 100.697C195.098 105.874 200.499 110.099 208.261 109.395C216.023 108.691 217.431 100.225 217.431 98.1048C217.431 95.9846 217.888 78.1538 217.888 78.1538C215.286 80.3802 212.532 82.4229 209.647 84.2672C205.204 87.0842 198.147 85.6457 198.147 85.6457Z" fill="#B5B5B5" stroke="#263238" stroke-width="0.678136" stroke-miterlimit="10"/>
<path d="M205.204 94.1415C212.553 90.6203 216.217 83.7053 217.873 79.315C217.873 78.5658 217.873 78.1462 217.873 78.1462C215.271 80.3726 212.517 82.4153 209.632 84.2597C205.136 87.0841 198.109 85.6756 198.109 85.6756C198.109 85.6756 196.498 91.849 195.704 96.9885C199.007 96.5737 202.217 95.6115 205.204 94.1415Z" fill="#263238" stroke="#263238" stroke-width="0.678136" stroke-miterlimit="10"/>
<path d="M230.392 47.9163C230.392 47.9163 230.092 37.4875 226.219 31.5239C222.346 25.5604 214.179 21.9118 205.062 23.4626C193.749 25.4105 188.669 33.8914 186.879 41.0462C185.088 48.201 187.178 58.6297 187.178 65.7696C187.178 72.9094 195.524 85.7356 197.907 87.8258C200.289 89.9161 203.968 90.6053 208.171 88.4776C212.029 86.5147 218.375 79.8394 222.248 75.9661C226.121 72.0927 228.429 60.5702 229.028 57.8881C229.628 55.2059 230.392 47.9163 230.392 47.9163Z" fill="#B5B5B5" stroke="#263238" stroke-width="0.678136" stroke-linecap="round" stroke-linejoin="round"/>
<path d="M198.791 68.1743C198.791 68.1743 198.439 70.4219 203.653 70.0848" stroke="#263238" stroke-width="0.678136" stroke-linecap="round" stroke-linejoin="round"/>
<path d="M197.225 74.0779C197.225 74.0779 203.308 78.2509 209.392 74.2577" stroke="#263238" stroke-width="0.678136" stroke-linecap="round" stroke-linejoin="round"/>
<path d="M209.392 60.1732C209.392 60.1732 210.95 57.566 215.476 59.821" stroke="#263238" stroke-width="1.35627" stroke-linecap="round" stroke-linejoin="round"/>
<path d="M197.225 58.6145C197.225 59.8657 196.641 60.8621 195.922 60.8621C195.203 60.8621 194.618 59.8507 194.618 58.6145C194.618 57.3784 195.203 56.3669 195.922 56.3669C196.641 56.3669 197.225 57.3709 197.225 58.6145Z" fill="#263238"/>
<path d="M191.666 51.4899C191.666 51.4899 193.232 48.0137 198.409 49.7518" stroke="#263238" stroke-width="0.678136" stroke-linecap="round" stroke-linejoin="round"/>
<path d="M207.129 51.1828C207.129 51.1828 211.999 48.5756 217.386 52.5688" stroke="#263238" stroke-width="0.678136" stroke-linecap="round" stroke-linejoin="round"/>
<path d="M205.061 23.4629C193.749 25.4108 188.669 33.8916 186.879 41.0464C186.504 42.6349 186.283 44.2556 186.219 45.8862C186.804 44.0657 189.838 36.0793 198.439 33.8991C208.178 31.4717 216.689 34.5959 219.641 38.7689C222.593 42.9419 221.888 48.3286 222.945 50.9358C223.604 52.584 226.915 55.0713 229.26 56.6746C229.8 53.4756 230.392 47.8791 230.392 47.8791C230.392 47.8791 230.092 37.4503 226.219 31.4867C222.345 25.5232 214.179 21.912 205.061 23.4629Z" fill="#263238" stroke="#263238" stroke-width="0.678136" stroke-linecap="round" stroke-linejoin="round"/>
<path d="M227.463 49.7517C227.463 49.7517 228.332 40.5441 225.724 34.4607C223.117 28.3772 219.993 25.77 219.993 25.77C219.993 25.77 227.29 29.5984 229.898 33.262C232.505 36.9255 232.849 45.7735 232.145 51.8569L226.758 50.9879L227.463 49.7517Z" fill="#44AD92" stroke="#263238" stroke-width="0.678136" stroke-miterlimit="10"/>
<path d="M234.467 58.7868C233.419 64.3982 229.59 68.3914 225.912 67.7097C222.233 67.0279 220.113 61.9109 221.162 56.2995C222.211 50.688 226.039 46.6948 229.71 47.3766C233.381 48.0583 235.516 53.1753 234.467 58.7868Z" fill="white" stroke="#263238" stroke-width="0.678136" stroke-linecap="round" stroke-linejoin="round"/>
<path d="M233.804 59.5076C234.599 55.2491 232.985 51.375 230.199 50.8546C227.413 50.3342 224.51 53.3645 223.714 57.623C222.919 61.8815 224.533 65.7556 227.319 66.276C230.105 66.7964 233.008 63.7661 233.804 59.5076Z" fill="#44AD92" stroke="#263238" stroke-width="0.678136" stroke-miterlimit="10"/>
<path d="M191.329 157.059C193.082 169.495 195.24 180.651 195.24 180.651H182.391C182.391 180.651 179.102 163.712 175.102 154.309C172.854 148.96 172.307 146.817 172.27 145.941C170.524 150.099 159.646 175.789 157.698 176.658C155.578 177.594 147.816 175.908 144.961 175.009C142.107 174.11 141.912 170.072 142.384 168.424C142.856 166.776 162.612 119.03 164.485 115.98C166.241 112.874 167.586 109.552 168.486 106.099C168.718 104.69 168.246 101.394 170.367 100.225C171.648 99.5132 180.653 97.4304 187.598 95.8871C192.138 94.8757 195.787 94.104 195.787 94.104C195.787 94.104 190.168 115.029 189.209 129.848C188.797 136.418 189.958 147.147 191.329 157.051C191.337 157.051 191.337 157.051 191.329 157.059Z" fill="#44AD92" stroke="#263238" stroke-width="0.678136" stroke-miterlimit="10"/>
<path d="M191.329 157.051C189.711 154.391 183.148 142.974 182.271 131.084C181.485 120.416 185.74 102.907 187.613 95.872C192.153 94.8605 195.802 94.0889 195.802 94.0889C195.802 94.0889 190.168 115.029 189.209 129.848C188.797 136.418 189.928 147.147 191.329 157.051Z" fill="#44AD92" stroke="#263238" stroke-width="0.678136" stroke-miterlimit="10"/>
<path d="M174.083 121.292C174.667 118.752 175.101 117.381 175.101 117.381" stroke="#263238" stroke-width="0.678136" stroke-miterlimit="10"/>
<path d="M172.517 145.371C172.517 145.371 171.101 140.427 172.277 131.496C172.592 129.136 172.929 127.038 173.266 125.233" stroke="#263238" stroke-width="0.678136" stroke-miterlimit="10"/>
<path d="M275.995 147.432C270.586 147.192 243.54 130.343 243.54 130.343C243.54 130.343 235.067 146.945 234.834 150.316C234.602 153.687 241.42 180.651 241.42 180.651H212.493C212.493 180.651 211.617 171.189 211.437 160.812C211.355 156.025 211.437 151.073 211.789 146.705C212.965 132.987 217.663 94.2615 217.663 94.2615L222.375 94.741C222.375 94.741 223.709 95.1905 225.799 95.9172C231.366 97.8501 242.281 101.806 247.069 104.608C253.647 108.459 262.802 114.722 267.297 117.614C271.792 120.506 282.348 127.001 284.461 135.669C286.574 144.338 281.404 147.671 275.995 147.432Z" fill="#44AD92" stroke="#263238" stroke-width="0.678136" stroke-miterlimit="10"/>
<path d="M225.799 95.8872C225.162 105.522 223.289 128.47 219.251 139.573C215.385 150.189 212.606 157.673 211.437 160.812C211.355 156.025 211.437 151.073 211.789 146.705C212.965 132.987 217.663 94.2615 217.663 94.2615L222.375 94.741C222.375 94.741 223.709 95.1605 225.799 95.8872Z" stroke="#263238" stroke-width="0.678136" stroke-miterlimit="10"/>
<path d="M243.54 130.335L232.721 126.971" stroke="#263238" stroke-width="0.678136" stroke-miterlimit="10"/>
<path d="M228.151 119.681C228.466 123.24 229.447 127.173 232.017 129.376" stroke="#263238" stroke-width="0.678136" stroke-miterlimit="10"/>
<path d="M228.249 112.287C228.097 113.635 228.02 114.991 228.017 116.348" stroke="#263238" stroke-width="0.678136" stroke-miterlimit="10"/>
<path d="M226.878 124.798C226.878 124.798 229.463 129.616 232.52 131.301" stroke="#263238" stroke-width="0.678136" stroke-miterlimit="10"/>
<path d="M243.083 90.3208C242.648 88.5554 242.422 86.7449 242.409 84.9267C242.409 82.0273 243.083 80.394 242.027 80.4914C240.97 80.5888 239.127 81.9374 238.55 84.2374C237.974 86.5374 239.225 88.6726 239.419 89.4443C239.538 89.9176 239.603 90.4025 239.614 90.8902C239.614 90.8902 231.223 91.1749 229.68 91.1749C228.137 91.1749 226.593 92.044 226.593 93.4899C226.593 94.9359 228.234 95.7375 228.234 95.7375L228.983 96.1271C228.983 96.1271 228.017 97.9551 228.691 98.9216C229.064 99.4723 229.521 99.9604 230.047 100.368C229.845 100.66 229.72 100.999 229.686 101.354C229.652 101.708 229.709 102.065 229.852 102.39C230.102 103.047 230.536 103.617 231.103 104.031C231.103 104.031 229.852 105.192 231.493 106.736C233.134 108.279 236.7 108.376 239.202 108.376C241.705 108.376 243.832 108.466 243.832 108.466L244.896 108.564L253.767 121.779L262.157 112.422C262.157 112.422 249.811 100.435 248.17 98.3447C246.529 96.2545 243.083 90.3208 243.083 90.3208Z" fill="#B5B5B5" stroke="#263238" stroke-width="0.678136" stroke-miterlimit="10"/>
<path d="M261.881 111.305L250.358 122.124C250.358 122.124 260.944 136.239 266.585 143.333C272.227 150.428 282.581 151.575 287.046 148.031C291.511 144.487 291.991 136.508 287.99 131.549C283.989 126.589 261.881 111.305 261.881 111.305Z" fill="#44AD92" stroke="#263238" stroke-width="0.678136" stroke-miterlimit="10"/>
<path d="M184.773 168.132C184.773 168.132 201.69 171.054 203.271 171.054C204.852 171.054 221.544 166.768 222.667 167.667C223.791 168.566 231.238 174.889 233.044 176.695C234.117 177.76 235.028 178.977 235.748 180.306H220.188L215.453 179.175C215.453 179.175 211.437 181.033 209.182 181.033C206.927 181.033 199.375 180.598 199.375 180.598L186.084 180.381C186.084 180.381 181.612 172.867 184.773 168.132Z" fill="#B5B5B5" stroke="#263238" stroke-width="0.678136" stroke-miterlimit="10"/>
<path d="M224.923 180.314C224.923 180.314 221.087 176.028 219.514 174.897C218.56 174.208 217.507 173.67 216.39 173.301" stroke="#263238" stroke-width="0.678136" stroke-miterlimit="10"/>
<path d="M230.115 180.539C230.115 180.539 222.668 172.417 221.769 171.736C220.774 171.159 219.712 170.706 218.607 170.387" stroke="#263238" stroke-width="0.678136" stroke-miterlimit="10"/>
<path d="M147.778 160.46C147.778 160.46 141.036 165.877 139.882 169.45C138.728 173.024 140.332 177.347 143.943 178.703C147.554 180.059 187.83 180.793 187.83 180.793C187.171 181.1 184.219 178.336 185.897 174.642C187.036 172.14 190.183 168.551 190.183 168.551L156.574 159.98" fill="#44AD92"/>
<path d="M147.778 160.46C147.778 160.46 141.036 165.877 139.882 169.45C138.728 173.024 140.332 177.347 143.943 178.703C147.554 180.059 187.83 180.793 187.83 180.793C187.171 181.1 184.219 178.336 185.897 174.642C187.036 172.14 190.183 168.551 190.183 168.551L156.574 159.98" stroke="#263238" stroke-width="0.678136" stroke-miterlimit="10"/>
<path d="M204.597 179.265H66.3711V181.04H204.597V179.265Z" fill="#263238" stroke="#263238" stroke-width="0.678136" stroke-miterlimit="10"/>
<path d="M154.454 181.041H68.2441L60.2727 121.09H146.482L154.454 181.041Z" fill="white" stroke="#263238" stroke-width="0.678136" stroke-miterlimit="10"/>
<path d="M152.701 181.041H66.4985L58.5271 121.09H144.729L152.701 181.041Z" fill="white" stroke="#263238" stroke-width="0.678136" stroke-miterlimit="10"/>
<path d="M73.1587 181.04H152.438L146.445 135.789C135.836 142.532 122.913 151.26 108.828 162.011C98.0921 170.314 86.0334 176.747 73.1587 181.04Z" fill="#263238" stroke="#263238" stroke-width="0.678136" stroke-miterlimit="10"/>
<path d="M102.872 155.733C106 155.733 108.536 153.392 108.536 150.504C108.536 147.615 106 145.274 102.872 145.274C99.7438 145.274 97.208 147.615 97.208 150.504C97.208 153.392 99.7438 155.733 102.872 155.733Z" fill="white" stroke="#263238" stroke-width="0.678136" stroke-miterlimit="10"/>
<path d="M0 181.04H346" stroke="#263238" stroke-width="0.678136" stroke-miterlimit="10"/>
</svg>
