<svg width="33" height="32" viewBox="0 0 33 32" fill="none" xmlns="http://www.w3.org/2000/svg">
<path d="M9.7319 9.54746V6.13411C9.7319 5.38745 10.3186 4.80078 11.0652 4.80078C11.8119 4.80078 12.3986 5.38745 12.3986 6.13411V9.54746C12.3986 10.2941 11.8119 10.8808 11.0652 10.8808C10.3186 10.8808 9.7319 10.2941 9.7319 9.54746ZM21.1986 10.8808C21.9452 10.8808 22.5319 10.2941 22.5319 9.54746V6.13411C22.5319 5.38745 21.9452 4.80078 21.1986 4.80078C20.4519 4.80078 19.8652 5.38745 19.8652 6.13411V9.54746C19.8652 10.2941 20.4519 10.8808 21.1986 10.8808ZM28.3986 7.84075V25.8674C28.3986 26.4541 27.9186 26.9341 27.3319 26.9341H4.9319C4.34523 26.9341 3.86523 26.4541 3.86523 25.8674V7.84075C3.86523 7.25409 4.34523 6.66745 4.9319 6.66745H7.41191C7.99858 6.66745 8.47858 7.14745 8.47858 7.73411C8.47858 8.32078 7.99858 8.80078 7.41191 8.80078H5.97191V13.3341H26.2386V8.80078H24.8252C24.2386 8.80078 23.7586 8.32078 23.7586 7.73411C23.7586 7.14745 24.2386 6.66745 24.8252 6.66745H27.3052C27.9186 6.66745 28.3986 7.25409 28.3986 7.84075ZM26.2652 24.8008V15.2008H5.99857V24.8008H26.2652ZM14.4519 8.80078H17.8119C18.3986 8.80078 18.8786 8.32078 18.8786 7.73411C18.8786 7.14745 18.3986 6.66745 17.8119 6.66745H14.4519C13.8652 6.66745 13.3852 7.14745 13.3852 7.73411C13.3852 8.32078 13.8652 8.80078 14.4519 8.80078Z" fill="#395B65"/>
</svg>
