<svg width="25" height="24" viewBox="0 0 25 24" fill="none" xmlns="http://www.w3.org/2000/svg">
<path d="M21.3229 8.05983L19.1829 14.8198C19.0229 15.2998 18.6029 15.6198 18.1029 15.6198H9.84289C9.36289 15.6198 8.90289 15.3198 8.74289 14.8798L5.60289 6.41984H3.76289C3.32289 6.41984 2.96289 6.05984 2.96289 5.61984C2.96289 5.17984 3.32289 4.81984 3.76289 4.81984H6.14289C6.48289 4.81984 6.78289 5.03983 6.90289 5.35983L10.1629 13.9998H17.7629L19.4629 8.59982H10.0429C9.60289 8.59982 9.24289 8.23982 9.24289 7.79982C9.24289 7.35982 9.60289 6.99982 10.0429 6.99982H20.5629C20.8229 6.99982 21.0629 7.13981 21.2029 7.33981C21.3629 7.53981 21.4029 7.81983 21.3229 8.05983ZM10.2429 16.6598C9.90289 16.6598 9.56289 16.7998 9.32289 17.0398C9.08289 17.2798 8.94289 17.6198 8.94289 17.9598C8.94289 18.2998 9.08289 18.6398 9.32289 18.8798C9.56289 19.1198 9.90289 19.2598 10.2429 19.2598C10.5829 19.2598 10.9229 19.1198 11.1629 18.8798C11.4029 18.6398 11.5429 18.2998 11.5429 17.9598C11.5429 17.6198 11.4029 17.2798 11.1629 17.0398C10.9229 16.7998 10.5829 16.6598 10.2429 16.6598ZM17.4229 16.6598C17.0829 16.6598 16.7429 16.7998 16.5029 17.0398C16.2629 17.2798 16.1229 17.6198 16.1229 17.9598C16.1229 18.2998 16.2629 18.6398 16.5029 18.8798C16.7429 19.1198 17.0829 19.2598 17.4229 19.2598C17.7629 19.2598 18.1029 19.1198 18.3429 18.8798C18.5829 18.6398 18.7229 18.2998 18.7229 17.9598C18.7229 17.6198 18.5829 17.2798 18.3429 17.0398C18.1029 16.7998 17.7629 16.6598 17.4229 16.6598Z" fill="white"/>
</svg>
