<svg width="32" height="32" viewBox="0 0 32 32" fill="none" xmlns="http://www.w3.org/2000/svg">
<path fill-rule="evenodd" clip-rule="evenodd" d="M4 8.66667C4 5.16638 4.03748 4 8.66667 4C13.2959 4 13.3333 5.16638 13.3333 8.66667C13.3333 12.167 13.3481 13.3333 8.66667 13.3333C3.98524 13.3333 4 12.167 4 8.66667Z" stroke="#A1AFAF" stroke-width="2" stroke-linecap="round" stroke-linejoin="round"/>
<path fill-rule="evenodd" clip-rule="evenodd" d="M18.666 8.66667C18.666 5.16638 18.7035 4 23.3327 4C27.9619 4 27.9993 5.16638 27.9993 8.66667C27.9993 12.167 28.0141 13.3333 23.3327 13.3333C18.6513 13.3333 18.666 12.167 18.666 8.66667Z" stroke="#A1AFAF" stroke-width="2" stroke-linecap="round" stroke-linejoin="round"/>
<path fill-rule="evenodd" clip-rule="evenodd" d="M4 23.3346C4 19.8344 4.03748 18.668 8.66667 18.668C13.2959 18.668 13.3333 19.8344 13.3333 23.3346C13.3333 26.8349 13.3481 28.0013 8.66667 28.0013C3.98524 28.0013 4 26.8349 4 23.3346Z" stroke="#A1AFAF" stroke-width="2" stroke-linecap="round" stroke-linejoin="round"/>
<path fill-rule="evenodd" clip-rule="evenodd" d="M18.666 23.3346C18.666 19.8344 18.7035 18.668 23.3327 18.668C27.9619 18.668 27.9993 19.8344 27.9993 23.3346C27.9993 26.8349 28.0141 28.0013 23.3327 28.0013C18.6513 28.0013 18.666 26.8349 18.666 23.3346Z" stroke="#A1AFAF" stroke-width="2" stroke-linecap="round" stroke-linejoin="round"/>
</svg>
