<svg width="33" height="32" viewBox="0 0 33 32" fill="none" xmlns="http://www.w3.org/2000/svg">
<path d="M27.3319 5.33203H4.9319C4.34523 5.33203 3.86523 5.81203 3.86523 6.3987V20.0254C3.86523 20.612 4.34523 21.0654 4.9319 21.0654H17.4652V25.5987C17.4652 26.052 17.8119 26.452 18.2119 26.612C18.3452 26.6654 18.4786 26.6654 18.6119 26.6654C18.9319 26.6654 19.2252 26.532 19.4386 26.292L23.8652 21.0654H27.3319C27.9186 21.0654 28.3986 20.612 28.3986 20.0254V6.3987C28.3986 5.81203 27.9186 5.33203 27.3319 5.33203ZM26.2652 18.932H23.3852C23.0652 18.932 22.7186 19.092 22.5052 19.3054L19.5986 22.6654V19.9987C19.5986 19.412 19.2252 18.9054 18.6386 18.9054H5.99857V7.4387H26.2652V18.932ZM8.82523 11.1987C8.82523 10.612 9.30523 10.132 9.89189 10.132H17.6252C18.2119 10.132 18.6919 10.612 18.6919 11.1987C18.6919 11.7854 18.2119 12.2654 17.6252 12.2654H9.89189C9.30523 12.2654 8.82523 11.7854 8.82523 11.1987ZM20.5319 12.0254C20.3452 11.8387 20.2119 11.5454 20.2119 11.2787C20.2119 10.9854 20.3186 10.7187 20.5319 10.532C20.7452 10.3187 21.0119 10.212 21.2786 10.212C21.5719 10.212 21.8386 10.3187 22.0252 10.532C22.2119 10.7187 22.3452 11.012 22.3452 11.2787C22.3452 11.572 22.2386 11.8387 22.0252 12.0254C21.8119 12.2387 21.5452 12.3454 21.2786 12.3454C21.0119 12.3187 20.7452 12.212 20.5319 12.0254Z" fill="#395B65"/>
</svg>
