<svg width="32" height="32" viewBox="0 0 32 32" fill="none" xmlns="http://www.w3.org/2000/svg">
<path d="M27.2064 5.3335H4.80641C4.21975 5.3335 3.73975 5.8135 3.73975 6.40016V20.0268C3.73975 20.6135 4.21975 21.0668 4.80641 21.0668H17.3397V25.6002C17.3397 26.0535 17.6864 26.4535 18.0864 26.6135C18.2198 26.6668 18.3531 26.6668 18.4864 26.6668C18.8064 26.6668 19.0998 26.5335 19.3131 26.2935L23.7397 21.0668H27.2064C27.7931 21.0668 28.2731 20.6135 28.2731 20.0268V6.40016C28.2731 5.8135 27.7931 5.3335 27.2064 5.3335ZM26.1397 18.9335H23.2597C22.9397 18.9335 22.5931 19.0935 22.3798 19.3068L19.4731 22.6668V20.0002C19.4731 19.4135 19.0998 18.9068 18.5131 18.9068H5.87308V7.44017H26.1397V18.9335ZM8.69974 11.2002C8.69974 10.6135 9.17974 10.1335 9.76641 10.1335H17.4997C18.0864 10.1335 18.5664 10.6135 18.5664 11.2002C18.5664 11.7868 18.0864 12.2668 17.4997 12.2668H9.76641C9.17974 12.2668 8.69974 11.7868 8.69974 11.2002ZM20.4064 12.0268C20.2197 11.8402 20.0864 11.5468 20.0864 11.2802C20.0864 10.9868 20.1931 10.7202 20.4064 10.5335C20.6197 10.3202 20.8864 10.2135 21.1531 10.2135C21.4464 10.2135 21.7131 10.3202 21.8997 10.5335C22.0864 10.7202 22.2198 11.0135 22.2198 11.2802C22.2198 11.5735 22.1131 11.8402 21.8997 12.0268C21.6864 12.2402 21.4198 12.3468 21.1531 12.3468C20.8864 12.3202 20.6197 12.2135 20.4064 12.0268Z" fill="#395B65"/>
</svg>
