<svg width="20" height="20" viewBox="0 0 20 20" fill="none" xmlns="http://www.w3.org/2000/svg">
<path fill-rule="evenodd" clip-rule="evenodd" d="M4.29289 9.29289C4.68342 8.90237 5.31658 8.90237 5.70711 9.29289L8 11.5858L14.2929 5.29289C14.6834 4.90237 15.3166 4.90237 15.7071 5.29289C16.0976 5.68342 16.0976 6.31658 15.7071 6.70711L8.70711 13.7071C8.31658 14.0976 7.68342 14.0976 7.29289 13.7071L4.29289 10.7071C3.90237 10.3166 3.90237 9.68342 4.29289 9.29289ZM3 2C2.44771 2 2 2.44772 2 3V17C2 17.5523 2.44772 18 3 18H17C17.5523 18 18 17.5523 18 17V3C18 2.44772 17.5523 2 17 2H3ZM3 0C1.34315 0 0 1.34315 0 3V17C0 18.6569 1.34315 20 3 20H17C18.6569 20 20 18.6569 20 17V3C20 1.34315 18.6569 0 17 0H3Z" fill="#6F9396"/>
</svg>
