<svg width="30" height="30" viewBox="0 0 30 30" fill="none" xmlns="http://www.w3.org/2000/svg">
<path fill-rule="evenodd" clip-rule="evenodd" d="M14.9999 3.00004C8.37197 3.00004 2.99992 8.3721 2.99992 15C2.99992 21.6266 8.37207 27 14.9999 27C21.6264 27 26.9999 21.6265 26.9999 15C26.9999 8.37219 21.6265 3.00004 14.9999 3.00004ZM0.333252 15C0.333252 6.89934 6.89921 0.333374 14.9999 0.333374C23.0991 0.333374 29.6666 6.89924 29.6666 15C29.6666 23.0993 23.0992 29.6667 14.9999 29.6667C6.89912 29.6667 0.333252 23.0992 0.333252 15Z" fill="#395B65"/>
<path fill-rule="evenodd" clip-rule="evenodd" d="M14.9935 8.60547C15.7299 8.60547 16.3268 9.20242 16.3268 9.9388V15.8308C16.3268 16.5672 15.7299 17.1641 14.9935 17.1641C14.2571 17.1641 13.6602 16.5672 13.6602 15.8308V9.9388C13.6602 9.20242 14.2571 8.60547 14.9935 8.60547Z" fill="#395B65"/>
<path fill-rule="evenodd" clip-rule="evenodd" d="M13.6597 20.0614C13.6597 19.325 14.2566 18.728 14.993 18.728H15.0063C15.7427 18.728 16.3397 19.325 16.3397 20.0614C16.3397 20.7977 15.7427 21.3947 15.0063 21.3947H14.993C14.2566 21.3947 13.6597 20.7977 13.6597 20.0614Z" fill="#395B65"/>
</svg>
