<svg width="484" height="473" viewBox="0 0 484 473" fill="none" xmlns="http://www.w3.org/2000/svg">
<path d="M365.491 423.787C365.491 423.787 382.11 423.696 400.54 398.022C416.644 375.569 386.076 306.056 368.941 290.067C351.807 274.079 318.454 361.403 322.328 383.523C327.841 415.042 351.6 422.985 365.491 423.787Z" fill="#DADFD9"/>
<path d="M392.46 380.601L366.879 406.033L369.457 470.836H360.987C360.884 470.389 361.205 425.747 361.48 373.678L341.87 354.87C343.36 354.87 340.724 352.325 340.426 352.073L361.572 366.721C361.744 334.182 361.904 307.981 361.904 307.981L363.818 305.586L364.884 340.383L382.97 327.363C382.707 327.615 380.036 330.159 381.526 330.159L365.068 346.526L366.604 396.658L394.523 376.566C394.145 376.956 390.317 380.601 392.46 380.601Z" stroke="#263238" stroke-miterlimit="10"/>
<path d="M441.527 444.888C441.527 444.888 461.744 443.432 471.83 424.257C482.719 403.524 456.163 354.343 442.593 350.698C427.693 346.675 404.174 385.976 408.988 416.509C412.289 437.346 432.186 444.361 441.527 444.888Z" fill="#DADFD9"/>
<path d="M456.702 407.294L442.605 418.492C442.169 392.2 441.802 371.202 441.802 371.202L440.072 369.231L439.43 396.085V396.669L427.464 387.283C427.464 387.283 429.378 389.231 428.392 389.243L439.281 401.082L438.547 431.959L420.473 417.736C420.473 417.736 423.178 420.498 421.791 420.509L438.375 438.549L438.284 442.114L438.18 445.953L437.619 470.309L443.464 470.24C443.327 462.412 443.201 454.194 443.074 445.988C442.96 438.996 442.822 431.993 442.731 425.266C442.731 424.761 442.731 424.291 442.731 423.799L455.682 409.621C454.49 409.632 456.702 407.294 456.702 407.294Z" stroke="#263238" stroke-miterlimit="10"/>
<path d="M416.346 459.959C414.467 458.446 411.086 458.481 408.117 458.607C408.335 456.716 409.126 454.847 409.355 452.945C409.537 451.963 409.439 450.951 409.072 450.022C408.705 449.094 408.084 448.288 407.281 447.696C404.026 445.403 398.295 446.297 393.802 447.604C394.421 443.157 389.687 438.824 383.349 438.137C377.011 437.449 369.962 440.544 368.106 444.888C365.538 442.435 360.415 441.449 356.14 442.595C351.865 443.741 348.828 446.939 349.045 450.022C345.767 449.804 342.111 449.655 339.395 451.065C335.406 453.151 335.681 457.369 332.61 460.097C331.617 459.907 330.592 459.99 329.644 460.338C328.695 460.685 327.858 461.283 327.223 462.068C326.18 463.432 325.996 464.991 325.366 466.458C324.082 469.392 319.819 469.759 315.75 471.042L417.573 471.891C419.785 471.18 421.676 469.667 421.584 468.028C421.493 466.389 418.753 465.06 416.633 465.873C417.367 465.908 418.536 461.701 416.346 459.959Z" fill="#DADFD9"/>
<path d="M462.123 464.418C460.977 463.501 458.891 463.512 457.08 463.593C457.206 462.447 457.687 461.3 457.836 460.154C457.949 459.552 457.889 458.93 457.664 458.361C457.439 457.791 457.058 457.296 456.564 456.934C454.57 455.535 451.051 456.074 448.3 456.876C448.679 454.149 445.779 451.489 441.894 451.077C438.008 450.664 433.687 452.544 432.553 455.203C430.982 453.702 427.83 453.106 425.217 453.816C422.604 454.527 420.736 456.475 420.873 458.401C418.856 458.263 416.621 458.16 414.959 459.031C412.507 460.315 412.667 462.894 410.799 464.567C410.188 464.451 409.558 464.503 408.975 464.717C408.392 464.931 407.877 465.299 407.487 465.782C406.993 466.624 406.608 467.525 406.34 468.464C405.561 470.263 402.902 470.481 400.449 471.272L462.856 471.788C464.209 471.352 465.366 470.424 465.321 469.427C465.275 468.429 463.578 467.604 462.283 468.108C462.742 468.074 463.464 465.495 462.123 464.418Z" fill="#DADFD9"/>
<path d="M210.054 266.422C207.241 264.493 203.953 263.37 200.548 263.174C197.142 262.979 193.747 263.718 190.732 265.313C187.716 266.907 185.194 269.296 183.438 272.221C181.682 275.146 180.76 278.495 180.77 281.907V282.021C180.201 281.292 179.484 280.691 178.666 280.259C177.847 279.826 176.947 279.572 176.023 279.512C175.1 279.453 174.174 279.589 173.307 279.913C172.441 280.237 171.652 280.741 170.994 281.391C170.601 277.645 168.787 274.193 165.926 271.744C163.064 269.295 159.373 268.037 155.611 268.228C151.85 268.418 148.305 270.044 145.706 272.77C143.107 275.496 141.652 279.115 141.641 282.881C141.027 282.448 140.314 282.178 139.567 282.096C138.82 282.014 138.065 282.123 137.372 282.412C136.679 282.702 136.071 283.163 135.605 283.753C135.138 284.342 134.83 285.04 134.707 285.781H238.857C238.856 283.267 238.135 280.807 236.779 278.691C235.423 276.575 233.489 274.892 231.205 273.841C228.922 272.791 226.386 272.416 223.896 272.763C221.407 273.11 219.069 274.163 217.16 275.798C216.529 273.992 215.629 272.292 214.49 270.755" stroke="#263238" stroke-linecap="round" stroke-linejoin="round"/>
<path d="M389.033 129.344C392.458 128.148 396.12 127.789 399.712 128.297C403.304 128.805 406.722 130.165 409.681 132.265C412.64 134.364 415.053 137.141 416.719 140.363C418.385 143.586 419.255 147.161 419.257 150.789V150.926C419.949 150.042 420.819 149.314 421.812 148.79C422.804 148.266 423.896 147.958 425.016 147.885C426.136 147.813 427.259 147.978 428.311 148.37C429.363 148.761 430.32 149.371 431.12 150.158C431.631 145.64 433.847 141.486 437.314 138.544C440.781 135.602 445.24 134.093 449.782 134.324C454.323 134.555 458.606 136.508 461.757 139.787C464.908 143.065 466.691 147.422 466.742 151.969C467.643 151.321 468.726 150.976 469.836 150.983C471.113 150.98 472.35 151.432 473.324 152.257C474.298 153.082 474.947 154.228 475.154 155.488H348.77C348.761 152.43 349.631 149.434 351.277 146.857C352.924 144.28 355.276 142.231 358.055 140.954C360.833 139.678 363.921 139.227 366.948 139.656C369.976 140.084 372.816 141.375 375.131 143.373C376.276 140.069 378.166 137.073 380.655 134.617" stroke="#263238" stroke-linecap="round" stroke-linejoin="round"/>
<path d="M1.1582 102.96H127.543C127.552 99.9026 126.681 96.9067 125.035 94.3299C123.389 91.7531 121.036 89.7041 118.257 88.4272C115.479 87.1503 112.392 86.6994 109.364 87.1282C106.337 87.557 103.496 88.8475 101.182 90.8458C99.4256 85.7734 95.9293 81.4871 91.3131 78.7477C86.697 76.0083 81.2596 74.993 75.9659 75.8819C70.6722 76.7708 65.8647 79.5065 62.3965 83.6034C58.9283 87.7003 57.0238 92.8935 57.0209 98.2613V98.3988C56.3294 97.5148 55.4588 96.787 54.4663 96.2629C53.4738 95.7389 52.3817 95.4305 51.2617 95.358C50.1416 95.2855 49.0189 95.4505 47.9671 95.8422C46.9153 96.2339 45.9582 96.8435 45.1584 97.6309C44.6467 93.1124 42.4315 88.959 38.964 86.017C35.4966 83.0749 31.038 81.5655 26.4964 81.7964C21.9549 82.0273 17.6723 83.981 14.5211 87.2596C11.3699 90.5381 9.58733 94.8947 9.53647 99.4418C8.63544 98.7937 7.5518 98.4485 6.4419 98.4561C5.17081 98.461 3.94257 98.9162 2.97527 99.7408C2.00796 100.565 1.36417 101.706 1.1582 102.96Z" fill="white" stroke="#263238" stroke-miterlimit="10"/>
<path d="M169.594 147.637L173.514 172.141" stroke="#DADFD9" stroke-miterlimit="10"/>
<path d="M154.775 156.313L171.085 176.061" stroke="#DADFD9" stroke-miterlimit="10"/>
<path d="M152.195 173.081L167.462 179.052" stroke="#DADFD9" stroke-miterlimit="10"/>
<path d="M74.7402 215.729V196.852" stroke="#263238" stroke-linecap="round" stroke-linejoin="round"/>
<path d="M30.293 215.729H74.7402V201.803H30.293V215.729Z" fill="white" stroke="#263238" stroke-linecap="round" stroke-linejoin="round"/>
<path d="M30.293 215.729V196.852" stroke="#263238" stroke-linecap="round" stroke-linejoin="round"/>
<path d="M186.695 471.111H276.529V314.686H186.695V471.111Z" fill="white" stroke="#263238" stroke-linecap="round" stroke-linejoin="round"/>
<path d="M97.1482 471.111H186.982L186.982 256.692H97.1482L97.1482 471.111Z" fill="white" stroke="#263238" stroke-linecap="round" stroke-linejoin="round"/>
<path d="M6.90012 471.123H96.7344L96.7344 215.351H6.90012L6.90012 471.123Z" fill="white" stroke="#263238" stroke-linecap="round" stroke-linejoin="round"/>
<path d="M80.0117 231.477V461.426" stroke="#DADFD9" stroke-linecap="round" stroke-linejoin="round"/>
<path d="M60.3672 231.477V461.426" stroke="#DADFD9" stroke-linecap="round" stroke-linejoin="round"/>
<path d="M40.7227 231.477V461.426" stroke="#DADFD9" stroke-linecap="round" stroke-linejoin="round"/>
<path d="M21.0898 231.477V461.426" stroke="#DADFD9" stroke-linecap="round" stroke-linejoin="round"/>
<path d="M172.07 267.763V289.162V310.548V331.947V353.334V374.744V396.142V417.529V438.927V460.326V460.738" stroke="#DADFD9" stroke-linecap="round" stroke-linejoin="round"/>
<path d="M152.426 267.763V289.162V310.548V331.947V353.334V374.744V396.142V417.529V438.927V460.326V460.738" stroke="#DADFD9" stroke-linecap="round" stroke-linejoin="round"/>
<path d="M132.77 267.763V289.162V310.548V331.947V353.334V374.744V396.142V417.529V438.927V460.326V460.738" stroke="#DADFD9" stroke-linecap="round" stroke-linejoin="round"/>
<path d="M113.137 267.763V289.162V310.548V331.947V353.334V374.744V396.142V417.529V438.927V460.326V460.738" stroke="#DADFD9" stroke-linecap="round" stroke-linejoin="round"/>
<path d="M172.071 267.763H168.22H149.859H131.486H113.137" stroke="#DADFD9" stroke-linecap="round" stroke-linejoin="round"/>
<path d="M172.071 289.162H168.22H149.859H131.486H113.137" stroke="#DADFD9" stroke-linecap="round" stroke-linejoin="round"/>
<path d="M172.071 310.549H168.22H149.859H131.486H113.137" stroke="#DADFD9" stroke-linecap="round" stroke-linejoin="round"/>
<path d="M172.071 331.947H168.22H149.859H131.486H113.137" stroke="#DADFD9" stroke-linecap="round" stroke-linejoin="round"/>
<path d="M172.071 353.334H168.22H149.859H131.486H113.137" stroke="#DADFD9" stroke-linecap="round" stroke-linejoin="round"/>
<path d="M172.071 374.744H168.22H149.859H131.486H113.137" stroke="#DADFD9" stroke-linecap="round" stroke-linejoin="round"/>
<path d="M172.071 396.142H168.22H149.859H131.486H113.137" stroke="#DADFD9" stroke-linecap="round" stroke-linejoin="round"/>
<path d="M172.071 417.529H168.22H149.859H131.486H113.137" stroke="#DADFD9" stroke-linecap="round" stroke-linejoin="round"/>
<path d="M172.071 438.928H168.22H149.859H131.486H113.137" stroke="#DADFD9" stroke-linecap="round" stroke-linejoin="round"/>
<path d="M172.071 460.326H168.22H149.859H131.486H113.137" stroke="#DADFD9" stroke-linecap="round" stroke-linejoin="round"/>
<path d="M267.739 327.592H199.83" stroke="#DADFD9" stroke-linecap="round" stroke-linejoin="round"/>
<path d="M267.739 348.99H199.83" stroke="#DADFD9" stroke-linecap="round" stroke-linejoin="round"/>
<path d="M267.739 370.377H199.83" stroke="#DADFD9" stroke-linecap="round" stroke-linejoin="round"/>
<path d="M267.739 391.775H199.83" stroke="#DADFD9" stroke-linecap="round" stroke-linejoin="round"/>
<path d="M267.739 413.174H199.83" stroke="#DADFD9" stroke-linecap="round" stroke-linejoin="round"/>
<path d="M267.739 434.572H199.83" stroke="#DADFD9" stroke-linecap="round" stroke-linejoin="round"/>
<path d="M267.739 455.959H199.83" stroke="#DADFD9" stroke-linecap="round" stroke-linejoin="round"/>
<path d="M475.155 471.788H434.077H429.298H1.1582" stroke="#263238" stroke-linecap="round" stroke-linejoin="round"/>
<path d="M157.228 470.458C156.62 470.744 152.208 470.905 146.58 470.997C135.119 471.191 118.626 471.1 118.626 471.1C118.626 471.1 117.732 471.1 117.388 466.63C117.044 462.16 119.245 458.607 119.497 456.739C120.643 448.165 117.72 444.59 117.674 443.959C117.629 443.329 133.72 442.973 133.72 442.973L138.993 442.618L137.846 450.16C137.775 450.588 137.736 451.021 137.732 451.455C137.623 454.122 138.459 456.742 140.092 458.853C141.725 460.965 144.051 462.432 146.66 462.996H146.901C147.279 462.641 153.778 459.638 156.437 463.787C157.892 466.045 157.228 470.458 157.228 470.458Z" fill="#263238"/>
<path opacity="0.2" d="M157.228 470.458C156.62 470.744 152.208 470.905 146.58 470.997C135.119 471.191 118.626 471.1 118.626 471.1C118.626 471.1 117.732 471.1 117.388 466.63C117.044 462.16 119.245 458.607 119.497 456.739C120.643 448.165 117.72 444.59 117.674 443.959C117.629 443.329 133.72 442.973 133.72 442.973L138.993 442.618L137.846 450.16C137.775 450.588 137.736 451.021 137.732 451.455C137.623 454.122 138.459 456.742 140.092 458.853C141.725 460.965 144.051 462.432 146.66 462.996H146.901C147.279 462.641 153.778 459.638 156.437 463.787C157.892 466.045 157.228 470.458 157.228 470.458Z" fill="white"/>
<path opacity="0.3" d="M146.58 471.019C135.119 471.214 118.626 471.123 118.626 471.123C118.626 471.123 117.732 471.123 117.388 466.653C117.044 462.183 119.245 458.63 119.497 456.762C120.643 448.188 117.72 444.612 117.674 443.982C117.629 443.352 133.72 442.996 133.72 442.996L138.993 442.641L137.846 450.183C137.775 450.611 137.736 451.044 137.732 451.478C134.099 454.481 131.21 456.899 131.21 456.899C131.21 456.899 145.938 461.759 146.58 471.019Z" fill="black"/>
<path d="M157.228 470.458C156.62 470.744 152.208 470.905 146.58 470.997C135.119 471.191 118.626 471.1 118.626 471.1C118.626 471.1 117.732 471.1 117.388 466.63C117.044 462.16 119.245 458.607 119.497 456.739C120.643 448.165 117.72 444.59 117.674 443.959C117.629 443.329 133.72 442.973 133.72 442.973L138.993 442.618L137.846 450.16C137.775 450.588 137.736 451.021 137.732 451.455C137.623 454.122 138.459 456.742 140.092 458.853C141.725 460.965 144.051 462.432 146.66 462.996H146.901C147.279 462.641 153.778 459.638 156.437 463.787C157.892 466.045 157.228 470.458 157.228 470.458Z" stroke="#263238" stroke-linecap="round" stroke-linejoin="round"/>
<path d="M142.477 432.761C143.016 435.638 144.357 436.452 143.486 437.804C143.36 438.01 143.234 438.251 143.108 438.503C142.431 439.901 141.709 441.873 139.05 442.618C135.921 443.5 120.941 444.314 117.709 443.913C114.477 443.512 112.643 440.475 112.46 437.907C112.277 435.34 113.675 433.735 113.457 430.858C113.239 427.982 110.993 427.145 110.844 425.231C110.695 423.317 112.552 420.532 112.529 418.618C112.529 414.583 112.597 418.984 113.4 396.05C113.847 382.973 117.01 380.13 113.4 365.299C112.093 359.947 98.0645 263.041 98.0645 263.041L141.331 265.631C141.331 265.631 142.019 282.136 142.798 301.631C143.784 326.434 144.919 356.073 144.953 362.743C145.022 376.291 143.807 395.271 142.787 412.119C142.363 419.305 141.641 424.257 142.787 427.019C142.923 427.307 143.004 427.618 143.027 427.936C143.222 429.758 141.927 429.884 142.477 432.761Z" fill="#DADFD9"/>
<path opacity="0.3" d="M143.108 438.503C142.431 439.901 141.709 441.873 139.05 442.618C135.921 443.5 120.941 444.314 117.709 443.913C114.477 443.512 112.643 440.475 112.46 437.907C112.277 435.34 113.675 433.735 113.457 430.858C113.239 427.982 110.993 427.145 110.844 425.231C110.695 423.317 112.552 420.532 112.529 418.618C112.529 414.583 112.597 418.984 113.4 396.05C113.847 382.973 117.01 380.13 113.4 365.299C112.093 359.947 98.0645 263.041 98.0645 263.041L141.331 265.631C141.331 265.631 142.019 282.136 142.798 301.631C137.583 323.316 131.532 347.179 129.262 351.19L132.838 357.437C132.838 357.437 124.288 377.277 124.288 379.672C124.288 382.067 127.176 404.474 128.173 409.128C129.171 413.781 124.288 410.469 124.288 414.388C124.288 417.999 123.898 435.569 143.108 438.503Z" fill="black"/>
<path d="M142.477 432.761C143.016 435.638 144.357 436.452 143.486 437.804C143.36 438.01 143.234 438.251 143.108 438.503C142.431 439.901 141.709 441.873 139.05 442.618C135.921 443.5 120.941 444.314 117.709 443.913C114.477 443.512 112.643 440.475 112.46 437.907C112.277 435.34 113.675 433.735 113.457 430.858C113.239 427.982 110.993 427.145 110.844 425.231C110.695 423.317 112.552 420.532 112.529 418.618C112.529 414.583 112.597 418.984 113.4 396.05C113.847 382.973 117.01 380.13 113.4 365.299C112.093 359.947 98.0645 263.041 98.0645 263.041L141.331 265.631C141.331 265.631 142.019 282.136 142.798 301.631C143.784 326.434 144.919 356.073 144.953 362.744C145.022 376.291 143.807 395.271 142.787 412.119C142.363 419.305 141.641 424.257 142.787 427.019C142.923 427.307 143.004 427.618 143.027 427.936C143.222 429.758 141.927 429.884 142.477 432.761Z" stroke="#263238" stroke-linecap="round" stroke-linejoin="round"/>
<path d="M139.164 296.956C139.164 296.956 133.857 301.54 129.33 300.715" stroke="#263238" stroke-linecap="round" stroke-linejoin="round"/>
<path d="M138.638 305.62C138.638 305.62 129.698 303.466 128.678 301.655" stroke="#263238" stroke-linecap="round" stroke-linejoin="round"/>
<path d="M127.176 346.457C127.176 346.457 132.001 359.065 137.365 362.113" stroke="#263238" stroke-linecap="round" stroke-linejoin="round"/>
<path d="M137.606 430.137C137.606 430.137 126.89 433.449 121.56 431.031C116.231 428.612 125.767 436.567 135.784 435.867" stroke="#263238" stroke-linecap="round" stroke-linejoin="round"/>
<path d="M122.432 372.979C122.432 372.979 122.523 406.503 131.268 413.174" stroke="#263238" stroke-linecap="round" stroke-linejoin="round"/>
<path d="M131.416 448.154C133.484 447.329 135.678 446.868 137.903 446.79" stroke="#263238" stroke-linecap="round" stroke-linejoin="round"/>
<path d="M131.611 452.498C131.611 452.498 134.717 451.352 136.964 450.893" stroke="#263238" stroke-linecap="round" stroke-linejoin="round"/>
<path d="M132.197 456.658L137.206 455.157" stroke="#263238" stroke-linecap="round" stroke-linejoin="round"/>
<path d="M134.637 460.062L138.751 458.446" stroke="#263238" stroke-linecap="round" stroke-linejoin="round"/>
<path d="M139.303 462.985L141.698 461.14" stroke="#263238" stroke-linecap="round" stroke-linejoin="round"/>
<path d="M132.449 444.016C132.449 444.016 132.048 455.477 135.669 459.248C139.291 463.019 143.131 463.099 142.798 464.543" stroke="#263238" stroke-linecap="round" stroke-linejoin="round"/>
<path d="M99.4053 442.675C99.4053 442.675 83.1989 443.008 83.1416 443.649C83.0843 444.291 85.4339 447.856 82.7634 456.417C82.1903 458.286 79.325 461.827 78.9582 466.286C78.5914 470.744 79.4281 470.744 79.4281 470.744C79.4281 470.744 116.105 470.95 118.133 470.114C118.133 470.114 119.554 465.713 118.511 463.523C116.448 459.18 108.872 462.687 109.113 462.733H108.872C103.222 461.483 100.38 455.856 102.305 449.896L104.746 442.366L99.4053 442.675Z" fill="#263238"/>
<path opacity="0.25" d="M99.4053 442.675C99.4053 442.675 83.1989 443.008 83.1416 443.649C83.0843 444.291 85.4339 447.856 82.7634 456.417C82.1903 458.286 79.325 461.827 78.9582 466.286C78.5914 470.744 79.4281 470.744 79.4281 470.744C79.4281 470.744 116.105 470.95 118.133 470.114C118.133 470.114 119.554 465.713 118.511 463.523C116.448 459.18 108.872 462.687 109.113 462.733H108.872C103.222 461.483 100.38 455.856 102.305 449.896L104.746 442.366L99.4053 442.675Z" fill="white"/>
<path d="M99.4053 442.675C99.4053 442.675 83.1989 443.008 83.1416 443.649C83.0843 444.291 85.4339 447.856 82.7634 456.417C82.1903 458.286 79.325 461.827 78.9582 466.286C78.5914 470.744 79.4281 470.744 79.4281 470.744C79.4281 470.744 116.105 470.95 118.133 470.114C118.133 470.114 119.554 465.713 118.511 463.523C116.448 459.18 108.872 462.687 109.113 462.733H108.872C103.222 461.483 100.38 455.856 102.305 449.896L104.746 442.366L99.4053 442.675Z" stroke="#263238" stroke-linecap="round" stroke-linejoin="round"/>
<path d="M137.491 265.631L94.6714 263.041C94.6714 263.041 92.0467 359.786 92.3791 365.127C93.445 379.936 89.8003 382.767 87.0954 395.832C82.3504 418.755 82.9922 414.331 82.3504 418.354C82.0409 420.268 79.7028 423.053 79.5194 424.967C79.336 426.881 81.4449 427.718 81.1699 430.583C80.8948 433.449 79.1985 435.076 78.9578 437.621C78.7171 440.165 80.0123 443.214 83.1756 443.615C86.3389 444.016 101.514 443.202 104.746 442.32C107.978 441.437 108.906 438.881 110.007 437.518C111.107 436.154 109.915 435.351 109.858 432.475C109.8 429.598 111.096 429.517 111.267 427.638C111.299 427.33 111.272 427.019 111.187 426.721C110.488 423.982 112.07 419.042 113.72 411.821C117.617 395.007 122.121 376.05 124.368 362.537C125.514 355.798 129.537 325.609 132.838 300.646C132.838 300.646 136.001 295.545 137.606 285.666" fill="#DADFD9"/>
<path opacity="0.3" d="M94.5345 266.399L94.1562 280.852C101.403 281.44 108.686 281.44 115.933 280.852C130.076 279.591 138.684 273.322 138.684 273.322L137.538 265.631C137.538 265.631 121.492 269.952 113.595 269.345C105.698 268.737 98.1333 267.786 94.5345 266.399Z" fill="black"/>
<path d="M137.491 265.631L94.6714 263.041C94.6714 263.041 92.0467 359.786 92.3791 365.127C93.445 379.936 89.8003 382.767 87.0954 395.832C82.3504 418.755 82.9922 414.331 82.3504 418.354C82.0409 420.268 79.7028 423.053 79.5194 424.967C79.336 426.881 81.4449 427.718 81.1699 430.583C80.8948 433.449 79.1985 435.076 78.9578 437.621C78.7171 440.165 80.0123 443.214 83.1756 443.615C86.3389 444.016 101.514 443.202 104.746 442.32C107.978 441.437 108.906 438.881 110.007 437.518C111.107 436.154 109.915 435.351 109.858 432.475C109.8 429.598 111.096 429.517 111.267 427.638C111.299 427.33 111.272 427.019 111.187 426.721C110.488 423.982 112.07 419.042 113.72 411.821C117.617 395.007 122.121 376.05 124.368 362.537C125.514 355.798 129.537 325.609 132.838 300.646C132.838 300.646 136.001 295.545 137.606 285.666" stroke="#263238" stroke-linecap="round" stroke-linejoin="round"/>
<path d="M116.333 382.641C116.333 382.641 101.525 407.856 86.9121 416.096" stroke="#263238" stroke-linecap="round" stroke-linejoin="round"/>
<path d="M86.6602 430.137L102.557 432.142C103.703 432.291 105.182 432.75 105.067 433.965C104.953 435.18 103.726 435.73 102.672 436.108C99.1322 437.428 95.2845 437.687 91.6 436.853" stroke="#263238" stroke-linecap="round" stroke-linejoin="round"/>
<path d="M87.1309 422.492C92.8414 425.766 99.2884 427.54 105.87 427.649" stroke="#263238" stroke-linecap="round" stroke-linejoin="round"/>
<path d="M97.1023 376.6C97.1023 376.6 105.125 376.91 109.251 376.543C106.191 380.738 101.228 382.56 96.4375 382.801" stroke="#263238" stroke-linecap="round" stroke-linejoin="round"/>
<path d="M103.107 275.03C103.107 275.03 101.961 316.222 101.549 333.357C101.136 350.491 100.403 370.469 100.403 370.469C100.014 371.08 99.7495 371.763 99.6256 372.477C99.5016 373.191 99.5203 373.922 99.6805 374.629L100.322 376.738L99.9785 382.686C99.518 383.227 99.1835 383.863 98.9992 384.549C98.8148 385.235 98.7852 385.953 98.9126 386.652C99.4628 388.818 95.0158 403.913 95.0158 403.913L94.2478 404.91C93.4624 405.85 92.9369 406.98 92.7238 408.187C92.5106 409.393 92.6172 410.634 93.0329 411.787L91.4398 424.715C90.5833 425.416 90.0094 426.404 89.824 427.495C89.6386 428.586 89.8543 429.708 90.4312 430.652V430.652L88.9412 437.392C88.1853 438.033 87.6799 438.92 87.5143 439.897C87.3486 440.874 87.5333 441.878 88.0358 442.733L88.2879 443.111" stroke="#263238" stroke-linecap="round" stroke-linejoin="round"/>
<path d="M177.274 199.064C176.128 201.574 166.362 208.233 166.362 208.233C166.354 207.133 166.589 206.045 167.05 205.047C167.749 203.969 168.196 202.938 168.643 202.296C168.759 200.556 168.187 198.84 167.05 197.517C165.721 196.038 164.678 199.729 164.093 202.181C163.509 204.634 159.68 208.371 159.852 210.204C160.185 212.313 160.609 214.388 161.148 216.451C161.148 216.451 144.815 222.182 143.016 218.743C139.205 211.357 134.997 204.183 130.408 197.253C126.569 202.617 129.594 210.021 131.761 219.121C133.927 228.222 140.597 240.967 140.597 240.967C152.54 235.236 166.11 220.336 166.11 220.336C166.11 220.336 169.297 218.915 173.239 217.563C177.182 216.21 176.609 215.053 177.239 211.179C177.87 207.305 181.182 202.01 180.987 200.015C180.792 198.021 178.443 196.565 177.274 199.064Z" fill="white" stroke="#263238" stroke-linecap="round" stroke-linejoin="round"/>
<path d="M138.638 218.422C138.489 226.72 140.128 254.858 141.904 266.021L93.2968 264.795V263.981C96.8612 250.778 94.546 236.474 88.9185 224.061C85.9386 217.471 84.609 209.047 83.0732 201.07C79.1649 180.76 88.9758 174.468 97.1707 173.689C100.334 173.54 100.609 171.396 102.901 171.568C104.484 171.76 106.089 171.564 107.578 170.995C108.598 175.156 114.248 187.373 116.185 188.772C117.126 189.514 118.268 189.957 119.464 190.043C120.659 190.129 121.853 189.854 122.89 189.253C124.838 187.889 125.377 185.287 125.824 182.949C126.025 181.682 126.387 180.446 126.901 179.27C129.767 180.703 134.764 182.399 138.477 189.081C143.062 203.832 140.541 194.376 144.071 216.015C144.678 219.328 138.638 218.422 138.638 218.422Z" fill="white" stroke="#263238" stroke-linecap="round" stroke-linejoin="round"/>
<path d="M130.993 180.026L126.294 178.387C129.48 189.333 126.718 201.768 118.66 196.852C110.603 191.935 107.405 177.803 104.998 171.637C103.738 171.247 98.6144 171.063 95.9553 173.104C98.729 178.181 106.271 188.267 105.388 196.462C104.379 205.631 97.1702 213.769 83.7031 204.554C85.5369 218.445 91.3593 228.462 92.4825 233.207C96.5857 250.399 93.8464 252.749 91.9324 269.711C111.417 279.648 134.993 274.709 145.319 271.683C142.168 254.399 143.554 210.846 130.993 180.026Z" fill="#DADFD9"/>
<path opacity="0.3" d="M101.295 252.99C101.295 252.99 133.077 266.858 137.605 253.391C129.262 255.203 120.669 255.556 112.206 254.434L101.295 252.99Z" fill="black"/>
<path opacity="0.3" d="M90.0293 222.984L113.124 204.646C113.124 204.646 117.709 217.253 105.422 224.485C97.1124 229.379 90.0293 222.984 90.0293 222.984Z" fill="black"/>
<path d="M130.993 180.026L126.294 178.387C129.48 189.333 126.718 201.768 118.66 196.852C110.603 191.935 107.405 177.803 104.998 171.637C103.738 171.247 98.6144 171.063 95.9553 173.104C98.729 178.181 106.271 188.267 105.388 196.462C104.379 205.631 97.1702 213.769 83.7031 204.554C85.5369 218.445 91.3593 228.462 92.4825 233.207C96.5857 250.399 93.8464 252.749 91.9324 269.711C111.417 279.648 134.993 274.709 145.319 271.683C142.168 254.399 143.554 210.846 130.993 180.026Z" stroke="#263238" stroke-linecap="round" stroke-linejoin="round"/>
<path d="M137.605 252.944C137.407 253.807 137.014 254.613 136.455 255.3C135.897 255.988 135.189 256.538 134.385 256.909" stroke="#263238" stroke-linecap="round" stroke-linejoin="round"/>
<path d="M129.263 258.147C119.596 259.028 109.881 257.085 101.297 252.554" stroke="#263238" stroke-linecap="round" stroke-linejoin="round"/>
<path d="M173.802 180.473L163.853 207.007C163.677 207.48 163.611 207.987 163.661 208.49C163.71 208.992 163.874 209.477 164.14 209.906L165.985 212.863C166.891 214.319 170.088 214.754 171.464 213.815C171.966 213.477 172.364 213.004 172.61 212.451L182.421 185.941C182.675 185.334 182.743 184.666 182.617 184.021C182.49 183.377 182.175 182.784 181.71 182.319L178.616 179.327C178.335 179.047 178 178.828 177.631 178.683C177.262 178.538 176.868 178.471 176.472 178.486C176.076 178.502 175.687 178.598 175.33 178.771C174.973 178.943 174.656 179.187 174.398 179.488C174.14 179.777 173.938 180.111 173.802 180.473Z" fill="#263238"/>
<path d="M83.6797 187.614C83.917 191.574 84.8724 195.457 86.4992 199.075C91.2786 210.445 109.525 238.743 113.525 240.657C117.525 242.571 158.408 220.565 161.365 217.551C162.206 216.612 162.772 215.46 163.002 214.221C163.233 212.982 163.118 211.703 162.671 210.525C162.671 210.525 162.614 213.345 165.021 212.817C166.534 212.485 165.285 207.809 165.285 207.809C165.285 207.809 168.058 205.849 165.411 202.227C165.411 202.227 169.147 202.227 168.849 199.408C168.746 198.261 157.743 198.112 156.058 201.287C154.007 205.138 151.967 215.178 151.967 215.178C151.967 215.178 125.33 222.055 119.806 223.075L105.399 191.476" fill="white"/>
<path d="M83.6797 187.614C83.917 191.574 84.8724 195.457 86.4992 199.075C91.2786 210.445 109.525 238.743 113.525 240.657C117.525 242.571 158.408 220.565 161.365 217.551C162.206 216.612 162.772 215.46 163.002 214.221C163.233 212.982 163.118 211.703 162.671 210.525C162.671 210.525 162.614 213.345 165.021 212.817C166.534 212.485 165.285 207.809 165.285 207.809C165.285 207.809 168.058 205.849 165.411 202.227C165.411 202.227 169.147 202.227 168.849 199.408C168.746 198.261 157.743 198.112 156.058 201.287C154.007 205.138 151.967 215.178 151.967 215.178C151.967 215.178 125.33 222.055 119.806 223.075L105.399 191.476" stroke="#263238" stroke-linecap="round" stroke-linejoin="round"/>
<path d="M161.789 219.259C162.619 217.167 164.051 215.368 165.904 214.09C168.058 213.07 171.027 212.749 173.377 212.302C173.377 212.302 175.21 204.531 176.207 204.749C179.245 205.379 176.872 212.519 176.872 212.519" fill="white"/>
<path d="M161.789 219.259C162.619 217.167 164.051 215.368 165.904 214.09C168.058 213.07 171.027 212.749 173.377 212.302C173.377 212.302 175.21 204.531 176.207 204.749C179.245 205.379 176.872 212.519 176.872 212.519" stroke="#263238" stroke-linecap="round" stroke-linejoin="round"/>
<path d="M180.53 201.952C180.138 201.56 179.613 201.33 179.059 201.306C178.505 201.283 177.962 201.468 177.538 201.826C176.06 203.167 173.813 206.961 171.418 208.99" stroke="#263238" stroke-linecap="round" stroke-linejoin="round"/>
<path d="M159.268 210.113C159.921 208.668 164.563 206.227 165.48 209.356" stroke="#263238" stroke-linecap="round" stroke-linejoin="round"/>
<path d="M159.268 206.262C159.268 206.262 164.643 203.328 165.72 206.961" stroke="#263238" stroke-linecap="round" stroke-linejoin="round"/>
<path d="M159.943 202.823C159.943 202.823 162.178 202.387 162.671 202.342C164.448 202.17 166.385 201.94 167.347 201.94" stroke="#263238" stroke-linecap="round" stroke-linejoin="round"/>
<path d="M132.838 300.715C132.838 300.715 125.674 294.4 121.514 293.196L132.838 300.715Z" fill="#DADFD9"/>
<path d="M132.838 300.715C132.838 300.715 125.674 294.4 121.514 293.196" stroke="#263238" stroke-linecap="round" stroke-linejoin="round"/>
<path d="M96.666 448.223C98.7776 447.395 101.013 446.926 103.279 446.836" stroke="#263238" stroke-linecap="round" stroke-linejoin="round"/>
<path d="M96.5059 452.681C96.5059 452.681 99.7036 451.535 101.984 451.042" stroke="#263238" stroke-linecap="round" stroke-linejoin="round"/>
<path d="M96.7227 456.864L101.857 455.352" stroke="#263238" stroke-linecap="round" stroke-linejoin="round"/>
<path d="M98.8672 460.326L103.131 458.687" stroke="#263238" stroke-linecap="round" stroke-linejoin="round"/>
<path d="M103.279 463.294L105.835 461.426" stroke="#263238" stroke-linecap="round" stroke-linejoin="round"/>
<path d="M98.0645 444.016C98.0645 444.016 96.6662 455.707 99.9786 459.5C103.291 463.294 107.096 463.409 106.649 464.887" stroke="#263238" stroke-linecap="round" stroke-linejoin="round"/>
<path d="M125.846 177.917C125.846 177.917 130.683 196.771 122.924 198.204C112.345 200.152 104.998 171.602 104.998 171.602C106.614 171.499 106.809 170.823 108.219 170.021C108.219 170.021 120.035 193.654 125.846 177.917Z" fill="#263238"/>
<path d="M93.6748 174.342C93.6748 174.342 82.6146 176.531 82.5802 192.978C82.5458 209.425 89.8353 223.121 89.8353 223.121C89.8353 223.121 98.4657 222.422 103.921 218.422C115.383 210.055 113.526 205.356 113.526 205.356L107.52 193.459C107.52 193.459 105.549 185.838 96.9757 173.688L93.6748 174.342Z" fill="#263238"/>
<path d="M131.67 180.68C137.699 197.792 137.974 204.198 139.063 212.095C139.063 212.095 144.965 210.949 145.871 209.643C145.871 209.643 143.005 195.637 139.911 188.393C137.939 183.797 135.349 182.193 131.67 180.68Z" fill="#263238"/>
<path d="M125.836 161.253C125.836 161.253 124.976 176.932 125.034 178.192C125.137 180.565 126.856 183.717 125.274 185.493C124.402 186.315 123.303 186.856 122.12 187.046C120.937 187.236 119.724 187.067 118.638 186.559C116.488 185.49 114.628 183.917 113.217 181.975C110.499 178.645 108.14 175.038 106.18 171.212C107.491 169.951 108.454 168.371 108.976 166.628C108.976 166.628 109.286 165.298 109.297 165.23C109.697 161.999 109.654 158.729 109.171 155.51C108.623 151.527 107.698 147.605 106.409 143.797L125.836 161.253Z" fill="white" stroke="#263238" stroke-linecap="round" stroke-linejoin="round"/>
<path d="M109.537 176.221C112.25 177.107 114.881 178.227 117.4 179.568L109.537 176.221Z" fill="#263238"/>
<path d="M109.537 176.221C112.25 177.107 114.881 178.227 117.4 179.568" stroke="#263238" stroke-linecap="round" stroke-linejoin="round"/>
<path d="M107.141 123.327C107.141 123.327 97.376 128.909 102.43 143.476C107.485 158.044 118.751 174.319 128.964 172.13C139.176 169.941 141.823 149.654 136.425 136.13C131.027 122.605 117.273 115.121 107.141 123.327Z" fill="white" stroke="#263238" stroke-linecap="round" stroke-linejoin="round"/>
<path d="M136.265 150.215C136.334 151.362 135.864 152.416 135.222 152.508C134.58 152.599 133.996 151.591 133.927 150.399C133.858 149.207 134.305 148.21 134.97 148.164C135.635 148.118 136.196 149.012 136.265 150.215Z" fill="#263238"/>
<path d="M126.306 149.745C126.375 150.892 125.916 151.935 125.286 151.98C124.656 152.026 124.048 151.063 123.979 149.883C123.911 148.702 124.369 147.682 125.022 147.591C125.676 147.499 126.226 148.53 126.306 149.745Z" fill="#263238"/>
<path d="M130.054 125.837C123.509 119.465 114.604 117.493 107.475 123.258C107.475 123.258 97.721 128.84 102.775 143.419C104 146.894 105.483 150.273 107.211 153.528L107.394 153.688C107.394 153.688 104.185 150.491 116.919 143.453C121.102 141.092 127.28 126.364 130.054 125.837Z" fill="#263238" stroke="#263238" stroke-linecap="round" stroke-linejoin="round"/>
<path d="M119.83 130.617C119.83 130.617 120.724 120.473 127.784 120.129C131.463 119.946 136.323 124.886 136.953 127.488C137.349 129.249 138.247 130.858 139.539 132.12C140.831 133.381 142.461 134.241 144.231 134.594C144.231 134.594 142.191 141.471 138.214 141.975C131.647 142.777 128.243 141.241 124.002 135.453C122.818 133.773 121.483 132.204 120.013 130.766L119.83 130.617Z" fill="#263238" stroke="#263238" stroke-linecap="round" stroke-linejoin="round"/>
<path d="M109.319 150.101C109.319 150.101 105.456 142.147 102.018 150.903C99.8745 156.359 108.448 160.726 111.382 159.282" fill="white"/>
<path d="M109.319 150.101C109.319 150.101 105.456 142.147 102.018 150.903C99.8745 156.359 108.448 160.726 111.382 159.282" stroke="#263238" stroke-linecap="round" stroke-linejoin="round"/>
<path d="M132.31 145.275C131.66 145.995 131.19 146.858 130.939 147.795C130.688 148.731 130.663 149.714 130.866 150.662C131.163 152.743 131.868 154.746 132.941 156.553L128.035 158.124" stroke="#263238" stroke-linecap="round" stroke-linejoin="round"/>
<path d="M123.738 161.711C124.509 162.481 125.484 163.015 126.548 163.25C127.611 163.486 128.72 163.413 129.744 163.041" stroke="#263238" stroke-linecap="round" stroke-linejoin="round"/>
<path d="M118.248 145.138C118.248 145.138 121.686 141.333 125.835 143.167" stroke="#263238" stroke-linecap="round" stroke-linejoin="round"/>
<path d="M134.201 144.129C134.201 144.129 138.705 142.72 138.132 146.697" stroke="#263238" stroke-linecap="round" stroke-linejoin="round"/>
<path d="M109.238 154.456C108.84 154.47 108.447 154.356 108.117 154.131C107.788 153.907 107.538 153.583 107.404 153.207C107.072 152.485 106.98 151.66 106.648 150.915C106.511 150.539 106.259 150.216 105.927 149.992C105.596 149.767 105.203 149.653 104.803 149.665" fill="#263238"/>
<path d="M109.238 154.456C108.84 154.47 108.447 154.356 108.117 154.131C107.788 153.907 107.538 153.583 107.404 153.207C107.072 152.485 106.98 151.66 106.648 150.915C106.511 150.539 106.259 150.216 105.927 149.992C105.596 149.767 105.203 149.653 104.803 149.665" stroke="#263238" stroke-linecap="round" stroke-linejoin="round"/>
<path d="M123.531 123.018C123.044 120.968 122.272 118.996 121.238 117.161C121.238 117.161 123.106 116.691 124.138 116.473C123.909 118.479 123.737 121 123.531 123.018Z" fill="#263238" stroke="#263238" stroke-linecap="round" stroke-linejoin="round"/>
<path d="M125.491 171.694L125.571 175.133C124.816 175.466 123.981 175.577 123.165 175.453C118.763 174.938 114.328 165.138 114.053 164.577L114.144 164.68C119.348 170.422 123.21 171.66 125.491 171.694Z" fill="#263238"/>
<path d="M274.18 204.68H303.143" stroke="#263238" stroke-linecap="round" stroke-linejoin="round"/>
<path d="M240.953 204.68H270.363" stroke="#263238" stroke-linecap="round" stroke-linejoin="round"/>
<path d="M225.285 204.68H234.328" stroke="#263238" stroke-linecap="round" stroke-linejoin="round"/>
<path d="M249.066 220.405H303.027" stroke="#263238" stroke-linecap="round" stroke-linejoin="round"/>
<path d="M234.328 220.405H240.953" stroke="#263238" stroke-linecap="round" stroke-linejoin="round"/>
<path d="M273.217 236.142H302.913" stroke="#263238" stroke-linecap="round" stroke-linejoin="round"/>
<path d="M243.371 236.142H268.827" stroke="#263238" stroke-linecap="round" stroke-linejoin="round"/>
<path d="M269.148 251.867H302.799" stroke="#263238" stroke-linecap="round" stroke-linejoin="round"/>
<path d="M252.414 251.867H264.368" stroke="#263238" stroke-linecap="round" stroke-linejoin="round"/>
<path d="M368.104 252.44H283.771L288.001 204.084H372.334L368.104 252.44Z" fill="white" stroke="#263238" stroke-linecap="round" stroke-linejoin="round"/>
<path d="M372.335 204.095H288.002" stroke="#263238" stroke-linecap="round" stroke-linejoin="round"/>
<path d="M368.104 252.44H283.771L312.597 225.07L327.244 237.551L344.391 224.829L368.104 252.44Z" fill="white" stroke="#263238" stroke-linecap="round" stroke-linejoin="round"/>
<path d="M372.335 204.084L344.392 224.829L327.246 237.551L312.598 225.07L288.002 204.084H372.335Z" fill="white" stroke="#263238" stroke-linecap="round" stroke-linejoin="round"/>
<path d="M217.216 204.68H196.047" stroke="#263238" stroke-linecap="round" stroke-linejoin="round"/>
<path d="M298.329 149.287C281.435 163.041 250.249 171.442 250.249 171.442L265.962 154.605C258.297 152.137 251.683 147.167 247.18 140.491C242.677 133.814 240.546 125.82 241.13 117.788C241.713 109.756 244.977 102.153 250.397 96.1981C255.818 90.2428 263.081 86.2804 271.023 84.9461C278.964 83.6118 287.124 84.983 294.193 88.8399C301.262 92.6967 306.831 98.8157 310.007 106.216C313.183 113.616 313.782 121.868 311.709 129.649C309.635 137.43 305.008 144.289 298.57 149.127" fill="white"/>
<path d="M298.329 149.287C281.435 163.041 250.249 171.442 250.249 171.442L265.962 154.605C258.297 152.137 251.683 147.167 247.18 140.491C242.677 133.814 240.546 125.82 241.13 117.788C241.713 109.756 244.977 102.153 250.397 96.1981C255.818 90.2428 263.081 86.2804 271.023 84.9461C278.964 83.6118 287.124 84.983 294.193 88.8399C301.262 92.6967 306.831 98.8157 310.007 106.216C313.183 113.616 313.782 121.868 311.709 129.649C309.635 137.43 305.008 144.289 298.57 149.127" stroke="#263238" stroke-linecap="round" stroke-linejoin="round"/>
<path d="M299.188 104.909C305.031 104.909 309.767 100.173 309.767 94.3303C309.767 88.4878 305.031 83.7515 299.188 83.7515C293.346 83.7515 288.609 88.4878 288.609 94.3303C288.609 100.173 293.346 104.909 299.188 104.909Z" fill="#DADFD9" stroke="#263238" stroke-linecap="round" stroke-linejoin="round"/>
<path d="M293.057 91.969L299.188 98.8688L313.137 82.3644L312.644 81.8486L299.188 93.4246L295.624 89.5392L293.057 91.969Z" fill="#263238" stroke="#263238" stroke-linecap="round" stroke-linejoin="round"/>
<path d="M258.387 111.694H297.894" stroke="#263238" stroke-linecap="round" stroke-linejoin="round"/>
<path d="M257.492 121.895H297" stroke="#263238" stroke-linecap="round" stroke-linejoin="round"/>
<path d="M256.609 132.095H296.105" stroke="#263238" stroke-linecap="round" stroke-linejoin="round"/>
<path d="M381.023 21.6765V39.7626L430.502 1.61914L381.023 21.6765Z" fill="#DADFD9" stroke="#263238" stroke-linecap="round" stroke-linejoin="round"/>
<path d="M381.024 21.6763L431.637 1L362.525 8.16336L381.024 21.6763Z" fill="#DADFD9" stroke="#263238" stroke-linecap="round" stroke-linejoin="round"/>
<path d="M386.973 25.4242L410.801 43.0518L431.638 1L386.973 25.4242Z" fill="#DADFD9" stroke="#263238" stroke-linecap="round" stroke-linejoin="round"/>
<path d="M386.972 25.4243L381.023 39.7625L393.7 30.3986L386.972 25.4243Z" fill="#DADFD9" stroke="#263238" stroke-linecap="round" stroke-linejoin="round"/>
<path d="M191.418 177.001C191.544 176.634 191.682 176.279 191.808 175.923" stroke="#263238" stroke-linecap="round" stroke-linejoin="round"/>
<path d="M193.309 171.591C203.968 139.763 202.054 120.634 219.36 89.8028C222.799 83.5678 240.209 54.0662 264.942 43.5446C277.802 38.0776 285.985 46.2381 282.673 52.0146C275.28 64.8743 248.128 49.4587 275.28 34.238C300.404 20.1634 353.882 47.6822 378.948 39.7853" stroke="#263238" stroke-linecap="round" stroke-linejoin="round" stroke-dasharray="2 4"/>
<path d="M381.092 38.9946C381.447 38.8456 381.791 38.6851 382.135 38.5132" stroke="#263238" stroke-linecap="round" stroke-linejoin="round"/>
</svg>
