<svg width="24" height="25" viewBox="0 0 24 25" fill="none" xmlns="http://www.w3.org/2000/svg">
<path d="M19.4052 9.03319C19.9557 9.07758 20.366 9.55982 20.3216 10.1103L19.4607 19.7123C19.3656 20.5709 19.0394 21.3509 18.4263 21.9204C17.8109 22.4921 17.0052 22.7598 16.1271 22.7758H8.3003C8.3003 22.7758 7.43859 22.9204 6.21978 22.0621C5.00098 21.2039 4.99688 19.7187 4.99688 19.7187C4.83681 18.2735 4.62159 15.8669 4.44711 13.8316C4.35968 12.8117 4.28218 11.8815 4.22654 11.2063C4.19872 10.8687 4.17636 10.5948 4.16094 10.4052L4.13706 10.1102C4.0928 9.55967 4.50319 9.07743 5.0537 9.03318C5.60421 8.98892 6.08637 9.39938 6.13062 9.94989L6.15437 10.2431C6.16973 10.4321 6.19203 10.7053 6.21978 11.0421C6.2753 11.7158 6.35261 12.6437 6.4398 13.6608C6.61456 15.6993 6.82783 18.0821 6.98476 19.4989C7.03837 19.9844 7.20291 20.2808 7.38576 20.4551C7.56394 20.6249 7.84586 20.7619 8.3003 20.7712C10.8935 20.8259 13.4929 20.8229 16.0906 20.7761C16.0906 20.7761 16.501 20.7761 16.9081 20.4551C17.3152 20.134 17.4729 19.4916 17.4729 19.4916L18.4263 9.94989C18.4707 9.39939 18.8547 8.98881 19.4052 9.03319Z" fill="#395B65"/>
<path fill-rule="evenodd" clip-rule="evenodd" d="M2.75 6.80151C2.75 6.24923 3.19772 5.80151 3.75 5.80151H20.708C21.2603 5.80151 21.708 6.24923 21.708 6.80151C21.708 7.3538 21.2603 7.80151 20.708 7.80151H3.75C3.19772 7.80151 2.75 7.3538 2.75 6.80151Z" fill="#395B65"/>
<path fill-rule="evenodd" clip-rule="evenodd" d="M7.90951 4.00319C8.1769 3.00316 9.08243 2.3125 10.1126 2.3125H14.3456C15.3757 2.3125 16.2813 3.00316 16.5486 4.00319C16.5542 4.02382 16.559 4.04461 16.5632 4.06554L16.8061 5.28114C16.8668 5.5832 17.1329 5.8015 17.4406 5.8015C17.9929 5.8015 18.4406 6.24922 18.4406 6.8015C18.4406 7.35379 17.9929 7.8015 17.4406 7.8015C16.1784 7.8015 15.0925 6.90959 14.845 5.67386L14.6105 4.50025C14.5718 4.38881 14.4665 4.3125 14.3456 4.3125H10.1126C9.99168 4.3125 9.88631 4.38881 9.84764 4.50025L9.61319 5.67346C9.36572 6.90919 8.27975 7.8015 7.01758 7.8015C6.46529 7.8015 6.01758 7.35379 6.01758 6.8015C6.01758 6.24922 6.46529 5.8015 7.01758 5.8015C7.32527 5.8015 7.59128 5.5836 7.65197 5.28154L7.89497 4.06554C7.89915 4.04461 7.904 4.02382 7.90951 4.00319Z" fill="#395B65"/>
</svg>
