<svg width="24" height="24" viewBox="0 0 24 24" fill="none" xmlns="http://www.w3.org/2000/svg">
<path d="M9.23495 2.79922C11.715 2.79922 15.615 3.61922 16.575 4.29922C16.795 4.45922 16.9149 4.69923 16.9149 4.95923L16.9149 12.7792C16.9149 13.0192 16.7949 13.2592 16.6149 13.3992C16.5549 13.4392 15.155 14.5392 13.695 15.3592C11.8749 16.3592 10.6149 17.7592 10.3149 18.6392C9.95495 19.7192 9.43495 21.1992 7.79495 21.1992C7.01495 21.1992 6.37495 20.7592 6.03495 19.9992C5.35495 18.4392 6.07496 16.2792 7.27496 14.5792C6.47495 14.3992 5.47495 14.1392 4.87496 13.9592C3.77496 13.6192 3.05495 12.8192 2.89495 11.8392C2.75495 10.8392 3.25494 9.81921 4.31494 9.03921C5.09494 6.93921 6.43494 3.61922 7.41494 3.07922C7.79494 2.87922 8.45495 2.79922 9.23495 2.79922ZM15.3149 5.43921C13.7949 4.79921 9.11495 4.13922 8.23495 4.47922C7.77495 4.89922 6.59495 7.57921 5.77495 9.83921C5.71495 9.99921 5.61495 10.1392 5.47495 10.2392C4.81495 10.6792 4.47495 11.1992 4.53495 11.6392C4.59495 11.9992 4.91495 12.2992 5.39495 12.4592C6.39495 12.7792 8.87494 13.3192 8.91494 13.3192C9.19494 13.3792 9.41494 13.5792 9.51495 13.8592C9.61494 14.1392 9.53495 14.4392 9.33495 14.6392C7.53495 16.5792 7.21495 18.5592 7.55495 19.3592C7.65495 19.5992 7.77495 19.5992 7.83495 19.5992C8.23495 19.5992 8.41495 19.3192 8.83495 18.1192C9.31495 16.7192 10.9749 15.0392 12.9549 13.9592C13.9149 13.4392 14.8749 12.7392 15.3549 12.3792L15.3549 5.43921L15.3149 5.43921ZM18.475 4.87922L18.475 12.8592C18.475 13.5792 19.055 14.1592 19.775 14.1592C20.495 14.1592 21.075 13.5792 21.075 12.8592L21.075 4.87922C21.075 4.15922 20.495 3.57922 19.775 3.57922C19.075 3.57922 18.475 4.17922 18.475 4.87922Z" fill="#44AD92"/>
</svg>
