<svg width="25" height="24" viewBox="0 0 25 24" fill="none" xmlns="http://www.w3.org/2000/svg">
<path d="M20.7679 14.56V20C20.7679 20.56 20.3279 21 19.7679 21H4.56787C4.00787 21 3.56787 20.56 3.56787 20V14.56C3.56787 14 4.00787 13.56 4.56787 13.56C5.12787 13.56 5.56787 14 5.56787 14.56V19H18.7679V14.56C18.7679 14 19.2079 13.56 19.7679 13.56C20.3279 13.56 20.7679 14 20.7679 14.56ZM11.4479 15.8C11.6279 16 11.8879 16.1 12.1679 16.1C12.4479 16.1 12.6879 16 12.8879 15.8L16.8679 11.72C17.2479 11.32 17.2479 10.7 16.8479 10.3C16.4479 9.92 15.8279 9.92002 15.4279 10.32L13.1479 12.64V4C13.1479 3.44 12.7079 3 12.1479 3C11.5879 3 11.1479 3.44 11.1479 4V12.66L8.86787 10.34C8.48787 9.93999 7.84788 9.94002 7.44788 10.32C7.04788 10.7 7.04788 11.34 7.42788 11.74L11.4479 15.8Z" fill="#395B65"/>
</svg>
