<svg width="30" height="30" viewBox="0 0 30 30" fill="none" xmlns="http://www.w3.org/2000/svg">
<path fill-rule="evenodd" clip-rule="evenodd" d="M27.6429 4.35755C28.1204 4.83462 28.1208 5.60849 27.6438 6.08603L15.4215 18.3205C15.1924 18.5499 14.8814 18.6788 14.5572 18.6789C14.2329 18.679 13.9219 18.5502 13.6926 18.3209L10.0259 14.6542C9.54864 14.1769 9.54864 13.4031 10.0259 12.9258C10.5033 12.4485 11.2771 12.4485 11.7544 12.9258L14.5564 15.7278L25.9144 4.35841C26.3915 3.88087 27.1653 3.88048 27.6429 4.35755Z" fill="#395B65"/>
<path d="M28.0027 10.7887C28.5281 10.6186 29.0956 10.906 29.2295 11.4418C29.9437 14.2987 29.783 17.3129 28.7556 20.0891C27.6122 23.1787 25.4619 25.7934 22.6512 27.5119C19.8405 29.2303 16.5331 29.9525 13.262 29.5619C9.99078 29.1714 6.94635 27.6909 4.61922 25.3591C2.29209 23.0272 0.817798 19.9798 0.433904 16.7078C0.0500102 13.4358 0.778872 10.1299 2.50305 7.3227C4.22722 4.5155 6.84629 2.37053 9.93823 1.23342C12.7164 0.211677 15.7311 0.0571157 18.5864 0.777101C19.1219 0.912135 19.4083 1.48013 19.2371 2.00521L19.0263 2.65156C18.8551 3.17664 18.2913 3.45915 17.7538 3.33229C15.473 2.79403 13.0763 2.93464 10.8632 3.74855C8.33622 4.6779 6.19569 6.43095 4.78655 8.72522C3.37741 11.0195 2.78173 13.7214 3.09548 16.3955C3.40923 19.0696 4.61414 21.5603 6.51607 23.4661C8.418 25.3718 10.9062 26.5818 13.5796 26.901C16.2531 27.2202 18.9562 26.63 21.2534 25.2255C23.5505 23.821 25.3079 21.6841 26.2424 19.159C27.0608 16.9475 27.2063 14.5512 26.6726 12.2693C26.5469 11.7315 26.8305 11.1683 27.3559 10.9981L28.0027 10.7887Z" fill="#395B65"/>
</svg>
