<svg width="16" height="16" viewBox="0 0 16 16" fill="none" xmlns="http://www.w3.org/2000/svg">
<path fill-rule="evenodd" clip-rule="evenodd" d="M2.46484 3.33333C2.28803 3.33333 2.11846 3.40357 1.99344 3.5286C1.86841 3.65362 1.79818 3.82319 1.79818 4V13.3333C1.79818 13.5101 1.86841 13.6797 1.99344 13.8047C2.11846 13.9298 2.28803 14 2.46484 14H11.7982C11.975 14 12.1446 13.9298 12.2696 13.8047C12.3946 13.6797 12.4648 13.5101 12.4648 13.3333V9.77333C12.4648 9.40514 12.7633 9.10667 13.1315 9.10667C13.4997 9.10667 13.7982 9.40514 13.7982 9.77333V13.3333C13.7982 13.8638 13.5875 14.3725 13.2124 14.7475C12.8373 15.1226 12.3286 15.3333 11.7982 15.3333H2.46484C1.93441 15.3333 1.4257 15.1226 1.05063 14.7475C0.675557 14.3725 0.464844 13.8638 0.464844 13.3333V4C0.464844 3.46957 0.675557 2.96086 1.05063 2.58579C1.4257 2.21071 1.93441 2 2.46484 2H6.02484C6.39303 2 6.69151 2.29848 6.69151 2.66667C6.69151 3.03486 6.39303 3.33333 6.02484 3.33333H2.46484Z" fill="#395B65"/>
<path fill-rule="evenodd" clip-rule="evenodd" d="M11.3268 0.862254C11.5871 0.601905 12.0092 0.601905 12.2696 0.862254L14.9362 3.52892C15.1966 3.78927 15.1966 4.21138 14.9362 4.47173L8.26958 11.1384C8.14456 11.2634 7.97499 11.3337 7.79818 11.3337H5.13151C4.76332 11.3337 4.46484 11.0352 4.46484 10.667V8.00033C4.46484 7.82351 4.53508 7.65394 4.66011 7.52892L11.3268 0.862254ZM5.79818 8.27647V10.0003H7.52203L13.522 4.00033L11.7982 2.27647L5.79818 8.27647Z" fill="#395B65"/>
</svg>
