<svg width="25" height="24" viewBox="0 0 25 24" fill="none" xmlns="http://www.w3.org/2000/svg">
<path d="M18.7282 7.89995L14.2882 3.43994C14.1282 3.27994 13.9282 3.19995 13.7282 3.19995H6.16816C5.72816 3.19995 5.36816 3.55995 5.36816 3.99995V20C5.36816 20.44 5.72816 20.7999 6.16816 20.7999H18.1682C18.6082 20.7999 18.9682 20.44 18.9682 20V8.45996C18.9682 8.23996 18.8882 8.03995 18.7282 7.89995ZM17.3682 8.79995H13.3682V4.79995H13.4082L17.3682 8.79995ZM6.96816 19.2V4.79995H11.7682V9.57996C11.7682 10.02 12.1082 10.4 12.5482 10.4H17.3682V19.2H6.96816Z" fill="#395B65"/>
</svg>
