<svg width="26" height="24" viewBox="0 0 26 24" fill="none" xmlns="http://www.w3.org/2000/svg">
<path fill-rule="evenodd" clip-rule="evenodd" d="M4.18127 1.87868C4.76472 1.31607 5.55604 1 6.38116 1H14.6775C14.9525 1 15.2163 1.10536 15.4108 1.29289L21.633 7.29289C21.8275 7.48043 21.9367 7.73478 21.9367 8V20C21.9367 20.7957 21.6089 21.5587 21.0255 22.1213C20.442 22.6839 19.6507 23 18.8256 23H6.38116C5.55604 23 4.76472 22.6839 4.18127 22.1213C3.59782 21.5587 3.27005 20.7957 3.27005 20V4C3.27005 3.20435 3.59782 2.44129 4.18127 1.87868ZM6.38116 3C6.10612 3 5.84234 3.10536 5.64786 3.29289C5.45338 3.48043 5.34412 3.73478 5.34412 4V20C5.34412 20.2652 5.45338 20.5196 5.64786 20.7071C5.84234 20.8946 6.10612 21 6.38116 21H18.8256C19.1006 21 19.3644 20.8946 19.5589 20.7071C19.7534 20.5196 19.8626 20.2652 19.8626 20V8.41421L14.2479 3H6.38116Z" fill="#075740"/>
<path fill-rule="evenodd" clip-rule="evenodd" d="M14.6775 1C15.2502 1 15.7145 1.44772 15.7145 2V7H20.8997C21.4724 7 21.9367 7.44772 21.9367 8C21.9367 8.55228 21.4724 9 20.8997 9H14.6775C14.1047 9 13.6404 8.55228 13.6404 8V2C13.6404 1.44772 14.1047 1 14.6775 1Z" fill="#075740"/>
<path fill-rule="evenodd" clip-rule="evenodd" d="M7.41819 13C7.41819 12.4477 7.88249 12 8.45523 12H16.7515C17.3243 12 17.7886 12.4477 17.7886 13C17.7886 13.5523 17.3243 14 16.7515 14H8.45523C7.88249 14 7.41819 13.5523 7.41819 13Z" fill="#075740"/>
<path fill-rule="evenodd" clip-rule="evenodd" d="M7.41819 17C7.41819 16.4477 7.88249 16 8.45523 16H16.7515C17.3243 16 17.7886 16.4477 17.7886 17C17.7886 17.5523 17.3243 18 16.7515 18H8.45523C7.88249 18 7.41819 17.5523 7.41819 17Z" fill="#075740"/>
<path fill-rule="evenodd" clip-rule="evenodd" d="M7.41819 9C7.41819 8.44772 7.88249 8 8.45523 8H10.5293C11.102 8 11.5663 8.44772 11.5663 9C11.5663 9.55228 11.102 10 10.5293 10H8.45523C7.88249 10 7.41819 9.55228 7.41819 9Z" fill="#075740"/>
</svg>
