<svg width="32" height="32" viewBox="0 0 32 32" fill="none" xmlns="http://www.w3.org/2000/svg">
<path d="M28.5831 11.8228L16.4656 6.3699C16.1482 6.22565 15.802 6.22565 15.5135 6.3699L3.396 11.8228C2.99208 11.9959 2.73242 12.3998 2.73242 12.8326C2.73242 13.2654 3.02093 13.6693 3.42485 13.8712L4.4635 14.3617V18.4009C4.4635 18.8048 4.78086 19.1222 5.18478 19.1222C5.58869 19.1222 5.90606 18.8048 5.90606 18.4009V15.1407L7.63713 16.0639V20.9686C7.63713 21.1706 7.69484 21.3437 7.81024 21.5168C7.92565 21.6899 10.5511 25.6137 15.8597 25.6137C21.3126 25.6137 23.8227 21.6611 23.9381 21.5168C24.0246 21.3726 24.1112 21.1706 24.1112 20.9975V16.2659L28.6985 13.9289C29.1024 13.727 29.3333 13.323 29.3333 12.8903C29.2756 12.3998 28.987 12.0248 28.5831 11.8228ZM22.0627 20.6513C21.4857 21.3437 19.5238 23.5941 15.8597 23.5941C12.2822 23.5941 10.2337 21.3726 9.65672 20.6513V17.1026L15.4847 20.0743C15.6578 20.1608 15.8309 20.1896 16.004 20.1896C16.1771 20.1896 16.3791 20.1608 16.5522 20.0743L22.0627 17.2756V20.6513ZM16.004 17.7373L6.54078 12.948L16.004 8.678L25.4672 12.948L16.004 17.7373ZM5.90606 20.132C6.10802 20.3339 6.25227 20.6513 6.25227 20.9398C6.25227 21.2283 6.13687 21.5456 5.90606 21.7476C5.7041 21.9495 5.38673 22.0939 5.09822 22.0939C4.80971 22.0939 4.49235 21.9784 4.29039 21.7476C4.08843 21.5456 3.94417 21.2283 3.94417 20.9398C3.94417 20.6513 4.05958 20.3339 4.29039 20.132C4.49235 19.93 4.80971 19.7858 5.09822 19.7858C5.38673 19.7858 5.67525 19.9012 5.90606 20.132Z" fill="#A1AFAF"/>
</svg>
