<svg width="48" height="48" viewBox="0 0 48 48" fill="none" xmlns="http://www.w3.org/2000/svg">
<path d="M42.8757 17.7322L24.6994 9.5529C24.2233 9.33652 23.704 9.33652 23.2712 9.5529L5.09498 17.7322C4.4891 17.9919 4.09961 18.5978 4.09961 19.2469C4.09961 19.8961 4.53238 20.5019 5.13825 20.8049L6.69622 21.5406V27.5994C6.69622 28.2053 7.17227 28.6813 7.77814 28.6813C8.38402 28.6813 8.86006 28.2053 8.86006 27.5994V22.7091L11.4567 24.0939V31.451C11.4567 31.7539 11.5432 32.0136 11.7163 32.2733C11.8894 32.533 15.8276 38.4186 23.7906 38.4186C31.9699 38.4186 35.735 32.4897 35.9081 32.2733C36.0379 32.0569 36.1678 31.754 36.1678 31.4943V24.3969L43.0488 20.8915C43.6546 20.5885 44.0009 19.9826 44.0009 19.3335C43.9143 18.5978 43.4815 18.0352 42.8757 17.7322ZM33.0951 30.975C32.2296 32.0136 29.2867 35.3892 23.7906 35.3892C18.4242 35.3892 15.3516 32.0569 14.4861 30.975V25.6519L23.228 30.1095C23.4876 30.2393 23.7473 30.2825 24.007 30.2825C24.2666 30.2825 24.5696 30.2393 24.8292 30.1095L33.0951 25.9115V30.975ZM24.007 26.604L9.81215 19.42L24.007 13.0151L38.2018 19.42L24.007 26.604ZM8.86006 30.196C9.163 30.4989 9.37938 30.975 9.37938 31.4078C9.37938 31.8405 9.20628 32.3165 8.86006 32.6194C8.55713 32.9224 8.08108 33.1388 7.64831 33.1388C7.21554 33.1388 6.73949 32.9656 6.43656 32.6194C6.13362 32.3165 5.91724 31.8405 5.91724 31.4078C5.91724 30.975 6.09034 30.4989 6.43656 30.196C6.73949 29.8931 7.21554 29.6767 7.64831 29.6767C8.08108 29.6767 8.51385 29.8498 8.86006 30.196Z" fill="#395B65"/>
</svg>
