<svg width="50" height="50" viewBox="0 0 50 50" fill="none" xmlns="http://www.w3.org/2000/svg">
<path d="M25 35.1562C29.3147 35.1562 32.8125 31.6585 32.8125 27.3438C32.8125 23.029 29.3147 19.5312 25 19.5312C20.6853 19.5312 17.1875 23.029 17.1875 27.3438C17.1875 31.6585 20.6853 35.1562 25 35.1562Z" stroke="#A1AFAF" stroke-width="2" stroke-linecap="round" stroke-linejoin="round"/>
<path d="M25 35.1562C29.3147 35.1562 32.8125 31.6585 32.8125 27.3438C32.8125 23.029 29.3147 19.5312 25 19.5312C20.6853 19.5312 17.1875 23.029 17.1875 27.3438C17.1875 31.6585 20.6853 35.1562 25 35.1562Z" stroke="#395B65" stroke-width="3" stroke-linecap="round" stroke-linejoin="round"/>
<path d="M36.1406 22.6563C37.9601 22.6547 39.7549 23.0776 41.3824 23.8911C43.0098 24.7047 44.4251 25.8866 45.5158 27.3429" stroke="#395B65" stroke-width="3" stroke-linecap="round" stroke-linejoin="round"/>
<path d="M5 27.3433C6.09071 25.8869 7.50605 24.7049 9.13358 23.8913C10.7611 23.0776 12.556 22.6547 14.3756 22.6563" stroke="#395B65" stroke-width="3" stroke-linecap="round" stroke-linejoin="round"/>
<path d="M13.7578 42.1873C14.7842 40.0791 16.3827 38.302 18.3707 37.0587C20.3588 35.8155 22.6563 35.1563 25.0011 35.1563C27.3459 35.1562 29.6434 35.8155 31.6314 37.0587C33.6195 38.3019 35.218 40.0791 36.2444 42.1873" stroke="#A1AFAF" stroke-width="2" stroke-linecap="round" stroke-linejoin="round"/>
<path d="M13.7578 42.1873C14.7842 40.0791 16.3827 38.302 18.3707 37.0587C20.3588 35.8155 22.6563 35.1563 25.0011 35.1563C27.3459 35.1562 29.6434 35.8155 31.6314 37.0587C33.6195 38.3019 35.218 40.0791 36.2444 42.1873" stroke="#395B65" stroke-width="3" stroke-linecap="round" stroke-linejoin="round"/>
<path d="M14.3738 22.6562C13.188 22.656 12.0266 22.3184 11.0255 21.6829C10.0243 21.0474 9.22457 20.1401 8.7197 19.0671C8.21484 17.9941 8.02567 16.7996 8.17427 15.623C8.32288 14.4465 8.80313 13.3366 9.55895 12.4228C10.3148 11.509 11.315 10.8291 12.4427 10.4624C13.5705 10.0958 14.7793 10.0576 15.928 10.3523C17.0766 10.6469 18.1178 11.2623 18.9298 12.1265C19.7418 12.9907 20.2912 14.0681 20.5139 15.2329" stroke="#395B65" stroke-width="3" stroke-linecap="round" stroke-linejoin="round"/>
<path d="M30 15.2341C30.2225 14.0691 30.7719 12.9915 31.584 12.1271C32.396 11.2627 33.4372 10.6471 34.5861 10.3524C35.7349 10.0576 36.9438 10.0958 38.0718 10.4624C39.1997 10.829 40.2 11.509 40.956 12.4229C41.7119 13.3368 42.1922 14.4469 42.3408 15.6236C42.4894 16.8003 42.3002 17.995 41.7952 19.0681C41.2902 20.1413 40.4903 21.0486 39.489 21.6841C38.4876 22.3197 37.3261 22.6572 36.1401 22.6573" stroke="#395B65" stroke-width="3" stroke-linecap="round" stroke-linejoin="round"/>
</svg>
