<svg width="16" height="16" viewBox="0 0 16 16" fill="none" xmlns="http://www.w3.org/2000/svg">
<path d="M13.6044 2.66656H2.40443C2.11109 2.66656 1.87109 2.90656 1.87109 3.1999V10.0132C1.87109 10.3066 2.11109 10.5332 2.40443 10.5332H8.67109V12.7999C8.67109 13.0266 8.84443 13.2266 9.04443 13.3066C9.1111 13.3332 9.17777 13.3332 9.24443 13.3332C9.40443 13.3332 9.5511 13.2666 9.65776 13.1466L11.8711 10.5332H13.6044C13.8978 10.5332 14.1378 10.3066 14.1378 10.0132V3.1999C14.1378 2.90656 13.8978 2.66656 13.6044 2.66656ZM13.0711 9.46656H11.6311C11.4711 9.46656 11.2978 9.54657 11.1911 9.65323L9.73776 11.3332V9.9999C9.73776 9.70656 9.5511 9.45323 9.25776 9.45323H2.93776V3.7199H13.0711V9.46656ZM4.35109 5.5999C4.35109 5.30656 4.59109 5.06656 4.88442 5.06656H8.75109C9.04442 5.06656 9.28442 5.30656 9.28442 5.5999C9.28442 5.89323 9.04442 6.13323 8.75109 6.13323H4.88442C4.59109 6.13323 4.35109 5.89323 4.35109 5.5999ZM10.2044 6.01323C10.1111 5.91989 10.0444 5.77324 10.0444 5.6399C10.0444 5.49324 10.0978 5.3599 10.2044 5.26656C10.3111 5.1599 10.4444 5.10657 10.5778 5.10657C10.7244 5.10657 10.8578 5.1599 10.9511 5.26656C11.0444 5.3599 11.1111 5.50657 11.1111 5.6399C11.1111 5.78657 11.0578 5.91989 10.9511 6.01323C10.8444 6.11989 10.7111 6.17324 10.5778 6.17324C10.4444 6.1599 10.3111 6.10656 10.2044 6.01323Z" fill="#395B65"/>
<circle cx="13.5" cy="2.5" r="2.5" fill="#C80024"/>
</svg>
