n<?xml version="1.0" encoding="UTF-8"?>
<svg version="1.1" viewBox="0 0 1600 1592" width="27" height="27" xmlns="http://www.w3.org/2000/svg">
    <path transform="translate(799 -.261)" d="m0 0c4.54 0.01 9.08 0 13.6-0.01 29.6-0.06 58.9 1 88.3 4.94 2.3 0.31 4.6 0.59 6.91 0.86 3.56 0.47 3.56 0.47 5.5 0.96 2.2 0.55 4.37 0.88 6.62 1.19 0.88 0.13 1.75 0.25 2.65 0.37 0.92 0.13 1.84 0.26 2.79 0.39 22.6 3.18 22.6 3.18 24 4.56 2.85 0.47 5.7 0.9 8.56 1.31 7.8 1.17 15.4 2.77 23 4.78 2.83 0.75 5.66 1.42 8.52 2.04 3.7 0.8 7.3 1.82 10.9 2.87 3.01 0.75 6.02 1.49 9.04 2.22 1.93 0.51 3.86 1.08 5.76 1.71 3.11 1.04 6.23 1.99 9.38 2.91 1.15 0.34 2.31 0.68 3.51 1.03 2.4 0.71 4.81 1.42 7.21 2.12 11.2 3.29 22.1 7.04 33.1 11 0.76 0.27 1.52 0.55 2.3 0.83 8.77 3.18 17.5 6.4 26.1 10.1 2.46 1.04 4.93 2.01 7.42 2.98 4.94 1.95 9.73 4.22 14.5 6.49 3.73 1.75 7.47 3.4 11.3 4.94 12.2 4.99 24.2 10.7 35.7 17.2 4.06 2.27 8.18 4.44 12.3 6.61 4.18 2.22 8.29 4.54 12.4 6.89 1.93 1.07 3.87 2.13 5.81 3.19 0.94 0.51 1.87 1.02 2.83 1.54 1.45 0.78 2.9 1.54 4.36 2.27v2c1.09 0.16 1.09 0.16 2.2 0.32 3.06 0.74 4.97 1.85 7.55 3.62 1.17 0.79 1.17 0.79 2.36 1.59 1.89 1.47 1.89 1.47 2.89 3.47 0.54 0.12 1.07 0.25 1.63 0.38 4.56 1.2 8.48 4.03 12.4 6.62v2c1.08 0.4 1.08 0.4 2.19 0.81 2.79 1.18 5.24 2.59 7.81 4.19l2 1v2h3l2 2c1.4 0.94 2.81 1.87 4.22 2.79 2.7 1.84 5.27 3.84 7.85 5.84 1.89 1.42 1.89 1.42 3.99 2.36 2.1 1.09 3.31 2.31 4.94 4.01 1.29 1.04 2.61 2.07 3.94 3.06 0.67 0.51 1.34 1.02 2.03 1.54 1.99 1.44 1.99 1.44 4.16 2.47 2.46 1.22 3.96 2.97 5.87 4.93 2.25 1.86 4.52 3.65 6.88 5.38 1.82 1.39 3.56 2.84 5.3 4.34 0.62 0.53 1.25 1.06 1.89 1.61 0.95 0.83 0.95 0.83 1.93 1.67l5.4 4.65c1.2 1.04 2.41 2.07 3.61 3.11 2.93 2.52 5.9 4.92 8.99 7.24 0.78 0.81 1.57 1.61 2.38 2.44 2.54 2.65 2.54 2.65 5.68 4.56 3.02 2.05 4.75 4.13 6.94 7l3 2v2c0.84 0.34 0.84 0.34 1.69 0.69 2.97 1.68 4.96 3.84 7.31 6.31l2.5 2.5c7.5 7.5 7.5 7.5 10.1 10.1 2.32 2.37 2.32 2.37 4.75 4.06 0.56 0.43 1.12 0.86 1.69 1.31v2c0.84 0.34 0.84 0.34 1.69 0.69 8.14 4.62 14.6 14.1 20.3 21.3l2.19 2.19c2.61 2.61 5.13 5.28 7.62 8 0.79 0.86 1.58 1.72 2.4 2.6 1.79 2.21 1.79 2.21 1.79 4.21 0.99 0.33 1.98 0.66 3 1 1.62 1.79 1.62 1.79 3.44 4.19 3.39 4.37 6.92 8.58 10.6 12.8 4.27 4.93 8.25 9.97 12 15.3 2.19 3.06 4.48 6.04 6.79 9.01 8.76 11.3 17.1 22.9 25 34.9 1.26 1.91 2.53 3.8 3.81 5.7 5.34 7.94 10.5 16 15.4 24.2 1.02 1.64 1.02 1.64 2.06 3.31 3.64 5.85 7.12 11.7 10.4 17.8 2.46 4.53 5.06 8.98 7.64 13.4 2.1 3.77 4.03 7.59 5.93 11.5 3.98 8.04 7.99 16 12.2 23.9 2.83 5.27 5.42 10.6 7.75 16.1 0.54 1.23 1.08 2.45 1.62 3.68 4.97 11.3 9.75 22.6 14.1 34.1 1.2 3.07 2.46 6.11 3.75 9.15 4.29 10.2 7.77 20.7 11.2 31.3 0.84 2.54 1.68 5.08 2.54 7.61 1.25 3.73 2.48 7.45 3.71 11.2 0.36 1.09 0.72 2.18 1.1 3.31 2.29 7.13 3.89 14.2 5.19 21.6 0.55 3.26 0.55 3.26 2.71 6.12 0.72 3.61 1.3 7.21 1.86 10.8 0.59 3.66 1.06 6.04 3.14 9.16 0.55 2.84 1.02 5.64 1.44 8.5 0.79 5.12 1.6 10.1 3.12 15.1 1.62 5.43 2.19 10.9 2.71 16.5 0.29 2.94 0.58 5.56 1.73 8.3 1.86 4.86 1.81 10.2 2.21 15.3 0.08 0.86 0.15 1.72 0.23 2.61 0.06 0.78 0.12 1.56 0.18 2.37 0.29 2.37 0.29 2.37 1.36 4.59 1.36 3.63 1.59 7.21 1.87 11 0.07 0.8 0.13 1.59 0.2 2.41 0.13 1.68 0.26 3.36 0.38 5.04 0.19 2.54 0.4 5.09 0.6 7.64 0.13 1.64 0.26 3.27 0.38 4.91 0.06 0.75 0.12 1.51 0.18 2.28 0.27 3.65 0.43 7.24 0.38 10.9-0.38 3.34-0.38 3.34 1.03 4.52 6.32 41.7 2.92 86.8-0.79 129-0.21 2.38-0.41 4.75-0.61 7.13-0.37 4.32-0.76 8.64-1.16 13-0.12 1.23-0.23 2.47-0.35 3.74-0.55 5.56-1.28 10.9-2.6 16.3-1.17 5.31-1.72 10.7-2.43 16.1-0.13 0.9-0.25 1.8-0.38 2.74-0.1 0.81-0.21 1.63-0.32 2.47-0.36 1.9-0.36 1.9-1.36 2.9-0.28 1.51-0.51 3.03-0.72 4.55-0.13 0.93-0.25 1.85-0.39 2.81-0.13 0.97-0.26 1.95-0.39 2.95-0.26 1.92-0.52 3.83-0.78 5.74-0.11 0.85-0.23 1.71-0.35 2.58-0.34 2.17-0.8 4.25-1.37 6.37h-2c0.18 0.56 0.36 1.12 0.54 1.7 0.53 2.65 0.27 4.46-0.25 7.11-0.17 0.91-0.35 1.82-0.53 2.76-0.19 0.95-0.38 1.89-0.57 2.87-0.18 0.94-0.36 1.88-0.54 2.85-0.88 4.48-1.93 8.48-3.65 12.7-0.52 2.43-1 4.87-1.44 7.31-0.87 4.64-1.87 8.97-3.71 13.3-1.12 3.13-1.84 6.34-2.6 9.57-2.13 8.75-4.9 17.2-7.81 25.7-0.49 1.44-0.98 2.88-1.46 4.32-0.92 2.72-1.84 5.44-2.77 8.16-1.42 4.19-2.82 8.38-4.21 12.6h-2c-0.08 1.1-0.15 2.2-0.23 3.33-0.7 5.51-2.84 10.3-5.02 15.4-0.83 1.96-1.65 3.92-2.48 5.89-0.39 0.94-0.79 1.87-1.2 2.84-1.31 3.15-2.51 6.32-3.69 9.52-2.99 7.89-6.61 15.5-10.4 23.1h-2c-0.09 1.02-0.19 2.03-0.28 3.08-0.77 4.22-2.1 6.95-4.22 10.7-3.15 5.65-5.99 11.4-8.69 17.2-3.49 7.52-7.35 14.8-11.4 22-0.53 0.93-1.06 1.86-1.6 2.82-3.73 6.52-7.72 12.9-11.8 19.2-1.68 2.66-3.34 5.33-5 8-0.87 1.39-1.74 2.78-2.61 4.17-1.38 2.21-2.75 4.42-4.13 6.63-8.43 13.5-17.6 26.5-26.9 39.3-1.52 2.11-3.03 4.23-4.54 6.35-6.01 8.41-12.1 16.6-18.8 24.5-1.67 2-3.33 4-5 6-0.84 1-1.67 2-2.53 3.03-2.33 2.8-4.62 5.63-6.91 8.47-4.15 5.1-8.55 9.93-13 14.7-1.99 2.16-3.94 4.34-5.85 6.57-9.33 10.7-19.2 20.8-29.2 30.9-1.15 1.15-2.29 2.31-3.43 3.46-1.62 1.64-3.24 3.26-4.87 4.89-0.74 0.75-0.74 0.75-1.49 1.51-3.45 3.43-3.45 3.43-5.68 3.43v2c-1.57 1.59-1.57 1.59-3.69 3.38-0.73 0.62-1.46 1.24-2.22 1.89-1.57 1.3-3.17 2.59-4.78 3.86-2.36 1.84-2.36 1.84-4.5 4.06-6.98 6.98-14.5 13.3-22.2 19.5-1.82 1.47-3.64 2.96-5.45 4.45-7.36 6.03-14.8 12-22.4 17.6-1.98 1.46-3.94 2.93-5.91 4.41-36 26.9-74.3 50-114 70.5-1.61 0.83-3.22 1.66-4.83 2.5-17.5 9.09-35.8 16.6-54.1 23.8-1.84 0.71-3.67 1.44-5.5 2.16-28.2 11.2-56.8 21.1-86.2 28.9-1.11 0.3-2.23 0.6-3.37 0.9-26.3 6.97-53.1 12.5-80 16.7-2.54 0.4-5.07 0.8-7.6 1.21-5.01 0.8-10 1.52-15 2.2-0.9 0.12-1.8 0.25-2.73 0.37-90.3 11.9-185 6.94-284-16.4-1.44-0.35-2.88-0.69-4.32-1.04-34.9-8.44-69.1-19.2-103-32-1.81-0.69-1.81-0.69-3.66-1.38-35.7-13.6-70.4-29.1-103-48.4-2.49-1.45-5.02-2.82-7.57-4.17-11.4-6.16-22.9-12.8-33.3-20.5-2.27-1.62-2.27-1.62-5.25-3.22-5.18-2.91-9.99-6.37-14.9-9.78-1.02-0.71-2.04-1.42-3.09-2.15-7.81-5.48-15.5-11.1-23.1-16.9-2-1.52-4.01-3.01-6.02-4.5-8.2-6.08-16.1-12.4-23.9-19-1.98-1.63-3.95-3.25-5.94-4.87-1.28-1.05-1.28-1.05-2.59-2.12-1.74-1.41-3.5-2.79-5.29-4.14-0.72-0.62-1.44-1.23-2.18-1.87v-2c-0.6-0.29-1.2-0.58-1.81-0.87-2.19-1.13-2.19-1.13-5.19-3.13v-2c-0.88-0.4-0.88-0.4-1.77-0.8-2.32-1.25-3.94-2.59-5.84-4.39-0.67-0.63-1.34-1.26-2.03-1.91-1.04-1-1.04-1-2.11-2.02s-1.07-1.02-2.17-2.06c-4.77-4.53-9.48-9.11-14.1-13.8l-2.69-2.69c-1.48-1.48-2.96-2.96-4.43-4.44-2.28-2.28-4.57-4.53-6.87-6.79-1.44-1.42-2.88-2.84-4.32-4.27-0.74-0.72-1.48-1.44-2.25-2.19-0.7-0.69-1.39-1.39-2.12-2.1-0.63-0.63-1.27-1.26-1.93-1.9-1.39-1.62-1.39-1.62-1.39-3.62-0.9-0.39-0.9-0.39-1.81-0.8-2.32-1.27-3.51-2.43-5.19-4.45-0.6-0.71-1.21-1.42-1.83-2.16-0.71-0.85-1.43-1.71-2.17-2.59l-2.73-3.18c-3.1-3.6-6.19-7.21-9.27-10.8-0.49-0.57-0.98-1.15-1.49-1.74-9.16-10.8-17.9-21.7-26.4-33-2.06-2.77-4.14-5.53-6.24-8.28-5.37-7.07-10.5-14.2-15.4-21.6-2.5-3.82-5.11-7.52-7.83-11.2-2.79-3.78-5.16-7.57-7.37-11.7-3.56-6.52-7.62-12.8-11.6-19-6.59-10.3-12.5-21-18.3-31.8-1.29-2.41-2.59-4.81-3.89-7.22-4.51-8.37-8.68-16.8-12.7-25.5-1.59-3.43-3.29-6.81-5.03-10.2-2.44-4.85-4.43-9.76-6.32-14.8-2.27-6.04-4.8-12-7.28-18-2.05-4.97-3.94-9.93-5.56-15.1-0.68-2.11-0.68-2.11-2.15-4.88-2.43-4.87-3.9-10-5.47-15.2-2.03-6.9-2.03-6.9-4.65-13.6-1.32-3.05-2.11-5.89-2.85-9.1-0.55-2.18-1.24-4.28-1.97-6.4-1.48-4.34-2.68-8.73-3.87-13.2-0.99-3.61-2.01-7.16-3.69-10.5 0.44-2.12 0.44-2.12 1-4l-2-1c-0.35-2-0.69-4-1-6-0.5-0.96-0.5-0.96-1-1.93-1.09-2.25-1.29-3.85-1.44-6.32-0.35-3.95-1.36-7.06-2.87-10.7-1-2.98-1.2-5.94-1.38-9.07-0.22-2.3-0.22-2.3-2.31-4.98-0.08-2.33-0.09-4.67 0-7h-1c-0.36-2.27-0.71-4.54-1.06-6.81-0.2-1.27-0.4-2.53-0.6-3.83-0.34-3.36-0.34-3.36 0.66-6.36h-2l1-7h-2c-0.51-3.06-1-6.12-1.5-9.19-0.14-0.86-0.29-1.73-0.43-2.62-0.67-4.12-1.13-8-1.07-12.2l-1-2 1-2h-2c-0.43-4.78-0.86-9.56-1.28-14.4-0.15-1.62-0.29-3.24-0.44-4.87-1.49-16.4-1.49-16.4-1.23-24.7 0.05-2.26 0.05-2.26-1.05-5.06-0.13-2.67-0.04-5.32 0-8h-1c-2.77-75.2-2.77-75.2 2.54-105 0.68-4.13 1.03-8.27 1.4-12.4 0.57-5.94 1.38-11.4 3.35-17 0.85-2.83 1.25-5.61 1.65-8.55 1.07-7.45 2.98-14.6 5.06-21.8 0.27-0.95 0.54-1.9 0.82-2.88 0.91-3.19 1.82-6.37 2.74-9.56 0.3-1.02 0.59-2.03 0.89-3.08 1.44-4.94 2.96-9.8 4.82-14.6 1.02-2.63 1.94-5.3 2.87-7.97 1.27-3.64 2.57-7.27 3.86-10.9 0.4-1.13 0.8-2.26 1.22-3.43 2.74-7.41 6.09-14.4 9.68-21.4 1.77-3.47 3.43-6.99 5.06-10.5 5.38-11.7 11.4-23 18.7-33.6 1.3-1.97 2.4-3.96 3.5-6.04 7.73-14.2 18.1-27.1 27.8-39.9 0.94-1.27 0.94-1.27 1.91-2.57 0.62-0.82 1.25-1.65 1.89-2.5 0.56-0.75 1.13-1.5 1.71-2.28 0.74-0.82 0.74-0.82 1.49-1.65h2c0.23-0.54 0.45-1.09 0.69-1.65 1.71-3.06 3.91-5.35 6.31-7.91 2.57-2.76 4.91-5.3 7-8.44h2c0.24-0.57 0.48-1.13 0.73-1.72 1.52-2.73 3.34-4.59 5.56-6.8 0.86-0.86 1.72-1.71 2.6-2.6 0.91-0.89 1.81-1.78 2.74-2.69 0.87-0.88 1.75-1.76 2.66-2.66 5.08-5.05 10.3-9.87 15.7-14.5 1.22-1.1 1.22-1.1 2.46-2.21 0.63-0.57 1.26-1.14 1.92-1.73 0.64-0.58 1.29-1.17 1.96-1.77 1.66-1.29 1.66-1.29 3.66-1.29v-2c1.73-1.59 1.73-1.59 4.19-3.5 1.38-1.08 1.38-1.08 2.79-2.18 1-0.76 2-1.53 3.02-2.32 0.95-0.76 1.91-1.51 2.89-2.29 15.3-12 31.6-22.5 48.1-32.7 1-0.62 2-1.23 3.03-1.87 9.44-5.75 19.2-10.8 29.2-15.4 1.03-0.47 2.05-0.94 3.11-1.42 9.89-4.47 20-8.44 30.1-12.3 2.48-0.95 4.93-1.95 7.39-2.96 26.5-10.6 54.7-17.6 82.7-22.6 1.48-0.28 2.95-0.59 4.4-0.97 2.54-0.61 5.05-0.91 7.64-1.21 1.59-0.19 1.59-0.19 3.22-0.38 2.25-0.27 4.5-0.53 6.75-0.79 1.06-0.13 2.12-0.26 3.21-0.39 0.98-0.11 1.95-0.23 2.96-0.35 2.21-0.14 2.21-0.14 3.25-1.37 3.03-0.25 6.04-0.43 9.08-0.55 1.47-0.07 1.47-0.07 2.96-0.13 13.1-0.51 26.3-0.46 39.4-0.45h11.8 20.6 30.7c18.2-0.01 36.5-0.01 54.8-0.01 16 0.01 31.9 0.01 47.9 0.01h3.21 12.9c40.3-0.01 80.6 0 121 0 35.8 0.01 71.7 0.01 108 0 40.3 0 80.6-0.01 121 0h12.9 3.2c16 0 31.9 0 47.9-0.01 18.1 0 36.3 0 54.4 0.01h30.5c6.77-0.01 13.6 0 20.3 0h11.6 12.4 3.69c1.1 0 2.2 0 3.33 0.01h2.88c2.25 0.12 2.25 0.12 4.25 1.12 0.02 63.2 0.03 126 0.04 190v2.84c0.01 20.3 0.01 40.6 0.01 60.9 0 9.95 0 19.9 0.01 29.9v3c0 32.2 0.01 64.3 0.02 96.4 0.01 33 0.01 66 0.01 99.1 0 4.66 0 9.32 0.01 14v2.78c0 14.8 0 29.6 0.01 44.4 0 14.8 0.01 29.7 0 44.6 0 8.83 0.01 17.7 0.01 26.5 0 5.89 0.01 11.8 0 17.7 0 3.36 0 6.73 0.01 10.1 0 3.61 0 7.22-0.01 10.8 0.01 1.06 0.01 2.13 0.01 3.22 0 1.43 0 1.43-0.01 2.89 0 0.82 0 1.65 0.01 2.5-0.13 1.87-0.13 1.87-1.13 2.87-0.1 1.76-0.19 3.51-0.24 5.27-0.56 17.6-3.82 34.9-8.76 51.7-0.41 1.54-0.83 3.09-1.23 4.63-6.01 22.4-14.4 43.7-24.8 64.4-0.84 1.69-1.68 3.38-2.52 5.06-5.66 11.3-11.5 22.4-18.5 32.9-1.1 1.77-2.21 3.54-3.31 5.31-6.29 9.87-13.2 19.2-20.7 28.2-2.3 2.8-4.44 5.67-6.55 8.62-1.98 2.47-4.23 4.62-6.48 6.85-2.37 2.51-4.71 5.04-7.06 7.56-4.86 5.2-9.75 10.4-14.8 15.4-0.5 0.51-1 1.02-1.51 1.55-1.19 1.19-2.43 2.33-3.68 3.45h-2l-1 3c-1.94 1.81-1.94 1.81-4.56 3.88-1 0.79-2 1.58-3.03 2.4-0.54 0.44-1.09 0.87-1.66 1.32-1.84 1.48-3.66 2.98-5.48 4.49-9.07 7.54-18.4 14.4-28.3 20.9-0.63 0.41-1.26 0.83-1.9 1.25-61.9 40.4-135 60-209 59.9h-2.38c-12.4-0.02-24.6-0.54-36.9-2.19-0.85-0.11-1.71-0.21-2.59-0.32-55.3-6.95-109-26.4-155-57.7-0.82-0.55-1.64-1.1-2.49-1.67-11-7.45-21.5-15.3-31.7-23.9-1.72-1.43-3.46-2.82-5.2-4.21-1.02-0.81-2.03-1.62-3.07-2.45-0.88-0.69-1.75-1.39-2.66-2.1-0.6-0.57-1.21-1.13-1.84-1.71v-2c-0.58-0.25-1.16-0.5-1.75-0.76-2.53-1.4-4.18-2.98-6.19-5.05-0.97-1-0.97-1-1.96-2.02-0.69-0.72-1.39-1.43-2.1-2.17-2.51-2.52-5.03-5.03-7.58-7.51-5.44-5.33-10.4-10.8-15.2-16.7-2.34-2.86-4.8-5.55-7.31-8.25-4.79-5.2-8.9-10.7-12.9-16.5-0.54-0.74-1.07-1.48-1.63-2.25-9.94-13.8-18.6-28.4-26.3-43.6-1.02-2.02-2.06-4.02-3.1-6.02-3.36-6.54-6.26-13.1-8.82-20-1.17-3.13-2.44-6.21-3.74-9.28-2.87-6.83-5.63-13.7-7.56-20.9-0.76-3.14-0.76-3.14-2.88-6-0.12-1.22-0.25-2.43-0.37-3.69-0.72-6.49-3.53-11.3-7.89-16-16.6-18.6-31.7-43-39.3-66.9-1.04-3.19-2.18-6.28-3.44-9.38-1.83-5-3.02-10.1-4.22-15.3-0.69-2.9-0.69-2.9-2.78-5.71-0.19-2.7-0.19-2.7-0.12-5.69 0.01-0.99 0.03-1.98 0.05-3.01 0.03-1.14 0.03-1.14 0.07-2.3h-2c0.02-1.09 0.04-2.19 0.06-3.31 0.13-3.63 0.13-3.63-1.06-6.69 0.44-2.69 0.44-2.69 1-5h-2v-5h-1c-0.02-5.99-0.04-12-0.05-18-0.01-2.03-0.02-4.07-0.03-6.11-0.01-2.94-0.01-5.87-0.02-8.81 0-0.9-0.01-1.81-0.01-2.74 0-4.89 0.29-9.52 1.11-14.4 0.13-0.88 0.25-1.77 0.39-2.68 2.09-14.2 5.02-27.7 9.61-41.3 0.37-1.12 0.75-2.24 1.13-3.4 1.66-4.77 3.57-9.29 5.94-13.8 1-1.91 1-1.91 1.87-4.25 9.83-24.2 31.6-45.6 53.1-59.6 0.65-0.43 1.3-0.86 1.97-1.3 33.5-21.8 76-28.9 115-20.7 7.11 1.66 14.1 3.72 21 6 0.68 0.22 1.35 0.44 2.05 0.67 21.3 7.13 39.8 21.1 55.7 36.7 0.69 0.67 1.39 1.35 2.1 2.05 3.26 3.3 5.91 5.97 7.15 10.6h2v2h2c0.16 0.93 0.16 0.93 0.31 1.88 0.57 2.49 0.57 2.49 3.69 4.12 0.35 1.66 0.68 3.33 1 5 1.07 2.14 2.22 4.25 3.44 6.31 0.62 1.07 1.23 2.14 1.87 3.24 0.56 0.81 1.12 1.62 1.69 2.45h2c0.08 0.81 0.17 1.61 0.25 2.44 0.61 2.88 1.23 4.83 2.44 7.44 5.24 11.4 8.91 22.3 10.8 34.8 0.35 3.21 0.35 3.21 1.54 5.35 0.24 2.61 0.43 5.2 0.56 7.81 0.07 1.15 0.07 1.15 0.13 2.32 0.64 12.6 0.93 25.5-1.69 37.9-0.16 0.97-0.31 1.93-0.47 2.93-3.97 22.8-13 45.1-24.5 65.1-0.54 0.97-1.08 1.94-1.64 2.95-4.01 7.06-8.46 13.6-13.4 20-0.76 1.03-1.52 2.06-2.31 3.12-6.06 8.12-12.7 15.6-19.7 22.9-0.78 0.81-0.78 0.81-1.57 1.64-6.5 6.74-6.5 6.74-9.43 9.36h-2l-1 3c-2.05 1.8-4.08 3.48-6.25 5.13-0.95 0.73-0.95 0.73-1.91 1.47-20.2 15.5-41.9 27.7-65.6 36.9-1.72 0.67-1.72 0.67-3.47 1.35-1.07 0.41-2.15 0.82-3.26 1.24-0.97 0.37-1.94 0.74-2.93 1.12-2.59 0.79-2.59 0.79-6.59 0.79-0.24 5.8-0.24 5.8 2 11l2-1c0.65 1.25 1.3 2.5 1.94 3.75 0.36 0.7 0.72 1.39 1.09 2.11 0.97 2.14 0.97 2.14 1.41 4.22 0.69 2.37 1.82 3.19 3.56 4.92 0.77 1.11 1.5 2.25 2.2 3.41 0.4 0.65 0.8 1.31 1.21 1.99 0.42 0.69 0.84 1.39 1.28 2.1 4.75 7.73 9.72 15.2 15.5 22.2 1.77 2.32 1.77 2.32 1.77 4.32h2c1.41 1.6 2.75 3.26 4.06 4.94 3.81 4.79 7.84 9.08 12.3 13.3 1.65 1.78 1.65 1.78 1.65 3.78 0.86 0.36 0.86 0.36 1.73 0.72 2.75 1.55 4.48 3.41 6.65 5.72 6.05 6.18 12.7 11.4 19.6 16.6 0.88 0.68 1.76 1.35 2.67 2.05 13.8 10.4 28.8 19.3 44.3 27 0.62 0.31 1.25 0.62 1.89 0.93 12.5 6.08 25.8 10.1 39.1 14.1 0.75 0.22 1.5 0.45 2.27 0.68 65.1 19 139 8.49 198-23.5 20.7-11.6 39.6-25.7 56.7-42.2 0.59-0.57 1.18-1.13 1.78-1.72 7.61-7.36 14.8-14.9 21.2-23.3 1.14-1.48 1.14-1.48 2.3-3 12.2-16.1 23-32.7 31.7-51 0.38-0.79 0.75-1.59 1.14-2.41 0.99-2.18 1.93-4.38 2.86-6.59 0.51-1.15 1.02-2.29 1.55-3.48 6.71-15.4 12.4-31.9 14.1-48.6 0.39-2.9 0.39-2.9 1.4-5.92 1.39-4.8 1.26-9.52 1.24-14.5v-3.18c0.01-3.53 0-7.06-0.01-10.6 0-2.56 0-5.11 0.01-7.66 0-5.55 0-11.1-0.01-16.6-0.01-8.26-0.01-16.5-0.01-24.8 0-13.9-0.01-27.8-0.02-41.7-0.01-13.8-0.02-27.5-0.02-41.2v-2.59-13c-0.01-30.8-0.02-61.5-0.04-92.3-0.02-29.9-0.03-59.8-0.04-89.6v-2.79c0-9.25-0.01-18.5-0.01-27.8 0-18.8-0.01-37.7-0.01-56.5-0.01-1.3-0.01-1.3-0.01-2.62-0.01-57.8-0.05-116-0.08-174-26.1-1.19-52.2-1.15-78.3-1.14-5.82 0-11.6-0.01-17.5-0.01-13.4-0.01-26.7-0.02-40-0.02h-31-8.97c-1.11-0.01-1.11-0.01-2.25-0.01-20.9 0-41.8-0.01-62.6-0.01-0.79 0.01-1.57 0.01-2.38 0.01h-11.9-2.39-4.79c-24.8 0-49.6-0.01-74.4-0.03-28-0.01-55.9-0.02-83.9-0.02h-8.99-2.24c-11.7 0-23.5 0-35.2-0.01-11.9-0.01-23.7-0.01-35.6-0.01-6.39 0.01-12.8 0.01-19.2 0-25-0.03-50 0.18-75 1.14-1.05 0.04-2.09 0.08-3.17 0.12-17.8 0.68-35.6 2.11-53.2 4.8-1.12 0.17-2.24 0.34-3.39 0.51-8.33 1.29-16.6 2.69-24.9 4.18-1.08 0.19-2.15 0.38-3.26 0.57-7.66 1.42-15 3.55-22.4 5.93-2.07 0.63-4.14 1.25-6.22 1.86-13 3.91-25.8 8.19-38.5 13.2-2.11 0.83-4.23 1.65-6.35 2.46-13.6 5.23-26.4 12.1-39.2 19-0.99 0.53-1.98 1.06-3 1.61-23.5 12.7-48.8 29.2-67.4 48.6-1.27 1.19-1.27 1.19-3.27 1.19v2c-1.43 1.41-1.43 1.41-3.44 3.06-7.49 6.39-14.2 13.4-20.6 20.9-0.8 0.92-1.6 1.84-2.42 2.79-7.58 8.78-14.6 17.9-21.6 27.2-0.79 1.05-1.58 2.1-2.39 3.18-4.74 6.4-8.85 13-12.8 19.9-0.89 1.56-1.79 3.12-2.68 4.67-0.91 1.56-1.8 3.13-2.69 4.7-0.62 1.08-0.62 1.08-1.26 2.17-0.37 0.65-0.74 1.3-1.12 1.97-0.35 0.46-0.69 0.92-1.05 1.4h-2c0.5 1.49 0.5 1.49 1 3-0.86 1.95-0.86 1.95-2.19 4.13-2.7 4.45-4.75 9.1-6.81 13.9-0.32 0.72-0.63 1.44-0.96 2.18-9.06 20.8-15.8 42-22 63.8-0.27 0.91-0.53 1.81-0.81 2.75-2.14 7.47-3.51 15-4.81 22.7-0.43 2.48-0.86 4.95-1.29 7.43-0.19 1.08-0.37 2.17-0.56 3.28-0.3 1.62-0.63 3.25-1.05 4.84-0.65 2.74-0.91 5.47-1.2 8.27-0.13 1.2-0.25 2.4-0.39 3.64-0.26 2.54-0.52 5.07-0.78 7.61-0.13 1.2-0.26 2.39-0.39 3.63-0.11 1.1-0.23 2.2-0.35 3.33-0.37 2.53-0.37 2.53-1.37 3.53-0.1 2.95-0.14 5.87-0.13 8.82v2.8c-0.01 3.08-0.01 6.15 0 9.22 0 2.13 0 4.26-0.01 6.38 0 4.47 0.01 8.93 0.01 13.4 0.01 5.73 0 11.5 0 17.2-0.01 4.39-0.01 8.79 0 13.2 0 2.11 0 4.23-0.01 6.34 0 2.95 0.01 5.9 0.01 8.85 0 1.33 0 1.33-0.01 2.68-0.37 3.88-0.37 3.88 1.14 7.14 0.29 2.3 0.52 4.61 0.72 6.92 0.09 1.05 0.09 1.05 0.19 2.11 0.2 2.24 0.4 4.48 0.59 6.72 0.2 2.23 0.39 4.45 0.59 6.67 0.18 2.03 0.36 4.06 0.54 6.09 0.31 2.91 0.77 5.64 1.37 8.49 0.4 2.58 0.78 5.16 1.16 7.75 0.16 1.1 0.16 1.1 0.32 2.23 0.46 3.13 0.91 6.26 1.36 9.39 0.34 2.29 0.67 4.59 1 6.88 0.11 0.7 0.21 1.41 0.31 2.13 0.52 3.56 1.1 7.1 1.85 10.6 0.16 0.75 0.32 1.51 0.48 2.28 4.52 21.2 9.24 42.2 15.7 62.9 1 3.25 1.96 6.5 2.91 9.76 0.36 1.21 0.71 2.42 1.07 3.66 0.7 2.36 1.39 4.73 2.08 7.1 1.72 5.86 3.56 11.6 5.8 17.3 0.77 2 1.54 4.01 2.31 6.01 0.85 2.23 1.71 4.45 2.57 6.68l2.55 6.63c0.42 1.1 0.85 2.2 1.28 3.33 0.88 2.27 1.75 4.55 2.62 6.82 2.15 5.65 4.31 11.3 6.8 16.8 0.47 1.08 0.95 2.16 1.44 3.27 1.24 2.79 1.24 2.79 4.43 3.48 0.91 1.89 0.91 1.89 1.63 4.25 0.24 0.81 0.49 1.62 0.74 2.45 0.66 2.42 1.23 4.82 1.63 7.3 0.99 0.33 1.98 0.66 3 1 0.91 2.48 1 4.34 1 7 0.99 0.33 1.98 0.66 3 1 1.33 2.34 2.5 4.63 3.63 7.06 2.84 5.91 5.82 11.7 9.06 17.4 0.38 0.67 0.76 1.33 1.15 2.02 1.59 2.81 3.2 5.61 4.8 8.4 0.68 1.19 0.68 1.19 1.36 2.39 0.37 0.65 0.74 1.29 1.13 1.95 0.87 1.8 0.87 1.8 1.25 3.79 0.85 2.76 2.55 4.02 4.62 6.01 0.99 1.49 1.93 3.01 2.81 4.56 4.04 6.91 8.3 13.7 12.8 20.3 0.45 0.66 0.9 1.33 1.36 2.01 0.88 1.31 1.77 2.62 2.66 3.92 2.24 3.31 4.07 6.4 5.38 10.2h2c1.23 1.58 1.23 1.58 2.63 3.81 8.47 13.1 18.2 25.5 28.2 37.5 1.49 1.81 2.98 3.63 4.46 5.46 5.06 6.26 10.3 12.3 15.8 18.2 1.34 1.47 2.67 2.95 4 4.44 0.56 0.62 1.11 1.23 1.69 1.87 1.31 1.69 1.31 1.69 2.31 4.69 0.99 0.33 1.98 0.66 3 1 1.72 1.74 1.72 1.74 3.5 3.88 2.5 2.97 2.5 2.97 5.22 5.75 1.28 1.37 1.28 1.37 1.28 3.37 0.56 0.23 1.11 0.45 1.69 0.69 4.27 2.42 7.45 5.74 9.31 10.3h2c1.73 1.63 3.37 3.28 5 5 8.65 8.85 17.2 17.4 27 25 1.82 1.47 3.63 2.95 5.44 4.44 0.91 0.74 1.82 1.49 2.76 2.25 2.88 2.38 5.75 4.78 8.61 7.19 6.06 5.05 12.2 9.94 18.5 14.8 1.64 1.28 3.27 2.56 4.9 3.84 8.13 6.33 16.5 12.3 25 18.2 1.56 1.08 3.1 2.17 4.65 3.27 12.4 8.75 25.1 16.9 38.1 24.7 1.93 1.17 3.87 2.35 5.8 3.53 15.7 9.54 31.6 18.8 48.2 26.7 2.47 1.19 4.93 2.39 7.4 3.59 45.6 22.1 92.8 39.6 142 52.5 1.19 0.31 2.38 0.63 3.61 0.95 29.2 7.57 58.9 13.1 88.9 16.6 3.37 0.39 6.73 0.82 10.1 1.25 36.9 4.46 74.3 4.85 111 3.16 1.46-0.06 2.91-0.12 4.37-0.19 75-3.31 151-18.8 221-46 2.23-0.86 4.47-1.69 6.71-2.51 30.3-11.2 59.6-25.1 87.8-40.9 2.36-1.32 4.73-2.62 7.11-3.9 17.3-9.4 33.8-19.9 50.1-31 2.32-1.56 4.64-3.12 6.96-4.67 10.4-6.99 20.4-14.4 30.2-22.2 1.93-1.52 3.86-3.03 5.81-4.54 7.71-5.97 15.2-12.2 22.5-18.6 2.85-2.46 5.73-4.88 8.61-7.3 8.12-6.65 8.12-6.65 15.7-13.9 1.41-1.31 1.41-1.31 3.41-1.31l1-3h2v-2c1.43-1.23 2.87-2.46 4.35-3.64 2.38-1.96 4.5-4.15 6.65-6.36 0.8-0.78 1.61-1.57 2.44-2.37 2.58-2.65 4.91-5.4 7.23-8.27 0.44-0.45 0.88-0.9 1.33-1.36h2c0.26-0.59 0.52-1.17 0.78-1.78 1.32-2.39 2.74-3.91 4.72-5.78 2.22-2.11 3.78-3.86 5.5-6.44h2c0.25-0.56 0.49-1.13 0.75-1.71 1.46-2.68 3.24-4.67 5.31-6.91 2.8-2.97 2.8-2.97 4.94-6.38h2c0.25-0.56 0.5-1.12 0.76-1.7 1.44-2.67 3.16-4.78 5.12-7.11 0.8-0.97 1.6-1.94 2.43-2.94 0.44-0.53 0.87-1.05 1.32-1.59 8.5-10.3 16.6-20.8 24.4-31.7 0.49-0.67 0.97-1.35 1.47-2.04 9.74-13.5 18.8-27.4 27.5-41.7 1.41-2.3 2.84-4.58 4.3-6.86 6.6-10.3 12.5-20.9 18.3-31.7 1.5-2.79 3.03-5.56 4.55-8.33 2.44-4.47 4.7-8.98 6.83-13.6 0.33-0.72 0.67-1.44 1.02-2.19 0.68-1.47 1.37-2.95 2.05-4.43 0.93-2 1.87-4 2.81-5.99 10.7-22.7 20.6-45.9 28.6-69.6 1.46-4.32 3.09-8.57 4.74-12.8 2.38-6.21 4.18-12.5 5.81-18.9 1.06-4 2.29-7.92 3.56-11.8 2.59-8.05 4.34-16.2 5.92-24.5 0.59-2.79 1.3-5.53 2.02-8.28 0.92-3.59 1.69-7.07 2.06-10.8 0.44-3.44 0.44-3.44 2.44-6.44 0.52-2.72 0.52-2.72 0.78-5.8 0.12-1.14 0.24-2.29 0.36-3.46 0.12-1.19 0.24-2.39 0.36-3.61 0.23-2.36 0.47-4.71 0.72-7.06 0.1-1.04 0.2-2.09 0.31-3.16 0.47-2.91 1.35-5.2 2.47-7.91 0.34-1.61 0.62-3.24 0.85-4.87 0.2-1.36 0.2-1.36 0.39-2.74 0.13-0.93 0.26-1.87 0.39-2.83 0.2-1.39 0.2-1.39 0.4-2.81 0.52-3.75 0.98-7.31 0.93-11.1 0.04-2.65 0.04-2.65 1-4.9 1.22-3.23 1.46-6 1.67-9.45 0.13-1.94 0.13-1.94 0.26-3.91 0.04-0.67 0.08-1.34 0.12-2.03 0.11-2.02 0.24-4.04 0.38-6.06 0.4-6.47 0.71-12.9 0.45-19.4 0.16-1.94 0.16-1.94 2.16-4.94 0.29-3.15 0.29-3.15 0.21-6.79v-2.08c-0.01-2.27-0.03-4.54-0.05-6.81-0.01-1.58-0.01-3.16-0.02-4.74-0.01-4.15-0.03-8.31-0.06-12.5-0.04-6.65-0.07-13.3-0.1-20-0.01-2.32-0.02-4.65-0.04-6.97-0.01-1.42-0.02-2.85-0.02-4.28-0.01-1.24-0.02-2.48-0.03-3.76 0.09-2.63 0.41-4.66 1.11-7.16-0.06-2-0.19-4-0.37-6-0.09-1.03-0.19-2.06-0.28-3.12-0.28-2.8-0.28-2.8-0.92-5.13-0.43-1.75-0.43-1.75 0.13-3.75 0.68-2.01 0.68-2.01-0.5-3.62-1.52-3.41-1.49-6.82-1.62-10.5-0.04-0.79-0.08-1.57-0.11-2.38-0.16-3.34-0.3-6.69-0.43-10-0.11-2.44-0.22-4.89-0.34-7.33-0.04-1.14-0.04-1.14-0.08-2.29-0.18-3.81-0.61-6.53-2.48-9.84-0.29-2.03-0.29-2.03-0.34-4.15-0.03-0.78-0.06-1.55-0.09-2.36-0.04-1.2-0.04-1.2-0.07-2.43-0.14-5.2-0.43-9.23-2.5-14.1-0.26-2.2-0.44-4.41-0.56-6.62-0.19-3.42-0.36-6.13-1.44-9.38l1-3h-2c-0.12-0.87-0.24-1.74-0.37-2.63-0.16-1.15-0.33-2.31-0.5-3.49-0.17-1.14-0.33-2.28-0.5-3.45-0.61-3.3-1.54-6.26-2.63-9.43-0.39-1.7-0.74-3.41-1.06-5.12-1.03-5.76-1.03-5.76-3.06-11.2-1.15-3.51-0.58-6.12 0.12-9.69h-2c-1.28-3.66-2.28-7.2-3-11-0.33-1.73-0.66-3.46-1-5.19-0.25-1.29-0.25-1.29-0.5-2.6-0.41-2.24-0.41-2.24-1.5-4.21l1-2h-2l-1.44-5.25c-0.26-0.97-0.53-1.95-0.81-2.95-0.24-0.93-0.49-1.85-0.75-2.8-0.22-0.74-0.44-1.47-0.66-2.23-0.34-1.77-0.34-1.77 0.66-3.77h-2c-0.16-0.57-0.32-1.14-0.48-1.73-1.76-6.11-3.89-12-6.24-17.9-0.95-2.5-1.82-4.99-2.65-7.53-1.86-5.63-4.02-11.1-6.19-16.6-0.6-1.54-0.6-1.54-1.21-3.1-1.61-4.12-3.22-8.15-5.23-12.1-0.66-1.6-1.31-3.2-1.94-4.81-4.76-12-10.2-23.7-16.1-35.2l-3.06-6.12c-0.47-0.93-0.93-1.87-1.41-2.82-0.82-1.63-1.63-3.26-2.44-4.89-18.3-36.8-40.1-71.6-65.1-104-1.18-1.54-1.18-1.54-2.38-3.12-10.8-14.3-10.8-14.3-22.3-28.1-2.31-2.75-2.31-2.75-2.31-4.75h-2c-1.31-1.47-2.54-3.01-3.75-4.56-4.49-5.62-9.29-10.9-14.2-16.1-2.99-3.17-5.94-6.35-8.77-9.66-3.52-4.12-7.41-7.84-11.3-11.6-1.94-2.1-1.94-2.1-1.94-4.1-0.58-0.25-1.16-0.51-1.77-0.77-2.47-1.36-4.03-2.87-5.98-4.92-3.16-3.24-6.42-6.25-9.86-9.2-3.15-2.78-6.2-5.67-9.26-8.55-4.96-4.65-10-8.99-15.4-13.1-0.56-0.49-1.12-0.98-1.7-1.49v-2c-0.74-0.25-1.48-0.49-2.25-0.75-3.05-1.38-4.39-2.88-6.75-5.25-2.25-1.89-4.56-3.69-6.87-5.5-0.6-0.47-1.2-0.95-1.82-1.43-2.8-2.2-5.6-4.26-8.57-6.23-2.27-1.52-3.86-2.91-5.74-4.84-1.92-1.5-3.86-2.98-5.81-4.44-1.53-1.14-1.53-1.14-3.08-2.31-2.15-1.55-4.27-2.99-6.5-4.41-0.86-0.61-1.72-1.21-2.61-1.84v-2c-0.56-0.1-1.13-0.2-1.71-0.3-2.76-0.84-4.58-2.13-6.91-3.82-0.88-0.63-1.75-1.26-2.65-1.9-0.9-0.65-1.8-1.31-2.73-1.98l-5.31-3.75c-0.78-0.55-1.56-1.1-2.37-1.67-2.39-1.62-4.84-3.1-7.32-4.58-2.22-1.48-4.42-2.99-6.62-4.5-2.71-1.71-5.52-3.07-8.38-4.5-2.22-1.31-4.43-2.64-6.62-4-1.11-0.68-2.22-1.36-3.36-2.06-3.02-1.94-3.02-1.94-5.06-3.51-2.42-1.77-4.95-3-7.65-4.3-4.53-2.23-8.97-4.57-13.4-7.05-2.6-1.45-5.26-2.77-7.94-4.08-1.46-0.73-2.92-1.46-4.37-2.19-1.3-0.64-1.3-0.64-2.63-1.31-2.17-1.08-4.34-2.18-6.5-3.28-7.55-3.84-15.2-7.49-22.9-11-1.22-0.55-1.22-0.55-2.45-1.1-4.94-2.21-9.91-4.27-15-6.23-2.12-0.87-4.14-1.85-6.17-2.92-3.78-1.94-7.65-3.38-11.7-4.79-2.7-0.96-5.39-1.95-8.08-2.95-0.84-0.31-1.67-0.62-2.53-0.94l-4.98-1.86c-4.56-1.69-9.12-3.16-13.8-4.46-1.3-0.46-2.59-0.93-3.87-1.44-7.75-2.97-15.6-5.33-23.6-7.56-5.88-1.64-11.7-3.35-17.5-5.35-3.61-1.16-7.3-1.89-11-2.65-6.82-1.43-13.6-2.87-20.4-4.62-3.39-0.88-6.65-1.58-10.1-1.94-3.5-0.44-3.5-0.44-5.39-1.42-2.51-1.21-4.62-1.49-7.39-1.8-1.01-0.12-2.01-0.24-3.05-0.36-1.05-0.12-2.09-0.24-3.17-0.36-2.07-0.23-4.15-0.47-6.22-0.72-0.92-0.1-1.83-0.2-2.78-0.31-2.5-0.47-4.27-1.27-6.5-2.47-2.33-0.39-2.33-0.39-4.94-0.5-6.02-0.42-12-0.9-18.1-1.44-0.92-0.07-1.84-0.15-2.79-0.22-0.87-0.08-1.75-0.16-2.65-0.24-0.78-0.07-1.56-0.14-2.37-0.2-2.19-0.4-2.19-0.4-4.18-1.41-2.36-1.16-4.07-1.29-6.69-1.37-0.93-0.03-1.86-0.07-2.82-0.1-0.97-0.03-1.94-0.05-2.94-0.08-1.87-0.06-3.74-0.13-5.62-0.19-1.07-0.04-2.14-0.07-3.24-0.11-2.68-0.1-5.36-0.23-8.04-0.38-15.6-0.88-31.1-0.96-46.7-0.95h-6.6c-34.8-0.06-34.8-0.06-69.3 3.19-2.55 0.32-5.1 0.63-7.66 0.94-0.7 0.08-1.41 0.17-2.14 0.26-2.98 0.36-5.97 0.71-8.96 1.07-2.19 0.26-4.39 0.53-6.58 0.79-1.3 0.16-2.61 0.32-3.95 0.48-6.29 0.2-6.29 0.2-11.7 2.46-2.85 0.46-5.7 0.86-8.56 1.25-16.2 2.32-32.3 5.76-48.1 9.95-3.34 0.8-3.34 0.8-7.15 1.29-3.27 0.2-3.27 0.2-5.19 2.51-2.35 0.68-4.68 1.27-7.06 1.81-8.07 1.93-16 4.19-23.9 6.59-1.91 0.57-3.81 1.14-5.71 1.7-5.61 1.68-10.9 3.55-16.3 5.9-2.1 0.76-4.2 1.51-6.31 2.25-16.5 5.84-32.8 12.4-48.7 19.8-1.6 0.73-1.6 0.73-3.23 1.47-6.66 3.05-13.2 6.22-19.8 9.53-2.42 1.21-4.83 2.42-7.25 3.63-1.14 0.57-2.28 1.14-3.45 1.72-2.15 1.08-4.3 2.15-6.45 3.21-2.42 1.23-4.8 2.49-7.16 3.82-0.77 0.42-1.54 0.85-2.33 1.3-1.55 0.87-3.1 1.74-4.66 2.61-3.69 2.07-7.38 4.06-11.2 5.9-3.54 1.39-3.54 1.39-4.5 3.81-1.96 0.84-3.96 1.47-5.99 2.12-2.24 0.98-3.32 2.14-5.01 3.88-1.45 0.9-2.93 1.75-4.44 2.56-0.76 0.42-1.52 0.83-2.31 1.26-1.47 0.77-2.96 1.51-4.47 2.21-1.96 0.85-1.96 0.85-2.78 2.97-5.42 3-5.42 3-8 3v2c-0.97 0.45-1.94 0.91-2.94 1.38-3.13 1.28-3.13 1.28-4.06 3.62-5.42 3-5.42 3-8 3v2c-0.97 0.45-1.94 0.91-2.94 1.38-3.13 1.28-3.13 1.28-4.06 3.62-1.69 0.99-3.38 1.98-5.09 2.93-3.43 1.93-6.79 3.91-9.53 6.76-1.38 1.31-1.38 1.31-3.5 1.81-0.62 0.17-1.24 0.33-1.88 0.5l-1 3c-1.99 1.02-3.99 2.02-6 3l-2 3c-1.32 0.68-2.66 1.35-4 2l-1 2c-1.66 1.01-3.33 2-5 3-2.9 2.33-5.74 4.73-8.57 7.14-2.43 1.86-2.43 1.86-4.43 1.86v2c-1.72 1.38-3.5 2.68-5.31 3.94-3.15 2.2-6.01 4.31-8.69 7.06-1.84 1.54-3.7 3.06-5.56 4.56-3.84 3.09-3.84 3.09-7.44 6.44-2.81 0.19-5.53 0.26-8.34 0.23h-2.61c-2.85 0-5.7-0.02-8.55-0.04-1.97-0.01-3.94-0.02-5.92-0.03-13.1-0.06-26.2-0.22-39.3-0.48-1.84-0.04-3.68-0.07-5.53-0.1-2.57-0.05-5.14-0.1-7.71-0.17-0.76-0.01-1.52-0.02-2.3-0.03-3.71-0.11-6.57-0.33-9.73-2.38 1.38-2.5 1.38-2.5 3-5h2v-3c1.57-1.65 1.57-1.65 3.69-3.37 3.27-2.75 6.33-5.57 9.31-8.63l10-10c0.8-0.82 1.61-1.65 2.44-2.5 2.56-2.5 2.56-2.5 5.5-4.87 2.34-1.9 4.21-3.93 6.12-6.25 2.39-2.89 4.66-4.53 7.94-6.38 1.17-1.13 2.33-2.27 3.45-3.44 6.5-6.56 13.7-12.3 21-17.9 3.27-2.38 3.27-2.38 5.56-5.63 0.68-0.4 1.36-0.8 2.06-1.21 4.74-2.88 8.83-6.57 13.1-10.1 3.48-2.88 6.47-5.33 10.9-6.65v-2c1.48-1.16 1.48-1.16 3.63-2.5 4.09-2.63 8.06-5.4 12-8.25 5.15-3.7 10.4-7.33 15.6-10.9 0.97-0.66 0.97-0.66 1.95-1.33 4.56-3.05 4.56-3.05 6.8-3.05v-2c0.53-0.29 1.07-0.57 1.62-0.87 6.83-3.73 13.4-7.88 19.9-12.1 0.81-0.52 1.62-1.04 2.46-1.57 0.72-0.47 1.45-0.94 2.2-1.43 1.83-1.02 1.83-1.02 3.83-1.02l1-2c2.36-1.36 4.71-2.63 7.13-3.87 4.39-2.29 8.74-4.6 13-7.07 13.8-7.94 27.8-15.1 42.2-21.8 2.35-1.1 4.69-2.21 7.04-3.32 6.03-2.86 12.1-5.59 18.3-8 2.29-0.91 4.52-1.89 6.76-2.9 3.97-1.79 7.99-3.4 12-5 2.33-0.94 4.61-1.96 6.9-3 4-1.8 8.07-3.32 12.2-4.8 2.66-0.95 5.32-1.92 7.97-2.9 0.82-0.31 1.65-0.61 2.5-0.93 1.63-0.6 3.27-1.21 4.9-1.82 7.1-2.63 14.2-5.17 21.6-7.05 3.91-1.04 7.64-2.27 11.4-3.75 3.94-1.46 7.99-2.58 12-3.75 1.18-0.35 2.35-0.7 3.56-1.06 3.39-0.93 6.79-1.68 10.2-2.38 2.26-0.52 2.26-0.52 4.52-1.53 3.33-1.27 6.62-1.88 10.1-2.53 3.6-0.67 7.05-1.33 10.5-2.5 4.31-1.42 8.73-2.1 13.2-2.85 2.87-0.51 5.54-1.03 8.24-2.15 3.86-1.49 7.82-1.92 11.9-2.5 6.86-0.98 6.86-0.98 13.6-2.5 4.94-1.3 9.95-1.83 15-2.44 6.94-0.86 13.8-1.81 20.7-3.12 8.85-1.67 17.8-2.45 26.8-3.21 2.43-0.21 4.85-0.45 7.27-0.69 0.88-0.09 1.75-0.18 2.65-0.27 1.73-0.17 3.46-0.35 5.19-0.53 19.4-2.02 38.7-2.05 58.1-2zm-35.6 1.26 4 1zm-37 64 4 1zm786 556 1 3zm14 71 1 2zm5 47 1 4zm0 107v9h1v-9h-1zm-816 24 1 3zm-709 19 1 4zm1516 34v5h1v-5h-1zm-1511 3 1 2zm117 171 1 2zm1 2 1 3zm425 11 1 3zm-415 10 1 3zm420 0 1 2zm3 5 1 2zm-420 1 1 2zm1 2 1 2zm1 2 1 2zm3 5 1 2zm2 4 1 2zm1 2 1 2zm3 5 1 2zm4 7 1 2zm1 2 1 2zm1 2 1 2zm9 15 1 2zm5 8 1 2zm9 14 1 2zm5 7 1 2z" fill="#FAFEFE"/>
    <path transform="translate(717,767)" d="m0 0c4.23 0.58 7.84 1.58 11.8 3.22 1.08 0.45 2.17 0.91 3.28 1.37 1.7 0.73 1.7 0.73 3.44 1.47 1.17 0.5 2.33 1 3.53 1.51 8.39 3.62 16.2 7.55 24 12.4 0.92 0.56 1.84 1.12 2.79 1.7 10.3 6.36 20.1 13.4 29.4 21.2 0.81 0.67 0.81 0.67 1.64 1.37 2.79 2.38 5.01 4.8 7.17 7.75 1.49 0.99 1.49 0.99 3 2 3 2 3 2 4 5 1.42 1.58 1.42 1.58 3 3l2 2c1.77 1.46 3.56 2.92 5.34 4.37 1.79 1.76 2.66 3.34 3.66 5.63 0.87 2.15 0.87 2.15 3 3.38 2.26 1.83 2.61 2.79 3 5.62h2c3.75 4.01 6.05 7.59 7 13 1.97 1.36 1.97 1.36 4 2-0.5 1.49-0.5 1.49-1 3 2.47 3.59 2.47 3.59 6 6 0.62 3.06 0.62 3.06 1 6 0.99 0.33 1.98 0.66 3 1 0.06 0.76 0.12 1.53 0.19 2.31 1.39 6.34 4.22 12.3 7.81 17.7 1.63 2.94 2.55 5.75 3.38 9 1.36 5.26 3.12 10.3 5.05 15.4 0.57 2.63 0.57 2.63-0.04 4.73-25.4 34.7-85.6 52.4-125 58.9-3.33 0.41-6.66 0.75-10 1 0-3.89 0.47-5.55 2-9 0.33-0.76 0.66-1.51 1.01-2.29 0.34-0.77 0.69-1.54 1.05-2.33 0.38-0.85 0.77-1.71 1.17-2.59 0.6-1.32 0.6-1.32 1.21-2.67 1.52-3.37 3.05-6.74 4.56-10.1 0.52-1.16 1.05-2.33 1.59-3.53 1.76-4.32 3.18-8.69 4.53-13.2 0.41-1.32 0.41-1.32 0.81-2.66 1.7-5.8 2.76-11.3 2.87-17.3 0.2-2.31 0.2-2.31 1.15-4.12 2.9-6.06 2.2-13.9 2.18-20.5 0-0.95 0-1.91 0.01-2.89 0-2.01-0.01-4.02-0.01-6.02-0.01-3.07 0-6.15 0.01-9.22 0-1.95-0.01-3.91-0.01-5.87 0-0.91 0.01-1.83 0.01-2.77 0-0.86-0.01-1.71-0.01-2.59v-2.27c-0.19-3.16-1.03-5.84-2.1-8.8-1.25-4.01-1.85-7.97-2.47-12.1-0.87-5.52-1.78-10.8-3.76-16-1-2.71-1.76-5.46-2.55-8.23-5.31-17.1-13.8-34.1-25.2-47.9-0.54-0.91-1.07-1.82-1.62-2.75-1.18-2.37-1.18-2.37-3.38-3.25v-2zm39 87 1 2zm0 68 1 2z" fill="#F8FCFC"/>
    <path transform="translate(447 705)" d="m0 0c2.38-0 4.77-0.02 7.15-0.04 24.8-0.09 24.8-0.09 36.2 3.23v2c-1.02 0.46-1.02 0.46-2.06 0.94-13.3 6.15-26.1 12.3-37.9 21.1-0.57 0.4-1.13 0.81-1.71 1.24-7.06 5.11-13.4 10.6-19.4 16.9-1.93 1.84-1.93 1.84-3.93 1.84-0.22 0.54-0.45 1.08-0.67 1.64-1.74 3.09-4.08 5.45-6.52 7.98-4.82 5.15-8.95 10.4-12.8 16.4-0.71 1.03-1.41 2.07-2.14 3.13-5.98 8.85-10.5 18.1-14.9 27.9-0.42 0.93-0.84 1.86-1.28 2.83-0.92 2.05-1.83 4.1-2.72 6.17-0.47 1.02-0.94 2.05-1.42 3.11-1.93 4.53-3.25 9.21-4.58 14-0.39 1.38-0.39 1.38-0.79 2.79-1.8 6.44-3.36 12.9-4.67 19.4-0.54 2.72-0.54 2.72-1.04 4.44-0.69 3.14-0.84 6.24-1.03 9.45-0.05 0.68-0.09 1.36-0.13 2.07-0.14 2.16-0.27 4.34-0.4 6.51-0.09 1.47-0.18 2.95-0.28 4.42l-0.66 10.8c-5.61-2.97-10.8-6.11-15.8-10.1-0.54-0.42-1.07-0.84-1.63-1.27l-4.62-3.66c-1.43-1.09-1.43-1.09-2.89-2.19-0.7-0.6-1.39-1.2-2.11-1.81v-2c-0.83-0.35-0.83-0.35-1.67-0.69-3.02-1.7-5.14-3.86-7.58-6.31-1.34-1.34-1.34-1.34-2.7-2.69-2.05-2.31-2.05-2.31-2.05-4.31-0.99-0.33-1.98-0.66-3-1-2.96-3.09-5.43-6.59-8-10-0.48-0.64-0.97-1.28-1.46-1.93-36.3-48-36.3-48-36.5-71.1 1.71-2.4 3.1-3.97 5.25-5.88 0.55-0.51 1.09-1.03 1.65-1.55 12.6-11.7 26.6-21.4 41.1-30.6 0.99-0.64 1.98-1.27 3-1.92 34.6-21.2 76.3-31.3 117-31.3zm35.4 4.19v1h6v-1h-6z" fill="#FAFEFE"/>
    <path transform="translate(199,1217)" d="m0 0c3.78 3.51 6.71 7.49 9.75 11.6 4.63 6.23 9.33 12.4 14.2 18.4 0.51 0.63 1.03 1.26 1.56 1.91 6.96 8.55 14 17 21.4 25.1 1.34 1.47 2.67 2.95 4 4.44 0.56 0.61 1.11 1.23 1.69 1.87 1.31 1.69 1.31 1.69 2.31 4.69 0.99 0.33 1.98 0.66 3 1 1.72 1.74 1.72 1.74 3.5 3.88 2.5 2.97 2.5 2.97 5.22 5.75 1.28 1.37 1.28 1.37 1.28 3.37 0.56 0.23 1.11 0.45 1.69 0.69 4.27 2.42 7.45 5.74 9.31 10.3h2c1.73 1.63 3.37 3.28 5 5 8.65 8.85 17.2 17.4 27 25 1.82 1.47 3.63 2.95 5.44 4.44 0.91 0.74 1.82 1.49 2.76 2.25 2.88 2.38 5.75 4.78 8.61 7.19 6.06 5.05 12.2 9.94 18.5 14.8 1.64 1.27 3.27 2.55 4.9 3.84 8.13 6.33 16.5 12.3 25 18.2 1.56 1.08 3.1 2.17 4.65 3.26 12.4 8.76 25.1 16.9 38.1 24.8 1.93 1.17 3.87 2.35 5.8 3.53 15.7 9.54 31.6 18.8 48.2 26.7 2.47 1.19 4.93 2.39 7.39 3.59 45.6 22.1 92.8 39.6 142 52.5 1.79 0.47 1.79 0.47 3.61 0.95 29.2 7.56 58.9 13.1 88.9 16.6 3.37 0.39 6.73 0.82 10.1 1.25 36.9 4.46 74.3 4.85 111 3.16 1.46-0.06 2.91-0.13 4.37-0.19 75-3.31 151-18.8 221-46 2.23-0.86 4.47-1.69 6.71-2.51 30.3-11.2 59.6-25.1 87.8-40.9 2.36-1.31 4.73-2.61 7.1-3.9 17.3-9.4 33.9-19.9 50.1-31 2.31-1.56 4.64-3.12 6.96-4.67 10.4-6.99 20.4-14.4 30.2-22.2 1.92-1.52 3.86-3.03 5.81-4.54 7.71-5.97 15.2-12.2 22.5-18.6 2.85-2.46 5.73-4.88 8.61-7.3 8.12-6.65 8.12-6.65 15.7-13.9 1.41-1.31 1.41-1.31 3.41-1.31l1-3h2v-2c1.43-1.23 2.87-2.46 4.35-3.64 2.38-1.96 4.5-4.15 6.65-6.36 0.8-0.78 1.61-1.57 2.44-2.38 2.58-2.64 4.91-5.39 7.23-8.26 0.44-0.45 0.88-0.9 1.33-1.36h2l-2 5h-2c-0.4 0.96-0.4 0.96-0.81 1.94-1.19 2.06-1.19 2.06-4.19 3.06l-2 4c-1.49 0.49-1.49 0.49-3 1-0.46 0.96-0.46 0.96-0.94 1.94-1.32 2.56-2.54 2.8-5.06 4.06-0.41 0.88-0.41 0.88-0.82 1.79-1.53 2.88-3.53 4.52-5.99 6.65-2.68 2.35-5.3 4.67-7.81 7.18-2.14 2.14-4.32 4.18-6.57 6.19-0.67 0.61-1.35 1.21-2.04 1.83-1.77 1.36-1.77 1.36-3.77 1.36l-1 3c-1.46 1.51-1.46 1.51-3.38 3.12-1.09 0.93-1.09 0.93-2.2 1.87-0.8 0.66-1.6 1.33-2.42 2.01-1.23 1.02-1.23 1.02-2.48 2.07-5.7 4.7-11.5 9.28-17.3 13.8-4.71 3.69-9.32 7.48-13.9 11.3-2.05 1.59-4 2.63-6.3 3.78l-1 2c-2.94 2.01-4.39 3-8 3l-1 3c-2.86 2.14-5.47 3.8-8.81 5.06-0.72 0.31-1.45 0.62-2.19 0.94l-1 3c-2.6 1.65-3.86 2-7 2l-1 3c-2.07 1.46-2.07 1.46-4.69 2.94-3.87 2.23-7.6 4.56-11.3 7.06-4.61 3-4.61 3-8 3l-1 3c-1.88 0.97-3.77 1.94-5.69 2.83-2.42 1.23-4.58 2.63-6.81 4.17-4.02 2.74-8.11 4.92-12.5 7-5.41 2.61-10.7 5.35-15.8 8.44-5.01 2.95-10.1 5.45-15.4 7.83-3.86 1.74-7.68 3.57-11.5 5.41-9.02 4.33-18.1 8.48-27.3 12.3-1.52 0.64-1.52 0.64-3.06 1.3-6.17 2.6-12.4 5.06-18.6 7.45-2.2 0.83-4.39 1.68-6.58 2.54-8.43 3.29-16.9 6.4-25.6 8.83-2.99 0.8-2.99 0.8-5.5 1.88-3.48 1.36-6.89 2.22-10.6 3l-2-1v2c-22.5 6.48-45 12.2-68 16.6-4 0.77-7.98 1.6-12 2.48-15.3 3.29-30.6 5.21-46.2 6.63-3.3 0.32-6.58 0.78-9.86 1.28-2.62 0.34-5.25 0.68-7.88 1-0.63 0.08-1.27 0.16-1.92 0.25-15.5 1.87-31.1 2.05-46.7 2.37-1.04 0.03-2.07 0.05-3.14 0.07-32.6 0.67-65.7 0.93-98-4.19-6.72-1-13.5-1.61-20.2-2.27-6.92-0.72-13.5-1.92-20.3-3.57-3.17-0.74-6.28-1.16-9.52-1.47-15.8-1.95-31.3-6.35-46.6-10.3-3.18-0.79-6.36-1.5-9.56-2.2-12.3-2.74-24.2-6.76-36.1-10.7-1.48-0.48-2.96-0.97-4.44-1.45-11.4-3.75-22.7-7.67-33.7-12.4-2.83-1.17-5.68-2.23-8.57-3.25-4.08-1.46-8.02-3.09-12-4.89-2.6-1.16-5.22-2.23-7.85-3.3-5.91-2.44-11.7-5.14-17.4-7.9-3.22-1.53-6.45-3.04-9.73-4.43-8.58-3.67-16.8-8.17-25.1-12.5-1.19-0.62-1.19-0.62-2.4-1.25-4.48-2.35-8.8-4.84-13-7.59-1.83-1.12-3.68-2.06-5.61-2.98-4.39-2.12-8.39-4.76-12.5-7.41-2.31-1.45-4.62-2.79-7.02-4.09-10.4-5.64-20.1-12.5-29.9-19.1-2.55-1.71-5.1-3.4-7.66-5.08-12.3-8.07-23.8-17-35.4-26-1.77-1.4-3.55-2.78-5.33-4.17-10.2-7.94-20.1-16.2-29.8-24.8-1.54-1.35-3.12-2.67-4.69-3.98-9-7.5-17.6-15.4-25-24.5v-2c-0.59-0.11-1.17-0.22-1.78-0.33-5.81-1.76-9.24-6.7-12.2-11.7-1.8-1.6-3.66-3.1-5.57-4.57-1.43-1.43-1.43-1.43-1.43-4.43-0.64-0.27-1.28-0.54-1.94-0.81-2.06-1.19-2.06-1.19-3.06-4.19l-1.78-0.89c-2.93-1.47-4.56-3.46-6.72-5.92-0.75-0.85-1.51-1.71-2.28-2.58-6.22-7.31-6.22-7.31-6.22-9.61-0.56-0.21-1.11-0.41-1.69-0.62-3.15-1.88-5.1-4.53-7.31-7.38-3.56-4.48-7.22-8.88-10.9-13.3-2.12-2.72-2.12-2.72-3.71-5.44-1.35-2.54-1.35-2.54-4.41-4.28-0.68-1.33-1.35-2.66-2-4l-2-1v-4c-0.62-0.25-1.24-0.49-1.88-0.75-2.58-1.52-2.92-2.54-4.12-5.25-1.32-2.01-2.65-4.01-4-6l1-1z" fill="#000102"/>
    <path transform="translate(650 619)" d="m0 0c2.57 2.05 3.12 3.14 4.5 6 0.95 1.32 1.91 2.63 2.88 3.94 4.8 7.16 8.36 16.1 6.72 24.8-0.2 0.74-0.4 1.48-0.6 2.24-0.34 1.33-0.34 1.33-0.69 2.68-2.59 8.37-6.81 14.6-14.4 19.2-9.62 4.89-18.2 6.85-29 4.46-10.6-3.57-18-9.86-23.2-19.7-4.37-9.86-3.17-18.5 0.26-28.6 4.55-9.8 12.1-16 22-20 11-3.57 22-0.77 31.5 5zm12.5 29 1 3z" fill="#F6FAFA"/>
    <path transform="translate(563,1125)" d="m0 0c2.94 2.76 5.06 5.48 7.12 8.94 3.24 5.23 6.84 10 10.7 14.8 3.2 4.04 3.2 4.04 3.2 6.24h2c1.41 1.6 2.75 3.26 4.06 4.94 3.81 4.79 7.84 9.08 12.3 13.3 1.65 1.78 1.65 1.78 1.65 3.78 0.57 0.24 1.14 0.48 1.73 0.72 2.75 1.55 4.48 3.41 6.65 5.72 6.05 6.18 12.7 11.4 19.6 16.6 0.88 0.68 1.76 1.35 2.67 2.05 13.8 10.4 28.8 19.3 44.3 27 0.62 0.31 1.25 0.61 1.89 0.93 12.5 6.07 25.8 10.1 39.1 14.1 0.75 0.22 1.49 0.45 2.27 0.68 65.1 19 139 8.49 198-23.5 20.7-11.6 39.6-25.7 56.7-42.2 0.59-0.57 1.18-1.13 1.78-1.72 10.5-10.1 19.6-20.9 28.2-32.6 1.87-2.41 3.83-4.53 6.04-6.63-0.64 3.45-2 5.85-3.94 8.75-0.52 0.8-1.05 1.6-1.59 2.42-0.48 0.61-0.97 1.21-1.47 1.83h-2c-0.34 1.05-0.34 1.05-0.69 2.12-2.16 4.74-5.67 8.24-9.31 11.9l-2 3h-2c-0.27 0.64-0.54 1.28-0.81 1.94-1.19 2.06-1.19 2.06-4.19 3.06l-2 4c-1.49 0.49-1.49 0.49-3 1l-2 4c-1.49 0.49-1.49 0.49-3 1l-2 4c-1.49 0.49-1.49 0.49-3 1-0.27 0.58-0.53 1.16-0.81 1.76-1.7 3.2-4.39 4.95-7.25 7.05-1.18 0.88-2.35 1.76-3.53 2.64-0.57 0.43-1.15 0.86-1.75 1.3-3.04 2.29-5.99 4.69-8.95 7.07-1.71 1.18-1.71 1.18-3.71 1.18l-1 3c-2.31 1.42-4.61 2.72-7 4-1.24 0.73-2.48 1.47-3.72 2.22-0.62 0.37-1.24 0.75-1.89 1.14-0.62 0.37-1.25 0.75-1.89 1.14-1.88 1.13-3.76 2.27-5.64 3.39-1.26 0.75-2.51 1.51-3.75 2.28-3.41 2.07-5.01 2.83-9.11 2.83v2c-2.91 1.35-5.83 2.67-8.75 4-0.83 0.38-1.65 0.76-2.5 1.16-0.8 0.36-1.6 0.72-2.42 1.09-1.1 0.5-1.1 0.5-2.22 1.02-2.11 0.73-2.11 0.73-6.11 0.73v2c-1.25 0.38-1.25 0.38-2.53 0.77-7.58 2.32-7.58 2.32-15.1 4.85-4.2 1.44-8.43 2.18-12.8 2.85-2.62 0.46-2.62 0.46-5.1 1.56-2.59 1.01-4.66 1.3-7.42 1.47-2.88 0.18-5.17 0.54-7.93 1.46-19.9 6.6-50.2 6.77-70.6 2.53-4.09-0.79-8.25-0.84-12.4-1.01-4.17-0.21-7.98-0.82-12-1.91-2.29-0.62-4.6-1.16-6.92-1.68-10.9-2.51-21.6-5.38-32.2-8.89-1.15-0.36-2.29-0.72-3.48-1.1-1.59-0.51-1.59-0.51-3.21-1.02-0.91-0.3-1.82-0.59-2.76-0.89-2.74-1.06-5.03-2.47-7.55-3.99-2.33-1.02-4.66-2.02-7-3-14.9-6.9-29-15-42-25-0.76-0.57-1.51-1.15-2.29-1.74-5.13-3.94-10.1-8.03-15.1-12.2-1.78-1.45-3.58-2.87-5.41-4.25-1.07-0.92-1.07-0.92-2.17-1.86v-2c-0.62-0.25-1.24-0.49-1.88-0.75-2.51-1.48-2.88-2.69-4.12-5.25-0.99-0.33-1.98-0.66-3-1-1.43-1.74-1.43-1.74-2.88-3.88-2.39-3.35-4.5-5.1-8.12-7.12v-3c-0.55-0.21-1.1-0.41-1.66-0.62-3.22-1.9-5.36-4.54-7.72-7.38-0.72-0.87-0.72-0.87-1.47-1.75-3.41-4.15-6.33-8.42-8.93-13.1-1.26-2.19-2.68-4.12-4.22-6.12-3-4.67-3-4.67-3-7h-2v-4z" fill="#000102"/>
    <path transform="translate(684 685)" d="m0 0c3.57 2.54 5.71 4.77 8.25 8.31v2c0.5 1.8 0.5 1.8 1 3.63 1.37 5.42 1.78 10.1-0.06 15.5-3.54 5.25-7.87 8.9-13.9 10.9-8.3 0.95-14.3-0.39-21.2-5.25-4.35-4.25-6.56-7.51-7.25-13.6 0.42-7 2.67-13.5 7.51-18.6 7.62-5.97 17.1-7.21 25.7-2.82z" fill="#F3F7F7"/>
    <path transform="translate(572 654)" d="m0 0c5.77 3.12 8.22 8.27 10.5 14.2 1.94 6.65 1.19 11.9-2 18-3.01 4.79-6.64 7.37-12 9-7.36 0.98-13.9 0.57-20-4-4.7-4.38-7.74-9.39-8.37-15.8 0.28-5.7 1.33-10.9 5.21-15.2 7.87-7.07 16.1-9.4 26.7-6.18z" fill="#F3F7F7"/>
    <path transform="translate(647,759)" d="m0 0c-3 1-3 1-6.19-0.44-1.39-0.77-1.39-0.77-2.81-1.56v-2c-0.71-0.11-1.42-0.23-2.16-0.35-3.03-0.69-5.53-1.76-8.34-3.09-5.77-2.71-11.4-4.86-17.5-6.56-1.13-0.33-2.27-0.66-3.44-1-8.81-2.47-17.4-4.03-26.6-5-1.49-0.17-1.49-0.17-3-0.34-31.7-3.29-65.8 4.26-92.8 21.1-2.09 1.2-3.83 1.81-6.19 2.25 39.8-43.1 125-30.9 169-3z" fill="#000102"/>
    <path transform="translate(408,709)" d="m0 0c-2.65 2.65-5.46 3-9 3.81-1.45 0.35-2.9 0.7-4.35 1.05-0.76 0.19-1.52 0.37-2.3 0.56-9.45 2.33-19 4.7-27.9 8.54-4.1 1.74-8.29 3.24-12.5 4.79-2.86 1.2-5.36 2.6-7.98 4.25l-6 3c-5.99 3.17-11.7 6.67-17.4 10.4-1.67 1.07-3.36 2.11-5.06 3.11-2.78 1.7-5.39 3.55-8.02 5.48-0.92 0.67-1.84 1.34-2.78 2.02-2.62 1.96-5.18 3.98-7.72 6.04l-2-1c8.48-7.64 17.2-14 27-19.8 1.87-1.13 3.71-2.29 5.55-3.46 21.8-13.8 53.9-29.7 80.4-28.7z" fill="#000102"/>
    <path transform="translate(1403,1216)" d="m0 0c0.99 0.49 0.99 0.49 2 1l-4 7h-2c-0.37 1.06-0.37 1.06-0.75 2.15-1.4 3.19-3.16 5.69-5.25 8.47-2.06 2.77-4.09 5.51-6 8.38h-2c-0.21 0.66-0.41 1.32-0.62 2-1.87 4.07-4.36 7.69-7.38 11h-2c-0.25 0.74-0.49 1.48-0.75 2.25-1.35 2.98-2.88 4.53-5.25 6.75l-2 3h-2c-0.25 0.74-0.49 1.48-0.75 2.25-1.35 2.97-2.93 4.51-5.25 6.75l-1 3c-2.26 2.45-4.47 4.62-7.19 6.56-1.92 1.31-1.92 1.31-2.72 3.35-1.2 2.3-2.38 3.41-4.4 5.03-3.09 2.54-5.91 5.19-8.69 8.06 0-3 0-3 1.68-4.94 0.72-0.68 1.45-1.36 2.2-2.06 2.42-2.3 4.26-4.2 6.12-7h2c0.37-0.85 0.37-0.85 0.75-1.71 1.46-2.68 3.24-4.67 5.31-6.91 2.8-2.97 2.8-2.97 4.94-6.38h2c0.25-0.56 0.5-1.12 0.76-1.7 1.44-2.67 3.16-4.79 5.12-7.11 1.2-1.46 1.2-1.46 2.43-2.94 0.44-0.53 0.87-1.05 1.32-1.59 11.9-14.4 22.9-29.3 33.4-44.7z" fill="#000102"/>
    <path transform="translate(447 705)" d="m0 0c2.38-0 4.77-0.02 7.15-0.04 24.8-0.09 24.8-0.09 36.2 3.23v2c-1.13-0.16-2.26-0.31-3.42-0.47-22.7-2.82-46.5-2.56-69.2-0.07-0.94 0.1-1.88 0.19-2.84 0.29-1.24 0.14-1.24 0.14-2.5 0.29-2-0.04-2-0.04-4-2.04 1.77-0.32 3.54-0.63 5.31-0.94 0.99-0.18 1.98-0.35 2.99-0.53 10.1-1.46 20.1-1.72 30.4-1.72z" fill="#000102"/>
    <path transform="translate(717,767)" d="m0 0c4.23 0.58 7.84 1.58 11.8 3.22 1.08 0.46 2.17 0.91 3.28 1.37 1.14 0.49 2.27 0.97 3.44 1.47 1.16 0.5 2.32 0.99 3.51 1.5 22.7 9.79 22.7 9.79 25 14.4-4.31-0.6-7.42-2.17-11.2-4.31-5.49-3.04-11-5.48-16.8-7.69-1.2-0.52-2.39-1.03-3.62-1.56-2.52-1.07-5.01-2.06-7.57-3-2.7-1-5.27-2.07-7.81-3.44v-2z" fill="#000102"/>
    <path transform="translate(647,760)" d="m0 0c4.86 1.56 8.33 4.36 12.2 7.5 0.96 0.75 0.96 0.75 1.93 1.51 4.69 3.72 4.69 3.72 5.82 5.99-3.99-1.33-6.1-3.01-9-6-2.13-1.24-2.13-1.24-4-2v-2c-1.45-0.4-1.45-0.4-2.94-0.81-1.01-0.39-2.02-0.79-3.06-1.19l-1-3z" fill="#000102"/>
    <path transform="translate(764,789)" d="M0 0 C4.03 0.63 6.85 2.69 10.19 4.94 C11.25 5.65 12.32 6.36 13.42 7.09 C16 9 16 9 17 11 C12.44 9.73 9.59 8.04 6 5 C5.09 4.46 4.18 3.93 3.25 3.38 C1 2 1 2 0 0 Z " fill="#000102"/>
    <path transform="translate(1531,833)" d="m0 0h1v10h-1v-10z" fill="#B0B3B2"/>
    <path transform="translate(125,1088)" d="m0 0c0.99 0.49 0.99 0.49 2 1 0.62 2.56 0.62 2.56 1 5-1.5-1.31-1.5-1.31-3-3v-3z" fill="#000102"/>
    <path transform="translate(115,1064)" d="m0 0c0.99 1.32 1.98 2.64 3 4l-1 2c-2-3-2-3-2-6z" fill="#000102"/>
    <path transform="translate(67,855)" d="m0 0h1v8h-1v-8z" fill="#7E8180"/>
    <path transform="translate(550,1101)" d="m0 0 3 3-1 2-2-5z" fill="#000102"/>
    <path transform="translate(106,1040)" d="m0 0c0.99 0.49 0.99 0.49 2 1l-1 4-1-5z" fill="#000102"/>
    <path transform="translate(133,1105)" d="m0 0 2 2-1 3-1-5z" fill="#000102"/>
    <path transform="translate(119,1074)" d="m0 0 2 2-1 3-1-5z" fill="#000102"/>
    <path transform="translate(110,1050)" d="m0 0c0.99 1.48 0.99 1.48 2 3l-1 2-1-5z" fill="#000102"/>
    <path transform="translate(1596,733)" d="m0 0h1v6h-1v-6z" fill="#7E8180"/>
    <path transform="translate(694,703)" d="m0 0h1v6h-1v-6z" fill="#7E8180"/>
    <path transform="translate(121,1079)" d="m0 0 2 4-2-1v-3z" fill="#000102"/>
    <path transform="translate(103,1031)" d="m0 0 2 4-2-1v-3z" fill="#000102"/>
    <path transform="translate(1199,1010)" d="m0 0h1v5h-1v-5z" fill="#7E8180"/>
    <path transform="translate(406,885)" d="m0 0h1v5h-1v-5z" fill="#FBFFFF"/>
    <path transform="translate(67,768)" d="m0 0h1v5h-1v-5z" fill="#7E8180"/>
    <path transform="translate(1596,726)" d="m0 0h1v5h-1v-5z" fill="#000102"/>
    <path transform="translate(871,66)" d="m0 0h5v1h-5v-1z" fill="#7E8180"/>
    <path transform="translate(732,987)" d="m0 0 1 3-2-1 1-2z" fill="#000102"/>
    <path transform="translate(71,896)" d="m0 0 1 4z" fill="#7E8180"/>
    <path transform="translate(71,890)" d="m0 0 1 4z" fill="#000102"/>
    <path transform="translate(910,71)" d="m0 0c3 1 3 1 3 1z" fill="#7E8180"/>
    <path transform="translate(662,11)" d="m0 0c3 1 3 1 3 1z" fill="#FBFFFF"/>
    <path transform="translate(735,1)" d="m0 0c3 1 3 1 3 1z" fill="#FBFFFF"/>
    <path transform="translate(940,76)" d="m0 0 2 1z" fill="#7E8180"/>
    <path transform="translate(615,21)" d="m0 0 2 1z" fill="#FBFFFF"/>
    <path transform="translate(695,6)" d="m0 0 2 1z" fill="#FBFFFF"/>
</svg>
