<svg width="26" height="24" viewBox="0 0 26 24" fill="none" xmlns="http://www.w3.org/2000/svg">
<path d="M15.4707 21.2008C12.8989 21.2008 8.85446 20.3808 7.8589 19.7008C7.63076 19.5408 7.50632 19.3008 7.50632 19.0408V11.2208C7.50632 10.9808 7.63077 10.7408 7.81743 10.6008C7.87965 10.5608 9.3315 9.46077 10.8456 8.64077C12.733 7.64077 14.0396 6.24079 14.3507 5.36079C14.7241 4.28079 15.2633 2.80078 16.9641 2.80078C17.7729 2.80078 18.4366 3.24078 18.7892 4.00078C19.4944 5.56078 18.7478 7.72078 17.5033 9.42078C18.3329 9.60078 19.37 9.86077 19.9922 10.0408C21.1329 10.3808 21.8796 11.1808 22.0455 12.1608C22.1907 13.1608 21.6722 14.1808 20.5729 14.9608C19.7641 17.0608 18.3744 20.3808 17.3581 20.9208C16.9641 21.1208 16.2796 21.2008 15.4707 21.2008ZM9.16558 18.5608C10.7419 19.2008 15.5952 19.8608 16.5078 19.5208C16.9848 19.1008 18.2085 16.4208 19.0589 14.1608C19.1211 14.0008 19.2248 13.8608 19.37 13.7608C20.0544 13.3208 20.407 12.8008 20.3448 12.3608C20.2826 12.0008 19.9507 11.7008 19.4529 11.5408C18.4159 11.2208 15.8441 10.6808 15.8026 10.6808C15.5122 10.6208 15.2841 10.4208 15.1804 10.1408C15.0767 9.86077 15.1596 9.56079 15.367 9.36079C17.2337 7.42079 17.5655 5.44077 17.213 4.64077C17.1092 4.40077 16.9848 4.40078 16.9226 4.40078C16.5078 4.40078 16.3211 4.68079 15.8855 5.88079C15.3878 7.28079 13.6663 8.96077 11.613 10.0408C10.6174 10.5608 9.62187 11.2608 9.12409 11.6208V18.5608H9.16558ZM5.88854 19.1208V11.1408C5.88854 10.4208 5.28706 9.84077 4.5404 9.84077C3.79373 9.84077 3.19226 10.4208 3.19226 11.1408V19.1208C3.19226 19.8408 3.79373 20.4208 4.5404 20.4208C5.26632 20.4208 5.88854 19.8208 5.88854 19.1208Z" fill="#147B65"/>
</svg>
