<svg width="32" height="32" viewBox="0 0 32 32" fill="none" xmlns="http://www.w3.org/2000/svg">
<path d="M10.2992 7.46823C10.2992 6.72156 10.8859 6.1349 11.6325 6.1349H26.4059C27.1525 6.1349 27.7392 6.72156 27.7392 7.46823C27.7392 8.2149 27.1525 8.80156 26.4059 8.80156H11.6325C10.8859 8.80156 10.2992 8.2149 10.2992 7.46823ZM26.4059 14.6682H11.6325C10.8859 14.6682 10.2992 15.2549 10.2992 16.0016C10.2992 16.7482 10.8859 17.3349 11.6325 17.3349H26.4059C27.1525 17.3349 27.7392 16.7482 27.7392 16.0016C27.7392 15.2549 27.1525 14.6682 26.4059 14.6682ZM26.4059 23.2016H11.6325C10.8859 23.2016 10.2992 23.7882 10.2992 24.5349C10.2992 25.2816 10.8859 25.8682 11.6325 25.8682H26.4059C27.1525 25.8682 27.7392 25.2816 27.7392 24.5349C27.7392 23.7882 27.1525 23.2016 26.4059 23.2016ZM5.87253 14.2416C4.83253 14.2416 4.00586 15.0949 4.00586 16.1349C4.00586 17.1749 4.83253 18.0282 5.87253 18.0282C6.91253 18.0282 7.73919 17.1749 7.73919 16.1349C7.73919 15.0949 6.88586 14.2416 5.87253 14.2416ZM5.87253 5.60156C4.83253 5.60156 4.00586 6.45489 4.00586 7.49489C4.00586 8.53489 4.83253 9.38822 5.87253 9.38822C6.91253 9.38822 7.73919 8.53489 7.73919 7.49489C7.73919 6.45489 6.88586 5.60156 5.87253 5.60156ZM5.87253 22.6149C4.83253 22.6149 4.00586 23.4682 4.00586 24.5082C4.00586 25.5482 4.83253 26.4016 5.87253 26.4016C6.91253 26.4016 7.73919 25.5482 7.73919 24.5082C7.73919 23.4682 6.88586 22.6149 5.87253 22.6149Z" fill="#395B65"/>
</svg>
