<svg width="49" height="48" viewBox="0 0 49 48" fill="none" xmlns="http://www.w3.org/2000/svg">
<path d="M24.8408 33C33.1251 33 39.8408 26.2843 39.8408 18C39.8408 9.71573 33.1251 3 24.8408 3C16.5565 3 9.84082 9.71573 9.84082 18C9.84082 26.2843 16.5565 33 24.8408 33Z" stroke="white" stroke-width="3" stroke-linecap="round" stroke-linejoin="round"/>
<path d="M24.8408 27C29.8114 27 33.8408 22.9706 33.8408 18C33.8408 13.0294 29.8114 9 24.8408 9C19.8703 9 15.8408 13.0294 15.8408 18C15.8408 22.9706 19.8703 27 24.8408 27Z" stroke="white" stroke-width="2" stroke-linecap="round" stroke-linejoin="round"/>
<path d="M33.8408 29.9985V44.9995L24.8395 40.4995L15.8408 44.9995V29.9998" stroke="white" stroke-width="3" stroke-linecap="round" stroke-linejoin="round"/>
</svg>
