<svg width="33" height="32" viewBox="0 0 33 32" fill="none" xmlns="http://www.w3.org/2000/svg">
<path d="M10.0717 17.8666C9.59174 17.8666 9.08508 17.6533 8.73841 17.3066C8.39174 16.9599 8.20508 16.48 8.20508 16C8.20508 15.52 8.41841 15.04 8.73841 14.6666C9.08508 14.32 9.56508 14.1333 10.0717 14.1333C10.5517 14.1333 11.0318 14.3466 11.3784 14.6666C11.7251 15.0133 11.9384 15.4933 11.9384 16C11.9384 16.48 11.7251 16.9599 11.3784 17.3066C11.0584 17.6799 10.5517 17.8666 10.0717 17.8666ZM18.0717 17.3066C18.4184 16.9599 18.6317 16.48 18.6317 16C18.6317 15.52 18.4184 15.04 18.0717 14.6666C17.7251 14.32 17.2451 14.1333 16.7651 14.1333C16.2851 14.1333 15.7784 14.3466 15.4317 14.6666C15.0851 15.0133 14.8984 15.4933 14.8984 16C14.8984 16.48 15.1117 16.9599 15.4317 17.3066C15.7784 17.6533 16.2584 17.8666 16.7651 17.8666C17.2184 17.8666 17.7251 17.6799 18.0717 17.3066ZM24.7384 17.3066C25.0851 16.9599 25.2984 16.48 25.2984 16C25.2984 15.52 25.0851 15.04 24.7384 14.6666C24.3917 14.32 23.9117 14.1333 23.4317 14.1333C22.9517 14.1333 22.4451 14.3466 22.0984 14.6666C21.7517 15.0133 21.5651 15.4933 21.5651 16C21.5651 16.48 21.7784 16.9599 22.0984 17.3066C22.4451 17.6533 22.9251 17.8666 23.4317 17.8666C23.8851 17.8666 24.3917 17.6799 24.7384 17.3066Z" fill="#395B65"/>
<path fill-rule="evenodd" clip-rule="evenodd" d="M16.7311 29.3335C9.36823 29.3335 3.39778 23.3645 3.39778 16.0002C3.39778 8.63728 9.36824 2.66683 16.7311 2.66683C24.0954 2.66683 30.0645 8.63728 30.0645 16.0002C30.0645 23.3645 24.0954 29.3335 16.7311 29.3335Z" stroke="#395B65" stroke-width="2.44499" stroke-linecap="round" stroke-linejoin="round"/>
</svg>
