<svg width="33" height="32" viewBox="0 0 33 32" fill="none" xmlns="http://www.w3.org/2000/svg">
<path d="M26.2858 22.801C24.4991 22.801 23.8058 21.7611 23.8058 15.2277C23.8058 10.1077 21.4858 6.90773 17.4858 6.42773V4.80104C17.4858 4.21438 17.0058 3.73438 16.4191 3.73438C15.8324 3.73438 15.3524 4.21438 15.3524 4.80104V6.40104C11.0858 6.74771 8.60578 10.0011 8.60578 15.2277C8.60578 21.7611 7.83245 22.801 6.01911 22.801C5.43245 22.801 4.92579 23.2011 4.92579 23.8144C4.92579 24.4011 5.37911 24.8277 5.96578 24.8277H12.8991C12.9791 25.6277 13.2191 26.6143 13.8591 27.3077C14.4191 27.921 15.1658 28.2677 16.0458 28.2677C16.9258 28.2677 17.6724 27.8944 18.2324 27.3077C18.8991 26.5877 19.1658 25.6277 19.2724 24.8277H26.2858C26.8724 24.8277 27.3524 24.4277 27.3524 23.8144C27.3524 23.2011 26.8724 22.801 26.2858 22.801ZM16.7391 25.841C16.6324 25.9477 16.4724 26.1077 16.0991 26.1077C15.7524 26.1077 15.5924 25.9477 15.4858 25.841C15.2724 25.601 15.1658 25.3344 15.0858 24.801H15.9925C16.0458 24.801 16.0991 24.801 16.1524 24.801C16.2058 24.801 16.2591 24.801 16.3124 24.801H17.1925C17.1125 25.3344 16.9791 25.601 16.7391 25.841ZM16.3124 22.6677C16.2591 22.6677 16.2058 22.6677 16.1524 22.6677C16.0991 22.6677 16.0458 22.6677 15.9925 22.6677H9.69911C10.6858 20.801 10.6858 17.8944 10.6858 15.1743C10.6858 10.8277 12.5791 8.53438 15.9925 8.53438H16.2858C19.6991 8.53438 21.5925 10.8277 21.5925 15.1743C21.5925 17.8944 21.5924 20.801 22.5791 22.6677H16.3124ZM20.0991 13.201C20.1258 13.7077 19.7258 14.161 19.2191 14.1877C19.1924 14.1877 19.1924 14.1877 19.1658 14.1877C18.6858 14.1877 18.2591 13.8143 18.2324 13.3077C18.1524 12.1077 17.2191 11.6811 17.1124 11.6277C16.6324 11.4144 16.4191 10.881 16.6058 10.401C16.7924 9.92104 17.3258 9.70773 17.8058 9.8944C17.9124 9.94773 19.9658 10.801 20.0991 13.201Z" fill="#395B65"/>
</svg>
