<svg width="32" height="32" viewBox="0 0 32 32" fill="none" xmlns="http://www.w3.org/2000/svg">
<path d="M26.16 22.7991C24.3733 22.7991 23.68 21.7591 23.68 15.2258C23.68 10.1058 21.36 6.90578 17.36 6.42578V4.79909C17.36 4.21242 16.88 3.73242 16.2933 3.73242C15.7067 3.73242 15.2267 4.21242 15.2267 4.79909V6.39909C10.96 6.74576 8.47999 9.99911 8.47999 15.2258C8.47999 21.7591 7.70665 22.7991 5.89332 22.7991C5.30665 22.7991 4.79999 23.1991 4.79999 23.8124C4.79999 24.3991 5.25332 24.8258 5.83998 24.8258H12.7733C12.8533 25.6258 13.0933 26.6124 13.7333 27.3057C14.2933 27.9191 15.04 28.2658 15.92 28.2658C16.8 28.2658 17.5466 27.8924 18.1066 27.3057C18.7733 26.5857 19.04 25.6258 19.1467 24.8258H26.16C26.7467 24.8258 27.2267 24.4258 27.2267 23.8124C27.2267 23.1991 26.7467 22.7991 26.16 22.7991ZM16.6133 25.8391C16.5067 25.9457 16.3466 26.1057 15.9733 26.1057C15.6266 26.1057 15.4667 25.9457 15.36 25.8391C15.1467 25.5991 15.04 25.3324 14.96 24.7991H15.8667C15.92 24.7991 15.9733 24.7991 16.0267 24.7991C16.08 24.7991 16.1333 24.7991 16.1866 24.7991H17.0667C16.9867 25.3324 16.8533 25.5991 16.6133 25.8391ZM16.1866 22.6658C16.1333 22.6658 16.08 22.6658 16.0267 22.6658C15.9733 22.6658 15.92 22.6658 15.8667 22.6658H9.57332C10.56 20.7991 10.56 17.8924 10.56 15.1724C10.56 10.8257 12.4533 8.53242 15.8667 8.53242H16.16C19.5733 8.53242 21.4667 10.8257 21.4667 15.1724C21.4667 17.8924 21.4666 20.7991 22.4533 22.6658H16.1866ZM19.9733 13.1991C20 13.7058 19.6 14.1591 19.0933 14.1857C19.0667 14.1857 19.0666 14.1857 19.04 14.1857C18.56 14.1857 18.1333 13.8124 18.1066 13.3057C18.0266 12.1057 17.0933 11.6791 16.9866 11.6258C16.5066 11.4124 16.2933 10.8791 16.48 10.3991C16.6667 9.91909 17.2 9.70578 17.68 9.89245C17.7867 9.94578 19.84 10.7991 19.9733 13.1991Z" fill="#44AD92"/>
</svg>
