<svg width="32" height="32" viewBox="0 0 32 32" fill="none" xmlns="http://www.w3.org/2000/svg">
<path d="M28.2736 7.73366C28.2736 7.14699 27.7936 6.66699 27.2069 6.66699H4.8069C4.22023 6.66699 3.74023 7.14699 3.74023 7.73366V24.267C3.74023 24.8537 4.22023 25.3337 4.8069 25.3337H27.2069C27.7936 25.3337 28.2736 24.8537 28.2736 24.267V7.73366ZM26.1402 8.80033V17.7337L24.3536 16.2403C23.9536 15.9203 23.3936 15.9203 22.9936 16.2403L20.1135 18.6403L13.4202 12.827C13.0202 12.4804 12.4602 12.4803 12.0602 12.8003L5.90023 17.787V8.80033H26.1402ZM5.87357 23.2003V20.5337L12.7002 15.0137L19.3936 20.827C19.7936 21.1737 20.3802 21.1736 20.7802 20.8536L23.6602 18.4536L26.1402 20.5337V23.2003H5.87357ZM17.6336 12.427C17.6336 11.3604 18.5136 10.4803 19.6069 10.4803C20.7002 10.4803 21.5802 11.3604 21.5802 12.427C21.5802 13.4937 20.7002 14.3736 19.6069 14.3736C18.5136 14.3736 17.6336 13.4937 17.6336 12.427Z" fill="#395B65"/>
</svg>
