<svg width="32" height="32" viewBox="0 0 32 32" fill="none" xmlns="http://www.w3.org/2000/svg">
<path fill-rule="evenodd" clip-rule="evenodd" d="M6.66602 5.33464C5.92964 5.33464 5.33268 5.93159 5.33268 6.66797V25.3346C5.33268 26.071 5.92964 26.668 6.66602 26.668H25.3327C26.0691 26.668 26.666 26.071 26.666 25.3346V6.66797C26.666 5.93159 26.0691 5.33464 25.3327 5.33464H6.66602ZM2.66602 6.66797C2.66602 4.45883 4.45688 2.66797 6.66602 2.66797H25.3327C27.5418 2.66797 29.3327 4.45883 29.3327 6.66797V25.3346C29.3327 27.5438 27.5418 29.3346 25.3327 29.3346H6.66602C4.45688 29.3346 2.66602 27.5438 2.66602 25.3346V6.66797Z" fill="#395B65"/>
<path fill-rule="evenodd" clip-rule="evenodd" d="M15.9993 9.33464C16.7357 9.33464 17.3327 9.93159 17.3327 10.668V21.3346C17.3327 22.071 16.7357 22.668 15.9993 22.668C15.263 22.668 14.666 22.071 14.666 21.3346V10.668C14.666 9.93159 15.263 9.33464 15.9993 9.33464Z" fill="#395B65"/>
<path fill-rule="evenodd" clip-rule="evenodd" d="M9.33268 16.0013C9.33268 15.2649 9.92964 14.668 10.666 14.668H21.3327C22.0691 14.668 22.666 15.2649 22.666 16.0013C22.666 16.7377 22.0691 17.3346 21.3327 17.3346H10.666C9.92964 17.3346 9.33268 16.7377 9.33268 16.0013Z" fill="#395B65"/>
</svg>
