<svg width="20" height="20" viewBox="0 0 20 20" fill="none" xmlns="http://www.w3.org/2000/svg">
<mask id="path-1-inside-1_6147_22243" fill="white">
<path d="M20 10C20 15.5228 15.5228 20 10 20C4.47715 20 0 15.5228 0 10C0 4.47715 4.47715 0 10 0C15.5228 0 20 4.47715 20 10ZM1.94274 10C1.94274 14.4499 5.5501 18.0573 10 18.0573C14.4499 18.0573 18.0573 14.4499 18.0573 10C18.0573 5.5501 14.4499 1.94274 10 1.94274C5.5501 1.94274 1.94274 5.5501 1.94274 10Z"/>
</mask>
<path d="M20 10C20 15.5228 15.5228 20 10 20C4.47715 20 0 15.5228 0 10C0 4.47715 4.47715 0 10 0C15.5228 0 20 4.47715 20 10ZM1.94274 10C1.94274 14.4499 5.5501 18.0573 10 18.0573C14.4499 18.0573 18.0573 14.4499 18.0573 10C18.0573 5.5501 14.4499 1.94274 10 1.94274C5.5501 1.94274 1.94274 5.5501 1.94274 10Z" stroke="#6F9396" stroke-width="4" mask="url(#path-1-inside-1_6147_22243)"/>
</svg>
