<svg width="24" height="25" viewBox="0 0 24 25" fill="none" xmlns="http://www.w3.org/2000/svg">
<path fill-rule="evenodd" clip-rule="evenodd" d="M5.7 5.36201C5.4613 5.36201 5.23239 5.45683 5.0636 5.62562C4.89482 5.7944 4.8 6.02332 4.8 6.26201V18.862C4.8 19.1007 4.89482 19.3296 5.0636 19.4984C5.23239 19.6672 5.46131 19.762 5.7 19.762H18.3C18.5387 19.762 18.7676 19.6672 18.9364 19.4984C19.1052 19.3296 19.2 19.1007 19.2 18.862V9.3348L15.2272 5.36201H5.7ZM3.79081 4.35282C4.29716 3.84648 4.98392 3.56201 5.7 3.56201H15.6C15.8387 3.56201 16.0676 3.65683 16.2364 3.82562L20.7364 8.32562C20.9052 8.4944 21 8.72332 21 8.96201V18.862C21 19.5781 20.7155 20.2649 20.2092 20.7712C19.7028 21.2775 19.0161 21.562 18.3 21.562H5.7C4.98391 21.562 4.29716 21.2775 3.79081 20.7712C3.28446 20.2649 3 19.5781 3 18.862V6.26201C3 5.54593 3.28446 4.85917 3.79081 4.35282Z" fill="#147B65"/>
<path fill-rule="evenodd" clip-rule="evenodd" d="M6.6 13.462C6.6 12.965 7.00294 12.562 7.5 12.562H16.5C16.9971 12.562 17.4 12.965 17.4 13.462V20.662C17.4 21.1591 16.9971 21.562 16.5 21.562C16.0029 21.562 15.6 21.1591 15.6 20.662V14.362H8.4V20.662C8.4 21.1591 7.99706 21.562 7.5 21.562C7.00294 21.562 6.6 21.1591 6.6 20.662V13.462Z" fill="#147B65"/>
<path fill-rule="evenodd" clip-rule="evenodd" d="M7.5 3.56201C7.99706 3.56201 8.4 3.96496 8.4 4.46201V8.06201H14.7C15.1971 8.06201 15.6 8.46496 15.6 8.96201C15.6 9.45907 15.1971 9.86201 14.7 9.86201H7.5C7.00294 9.86201 6.6 9.45907 6.6 8.96201V4.46201C6.6 3.96496 7.00294 3.56201 7.5 3.56201Z" fill="#147B65"/>
</svg>
