<svg width="25" height="24" viewBox="0 0 25 24" fill="none" xmlns="http://www.w3.org/2000/svg">
<path d="M17.5683 18.1V19.0999C17.5683 19.54 17.1883 19.8 16.7483 19.8H3.68826C3.24826 19.8 2.96826 19.5599 2.96826 19.0999V9.19995C2.96826 8.75995 3.24826 8.35995 3.68826 8.35995H6.02826C6.46826 8.35995 6.82826 8.71995 6.82826 9.15995C6.82826 9.59995 6.46826 9.95995 6.02826 9.95995H4.56826V18.2H15.9683V18.1C15.9683 17.66 16.3283 17.3 16.7683 17.3C17.2283 17.28 17.5683 17.66 17.5683 18.1ZM21.1283 10.64L16.1683 15.7C15.9283 15.94 15.5883 16 15.2883 15.88C14.9883 15.76 14.7883 15.46 14.7883 15.14V12.9599C13.1883 12.9199 9.34827 13.08 7.94827 15.54C7.80827 15.8 7.52827 15.9599 7.24827 15.9599C7.18827 15.9599 7.10827 15.96 7.04827 15.94C6.68827 15.84 6.44827 15.5199 6.44827 15.1599C6.44827 15.0199 6.44826 11.94 8.76826 9.63995C10.2283 8.15995 12.1883 7.35995 14.7883 7.21995V4.99995C14.7883 4.67995 14.9883 4.37995 15.2883 4.25995C15.5883 4.13995 15.9483 4.19995 16.1683 4.43995L21.1483 9.49995C21.4483 9.81995 21.4483 10.32 21.1283 10.64ZM19.4083 10.0599L16.3683 6.97996V7.95995C16.3683 8.39995 16.0283 8.75995 15.5683 8.75995C13.0883 8.75995 11.1883 9.41995 9.88826 10.74C9.28826 11.34 8.88826 12 8.62826 12.64C10.5083 11.52 12.8883 11.3199 14.3483 11.3199C15.1083 11.3199 15.6083 11.38 15.6683 11.38C16.0683 11.42 16.3683 11.78 16.3683 12.18V13.1599L19.4083 10.0599Z" fill="#395B65"/>
</svg>
