<svg width="24" height="24" viewBox="0 0 24 24" fill="none" xmlns="http://www.w3.org/2000/svg">
<path d="M21.1647 8.05983L19.0247 14.8198C18.8647 15.2998 18.4447 15.6198 17.9447 15.6198H9.68469C9.20469 15.6198 8.74469 15.3198 8.58469 14.8798L5.44469 6.41984H3.60469C3.16469 6.41984 2.80469 6.05984 2.80469 5.61984C2.80469 5.17984 3.16469 4.81984 3.60469 4.81984H5.98469C6.32469 4.81984 6.62469 5.03983 6.74469 5.35983L10.0047 13.9998H17.6047L19.3047 8.59982H9.88469C9.44469 8.59982 9.08469 8.23982 9.08469 7.79982C9.08469 7.35982 9.44469 6.99982 9.88469 6.99982H20.4047C20.6647 6.99982 20.9047 7.13981 21.0447 7.33981C21.2047 7.53981 21.2447 7.81983 21.1647 8.05983ZM10.0847 16.6598C9.74469 16.6598 9.40469 16.7998 9.16469 17.0398C8.92469 17.2798 8.78469 17.6198 8.78469 17.9598C8.78469 18.2998 8.92469 18.6398 9.16469 18.8798C9.40469 19.1198 9.74469 19.2598 10.0847 19.2598C10.4247 19.2598 10.7647 19.1198 11.0047 18.8798C11.2447 18.6398 11.3847 18.2998 11.3847 17.9598C11.3847 17.6198 11.2447 17.2798 11.0047 17.0398C10.7647 16.7998 10.4247 16.6598 10.0847 16.6598ZM17.2647 16.6598C16.9247 16.6598 16.5847 16.7998 16.3447 17.0398C16.1047 17.2798 15.9647 17.6198 15.9647 17.9598C15.9647 18.2998 16.1047 18.6398 16.3447 18.8798C16.5847 19.1198 16.9247 19.2598 17.2647 19.2598C17.6047 19.2598 17.9447 19.1198 18.1847 18.8798C18.4247 18.6398 18.5647 18.2998 18.5647 17.9598C18.5647 17.6198 18.4247 17.2798 18.1847 17.0398C17.9447 16.7998 17.6047 16.6598 17.2647 16.6598Z" fill="#395B65"/>
</svg>
