<svg width="32" height="32" viewBox="0 0 32 32" fill="none" xmlns="http://www.w3.org/2000/svg">
<path d="M15.9998 28C22.6272 28 27.9998 22.6274 27.9998 16C27.9998 9.37258 22.6272 4 15.9998 4C9.37234 4 3.99976 9.37258 3.99976 16C3.99976 22.6274 9.37234 28 15.9998 28Z" stroke="#075740" stroke-width="2" stroke-linecap="round" stroke-linejoin="round"/>
<path d="M11.5 15C12.3284 15 13 14.3284 13 13.5C13 12.6716 12.3284 12 11.5 12C10.6716 12 10 12.6716 10 13.5C10 14.3284 10.6716 15 11.5 15Z" fill="#075740"/>
<path d="M20.5 15C21.3284 15 22 14.3284 22 13.5C22 12.6716 21.3284 12 20.5 12C19.6716 12 19 12.6716 19 13.5C19 14.3284 19.6716 15 20.5 15Z" fill="#075740"/>
<path d="M21.1977 19C20.6709 19.9122 19.9132 20.6697 19.0009 21.1964C18.0885 21.7231 17.0537 22.0003 16.0002 22.0003C14.9468 22.0003 13.9119 21.7231 12.9996 21.1964C12.0872 20.6698 11.3296 19.9123 10.8027 19.0001" stroke="#075740" stroke-width="2" stroke-linecap="round" stroke-linejoin="round"/>
</svg>
