<svg width="16" height="16" viewBox="0 0 16 16" fill="none" xmlns="http://www.w3.org/2000/svg">
<path d="M13.7362 9.70667V13.3333C13.7362 13.7067 13.4429 14 13.0695 14H2.9362C2.56286 14 2.26953 13.7067 2.26953 13.3333V9.70667C2.26953 9.33334 2.56286 9.04001 2.9362 9.04001C3.30953 9.04001 3.60286 9.33334 3.60286 9.70667V12.6667H12.4029V9.70667C12.4029 9.33334 12.6962 9.04001 13.0695 9.04001C13.4429 9.04001 13.7362 9.33334 13.7362 9.70667ZM5.81619 5.85332L7.3362 4.30667V10.08C7.3362 10.4533 7.62953 10.7467 8.00286 10.7467C8.3762 10.7467 8.66953 10.4533 8.66953 10.08V4.30667L10.1895 5.85332C10.3229 5.98665 10.4962 6.05332 10.6695 6.05332C10.8429 6.05332 11.0029 5.98667 11.1362 5.86667C11.4029 5.61333 11.4029 5.18665 11.1495 4.91999L8.49619 2.2C8.37619 2.06667 8.20286 2 8.01619 2C7.84286 2 7.66953 2.06667 7.5362 2.2L4.88286 4.91999C4.62953 5.18665 4.62952 5.6 4.89619 5.86667C5.13619 6.12 5.56286 6.10665 5.81619 5.85332Z" fill="#147B65"/>
</svg>
