<svg width="33" height="33" viewBox="0 0 33 33" fill="none" xmlns="http://www.w3.org/2000/svg">
<path fill-rule="evenodd" clip-rule="evenodd" d="M16.5004 5.2874C10.4805 5.2874 5.60039 10.1675 5.60039 16.1874C5.60039 22.2073 10.4805 27.0874 16.5004 27.0874C22.5203 27.0874 27.4004 22.2073 27.4004 16.1874C27.4004 10.1675 22.5203 5.2874 16.5004 5.2874ZM3.40039 16.1874C3.40039 8.95247 9.26546 3.0874 16.5004 3.0874C23.7353 3.0874 29.6004 8.95247 29.6004 16.1874C29.6004 23.4223 23.7353 29.2874 16.5004 29.2874C9.26546 29.2874 3.40039 23.4223 3.40039 16.1874Z" fill="#395B65"/>
<path fill-rule="evenodd" clip-rule="evenodd" d="M16.5004 11.2874C14.3465 11.2874 12.6004 13.0335 12.6004 15.1874C12.6004 17.3413 14.3465 19.0874 16.5004 19.0874C18.6543 19.0874 20.4004 17.3413 20.4004 15.1874C20.4004 13.0335 18.6543 11.2874 16.5004 11.2874ZM10.4004 15.1874C10.4004 11.8185 13.1315 9.0874 16.5004 9.0874C19.8693 9.0874 22.6004 11.8185 22.6004 15.1874C22.6004 18.5563 19.8693 21.2874 16.5004 21.2874C13.1315 21.2874 10.4004 18.5563 10.4004 15.1874Z" fill="#395B65"/>
<path fill-rule="evenodd" clip-rule="evenodd" d="M16.5023 21.2874C15.0437 21.2874 13.6136 21.691 12.3703 22.4535C11.127 23.2161 10.1189 24.3078 9.45765 25.6078C9.18224 26.1493 8.52 26.365 7.9785 26.0896C7.43701 25.8142 7.22131 25.152 7.49672 24.6105C8.34202 22.9485 9.63071 21.5529 11.2201 20.5782C12.8096 19.6034 14.6377 19.0874 16.5023 19.0874C18.3668 19.0874 20.195 19.6033 21.7844 20.5781C23.3739 21.5529 24.6626 22.9485 25.5079 24.6104C25.7833 25.1519 25.5676 25.8142 25.0261 26.0896C24.4846 26.365 23.8224 26.1493 23.5469 25.6078C22.8857 24.3078 21.8776 23.2161 20.6343 22.4535C19.3909 21.691 17.9608 21.2874 16.5023 21.2874Z" fill="#395B65"/>
</svg>
