<svg id="Calque_1" data-name="Calque 1" xmlns="http://www.w3.org/2000/svg" viewBox="0 0 680 680"><defs><style>.cls-1{fill:#fff;}.cls-2{fill:#263674;}.cls-3{fill:#ec6639;}.cls-4{fill:#010101;}</style></defs><path class="cls-1" d="M497.61,499.85c-21-18.71,12.32-36.54,12.32-36.54-2.52-6.89,6.57-15.55,6.57-15.55s3.91-1.68,9.55-3.47c16.05-4.14,19.13,6.22,19.13,6.22s2.37,3-2,8.92c0,0,22.64,42.32-.84,53.89,0,0-4.84,8.2-10.31,10.83,0,0-5.48,2.64-15.37-2.87l2.33-2.52c-9.62,11.6-19.4-8.82-19.4-8.82-5.29-9.9,1.9-11.49,1.9-11.49Z"/><path d="M522.57,471.89a18.8,18.8,0,0,1-8.87-2,16.81,16.81,0,0,1-4-2.69,12.09,12.09,0,0,1-3.07-4.31,9.47,9.47,0,0,1-.46-5.69,10.58,10.58,0,0,1,2.44-4.65,15.57,15.57,0,0,1,7.87-4.79,65.36,65.36,0,0,0-4.27,7.19,8.88,8.88,0,0,0-.91,3.17,5.78,5.78,0,0,0,.43,2.72,16.47,16.47,0,0,0,4.34,5.47C518.06,468.12,520.27,469.87,522.57,471.89Z"/><path d="M531.22,468.75c1.65-1.38,3.22-2.68,4.65-4.1a32.52,32.52,0,0,0,3.83-4.31,17.28,17.28,0,0,0,2.38-4.63,13.26,13.26,0,0,0,.4-4.82l.08.4s0-.05,0-.1l-.09-.2a3.38,3.38,0,0,0-.21-.43,8.71,8.71,0,0,0-.51-.88,6.32,6.32,0,0,0-.65-.82,5.74,5.74,0,0,0-.72-.76,11.46,11.46,0,0,0-3.84-2.3,22.82,22.82,0,0,0-4.93-1.15l-2.7-.23c-.92,0-1.86,0-2.83-.13.83-.47,1.69-.89,2.58-1.29s1.83-.61,2.78-.91a17,17,0,0,1,6.06-.36,13.24,13.24,0,0,1,6.08,2.39,12.05,12.05,0,0,1,2.47,2.37,12.27,12.27,0,0,1,1,1.45c.14.25.28.52.41.8a4.28,4.28,0,0,1,.19.43c.07.17.12.29.21.56l.06.19,0,.2a15.16,15.16,0,0,1-.83,7.37,16.82,16.82,0,0,1-4.07,5.82,21.54,21.54,0,0,1-11.77,5.44Z"/><path d="M509.93,463.31c-2.83,2.9-5.59,5.59-8.14,8.37a45.64,45.64,0,0,0-6.52,8.61,14.72,14.72,0,0,0-2,9.42,16.64,16.64,0,0,0,1.55,5,50.35,50.35,0,0,0,2.81,5.11,18,18,0,0,1-5-3.56,14.83,14.83,0,0,1-3.52-5.47,14.57,14.57,0,0,1-.76-6.79,17.91,17.91,0,0,1,2.14-6.37,28.46,28.46,0,0,1,8.5-9.22A31.9,31.9,0,0,1,509.93,463.31Z"/><path d="M511.66,484.62a24.83,24.83,0,0,1-1.19,4.29,30.17,30.17,0,0,1-1.86,4.11,26.33,26.33,0,0,1-2.57,3.82,20.3,20.3,0,0,1-3.4,3.34l-.7.3s-.25.12-.38.22a3.19,3.19,0,0,0-.44.31,2.66,2.66,0,0,0-.62.74,2.93,2.93,0,0,0-.35,1.94,14.83,14.83,0,0,0,2,5.44,43.53,43.53,0,0,0,3.55,5.48,18.59,18.59,0,0,0,4.28,4.23,4.68,4.68,0,0,0,4.4.76,12.55,12.55,0,0,0,4.51-3.76,22,22,0,0,0,5.42-12.19,14.9,14.9,0,0,1,.25,7.28,23.32,23.32,0,0,1-2.66,7,22.13,22.13,0,0,1-2.21,3.18,12.48,12.48,0,0,1-3.34,2.73,8.75,8.75,0,0,1-4.7.94,10.73,10.73,0,0,1-4.35-1.41,21.23,21.23,0,0,1-5.92-5.37,37.67,37.67,0,0,1-4-6.39,17.49,17.49,0,0,1-2.22-7.86,7.64,7.64,0,0,1,1.59-4.7,7.32,7.32,0,0,1,1.9-1.67,7.43,7.43,0,0,1,1.09-.55,6.71,6.71,0,0,1,1.28-.4l-.7.3a23.37,23.37,0,0,0,3.24-2.26,32.13,32.13,0,0,0,2.94-2.9c1-1,1.81-2.17,2.68-3.32S510.88,485.88,511.66,484.62Z"/><path d="M543.18,459.43a53.86,53.86,0,0,1,7.86,13,55.8,55.8,0,0,1,4.24,14.78A31.51,31.51,0,0,1,553.82,503a17.71,17.71,0,0,1-4.6,6.7,16.1,16.1,0,0,1-6.88,3.63,20.35,20.35,0,0,0,7.36-11.65,40.31,40.31,0,0,0,.14-13.74,126.36,126.36,0,0,0-2.87-14.1Z"/><path d="M540.2,493.49a34.6,34.6,0,0,1,4.06,17.77,19.34,19.34,0,0,1-2.85,9.55,12.41,12.41,0,0,1-3.85,3.85,13.51,13.51,0,0,1-5,1.87l.55-.19a4.73,4.73,0,0,1-.8.26c-.22.07-.43.1-.64.15a10.85,10.85,0,0,1-1.23.15,15.3,15.3,0,0,1-2.35,0,17.29,17.29,0,0,1-4.32-1,21.65,21.65,0,0,1-3.81-1.94c-.59-.38-1.15-.81-1.71-1.22s-1.06-.91-1.56-1.38c.69.14,1.35.3,2,.48l2,.41a30.93,30.93,0,0,0,3.83.54,19.22,19.22,0,0,0,3.64,0,12.21,12.21,0,0,0,1.66-.3,7.17,7.17,0,0,0,.74-.22,2.52,2.52,0,0,0,.33-.13c.07,0,.24-.11.15-.08l.54-.19a9.13,9.13,0,0,0,5.29-4,19.36,19.36,0,0,0,2.45-7.11,64.09,64.09,0,0,0,.77-8.36C540.14,499.46,540.16,496.53,540.2,493.49Z"/><path d="M526.58,460.76a6.9,6.9,0,0,1-6.17-5.43c-4.3-20.51-21.36-51.86-40.94-54.91a6.87,6.87,0,1,1,2.12-13.57c27.13,4.22,47.23,41.67,52.27,65.65a6.86,6.86,0,0,1-7.28,8.26Z"/><path d="M241.67,480.61c-3.95-5.58-27.54-2.67-27.54-2.67l-25.59-59,3.32-19.15c9.13-1.46,11.15-18,11.15-18a208,208,0,0,1,8.72-73.11c2.16-7.08,1.38-15,2.4-22.46C231.92,177.06,337.3,183.79,337.3,183.79c2.16.21,4.43-2.71,6.15-4.62,23.05-25.51,48.06-48.73,77.83-66.32,16.75-9.9,34.38-17.57,53.93-20,48.49-6.09,78.86,23.06,75.15,71.8-2.06,27.13-9.39,52.86-19.73,77.83-1.83,4.43-1.31,7.28,1.53,11.17,45.56,62.35,53.58,129.49,18,198C514.77,519.67,455.83,553,378.76,550.92,324.43,549.45,280,525.85,245,484.56"/><circle cx="278.46" cy="187.35" r="14.33"/><circle class="cls-2" cx="278.46" cy="187.35" r="6.86"/><path class="cls-3" d="M528.3,263.4c-2.44-3.32-7.09-6.89-10.87-7.06-138.25-13-232.75,19.46-232.75,19.46s-54.82,21-61.68,36.41c0,0-8,11.05-10.91,67.65,0,0,.12,11.65-3.36,15.72a38.66,38.66,0,0,1-12.43,8.28c-10.92-6.54-52.18-28.14-62.2,12.08l4.08,3.72c-2.57-2-9.35-5.09-17.73,7.26,0,0-21.35,28.69-.48,35.56l-3.07-.83c-.46,19.28,7.85,25.45,7.85,25.45,8.31,6.17,24.51,7,24.51,7,23.82,17.32,51.89-6.31,68.23-24.36q10.06.32,20.14.57c5.73.15,9.18,2.26,12.78,6.55,43.06,51.37,98.17,73.62,164.34,63.25C544.28,519.78,605.87,368.84,528.3,263.4Z"/><path d="M199,405.53c-6.33-2.43-12.48-4.76-18.7-6.61a69.91,69.91,0,0,0-18.51-3.35c-6.07-.16-11.87,1.29-16.53,5a27.24,27.24,0,0,0-6.22,6.79,71.85,71.85,0,0,0-4.9,8.6,33.51,33.51,0,0,1,2-10.09,32,32,0,0,1,2.26-4.83,25,25,0,0,1,3.32-4.34,24.29,24.29,0,0,1,9.32-6.11,30.06,30.06,0,0,1,10.88-1.7,50.38,50.38,0,0,1,20.3,5.15A61.9,61.9,0,0,1,199,405.53Z"/><path d="M168.2,425.05a47.21,47.21,0,0,1-7.41,1.26,56.24,56.24,0,0,1-7.58.18,46.66,46.66,0,0,1-7.65-1,35.3,35.3,0,0,1-7.48-2.59l-.71-.58a6.69,6.69,0,0,0-.77-.57,5.9,5.9,0,0,0-.95-.53,5.75,5.75,0,0,0-2-.51,6.14,6.14,0,0,0-3.94,1c-2.68,1.59-4.89,4.59-7.06,7.73a71.63,71.63,0,0,0-5.6,9.9,32.39,32.39,0,0,0-3,10.3c-.33,3.37.55,6.24,2.94,8.19s6.08,3.12,9.81,3.8c7.49,1.35,15.51,1.21,22.79-2.37a26.32,26.32,0,0,1-10.87,5.64,40.63,40.63,0,0,1-12.45,1.15,35.84,35.84,0,0,1-6.34-.94,19.91,19.91,0,0,1-6.38-2.76,14,14,0,0,1-4.68-5.88,17.16,17.16,0,0,1-1.21-7.17A35.21,35.21,0,0,1,111,436.6a64.28,64.28,0,0,1,6.3-10.92c2.43-3.31,5.19-6.95,9.6-9.24a11.81,11.81,0,0,1,7.6-1.32,11.72,11.72,0,0,1,5.26,2.49,10.73,10.73,0,0,1,1.45,1.43l-.7-.58a40.16,40.16,0,0,0,6.23,3,51.67,51.67,0,0,0,6.87,2c2.35.52,4.76.85,7.2,1.15S165.71,425,168.2,425.05Z"/><path d="M231.18,452.59A105.76,105.76,0,0,1,217.05,474a102.28,102.28,0,0,1-18.92,17.75c-7.09,5.08-15.33,9.17-24.36,10.36a30.6,30.6,0,0,1-13.42-1.22,28.8,28.8,0,0,1-11.09-6.86,38.08,38.08,0,0,0,11.82,3.65,31.26,31.26,0,0,0,11.77-.76c7.66-1.95,14.78-5.9,21.41-10.63a179.41,179.41,0,0,0,19-15.89C219.33,464.72,225.19,458.7,231.18,452.59Z"/><path d="M177.46,475.11A62.24,62.24,0,0,1,166.7,486a58.35,58.35,0,0,1-13.25,8.2,33,33,0,0,1-16.09,3.09,20.35,20.35,0,0,1-8.38-2.57,22.44,22.44,0,0,1-6.51-5.72l.52.49a9.15,9.15,0,0,1-.92-.87c-.26-.27-.46-.53-.69-.79a16.17,16.17,0,0,1-1.16-1.63,24,24,0,0,1-1.81-3.38,29.44,29.44,0,0,1-2-7.09,36.32,36.32,0,0,1-.42-7.12c0-1.17.19-2.35.28-3.5s.38-2.31.61-3.45c.23,1.15.44,2.28.63,3.41l.72,3.33a55.24,55.24,0,0,0,1.91,6.36,34.25,34.25,0,0,0,2.78,5.74,22.49,22.49,0,0,0,1.76,2.45c.32.38.65.72,1,1.06.16.15.33.32.49.45a2.51,2.51,0,0,0,.35.28l-.09-.15.61.63A16.42,16.42,0,0,0,138,490.62a32.91,32.91,0,0,0,13.24-2.15,96.51,96.51,0,0,0,13.23-5.9Q171,479.08,177.46,475.11Z"/><path class="cls-2" d="M333.93,191.75s-103.85-4.09-110.93,105a384.51,384.51,0,0,1,52.9-27.13s4.7-.89,12.09-12C288,257.63,311.1,218.54,333.93,191.75Z"/><path class="cls-2" d="M516.18,246.28c22.11-39,26-82.19,26-82.19,3.21-61.81-48-60.92-48-60.92-98.53-7.9-197.66,160.54-197.66,160.54S388.36,232.28,516.18,246.28Z"/><path class="cls-4" d="M504.9,443.2a79.34,79.34,0,0,1-8.83,5.49c-3,1.68-6.19,3.17-9.37,4.58a131.61,131.61,0,0,1-19.82,6.79A125.2,125.2,0,0,1,425,463.64c-3.51-.42-7-.79-10.51-1.48l-2.61-.48c-.86-.18-1.72-.41-2.58-.61-1.72-.44-3.45-.79-5.14-1.3L399,458.18c-1.69-.49-3.31-1.23-5-1.84-3.33-1.18-6.46-2.82-9.65-4.3a114,114,0,0,1-33-25.45,181.24,181.24,0,0,0,35.34,20.28,153.3,153.3,0,0,0,19.08,6.21,144.8,144.8,0,0,0,19.73,3.3,157.74,157.74,0,0,0,40.08-1.86,187.86,187.86,0,0,0,19.8-4.6c1.65-.43,3.26-1,4.9-1.45l4.87-1.62c1.62-.54,3.23-1.13,4.84-1.75S503.31,443.87,504.9,443.2Z"/><path class="cls-4" d="M368.49,415a68.17,68.17,0,0,0-10.41,3.83,34,34,0,0,0-8.73,5.75,26.86,26.86,0,0,0-3.39,3.84,30.23,30.23,0,0,0-2.59,4.5,51.3,51.3,0,0,0-3.17,10.53,23.46,23.46,0,0,1,.08-11.62,22.73,22.73,0,0,1,2.37-5.57,23.43,23.43,0,0,1,3.86-4.73,25.42,25.42,0,0,1,10.43-5.76A26.18,26.18,0,0,1,368.49,415Z"/><path class="cls-4" d="M461.27,470.71a29.4,29.4,0,0,1-3.83,3,40.5,40.5,0,0,1-4.2,2.51,51.31,51.31,0,0,1-9.1,3.73,52.78,52.78,0,0,1-19.76,2.09c-1.67-.2-3.34-.39-5-.73-.82-.15-1.65-.32-2.46-.55s-1.63-.39-2.43-.66a48.75,48.75,0,0,1-9.21-3.94,43.87,43.87,0,0,1-14.49-13.1A122.18,122.18,0,0,0,407.68,471a81.37,81.37,0,0,0,8.6,2.47c1.45.27,2.89.63,4.36.8s2.93.4,4.39.56a86,86,0,0,0,17.91-.41A135.19,135.19,0,0,0,461.27,470.71Z"/><path class="cls-4" d="M337,309.93a48,48,0,0,1,3.25-5.35c1.18-1.72,2.44-3.39,3.79-5a74.28,74.28,0,0,1,8.83-9A64.05,64.05,0,0,1,375,277.89a48,48,0,0,1,13-2.17,40.54,40.54,0,0,1,13,1.68l1.57.45,1.52.59c1,.41,2,.75,3,1.24l2.86,1.49a29.34,29.34,0,0,1,2.72,1.69,46.09,46.09,0,0,1,9.43,8.32c-1-.45-1.86-.94-2.79-1.4a30.34,30.34,0,0,0-2.73-1.38c-1.87-.82-3.66-1.72-5.56-2.36s-3.74-1.28-5.6-1.87c-.94-.27-1.9-.43-2.84-.66l-1.41-.32-1.43-.2c-1-.11-1.89-.32-2.85-.36l-2.85-.2a51.26,51.26,0,0,0-5.68.2l-1.41.11-1.41.21c-.94.17-1.88.24-2.8.49s-1.86.38-2.79.62l-2.75.79a86.62,86.62,0,0,0-20.94,10.29c-3.34,2.17-6.59,4.53-9.79,7S340.09,307.21,337,309.93Z"/><path class="cls-4" d="M458.84,300.56a32.78,32.78,0,0,1,2.33-4.28,47.5,47.5,0,0,1,2.8-4,54.52,54.52,0,0,1,6.69-7.16,48,48,0,0,1,17.25-10.06,36.81,36.81,0,0,1,10.18-1.66,30.85,30.85,0,0,1,10.21,1.44c.41.13.82.24,1.22.38l1.19.49c.78.34,1.58.61,2.32,1a33.41,33.41,0,0,1,11.37,9.37c-.76-.31-1.48-.66-2.22-1s-1.41-.71-2.16-1c-1.47-.56-2.86-1.21-4.34-1.64s-2.89-.89-4.31-1.29c-.72-.18-1.46-.29-2.17-.44l-1.08-.22-1.08-.12a41.94,41.94,0,0,0-4.3-.34,40.3,40.3,0,0,0-4.27.21l-1.07.09-1,.17c-.7.13-1.41.18-2.1.38s-1.4.3-2.1.47l-2.07.61a71.26,71.26,0,0,0-16,7.64A186,186,0,0,0,458.84,300.56Z"/><ellipse class="cls-1" cx="500.05" cy="338.87" rx="40.11" ry="47.4"/><path class="cls-4" d="M500.05,295.64c19.82,0,35.94,19.39,35.94,43.23s-16.12,43.24-35.94,43.24-35.94-19.4-35.94-43.24,16.12-43.23,35.94-43.23m0-4.17c-22.15,0-40.11,21.22-40.11,47.4s18,47.4,40.11,47.4,40.11-21.22,40.11-47.4-18-47.4-40.11-47.4Z"/><ellipse class="cls-1" cx="395.35" cy="349.29" rx="51.05" ry="54.69"/><path class="cls-4" d="M395.35,298.76c25.85,0,46.88,22.67,46.88,50.53s-21,50.53-46.88,50.53-46.88-22.67-46.88-50.53,21-50.53,46.88-50.53m0-4.16c-28.19,0-51.05,24.48-51.05,54.69S367.16,404,395.35,404s51-24.48,51-54.69-22.86-54.69-51-54.69Z"/><path class="cls-4" d="M398.29,355.73l28-2.11a45,45,0,0,0,0-7.15c-1.73-20.57-16.74-36.11-33.55-34.7s-29,19.23-27.29,39.8,16.74,36.1,33.54,34.69c9.51-.8,17.54-6.85,22.42-15.68Z"/><path class="cls-4" d="M502.41,345.09l23.74-1.78a38.49,38.49,0,0,0,0-6.07c-1.46-17.44-14.2-30.61-28.44-29.42s-24.61,16.3-23.15,33.74S488.73,372.17,503,371c8.06-.68,14.88-5.81,19-13.29Z"/><path class="cls-4" d="M335,330.11a127.42,127.42,0,0,0-1.25,13.23c0,1.09,0,2.19-.07,3.28s0,2.18.05,3.27.09,2.18.15,3.27l.09,1.63.19,1.62c.14,1.07.19,2.16.39,3.23l.52,3.21c.17,1.08.47,2.12.69,3.19l.36,1.59c.14.53.31,1,.46,1.57l.93,3.14,1.16,3.08c.19.52.35,1.05.56,1.56s.48,1,.7,1.5c.45,1,.9,2,1.33,3.09-.72-.86-1.4-1.75-2.08-2.65-.35-.45-.68-.91-1-1.37s-.59-1-.88-1.46l-1.67-3c-.48-1-.9-2.09-1.35-3.13-.21-.53-.45-1.06-.65-1.59l-.5-1.63c-.31-1.1-.69-2.18-.94-3.3l-.68-3.35c-.23-1.12-.3-2.27-.45-3.4l-.16-1.7-.06-1.71c0-1.14-.13-2.27-.05-3.41s.07-2.27.18-3.4.21-2.26.37-3.39A46.81,46.81,0,0,1,335,330.11Z"/><path class="cls-1" d="M321.17,538.55c16.26-30.2-29.33-36.78-29.33-36.78,0-8.94-14-15.09-14-15.09s-5.18-.29-12.38,0c-20.13,1.93-19.36,15.09-19.36,15.09s-1.44,4.48,6,9.4c0,0-8.33,57.95,23.41,61.44,0,0,9,7.39,16.34,8.12,0,0,7.37.74,16.42-9.69l-3.73-1.92c15.87,9.29,18.58-18.19,18.58-18.19,1.93-13.55-7-12.38-7-12.38Z"/><path d="M280.92,516.87c1.79-3.27,3.6-6.19,5.1-9.09s2.64-5.73,2.7-8.08a7.08,7.08,0,0,0-.64-3.3,10.9,10.9,0,0,0-2.36-3.26c-2.09-2.2-5-4.13-7.9-6.46a19.08,19.08,0,0,1,11,2.22,12.9,12.9,0,0,1,4.73,4.32,11.61,11.61,0,0,1,1.84,6.7,14.66,14.66,0,0,1-1.72,6.22,20.65,20.65,0,0,1-3.44,4.75A23,23,0,0,1,280.92,516.87Z"/><path d="M269.7,516.87a24.65,24.65,0,0,1-7.86.56,25.44,25.44,0,0,1-7.91-1.89,20.58,20.58,0,0,1-7.09-5,18.53,18.53,0,0,1-4-8.1l0-.24V502a5.66,5.66,0,0,1,0-.72,4.93,4.93,0,0,1,0-.57,9.26,9.26,0,0,1,.14-1.09,13.93,13.93,0,0,1,.52-2.07,14.53,14.53,0,0,1,1.84-3.75,16.22,16.22,0,0,1,6-5.27,20.77,20.77,0,0,1,7.1-2.12c1.21,0,2.39-.16,3.57-.11s2.35.21,3.5.41c-1.08.5-2.14.93-3.19,1.33l-3,1.39a27,27,0,0,0-5.17,3.37,13.92,13.92,0,0,0-3.44,4.23,7.29,7.29,0,0,0-.52,1.18,8.83,8.83,0,0,0-.39,1.2,9.31,9.31,0,0,0-.23,1.22c0,.21-.05.4-.06.59a1.17,1.17,0,0,0,0,.26c0,.07,0,.19,0,.13l-.06-.49a16.13,16.13,0,0,0,2.46,5.36,21.31,21.31,0,0,0,4.66,4.32,39.13,39.13,0,0,0,6.19,3.34C264.88,515.14,267.23,516,269.7,516.87Z"/><path d="M291.84,501.77a39,39,0,0,1,14.72,1.31,34.79,34.79,0,0,1,13.59,7,21.73,21.73,0,0,1,5.1,6.41,17.85,17.85,0,0,1,.19,15.84,22.14,22.14,0,0,1-4.27,6.18,61.28,61.28,0,0,0,1.1-7,20.16,20.16,0,0,0-.32-6.4,17.94,17.94,0,0,0-6.24-10,55.71,55.71,0,0,0-11-7.16C300.58,505.86,296.29,503.92,291.84,501.77Z"/><path d="M298.72,526.93c1.42,1.11,2.87,2.14,4.33,3.12s2.93,1.89,4.45,2.68a38.36,38.36,0,0,0,4.59,2.1,27.85,27.85,0,0,0,4.65,1.24l-.93,0a7.31,7.31,0,0,1,1.63-.08,9.46,9.46,0,0,1,1.48.17,8.82,8.82,0,0,1,2.88,1.13,9.34,9.34,0,0,1,3.78,4.73c1.33,3.59,1,7,.72,9.93a45.19,45.19,0,0,1-1.95,9,25.77,25.77,0,0,1-4.54,8.63A13.4,13.4,0,0,1,315.4,573a10.75,10.75,0,0,1-5.78.87,15.09,15.09,0,0,1-5-1.74,27.19,27.19,0,0,1-3.86-2.72,28.86,28.86,0,0,1-6-6.9,18.31,18.31,0,0,1-2.75-8.45c2.44,5.32,6.68,9,11.3,11.72,2.31,1.34,4.77,2.41,6.73,2.43s3.36-.9,4.73-2.7a22.64,22.64,0,0,0,3.15-6.63,52.12,52.12,0,0,0,1.78-7.77c.39-2.67.64-5.2.09-7.08a3.71,3.71,0,0,0-1.21-2.08,3.43,3.43,0,0,0-1-.59,3.35,3.35,0,0,0-.64-.17c-.19-.06-.51-.06-.52-.1l-.92,0a25.82,25.82,0,0,1-5.3-2.42,31.41,31.41,0,0,1-4.53-3.32,36.61,36.61,0,0,1-3.85-3.93A31.11,31.11,0,0,1,298.72,526.93Z"/><path d="M252.09,511.17l1.66,18.09a154,154,0,0,0,2.58,17.36,49.34,49.34,0,0,0,5.88,15.69,24.8,24.8,0,0,0,13.29,10.3,19.73,19.73,0,0,1-9.41-1.3,21.81,21.81,0,0,1-8-5.77,38.47,38.47,0,0,1-8.25-17.48,68.33,68.33,0,0,1-1.29-18.71A66,66,0,0,1,252.09,511.17Z"/><path d="M269.7,549c1.31,3.46,2.56,6.81,3.88,10.07a75.39,75.39,0,0,0,4.37,9.27,23.62,23.62,0,0,0,5.76,7.14,11.22,11.22,0,0,0,7.71,2.34l.71,0c-.11,0,.11,0,.21,0h.42c.3,0,.62,0,.95-.06a15.29,15.29,0,0,0,2-.35,23.52,23.52,0,0,0,4.17-1.5,40.06,40.06,0,0,0,4.18-2.21l2.08-1.3q1-.7,2.1-1.38c-.38.75-.79,1.5-1.22,2.24s-.93,1.42-1.45,2.11a26,26,0,0,1-3.56,3.8,20.66,20.66,0,0,1-4.52,3,17.48,17.48,0,0,1-2.68,1,12.66,12.66,0,0,1-1.47.34c-.27,0-.51.08-.8.1a7.29,7.29,0,0,1-1,0l.71,0a16.43,16.43,0,0,1-6.55,0,15.18,15.18,0,0,1-6-2.82,23.63,23.63,0,0,1-7.24-9.75,40.42,40.42,0,0,1-2.87-11A40,40,0,0,1,269.7,549Z"/><path d="M268.18,506.55a8.38,8.38,0,0,1-8.28-7.21c-4.21-29.59,3.24-80.89,32.6-97A8.38,8.38,0,1,1,300.57,417c-21.17,11.65-27.68,54.69-24.08,80a8.38,8.38,0,0,1-7.12,9.48A8,8,0,0,1,268.18,506.55Z"/></svg>