<svg id="Calque_1" data-name="Calque 1" xmlns="http://www.w3.org/2000/svg" viewBox="0 0 680 680"><defs><style>.cls-1{fill:#243882;}.cls-2{fill:#fff;}.cls-3{fill:#263674;}.cls-4{fill:#ec6639;}.cls-5{fill:#010101;}</style></defs><path d="M333,577a6.8,6.8,0,0,1,4.86,2.16l-1.3,1.21A5.56,5.56,0,0,0,333,578.9h-.17c-1.14,0-2.65.54-2.65,1.88,0,1,.95,1.4,2.48,1.6l1.23.15c2.63.32,4.4,1.33,4.4,3.86s-2.18,3.91-4.94,3.93h-.09a6.08,6.08,0,0,1-5.4-2.74l1.3-1.21a4.54,4.54,0,0,0,4.1,2.07h.09c1.7,0,2.93-.78,2.93-2.05s-1-1.79-2.65-2l-1.23-.15c-2.55-.3-4.23-1.29-4.23-3.41,0-2.35,2.11-3.8,4.66-3.82Z"/><path d="M349.36,582.66v1.9h-6v3.73h6.47v1.9h-8.48v-13h8.48v1.9h-6.47v3.61Z"/><path d="M363.53,579.18l-1.3,1.21a5.05,5.05,0,0,0-3.61-1.47,4.75,4.75,0,0,0,0,9.5,5,5,0,0,0,3.61-1.47l1.3,1.21a6.71,6.71,0,0,1-4.91,2.16,6.65,6.65,0,0,1,0-13.3A6.71,6.71,0,0,1,363.53,579.18Z"/><path d="M377.19,584.66c0,3.65-2.37,5.66-5.31,5.66s-5.3-2-5.3-5.66v-7.51h2v7.45c0,2.65,1.43,3.82,3.28,3.82s3.29-1.17,3.29-3.82v-7.45h2Z"/><path d="M385.38,577.15c3.48,0,5.62,2,5.62,4.81a4.22,4.22,0,0,1-3.07,4.15,5.73,5.73,0,0,1,2.05,2.22l1.21,1.86h-2.25l-1-1.49c-1.05-1.62-1.51-1.9-2.85-1.94h-2.05v3.43h-2v-13Zm-2.31,7.73h2.48c1.95,0,3.55-.88,3.55-2.92s-1.6-2.91-3.55-2.91h-2.48Z"/><path d="M399.16,588.29v1.9h-5.1v-1.9h1.54v-9.24h-1.54v-1.9h5.1v1.9h-1.55v9.24Z"/><path d="M407.82,590.19h-2V579.05H402v-1.9h9.63v1.9h-3.82Z"/><path d="M418.1,590.19v-4.42l-4.81-8.62h2.3l3.52,6.17,3.52-6.17h2.29l-4.81,8.62v4.42Z"/><path d="M444.49,590.19v-9.28l-4.37,5.52-4.4-5.52v9.28h-2v-13h1.17l5.24,6.61,5.23-6.61h1.16v13Z"/><path d="M451.57,590.19h-2.22l5.39-13h1.17l5.33,13H459l-1.17-2.92h-5.09Zm1.9-4.82h3.69l-1.85-4.55Z"/><path d="M468.42,577.15a6.52,6.52,0,1,1,0,13H464.1v-13Zm0,11.14a4.62,4.62,0,0,0,0-9.24h-2.31v9.24Z"/><path d="M486.29,582.66v1.9h-6v3.73h6.46v1.9h-8.47v-13h8.47v1.9h-6.46v3.61Z"/><path d="M503.9,582.66v1.9h-6v3.73h6.46v1.9h-8.47v-13h8.47v1.9h-6.46v3.61Z"/><path d="M508.39,590.19h-2.22l5.39-13h1.17l5.33,13h-2.22l-1.17-2.92h-5.09Zm1.9-4.82H514l-1.85-4.55Z"/><path d="M524.73,577a6.8,6.8,0,0,1,4.86,2.16l-1.31,1.21a5.51,5.51,0,0,0-3.55-1.49h-.17c-1.14,0-2.65.54-2.65,1.88,0,1,1,1.4,2.48,1.6l1.23.15c2.63.32,4.4,1.33,4.4,3.86s-2.18,3.91-4.94,3.93H525a6.11,6.11,0,0,1-5.41-2.74l1.31-1.21a4.52,4.52,0,0,0,4.1,2.07h.09c1.69,0,2.92-.78,2.92-2.05s-1-1.79-2.64-2l-1.23-.15c-2.55-.3-4.23-1.29-4.23-3.41,0-2.35,2.1-3.8,4.66-3.82Z"/><path d="M536.35,590.19v-4.42l-4.81-8.62h2.29l3.52,6.17,3.53-6.17h2.29l-4.81,8.62v4.42Z"/><path class="cls-1" d="M142.91,508.19v-7.68a20.5,20.5,0,0,0-21-20.72,20.48,20.48,0,0,0-20,20.48V538.8a20.12,20.12,0,0,0,6.1,14.82,19.88,19.88,0,0,0,14.41,5.9h.45a20.48,20.48,0,0,0,20-20.48v-8a18.94,18.94,0,0,0-3.49-11.3A17.93,17.93,0,0,0,142.91,508.19ZM122.4,491.68a8.21,8.21,0,0,1,6.07,2.47,8.42,8.42,0,0,1,2.55,6.36v7.87c0,.13,0,.3,0,.37a6,6,0,0,1-1.14,3.89c-.68.72-1.85,1.07-3.58,1.07H115.58a5.87,5.87,0,0,0-1.74.29V500.27a8.58,8.58,0,0,1,8.33-8.59Zm-8.56,33.63a5.87,5.87,0,0,0,1.74.29h10.73c2.36,0,3.11.78,3.36,1A6.63,6.63,0,0,1,131,530.7V539a8.6,8.6,0,0,1-14.63,6.12,8.42,8.42,0,0,1-2.55-6.36Z"/><path class="cls-1" d="M171.53,479.79a20.48,20.48,0,0,0-20,20.48v53.3a5.94,5.94,0,1,0,11.88,0v-28H180.6v28a5.95,5.95,0,1,0,11.89,0V500.51a20.48,20.48,0,0,0-21-20.72Zm6.52,14.36a8.42,8.42,0,0,1,2.55,6.36v13.2H163.42V500.27a8.57,8.57,0,0,1,8.35-8.59A8.24,8.24,0,0,1,178.05,494.15Z"/><path class="cls-1" d="M241.12,508.19v-7.68a20.48,20.48,0,0,0-21-20.72,20.48,20.48,0,0,0-20,20.48V538.8a20.47,20.47,0,0,0,20.5,20.72h.46a20.48,20.48,0,0,0,20-20.48v-8a18.86,18.86,0,0,0-3.49-11.3A17.93,17.93,0,0,0,241.12,508.19Zm-20.5-16.51a8.2,8.2,0,0,1,6.06,2.47,8.42,8.42,0,0,1,2.55,6.36v7.87c0,.12,0,.29,0,.37a6.09,6.09,0,0,1-1.15,3.89c-.67.72-1.85,1.07-3.58,1.07H213.79a5.93,5.93,0,0,0-1.74.29V500.27a8.58,8.58,0,0,1,8.33-8.59Zm-8.57,33.63a5.93,5.93,0,0,0,1.74.29h10.73c2.36,0,3.12.78,3.37,1a6.61,6.61,0,0,1,1.35,4.07V539a8.59,8.59,0,0,1-14.62,6.12,8.39,8.39,0,0,1-2.56-6.36Z"/><path class="cls-1" d="M262.21,525.6h10.73c5.17,0,9.31-1.65,12.32-4.9,4.3-4.65,4.37-10.66,4.28-12.5v-7.69a20.48,20.48,0,0,0-21-20.72,20.5,20.5,0,0,0-20,20.48V538.8a20.12,20.12,0,0,0,6.1,14.82,19.88,19.88,0,0,0,14.41,5.9h.45a20.48,20.48,0,0,0,20-20.48,5.95,5.95,0,0,0-11.89,0A8.59,8.59,0,0,1,263,545.16a8.39,8.39,0,0,1-2.56-6.36V525.31A5.87,5.87,0,0,0,262.21,525.6Zm-1.74-25.33a8.57,8.57,0,0,1,8.35-8.59,8.24,8.24,0,0,1,6.28,2.47,8.42,8.42,0,0,1,2.55,6.36v7.87c0,.12,0,.29,0,.37a6.09,6.09,0,0,1-1.15,3.89c-.68.72-1.85,1.07-3.58,1.07H262.21a5.87,5.87,0,0,0-1.74.29Z"/><path class="cls-1" d="M323.91,547.63H309.63a1,1,0,0,1-.38-.11,3.77,3.77,0,0,1-.36-2v-59.8a5.95,5.95,0,1,0-11.89,0v59.8c0,4.49,1.38,8.06,4.08,10.61a12.7,12.7,0,0,0,8.59,3.37h14.24a5.95,5.95,0,0,0,0-11.89Z"/><path class="cls-1" d="M397.53,481a20.43,20.43,0,0,0-21.39,4.81,19.75,19.75,0,0,0-6,14.46V539A20,20,0,0,0,374,551a20.5,20.5,0,0,0,9.77,7.33,20.25,20.25,0,0,0,6.89,1.19,19.64,19.64,0,0,0,6.84-1.19,20.92,20.92,0,0,0,7.63-4.78,19.85,19.85,0,0,0,6-14.51V500.27a19.8,19.8,0,0,0-3.82-11.93A20.5,20.5,0,0,0,397.53,481Zm1.7,19.27V539a8.07,8.07,0,0,1-2.49,6.06,8.92,8.92,0,0,1-3.32,2.06,8.63,8.63,0,0,1-9.81-3.13,8.14,8.14,0,0,1-1.56-5V500.27a8.08,8.08,0,0,1,2.49-6.06,8.69,8.69,0,0,1,3.26-2,8.3,8.3,0,0,1,2.84-.48,8.19,8.19,0,0,1,2.82.48,8.78,8.78,0,0,1,4.24,3.19A7.94,7.94,0,0,1,399.23,500.27Z"/><path class="cls-1" d="M360.87,479.79H336.35a5.95,5.95,0,0,0,0,11.89h6.32v61.9a5.94,5.94,0,0,0,11.88,0v-61.9h6.32a5.95,5.95,0,0,0,0-11.89Z"/><path class="cls-1" d="M444.93,481a20.45,20.45,0,0,0-21.39,4.81,19.79,19.79,0,0,0-6,14.46V539a20,20,0,0,0,3.81,12,20.55,20.55,0,0,0,9.77,7.33,20.26,20.26,0,0,0,6.9,1.19,19.68,19.68,0,0,0,6.84-1.19,20.8,20.8,0,0,0,7.62-4.78,19.85,19.85,0,0,0,6-14.51V500.27a19.8,19.8,0,0,0-3.82-11.93A20.5,20.5,0,0,0,444.93,481Zm1.71,19.27V539a8.07,8.07,0,0,1-2.5,6.06,8.76,8.76,0,0,1-3.32,2.06A8.63,8.63,0,0,1,431,544a8.14,8.14,0,0,1-1.55-5V500.27a8.11,8.11,0,0,1,2.48-6.06,8.77,8.77,0,0,1,3.26-2,8.32,8.32,0,0,1,2.85-.48,8.17,8.17,0,0,1,2.81.48,8.78,8.78,0,0,1,4.24,3.19A8,8,0,0,1,446.64,500.27Z"/><path class="cls-1" d="M492,547.63H477.68a1.09,1.09,0,0,1-.38-.11,3.57,3.57,0,0,1-.37-2v-59.8a5.94,5.94,0,1,0-11.88,0v59.8c0,4.49,1.37,8.06,4.08,10.61a12.67,12.67,0,0,0,8.58,3.37H492a5.95,5.95,0,1,0,0-11.89Z"/><path class="cls-1" d="M522.77,513.85l-.29-.05a18.59,18.59,0,0,1-5.44-2c-2.87-1.68-4.15-3.64-4.15-6.35v-4.9a8.39,8.39,0,0,1,2.51-6.32,8.61,8.61,0,0,1,14.67,6.08v2.56a5.95,5.95,0,0,0,11.89,0v-2.56a19.66,19.66,0,0,0-6-14.44,19.86,19.86,0,0,0-14.13-6h-.3A20.49,20.49,0,0,0,501,500.51v4.9c0,13.25,12.6,18.92,19.33,20.08,4.26,1,7.17,2.91,8.66,5.74a9.43,9.43,0,0,1,1.09,3.92,1.48,1.48,0,0,0,0,.21v3.44a8.39,8.39,0,0,1-2.51,6.32A8.61,8.61,0,0,1,512.89,539v-2.55a5.95,5.95,0,1,0-11.89,0V539a20.54,20.54,0,0,0,20.13,20.48h.3A20.45,20.45,0,0,0,542,538.8v-3.27C542.19,529.58,538.49,517.38,522.77,513.85Z"/><path class="cls-2" d="M422.84,385.2c-15.18-13.54,8.92-26.45,8.92-26.45-1.82-5,4.76-11.26,4.76-11.26s2.83-1.21,6.91-2.51c11.62-3,13.85,4.5,13.85,4.5s1.72,2.2-1.45,6.46c0,0,16.39,30.64-.61,39,0,0-3.5,5.94-7.46,7.85,0,0-4,1.9-11.13-2.09l1.69-1.82c-7,8.4-14.05-6.38-14.05-6.38-3.82-7.17,1.38-8.33,1.38-8.33Z"/><path d="M440.91,365a13.54,13.54,0,0,1-6.42-1.45,12.25,12.25,0,0,1-2.89-1.95,9,9,0,0,1-2.22-3.12,7,7,0,0,1-.33-4.11,7.62,7.62,0,0,1,1.77-3.37,11.27,11.27,0,0,1,5.7-3.47,47.81,47.81,0,0,0-3.1,5.2,6.44,6.44,0,0,0-.65,2.3,4.15,4.15,0,0,0,.3,2,12.2,12.2,0,0,0,3.15,4C437.64,362.23,439.24,363.49,440.91,365Z"/><path d="M447.17,362.68c1.19-1,2.33-1.94,3.37-3a23.48,23.48,0,0,0,2.77-3.12,12.74,12.74,0,0,0,1.73-3.35,9.78,9.78,0,0,0,.28-3.49l.06.28s0,0,0-.07a1.47,1.47,0,0,0-.06-.14,2.29,2.29,0,0,0-.16-.31,4.6,4.6,0,0,0-.37-.64,5.2,5.2,0,0,0-.46-.59,4.68,4.68,0,0,0-.53-.56,8.15,8.15,0,0,0-2.78-1.65,16.13,16.13,0,0,0-3.56-.84l-2-.16c-.66,0-1.34,0-2-.1.6-.34,1.23-.65,1.87-.94s1.32-.44,2-.66a12.34,12.34,0,0,1,4.39-.25,9.45,9.45,0,0,1,4.4,1.73,8.48,8.48,0,0,1,1.78,1.71,7.44,7.44,0,0,1,.71,1.05,6.36,6.36,0,0,1,.3.58,2.37,2.37,0,0,1,.14.32,3,3,0,0,1,.15.39l0,.15,0,.14a11,11,0,0,1-.6,5.33,12.2,12.2,0,0,1-2.95,4.22,14.8,14.8,0,0,1-4,2.65A14.59,14.59,0,0,1,447.17,362.68Z"/><path d="M431.76,358.75c-2.05,2.1-4.05,4.05-5.9,6.06a32.94,32.94,0,0,0-4.71,6.23,10.71,10.71,0,0,0-1.47,6.82,12.23,12.23,0,0,0,1.13,3.64,34.2,34.2,0,0,0,2,3.7,13,13,0,0,1-3.63-2.58,10.54,10.54,0,0,1-3.1-8.87,12.9,12.9,0,0,1,1.55-4.61,20.49,20.49,0,0,1,6.15-6.68A23,23,0,0,1,431.76,358.75Z"/><path d="M433,374.18a17.6,17.6,0,0,1-.86,3.1,22.53,22.53,0,0,1-1.34,3A19.43,19.43,0,0,1,429,383a14.91,14.91,0,0,1-2.47,2.42l-.5.22s-.18.08-.28.15l-.32.23a1.88,1.88,0,0,0-.45.54,2.14,2.14,0,0,0-.25,1.4,10.61,10.61,0,0,0,1.48,3.94,32.79,32.79,0,0,0,2.56,4,13.4,13.4,0,0,0,3.11,3.06,3.33,3.33,0,0,0,3.18.54,9,9,0,0,0,3.26-2.71A15.9,15.9,0,0,0,442.2,388a10.78,10.78,0,0,1,.18,5.27,16.92,16.92,0,0,1-1.93,5.06,16.39,16.39,0,0,1-1.6,2.3,9,9,0,0,1-2.41,2,6.37,6.37,0,0,1-3.4.69,8.17,8.17,0,0,1-3.16-1,15.38,15.38,0,0,1-4.28-3.9,26.78,26.78,0,0,1-2.91-4.62,12.72,12.72,0,0,1-1.61-5.69,5.54,5.54,0,0,1,1.15-3.4,5.25,5.25,0,0,1,1.38-1.21,4.51,4.51,0,0,1,.79-.4,4.77,4.77,0,0,1,.92-.29l-.5.22a17.07,17.07,0,0,0,2.34-1.64,22.18,22.18,0,0,0,2.13-2.1c.69-.75,1.31-1.57,1.94-2.4S432.45,375.08,433,374.18Z"/><path d="M455.83,355.94a39.11,39.11,0,0,1,5.69,9.41,40.12,40.12,0,0,1,3.07,10.7,22.7,22.7,0,0,1-1.06,11.42,12.86,12.86,0,0,1-3.32,4.85,11.65,11.65,0,0,1-5,2.63,14.68,14.68,0,0,0,5.33-8.43,29.11,29.11,0,0,0,.1-9.95,89.58,89.58,0,0,0-2.08-10.2Z"/><path d="M453.68,380.6a25,25,0,0,1,2.93,12.86,14,14,0,0,1-2.06,6.91,9,9,0,0,1-2.79,2.79,9.65,9.65,0,0,1-3.64,1.35l.4-.13a3.76,3.76,0,0,1-.58.19,3.94,3.94,0,0,1-.47.1,5.41,5.41,0,0,1-.89.11,9.63,9.63,0,0,1-1.7,0,12.46,12.46,0,0,1-3.13-.76,16.15,16.15,0,0,1-2.75-1.4c-.43-.28-.83-.59-1.24-.88s-.77-.66-1.13-1c.5.11,1,.22,1.45.35l1.42.3a22.93,22.93,0,0,0,2.78.39,13.56,13.56,0,0,0,2.63,0,8.55,8.55,0,0,0,1.2-.21l.54-.16c.08,0,.17-.06.24-.1s.17-.08.11-.06l.39-.13a6.63,6.63,0,0,0,3.83-2.87,14,14,0,0,0,1.77-5.15,45.16,45.16,0,0,0,.56-6.05C453.63,384.92,453.65,382.8,453.68,380.6Z"/><path d="M443.81,356.9a5,5,0,0,1-4.46-3.93c-3.12-14.85-15.47-37.54-29.64-39.75a5,5,0,1,1,1.53-9.82c19.65,3.05,34.2,30.16,37.84,47.52a5,5,0,0,1-5.27,6Z"/><path d="M237.55,371.28c-2.86-4-19.93-1.94-19.93-1.94l-18.53-42.7,2.41-13.86c6.61-1.06,8.07-13.06,8.07-13.06a150.53,150.53,0,0,1,6.31-52.93c1.56-5.12,1-10.85,1.74-16.26,12.87-79,89.16-74.14,89.16-74.14,1.57.15,3.21-2,4.46-3.34,16.68-18.47,34.79-35.28,56.34-48,12.13-7.17,24.89-12.72,39-14.5,35.11-4.4,57.09,16.7,54.41,52-1.49,19.64-6.8,38.27-14.28,56.34-1.33,3.21-.95,5.28,1.1,8.09,33,45.14,38.79,93.75,13,143.32-25.61,49.28-68.28,73.41-124.07,71.9-39.33-1.06-71.47-18.14-96.82-48"/><circle cx="264.19" cy="158.97" r="10.37"/><circle class="cls-3" cx="264.19" cy="158.97" r="4.97"/><path class="cls-4" d="M445.06,214c-1.77-2.4-5.14-5-7.87-5.11C337.11,199.51,268.69,223,268.69,223S229,238.18,224,249.36c0,0-5.81,8-7.9,49,0,0,.08,8.43-2.43,11.37a27.87,27.87,0,0,1-9,6c-7.91-4.73-37.78-20.37-45,8.75l3,2.69c-1.87-1.42-6.77-3.68-12.84,5.25,0,0-15.5,20.84-.27,25.77l-2.3-.62c-.34,14,5.68,18.42,5.68,18.42,6,4.47,17.75,5,17.75,5,17.24,12.54,37.56-4.57,49.39-17.64q7.29.24,14.58.42c4.15.1,6.65,1.63,9.25,4.74,31.18,37.19,71.07,53.29,119,45.79C456.63,399.63,501.22,290.36,445.06,214Z"/><path d="M206.64,316.92c-4.59-1.76-9-3.45-13.54-4.79a51,51,0,0,0-13.4-2.42,18.07,18.07,0,0,0-12,3.61,19.66,19.66,0,0,0-4.5,4.91,50.51,50.51,0,0,0-3.55,6.23,24.5,24.5,0,0,1,1.43-7.31,24,24,0,0,1,1.63-3.49,18.6,18.6,0,0,1,2.4-3.15,17.59,17.59,0,0,1,6.75-4.42,21.69,21.69,0,0,1,7.88-1.23,36.78,36.78,0,0,1,14.7,3.72A44.85,44.85,0,0,1,206.64,316.92Z"/><path d="M184.37,331.05A34.49,34.49,0,0,1,179,332a40.3,40.3,0,0,1-5.5.13,32.77,32.77,0,0,1-5.53-.74,25.41,25.41,0,0,1-5.42-1.87l-.51-.42a5.33,5.33,0,0,0-.56-.42,4.54,4.54,0,0,0-.68-.38,4.45,4.45,0,0,0-1.43-.37,4.51,4.51,0,0,0-2.86.75c-1.94,1.15-3.54,3.32-5.11,5.6a52.63,52.63,0,0,0-4,7.16,23.29,23.29,0,0,0-2.2,7.46,6.4,6.4,0,0,0,2.13,5.93c1.72,1.45,4.4,2.26,7.1,2.75,5.42,1,11.22.87,16.5-1.72A19,19,0,0,1,163,359.9a29.33,29.33,0,0,1-9,.84,26.21,26.21,0,0,1-4.6-.68,14.33,14.33,0,0,1-4.61-2,10,10,0,0,1-3.39-4.26,12.38,12.38,0,0,1-.88-5.19,25.43,25.43,0,0,1,2.43-9.2,46.21,46.21,0,0,1,4.56-7.9c1.76-2.4,3.76-5,6.95-6.7a8.56,8.56,0,0,1,5.5-.95,8.12,8.12,0,0,1,2.67,1,8.26,8.26,0,0,1,1.14.79,8.5,8.5,0,0,1,1.05,1l-.51-.42a29.28,29.28,0,0,0,4.51,2.16,38.84,38.84,0,0,0,5,1.41c1.71.38,3.45.62,5.21.84S182.56,331,184.37,331.05Z"/><path d="M230,351a76.71,76.71,0,0,1-10.22,15.52A74.07,74.07,0,0,1,206,379.36a39.69,39.69,0,0,1-17.63,7.5,22.19,22.19,0,0,1-9.72-.89,20.65,20.65,0,0,1-8-5,27.52,27.52,0,0,0,8.55,2.64,22.65,22.65,0,0,0,8.53-.55,47,47,0,0,0,15.49-7.7A130.18,130.18,0,0,0,217,363.9C221.38,359.77,225.62,355.41,230,351Z"/><path d="M191.07,367.29a45,45,0,0,1-7.79,7.88,42.65,42.65,0,0,1-9.59,5.93A23.82,23.82,0,0,1,162,383.34a14.65,14.65,0,0,1-6.06-1.86,16.24,16.24,0,0,1-4.72-4.14l.38.35a6.19,6.19,0,0,1-.67-.63c-.18-.19-.33-.38-.5-.57a13.24,13.24,0,0,1-.84-1.17,18.72,18.72,0,0,1-1.31-2.45,21.31,21.31,0,0,1-1.43-5.14,27,27,0,0,1-.31-5.15c0-.85.14-1.7.21-2.54s.27-1.67.44-2.49q.26,1.24.45,2.46l.53,2.41a39.16,39.16,0,0,0,1.38,4.61,24.14,24.14,0,0,0,2,4.15,15.84,15.84,0,0,0,1.28,1.78,10.16,10.16,0,0,0,.7.76c.12.11.24.24.35.33a1.57,1.57,0,0,0,.26.2l-.07-.1.44.45a11.92,11.92,0,0,0,7.92,3.92,23.7,23.7,0,0,0,9.58-1.56,69.28,69.28,0,0,0,9.59-4.27C184.79,371,187.92,369.2,191.07,367.29Z"/><path class="cls-3" d="M304.34,162.16s-75.17-3-80.3,76a279,279,0,0,1,38.29-19.64s3.41-.64,8.76-8.7C271.09,209.84,287.82,181.55,304.34,162.16Z"/><path class="cls-3" d="M436.28,201.63c16-28.22,18.84-59.5,18.84-59.5C457.44,97.39,420.37,98,420.37,98,349,92.31,277.27,214.25,277.27,214.25S343.75,191.5,436.28,201.63Z"/><path class="cls-5" d="M428.12,344.19a58.22,58.22,0,0,1-6.39,4c-2.21,1.22-4.49,2.3-6.79,3.32a95.23,95.23,0,0,1-14.35,4.92A90.79,90.79,0,0,1,370.24,359c-2.54-.31-5.09-.57-7.61-1.07l-1.89-.35c-.62-.13-1.24-.3-1.87-.45-1.24-.31-2.5-.57-3.72-.94L351.48,355c-1.22-.35-2.4-.89-3.59-1.33-2.41-.85-4.69-2-7-3.11A82.34,82.34,0,0,1,317,332.16a130.6,130.6,0,0,0,25.58,14.68,110.16,110.16,0,0,0,13.81,4.5,104.82,104.82,0,0,0,14.28,2.39,113.55,113.55,0,0,0,29-1.35,135.07,135.07,0,0,0,14.33-3.32c1.2-.32,2.37-.7,3.56-1.05l3.52-1.18c1.17-.39,2.34-.82,3.5-1.26S427,344.67,428.12,344.19Z"/><path class="cls-5" d="M329.36,323.75a48.3,48.3,0,0,0-7.53,2.77,24.48,24.48,0,0,0-6.32,4.16,20.3,20.3,0,0,0-2.46,2.78,21.72,21.72,0,0,0-1.87,3.26,37,37,0,0,0-2.3,7.62,17.11,17.11,0,0,1,.06-8.41,15.8,15.8,0,0,1,4.51-7.46A18.56,18.56,0,0,1,321,324.3,18.94,18.94,0,0,1,329.36,323.75Z"/><path class="cls-5" d="M396.54,364.1a22.49,22.49,0,0,1-2.78,2.19,30.91,30.91,0,0,1-3,1.82,38.07,38.07,0,0,1-20.89,4.21c-1.21-.15-2.42-.28-3.61-.52-.6-.12-1.2-.24-1.78-.4s-1.19-.29-1.76-.48a36.18,36.18,0,0,1-6.68-2.85,31.77,31.77,0,0,1-10.48-9.49,89.91,89.91,0,0,0,12.22,5.72,60.87,60.87,0,0,0,6.22,1.78c1.05.2,2.09.46,3.16.58s2.12.29,3.18.4a61.89,61.89,0,0,0,13-.29A97.6,97.6,0,0,0,396.54,364.1Z"/><path class="cls-5" d="M306.53,247.71a34.69,34.69,0,0,1,2.35-3.87c.86-1.25,1.77-2.45,2.75-3.62a54.54,54.54,0,0,1,6.39-6.51,46.28,46.28,0,0,1,16.08-9.19,34.58,34.58,0,0,1,9.38-1.58,29.33,29.33,0,0,1,9.42,1.22l1.14.32,1.1.43c.72.3,1.47.55,2.17.9l2.07,1.08a20.87,20.87,0,0,1,2,1.22,33.36,33.36,0,0,1,6.82,6c-.69-.33-1.34-.68-2-1a21.5,21.5,0,0,0-2-1c-1.35-.6-2.65-1.25-4-1.71s-2.72-.93-4.06-1.36c-.68-.19-1.38-.31-2.06-.48l-1-.23-1-.14c-.7-.08-1.37-.24-2.07-.27l-2.06-.13a37.54,37.54,0,0,0-4.11.13l-1,.09c-.34,0-.68.1-1,.15-.68.12-1.36.17-2,.35s-1.35.28-2,.45l-2,.57A62.8,62.8,0,0,0,320.51,237c-2.41,1.57-4.77,3.27-7.09,5.07S308.81,245.74,306.53,247.71Z"/><path class="cls-5" d="M394.77,240.92a22.56,22.56,0,0,1,1.69-3.09,32,32,0,0,1,2-2.89,39.45,39.45,0,0,1,4.84-5.18,34.87,34.87,0,0,1,12.49-7.28,26.86,26.86,0,0,1,7.37-1.2,22.48,22.48,0,0,1,7.39,1l.89.27.85.36a17,17,0,0,1,1.69.74,23.79,23.79,0,0,1,3.11,1.88,24.08,24.08,0,0,1,5.12,4.9c-.56-.22-1.08-.47-1.61-.7a15.58,15.58,0,0,0-1.56-.71c-1.07-.41-2.08-.87-3.15-1.19s-2.09-.64-3.12-.93c-.52-.13-1.05-.21-1.57-.32l-.78-.16-.79-.09c-1-.16-2.08-.18-3.11-.24s-2.06,0-3.09.15l-.77.07-.76.12a13.67,13.67,0,0,0-1.53.28c-.5.12-1,.21-1.51.34l-1.5.43a51.31,51.31,0,0,0-11.57,5.54C402.09,235.4,398.47,238.06,394.77,240.92Z"/><ellipse class="cls-2" cx="424.61" cy="268.66" rx="29.04" ry="34.32"/><path class="cls-5" d="M424.61,237.36c14.34,0,26,14,26,31.3S439,300,424.61,300s-26-14-26-31.3,11.67-31.3,26-31.3m0-3c-16,0-29,15.36-29,34.31s13,34.32,29,34.32,29-15.37,29-34.32-13-34.31-29-34.31Z"/><ellipse class="cls-2" cx="348.81" cy="276.2" rx="36.96" ry="39.59"/><path class="cls-5" d="M348.81,239.63c18.71,0,33.94,16.41,33.94,36.57s-15.23,36.58-33.94,36.58-33.94-16.41-33.94-36.58,15.23-36.57,33.94-36.57m0-3c-20.41,0-37,17.73-37,39.59s16.55,39.6,37,39.6,36.95-17.73,36.95-39.6-16.54-39.59-36.95-39.59Z"/><path class="cls-5" d="M350.94,280.86l20.27-1.52a33.21,33.21,0,0,0,0-5.18C369.94,259.27,359.07,248,346.9,249s-21,13.92-19.76,28.81S339.26,304,351.42,303c6.89-.58,12.7-5,16.23-11.35Z"/><path class="cls-5" d="M426.31,273.16l17.19-1.29a26.84,26.84,0,0,0,0-4.39c-1.06-12.63-10.28-22.16-20.59-21.29s-17.81,11.8-16.76,24.42,10.28,22.16,20.59,21.3c5.84-.49,10.77-4.21,13.77-9.63Z"/><path class="cls-5" d="M305.1,262.32a92.36,92.36,0,0,0-.91,9.57c0,.8,0,1.59,0,2.38s0,1.58,0,2.37.06,1.58.1,2.36l.07,1.18.14,1.18c.1.77.13,1.57.28,2.34l.38,2.32c.12.78.34,1.54.5,2.31l.26,1.15c.1.38.22.76.33,1.13l.68,2.28.83,2.23c.14.37.26.76.41,1.13s.35.72.51,1.09c.33.73.65,1.47,1,2.23-.52-.62-1-1.27-1.51-1.92-.25-.32-.49-.66-.73-1s-.42-.7-.63-1.05l-1.21-2.15c-.35-.75-.65-1.51-1-2.27-.15-.39-.32-.76-.47-1.15l-.36-1.18c-.23-.8-.5-1.58-.69-2.39l-.49-2.43c-.16-.81-.21-1.64-.32-2.45l-.12-1.24,0-1.23c0-.83-.09-1.65,0-2.47s.06-1.65.13-2.47.16-1.63.27-2.45A34,34,0,0,1,305.1,262.32Z"/><path class="cls-2" d="M295.11,413.21c11.77-21.85-21.24-26.62-21.24-26.62,0-6.47-10.14-10.92-10.14-10.92s-3.75-.22-9,0c-14.57,1.4-14,10.92-14,10.92s-1.05,3.25,4.35,6.81c0,0-6,42,17,44.47,0,0,6.48,5.35,11.82,5.89,0,0,5.34.53,11.89-7l-2.7-1.39c11.49,6.73,13.45-13.17,13.45-13.17,1.4-9.81-5-9-5-9Z"/><path d="M266,397.52c1.3-2.37,2.61-4.48,3.69-6.58a14.57,14.57,0,0,0,2-5.85,5.19,5.19,0,0,0-.47-2.39,8,8,0,0,0-1.71-2.36,58.37,58.37,0,0,0-5.71-4.67,13.82,13.82,0,0,1,8,1.6,9.41,9.41,0,0,1,3.43,3.13,8.51,8.51,0,0,1,1.33,4.85,10.75,10.75,0,0,1-1.25,4.51,14.8,14.8,0,0,1-2.49,3.43A16.54,16.54,0,0,1,266,397.52Z"/><path d="M257.84,397.52a18,18,0,0,1-5.68.41,18.36,18.36,0,0,1-5.73-1.37,15,15,0,0,1-5.13-3.6,13.48,13.48,0,0,1-2.91-5.87l0-.17v-.18c0-.25,0-.37,0-.52s0-.29,0-.42.06-.54.1-.79a11,11,0,0,1,1.71-4.21,11.58,11.58,0,0,1,4.33-3.81,14.77,14.77,0,0,1,5.14-1.54c.87,0,1.73-.11,2.58-.08s1.7.15,2.53.3c-.78.36-1.55.67-2.31,1l-2.18,1a20.49,20.49,0,0,0-3.74,2.45,10.14,10.14,0,0,0-2.49,3.05,5.87,5.87,0,0,0-.37.86,5.55,5.55,0,0,0-.29.87,7.25,7.25,0,0,0-.16.89,3.19,3.19,0,0,0-.05.42c0,.07,0,.14,0,.19v.09l0-.35A11.63,11.63,0,0,0,244.9,390a15.12,15.12,0,0,0,3.37,3.12,28.93,28.93,0,0,0,4.48,2.43C254.36,396.27,256.06,396.88,257.84,397.52Z"/><path d="M273.87,386.59a28.27,28.27,0,0,1,10.66,1,25.28,25.28,0,0,1,9.84,5.09,15.78,15.78,0,0,1,3.69,4.65,12.73,12.73,0,0,1,1.42,5.86,12.87,12.87,0,0,1-1.28,5.6,15.79,15.79,0,0,1-3.09,4.47,43,43,0,0,0,.79-5.09,14.81,14.81,0,0,0-.22-4.64,13.06,13.06,0,0,0-4.52-7.21,40.58,40.58,0,0,0-8-5.19C280.2,389.55,277.1,388.15,273.87,386.59Z"/><path d="M278.86,404.81c1,.8,2.07,1.55,3.13,2.25s2.12,1.37,3.22,1.94a29,29,0,0,0,3.32,1.53,20.49,20.49,0,0,0,3.37.89l-.67,0a5.56,5.56,0,0,1,1.18-.06,6.51,6.51,0,0,1,1.07.13,6.36,6.36,0,0,1,4.82,4.24,15.44,15.44,0,0,1,.52,7.19,32.47,32.47,0,0,1-1.41,6.51,18.49,18.49,0,0,1-3.29,6.25,9.5,9.5,0,0,1-3.19,2.48,7.69,7.69,0,0,1-4.18.63,10.75,10.75,0,0,1-3.59-1.26,19.67,19.67,0,0,1-2.8-2,21,21,0,0,1-4.31-5,13.18,13.18,0,0,1-2-6.12,19.37,19.37,0,0,0,8.18,8.49,11.14,11.14,0,0,0,4.87,1.76,4.12,4.12,0,0,0,3.42-1.95,16.5,16.5,0,0,0,2.29-4.81,39.17,39.17,0,0,0,1.29-5.62,13,13,0,0,0,.05-5.13,2.64,2.64,0,0,0-.87-1.5,2.38,2.38,0,0,0-.75-.43,3.09,3.09,0,0,0-.46-.13c-.13,0-.37,0-.37-.06l-.67,0a18.35,18.35,0,0,1-3.84-1.75,23.81,23.81,0,0,1-3.28-2.4,27.58,27.58,0,0,1-2.78-2.84A22.18,22.18,0,0,1,278.86,404.81Z"/><path d="M245.1,393.4l1.2,13.09a112.83,112.83,0,0,0,1.87,12.57,35.67,35.67,0,0,0,4.25,11.36,18,18,0,0,0,9.63,7.45,14.25,14.25,0,0,1-6.81-.94,15.71,15.71,0,0,1-5.84-4.18,27.8,27.8,0,0,1-6-12.65,49.52,49.52,0,0,1-.93-13.54A47.29,47.29,0,0,1,245.1,393.4Z"/><path d="M257.84,420.77c1,2.51,1.86,4.94,2.81,7.3a55.22,55.22,0,0,0,3.17,6.7A17.21,17.21,0,0,0,268,440a8.14,8.14,0,0,0,5.58,1.69h.52c-.09,0,.07,0,.15,0h.3l.69,0a11.52,11.52,0,0,0,1.46-.26,16.59,16.59,0,0,0,3-1.08,28.52,28.52,0,0,0,3-1.6l1.5-.94c.49-.34,1-.67,1.52-1-.27.54-.57,1.08-.88,1.62s-.67,1-1.05,1.53a19.62,19.62,0,0,1-2.58,2.75,15.24,15.24,0,0,1-3.27,2.17,12.78,12.78,0,0,1-1.94.74,9.07,9.07,0,0,1-1.06.24l-.58.08c-.23,0-.36,0-.74,0h.51a12,12,0,0,1-4.74,0,11,11,0,0,1-4.36-2,17.15,17.15,0,0,1-5.24-7.07,30.72,30.72,0,0,1-2-16Z"/><path d="M256.75,390.05a6.07,6.07,0,0,1-6-5.22c-3.05-21.42,2.35-58.56,23.6-70.24a6.07,6.07,0,1,1,5.85,10.63c-15.33,8.43-20,39.59-17.44,57.91a6.07,6.07,0,0,1-5.15,6.86A6.33,6.33,0,0,1,256.75,390.05Z"/></svg>