<svg id="Calque_1" data-name="Calque 1" xmlns="http://www.w3.org/2000/svg" viewBox="0 0 1030 400"><defs><style>.cls-1{fill:#ffffff;}</style></defs><path d="M539.59,295.61a12.62,12.62,0,0,1,9,4l-2.42,2.25a10.31,10.31,0,0,0-6.62-2.77h-.31c-2.11,0-4.92,1-4.92,3.5,0,1.87,1.77,2.6,4.61,3l2.28.28c4.89.59,8.18,2.46,8.18,7.17,0,4.5-4,7.27-9.18,7.31h-.17c-4.85,0-8.35-2.26-10.05-5.1l2.43-2.25c1.1,2,3.74,3.85,7.62,3.85h.17c3.15,0,5.44-1.46,5.44-3.81s-1.94-3.33-4.92-3.71l-2.29-.28c-4.74-.55-7.86-2.39-7.86-6.33,0-4.37,3.91-7.07,8.66-7.1Z"/><path d="M570,306.1v3.53H558.85v6.93h12v3.53H555.11V295.85h15.76v3.53h-12v6.72Z"/><path d="M596.39,299.62,594,301.87a9.39,9.39,0,0,0-6.72-2.73,8.83,8.83,0,0,0,0,17.66,9.27,9.27,0,0,0,6.72-2.73l2.42,2.25a12.36,12.36,0,1,1,0-16.7Z"/><path d="M621.78,309.81c0,6.79-4.4,10.53-9.87,10.53s-9.84-3.74-9.84-10.53v-14h3.74V309.7c0,4.92,2.67,7.1,6.1,7.1s6.13-2.18,6.13-7.1V295.85h3.74Z"/><path d="M637,295.85c6.48,0,10.46,3.67,10.46,8.93a7.85,7.85,0,0,1-5.72,7.73c1.22.59,2.32,1.8,3.81,4.12l2.26,3.46h-4.2l-1.8-2.77c-1.94-3-2.8-3.53-5.3-3.6h-3.81v6.37H629V295.85Zm-4.3,14.37h4.61c3.64,0,6.62-1.63,6.62-5.44s-3-5.4-6.62-5.4h-4.61Z"/><path d="M662.65,316.56v3.53h-9.49v-3.53H656V299.38h-2.87v-3.53h9.49v3.53h-2.88v17.18Z"/><path d="M678.75,320.09H675V299.38H668v-3.53h17.9v3.53h-7.1Z"/><path d="M697.87,320.09v-8.21l-8.94-16h4.26l6.55,11.46,6.55-11.46h4.26l-8.94,16v8.21Z"/><path d="M747,320.09V302.84l-8.14,10.26-8.18-10.26v17.25h-3.74V295.85h2.19l9.73,12.29,9.73-12.29h2.15v24.24Z"/><path d="M760.11,320.09H756l10-24.24h2.18l9.9,24.24H774l-2.18-5.43h-9.46Zm3.53-9h6.86l-3.43-8.45Z"/><path d="M791.45,295.85c6.83,0,12.33,5,12.33,12.12s-5.5,12.12-12.33,12.12h-8V295.85Zm0,20.71c4.78,0,8.59-3.12,8.59-8.59s-3.81-8.59-8.59-8.59h-4.29v17.18Z"/><path d="M824.67,306.1v3.53H813.48v6.93h12v3.53H809.74V295.85H825.5v3.53h-12v6.72Z"/><path d="M857.43,306.1v3.53H846.24v6.93h12v3.53H842.5V295.85h15.76v3.53h-12v6.72Z"/><path d="M865.78,320.09h-4.12l10-24.24h2.18l9.9,24.24h-4.12l-2.18-5.43H868Zm3.53-9h6.86l-3.43-8.45Z"/><path d="M896.15,295.61a12.62,12.62,0,0,1,9,4l-2.42,2.25a10.29,10.29,0,0,0-6.62-2.77h-.31c-2.11,0-4.92,1-4.92,3.5,0,1.87,1.77,2.6,4.61,3l2.29.28c4.88.59,8.17,2.46,8.17,7.17,0,4.5-4,7.27-9.18,7.31h-.17c-4.85,0-8.35-2.26-10-5.1L889,313c1.11,2,3.74,3.85,7.62,3.85h.17c3.15,0,5.44-1.46,5.44-3.81s-1.94-3.33-4.92-3.71L895,309c-4.74-.55-7.86-2.39-7.86-6.33,0-4.37,3.92-7.07,8.66-7.1Z"/><path d="M917.77,320.09v-8.21l-8.94-16h4.26l6.55,11.46,6.54-11.46h4.26l-8.93,16v8.21Z"/><path class="cls-1" d="M186.12,167.61V153.32a37.45,37.45,0,0,0-11.34-27.57,38.11,38.11,0,0,0-53.72.23A36.8,36.8,0,0,0,110,152.88v71.65a37.46,37.46,0,0,0,11.33,27.56,37.08,37.08,0,0,0,26.8,11h.85A38.07,38.07,0,0,0,186.12,225V210.15c.07-2.14,0-12.41-6.49-21C186.17,180.78,186.28,170.82,186.12,167.61ZM148,136.89a15.19,15.19,0,0,1,11.28,4.61A15.6,15.6,0,0,1,164,153.32V168c0,.23,0,.56,0,.69.07,1.31-.19,5.17-2.13,7.23-1.25,1.34-3.43,2-6.66,2h-20a10.83,10.83,0,0,0-3.23.54V152.88a16,16,0,0,1,15.5-16Zm-15.92,62.55a11.15,11.15,0,0,0,3.23.54h20c4.39,0,5.8,1.44,6.26,1.92,2.11,2.17,2.53,6.26,2.52,7.55V225a16,16,0,0,1-27.2,11.39,15.66,15.66,0,0,1-4.75-11.83Z"/><path class="cls-1" d="M239.35,114.8a38.07,38.07,0,0,0-37.19,38.08V252a11.06,11.06,0,1,0,22.11,0V200h32v52a11.05,11.05,0,1,0,22.1,0V153.32a38.07,38.07,0,0,0-39-38.52Zm12.12,26.7a15.6,15.6,0,0,1,4.75,11.82v24.55h-32v-25a16,16,0,0,1,15.51-16A15.32,15.32,0,0,1,251.47,141.5Z"/><path class="cls-1" d="M368.76,167.61V153.32a38.07,38.07,0,0,0-39-38.52,38.07,38.07,0,0,0-37.19,38.08v71.65a37.42,37.42,0,0,0,11.34,27.56,37,37,0,0,0,26.8,11h.84A38.07,38.07,0,0,0,368.76,225V210.15c.06-2.14,0-12.41-6.5-21C368.82,180.78,368.92,170.82,368.76,167.61Zm-38.14-30.72a15.19,15.19,0,0,1,11.28,4.61,15.6,15.6,0,0,1,4.75,11.82V168c0,.22,0,.53,0,.69.06,1.31-.2,5.17-2.14,7.23-1.25,1.34-3.43,2-6.66,2H317.93a10.83,10.83,0,0,0-3.23.54V152.88a16,16,0,0,1,15.49-16ZM314.7,199.44a11.15,11.15,0,0,0,3.23.54h19.95c4.39,0,5.8,1.44,6.26,1.92,2.12,2.17,2.54,6.26,2.52,7.55V225a16,16,0,0,1-27.2,11.39,15.66,15.66,0,0,1-4.75-11.83Z"/><path class="cls-1" d="M408,200h19.95c9.62,0,17.33-3.07,22.92-9.12,8-8.65,8.13-19.81,8-23.25V153.32a38.07,38.07,0,0,0-39-38.52,38.07,38.07,0,0,0-37.19,38.08v71.65A37.42,37.42,0,0,0,394,252.09a37,37,0,0,0,26.8,11h.84A38.07,38.07,0,0,0,458.8,225a11.06,11.06,0,0,0-22.11,0,16,16,0,0,1-27.2,11.39,15.66,15.66,0,0,1-4.75-11.83V199.44A11.15,11.15,0,0,0,408,200Zm-3.23-47.1a16,16,0,0,1,15.52-16,15.3,15.3,0,0,1,11.68,4.6,15.6,15.6,0,0,1,4.75,11.82V168c0,.22,0,.53,0,.69.06,1.31-.2,5.17-2.14,7.23-1.25,1.34-3.43,2-6.66,2H408a10.83,10.83,0,0,0-3.23.54Z"/><path class="cls-1" d="M522.71,241H496.15a1.66,1.66,0,0,1-.7-.21c-.17-.2-.67-1.28-.67-3.67V125.85a11.06,11.06,0,0,0-22.11,0V237.07c0,8.33,2.56,15,7.59,19.73a23.6,23.6,0,0,0,16,6.26h26.48a11.06,11.06,0,0,0,0-22.11Z"/><path class="cls-1" d="M659.62,117A38.06,38.06,0,0,0,619.84,126a36.8,36.8,0,0,0-11.11,26.9V225a37.28,37.28,0,0,0,7.09,22.24A38.17,38.17,0,0,0,634,260.84a37.61,37.61,0,0,0,12.82,2.22,36.73,36.73,0,0,0,12.72-2.21,38.81,38.81,0,0,0,14.18-8.9,36.92,36.92,0,0,0,11.18-27v-72.1a36.84,36.84,0,0,0-7.1-22.19A38.26,38.26,0,0,0,659.62,117Zm3.17,35.84V225a15.08,15.08,0,0,1-4.64,11.27,16.25,16.25,0,0,1-6.18,3.82,16.06,16.06,0,0,1-18.24-5.82,15,15,0,0,1-2.89-9.27v-72.1a15,15,0,0,1,4.62-11.27,15.94,15.94,0,0,1,6.06-3.81,15.35,15.35,0,0,1,5.29-.9,15,15,0,0,1,5.23.9,16.19,16.19,0,0,1,7.89,5.92A14.81,14.81,0,0,1,662.79,152.88Z"/><path class="cls-1" d="M591.44,114.8H545.85a11,11,0,0,0,0,22.1h11.74V252a11.06,11.06,0,0,0,22.11,0V136.9h11.74a11,11,0,0,0,0-22.1Z"/><path class="cls-1" d="M747.77,117A38.06,38.06,0,0,0,708,126a36.8,36.8,0,0,0-11.11,26.9V225A37.28,37.28,0,0,0,704,247.22a38.17,38.17,0,0,0,18.17,13.62A37.61,37.61,0,0,0,735,263.06a36.69,36.69,0,0,0,12.72-2.21,38.81,38.81,0,0,0,14.18-8.9,36.93,36.93,0,0,0,11.19-27v-72.1a36.84,36.84,0,0,0-7.11-22.19A38.21,38.21,0,0,0,747.77,117Zm3.17,35.84V225a15,15,0,0,1-4.64,11.27,16.29,16.29,0,0,1-6.17,3.82,16.07,16.07,0,0,1-18.25-5.82A15.1,15.1,0,0,1,719,225v-72.1a15,15,0,0,1,4.62-11.27,15.94,15.94,0,0,1,6.06-3.81,15.43,15.43,0,0,1,5.29-.9,15,15,0,0,1,5.23.9,16.1,16.1,0,0,1,7.89,5.92A14.81,14.81,0,0,1,750.94,152.88Z"/><path class="cls-1" d="M835.21,241H808.66a2.08,2.08,0,0,1-.71-.21c-.17-.19-.67-1.28-.67-3.67V125.85a11.06,11.06,0,0,0-22.11,0V237.07c0,8.34,2.56,15,7.59,19.73a23.6,23.6,0,0,0,16,6.26h26.48a11.06,11.06,0,0,0,0-22.11Z"/><path class="cls-1" d="M892.52,178.14,892,178a34.18,34.18,0,0,1-10.13-3.79c-5.33-3.12-7.71-6.76-7.71-11.81v-9.11a15.61,15.61,0,0,1,4.67-11.75,14.88,14.88,0,0,1,11.6-4.67,15.1,15.1,0,0,1,11,4.74,14.91,14.91,0,0,1,4.67,11.24v4.75a11.06,11.06,0,0,0,22.11,0v-4.75a38.2,38.2,0,0,0-37.42-38.08h-.57A38.06,38.06,0,0,0,852,153.32v9.11c0,24.65,23.43,35.19,35.94,37.35,7.92,1.82,13.34,5.41,16.11,10.66a17.68,17.68,0,0,1,2,7.29c0,.14,0,.27,0,.4v6.4a15.61,15.61,0,0,1-4.67,11.75A16,16,0,0,1,874.15,225v-4.76a11.06,11.06,0,0,0-22.11,0V225a38.2,38.2,0,0,0,37.42,38.08H890a38.06,38.06,0,0,0,38.19-38.53v-6.08C928.64,207.37,921.75,184.69,892.52,178.14Z"/></svg>