<svg width="32" height="32" viewBox="0 0 32 32" fill="none" xmlns="http://www.w3.org/2000/svg">
<path d="M16 28C22.6274 28 28 22.6274 28 16C28 9.37258 22.6274 4 16 4C9.37258 4 4 9.37258 4 16C4 22.6274 9.37258 28 16 28Z" stroke="#44AD92" stroke-width="2" stroke-linecap="round" stroke-linejoin="round"/>
<path d="M16 20C18.7614 20 21 17.7614 21 15C21 12.2386 18.7614 10 16 10C13.2386 10 11 12.2386 11 15C11 17.7614 13.2386 20 16 20Z" stroke="#44AD92" stroke-width="2" stroke-linecap="round" stroke-linejoin="round"/>
<path d="M7.97656 24.9218C8.72983 23.4408 9.87821 22.1971 11.2946 21.3284C12.711 20.4598 14.3401 20 16.0017 20C17.6632 20 19.2923 20.4598 20.7087 21.3284C22.1251 22.1971 23.2735 23.4407 24.0268 24.9217" stroke="#44AD92" stroke-width="2" stroke-linecap="round" stroke-linejoin="round"/>
<path fill-rule="evenodd" clip-rule="evenodd" d="M15.9999 5.10002C9.98 5.10002 5.0999 9.98012 5.0999 16C5.0999 22.0199 9.98 26.9 15.9999 26.9C22.0198 26.9 26.8999 22.0199 26.8999 16C26.8999 9.98012 22.0198 5.10002 15.9999 5.10002ZM2.8999 16C2.8999 8.76509 8.76497 2.90002 15.9999 2.90002C23.2348 2.90002 29.0999 8.76509 29.0999 16C29.0999 23.235 23.2348 29.1 15.9999 29.1C8.76497 29.1 2.8999 23.235 2.8999 16Z" fill="#44AD92"/>
<path fill-rule="evenodd" clip-rule="evenodd" d="M15.9999 11.1C13.846 11.1 12.0999 12.8461 12.0999 15C12.0999 17.1539 13.846 18.9 15.9999 18.9C18.1538 18.9 19.8999 17.1539 19.8999 15C19.8999 12.8461 18.1538 11.1 15.9999 11.1ZM9.8999 15C9.8999 11.6311 12.631 8.90002 15.9999 8.90002C19.3688 8.90002 22.0999 11.6311 22.0999 15C22.0999 18.369 19.3688 21.1 15.9999 21.1C12.631 21.1 9.8999 18.369 9.8999 15Z" fill="#44AD92"/>
<path fill-rule="evenodd" clip-rule="evenodd" d="M16.0016 21.1C14.543 21.1 13.1129 21.5036 11.8696 22.2662C10.6262 23.0287 9.61815 24.1204 8.95692 25.4205C8.6815 25.962 8.01926 26.1777 7.47777 25.9022C6.93627 25.6268 6.72057 24.9646 6.99599 24.4231C7.84128 22.7612 9.12997 21.3656 10.7194 20.3908C12.3088 19.416 14.137 18.9 16.0016 18.9C17.8661 18.9 19.6943 19.416 21.2837 20.3908C22.8731 21.3655 24.1618 22.7611 25.0071 24.4231C25.2826 24.9646 25.0669 25.6268 24.5254 25.9022C23.9839 26.1776 23.3216 25.9619 23.0462 25.4204C22.385 24.1204 21.3769 23.0287 20.1335 22.2662C18.8902 21.5036 17.4601 21.1 16.0016 21.1Z" fill="#44AD92"/>
</svg>
