<svg width="321" height="302" viewBox="0 0 321 302" fill="none" xmlns="http://www.w3.org/2000/svg">
<path d="M300.813 262.42C281.849 286.16 242.861 298.135 182.911 300.621C104.644 303.865 68.8242 289.252 32.5938 256.063H294.367L300.813 262.42Z" fill="#999999"/>
<path d="M1 256.037H291.345" stroke="#263238" stroke-width="0.490925" stroke-linecap="round" stroke-linejoin="round"/>
<path d="M294.38 40.0537V256.037L313.575 275.232" stroke="#263238" stroke-width="0.490925" stroke-linecap="round" stroke-linejoin="round"/>
<path d="M237.048 52.8423V15.2891" stroke="#263238" stroke-width="0.490925" stroke-linecap="round" stroke-linejoin="round"/>
<path d="M220.84 69.0504C220.796 66.8941 221.182 64.7507 221.976 62.7456C222.77 60.7405 223.957 58.9141 225.466 57.3733C226.975 55.8326 228.776 54.6085 230.765 53.7729C232.753 52.9373 234.888 52.5068 237.045 52.5068C239.201 52.5068 241.336 52.9373 243.324 53.7729C245.313 54.6085 247.114 55.8326 248.623 57.3733C250.132 58.9141 251.319 60.7405 252.113 62.7456C252.907 64.7507 253.293 66.8941 253.249 69.0504H220.84Z" stroke="#263238" stroke-width="0.490925" stroke-linecap="round" stroke-linejoin="round"/>
<path d="M32.5939 256.037H19.3242" stroke="#263238" stroke-width="0.490925" stroke-linecap="round" stroke-linejoin="round"/>
<path d="M86.3827 169.546H72.4656V256.042H86.3827V169.546Z" stroke="#263238" stroke-width="0.490925" stroke-linecap="round" stroke-linejoin="round"/>
<path d="M67.4878 175.965H11.2554V196.969H67.4878V175.965Z" stroke="#263238" stroke-width="0.490925" stroke-linecap="round" stroke-linejoin="round"/>
<path d="M67.4878 199.26H11.2554V220.264H67.4878V199.26Z" stroke="#263238" stroke-width="0.490925" stroke-linecap="round" stroke-linejoin="round"/>
<path d="M67.4878 222.562H11.2554V243.566H67.4878V222.562Z" stroke="#263238" stroke-width="0.490925" stroke-linecap="round" stroke-linejoin="round"/>
<path d="M33.457 177.482C33.457 178.103 33.7035 178.698 34.1422 179.137C34.5809 179.575 35.1759 179.822 35.7963 179.822H42.9463C43.2541 179.823 43.559 179.763 43.8436 179.646C44.1282 179.528 44.3869 179.356 44.6049 179.139C44.8228 178.922 44.9958 178.663 45.1138 178.379C45.2318 178.095 45.2925 177.79 45.2925 177.482" stroke="#263238" stroke-width="0.490925" stroke-linecap="round" stroke-linejoin="round"/>
<path d="M33.457 200.777C33.4625 201.394 33.7112 201.985 34.1491 202.42C34.587 202.855 35.1788 203.1 35.7963 203.102H42.9463C43.5685 203.102 44.1653 202.855 44.6053 202.415C45.0453 201.975 45.2925 201.378 45.2925 200.756" stroke="#263238" stroke-width="0.490925" stroke-linecap="round" stroke-linejoin="round"/>
<path d="M33.457 224.079C33.457 224.7 33.7033 225.296 34.1418 225.736C34.5802 226.175 35.1752 226.423 35.7963 226.425H42.9463C43.2544 226.425 43.5595 226.365 43.8441 226.247C44.1288 226.129 44.3874 225.956 44.6053 225.738C44.8232 225.52 44.996 225.262 45.1139 224.977C45.2318 224.692 45.2925 224.387 45.2925 224.079" stroke="#263238" stroke-width="0.490925" stroke-linecap="round" stroke-linejoin="round"/>
<path d="M70.189 256.042H6.70215V169.546H70.189" stroke="#263238" stroke-width="0.490925" stroke-linecap="round" stroke-linejoin="round"/>
<path d="M124.416 214.046V246.768L141.55 252.804C141.763 252.879 141.948 253.018 142.079 253.202C142.21 253.387 142.281 253.608 142.281 253.834V254.85C142.281 255.019 142.242 255.186 142.167 255.337C142.091 255.489 141.981 255.62 141.846 255.722C141.711 255.823 141.554 255.891 141.388 255.922C141.221 255.952 141.05 255.942 140.888 255.895L123.288 250.729L122.968 254.955C122.948 255.249 122.817 255.525 122.601 255.725C122.385 255.926 122.1 256.036 121.805 256.034H120.9C120.606 256.033 120.324 255.922 120.108 255.722C119.893 255.522 119.76 255.248 119.738 254.955L119.417 250.729L101.824 255.895C101.662 255.941 101.492 255.949 101.326 255.918C101.16 255.888 101.004 255.819 100.869 255.718C100.734 255.617 100.625 255.486 100.549 255.335C100.473 255.185 100.433 255.019 100.432 254.85V253.834C100.432 253.608 100.503 253.387 100.633 253.202C100.764 253.018 100.949 252.879 101.163 252.804L118.303 246.768V214.046" stroke="#263238" stroke-width="0.490925" stroke-linecap="round" stroke-linejoin="round"/>
<path d="M116.598 202.196V192.714" stroke="#263238" stroke-width="0.490925" stroke-linecap="round" stroke-linejoin="round"/>
<path d="M112.581 192.714V202.196" stroke="#263238" stroke-width="0.490925" stroke-linecap="round" stroke-linejoin="round"/>
<path d="M99.2135 191.029C96.3591 190.918 94.3401 189.066 94.3401 185.864V169.259C94.3864 168.254 94.7236 167.284 95.3106 166.467C95.8977 165.65 96.7094 165.022 97.6471 164.657" stroke="#263238" stroke-width="0.490925" stroke-linecap="round" stroke-linejoin="round"/>
<path d="M98.427 167.157V185.794C98.427 189.011 100.996 190.786 104.233 190.215C111.295 188.914 118.561 189.233 125.481 191.148C128.67 192.011 131.176 190.452 131.176 187.249V168.612C131.136 167.798 130.863 167.013 130.391 166.349C129.918 165.686 129.266 165.171 128.51 164.866C119.688 161.88 110.199 161.462 101.149 163.662C100.387 163.887 99.7146 164.345 99.2263 164.972C98.7381 165.599 98.4585 166.363 98.427 167.157V167.157Z" stroke="#263238" stroke-width="0.490925" stroke-linecap="round" stroke-linejoin="round"/>
<path d="M111.571 203.576H102.312C101.531 203.575 100.758 203.728 100.037 204.026C99.3157 204.324 98.6602 204.762 98.108 205.313C97.5559 205.865 97.1178 206.52 96.8189 207.241C96.52 207.962 96.3662 208.734 96.3662 209.515V209.515C96.3662 210.237 96.653 210.929 97.1635 211.44C97.674 211.95 98.3664 212.237 99.0884 212.237H109.859" stroke="#263238" stroke-width="0.490925" stroke-linecap="round" stroke-linejoin="round"/>
<path d="M113.026 212.237H143.604C144.326 212.237 145.018 211.95 145.529 211.44C146.039 210.929 146.326 210.237 146.326 209.515C146.326 208.734 146.172 207.962 145.873 207.241C145.574 206.52 145.136 205.865 144.584 205.313C144.032 204.762 143.376 204.324 142.655 204.026C141.934 203.728 141.161 203.575 140.38 203.576H116.25C115.469 203.575 114.696 203.728 113.975 204.026C113.254 204.324 112.598 204.762 112.046 205.313C111.494 205.865 111.056 206.52 110.757 207.241C110.458 207.962 110.304 208.734 110.304 209.515V209.515C110.304 210.237 110.591 210.929 111.102 211.44C111.612 211.95 112.304 212.237 113.026 212.237V212.237Z" stroke="#263238" stroke-width="0.490925" stroke-linecap="round" stroke-linejoin="round"/>
<path d="M256.994 154.954C257.358 154.947 257.707 154.808 257.977 154.564C258.247 154.319 258.42 153.986 258.463 153.624L261.513 125.24C261.536 125.073 261.522 124.902 261.473 124.74C261.424 124.578 261.34 124.429 261.228 124.302C261.115 124.176 260.977 124.075 260.822 124.008C260.666 123.94 260.498 123.907 260.329 123.91" stroke="#263238" stroke-width="0.490925" stroke-linecap="round" stroke-linejoin="round"/>
<path d="M181.574 181.075H279.698V171.969H181.574V181.075Z" stroke="#263238" stroke-width="0.490925" stroke-linecap="round" stroke-linejoin="round"/>
<path d="M146.646 171.963V181.069H180.057" stroke="#263238" stroke-width="0.490925" stroke-linecap="round" stroke-linejoin="round"/>
<path d="M282.851 170.988V165.293H187.172" stroke="#263238" stroke-width="0.490925" stroke-linecap="round" stroke-linejoin="round"/>
<path d="M143.485 170.994H185.647V165.299H143.485V170.994Z" stroke="#263238" stroke-width="0.490925" stroke-linecap="round" stroke-linejoin="round"/>
<path d="M274.372 182.593V256.035H276.495L277.261 182.593" stroke="#263238" stroke-width="0.490925" stroke-linecap="round" stroke-linejoin="round"/>
<path d="M271.489 182.593L272.248 256.035H274.371V182.593" stroke="#263238" stroke-width="0.490925" stroke-linecap="round" stroke-linejoin="round"/>
<path d="M246.314 182.593V256.035H248.438L249.196 182.593" stroke="#263238" stroke-width="0.490925" stroke-linecap="round" stroke-linejoin="round"/>
<path d="M243.432 182.593L244.191 256.035H246.314V182.593" stroke="#263238" stroke-width="0.490925" stroke-linecap="round" stroke-linejoin="round"/>
<path d="M180.022 182.593V256.035H182.152L182.911 182.593" stroke="#263238" stroke-width="0.490925" stroke-linecap="round" stroke-linejoin="round"/>
<path d="M177.139 182.593L177.898 256.035H180.022V182.593" stroke="#263238" stroke-width="0.490925" stroke-linecap="round" stroke-linejoin="round"/>
<path d="M151.965 182.593V256.035H154.088L154.847 182.593" stroke="#263238" stroke-width="0.490925" stroke-linecap="round" stroke-linejoin="round"/>
<path d="M149.083 182.593L149.841 256.035H151.965V182.593" stroke="#263238" stroke-width="0.490925" stroke-linecap="round" stroke-linejoin="round"/>
<path d="M223.806 163.525H203.164V165.294H223.806V163.525Z" stroke="#263238" stroke-width="0.490925" stroke-linecap="round" stroke-linejoin="round"/>
<path d="M261.742 165.293H256.952C256.633 165.293 256.327 165.166 256.101 164.94C255.875 164.714 255.748 164.408 255.748 164.089V162.571H262.947V164.089C262.947 164.408 262.82 164.714 262.594 164.94C262.368 165.166 262.062 165.293 261.742 165.293Z" stroke="#263238" stroke-width="0.490925" stroke-linecap="round" stroke-linejoin="round"/>
<path d="M262.947 162.586C262.947 161.555 261.332 160.713 259.341 160.713C257.349 160.713 255.741 161.555 255.741 162.586H262.947Z" stroke="#263238" stroke-width="0.490925" stroke-linecap="round" stroke-linejoin="round"/>
<path d="M255.741 162.586C255.741 161.555 257.356 160.713 259.341 160.713V162.586H255.741Z" stroke="#263238" stroke-width="0.490925" stroke-linecap="round" stroke-linejoin="round"/>
<path d="M255.497 154.954H215.257C215.088 154.958 214.92 154.924 214.764 154.857C214.609 154.789 214.471 154.689 214.358 154.562C214.246 154.436 214.162 154.287 214.113 154.125C214.064 153.963 214.05 153.792 214.073 153.624L217.123 125.24C217.168 124.879 217.341 124.546 217.61 124.302C217.88 124.058 218.228 123.919 218.592 123.91H258.839C259.008 123.908 259.176 123.942 259.33 124.01C259.485 124.078 259.623 124.178 259.735 124.304C259.847 124.431 259.931 124.58 259.981 124.741C260.03 124.902 260.045 125.073 260.023 125.24L256.973 153.624C256.93 153.987 256.756 154.321 256.485 154.566C256.213 154.81 255.863 154.948 255.497 154.954Z" stroke="#263238" stroke-width="0.490925" stroke-linecap="round" stroke-linejoin="round"/>
<path d="M241.198 155.713L241.887 162.104H243.404L242.715 155.713" stroke="#263238" stroke-width="0.490925" stroke-linecap="round" stroke-linejoin="round"/>
<path d="M231.325 155.713L232.014 162.104H241.887L241.197 155.713" stroke="#263238" stroke-width="0.490925" stroke-linecap="round" stroke-linejoin="round"/>
<path d="M253.82 152.9H217.38C217.233 152.904 217.087 152.875 216.952 152.816C216.817 152.758 216.696 152.67 216.598 152.561C216.5 152.451 216.427 152.321 216.384 152.18C216.341 152.039 216.33 151.89 216.35 151.745L218.996 127.12C219.034 126.805 219.185 126.515 219.42 126.303C219.656 126.09 219.96 125.97 220.277 125.964H256.716C256.863 125.961 257.009 125.989 257.144 126.048C257.279 126.107 257.4 126.194 257.498 126.304C257.596 126.414 257.669 126.544 257.712 126.685C257.755 126.825 257.766 126.974 257.746 127.12L255.101 151.745C255.062 152.059 254.911 152.349 254.676 152.562C254.441 152.774 254.137 152.894 253.82 152.9V152.9Z" stroke="#263238" stroke-width="0.490925" stroke-linecap="round" stroke-linejoin="round"/>
<path d="M244.929 162.104H224.913V165.299H244.929V162.104Z" stroke="#263238" stroke-width="0.490925" stroke-linecap="round" stroke-linejoin="round"/>
<path d="M250.784 162.104H244.929V165.299H250.784V162.104Z" stroke="#263238" stroke-width="0.490925" stroke-linecap="round" stroke-linejoin="round"/>
<path d="M269.784 131.987H204.236V146.754H269.784V131.987Z" fill="white" stroke="#263238" stroke-width="0.490925" stroke-linecap="round" stroke-linejoin="round"/>
<path d="M212.159 140.918L211.1 140.111L211.274 141.406C211.29 141.491 211.286 141.579 211.264 141.663C211.241 141.746 211.201 141.824 211.145 141.891C211.089 141.957 211.02 142.011 210.941 142.047C210.862 142.083 210.776 142.102 210.69 142.102C210.603 142.102 210.517 142.083 210.438 142.047C210.36 142.011 210.29 141.957 210.234 141.891C210.178 141.824 210.138 141.746 210.116 141.663C210.093 141.579 210.09 141.491 210.105 141.406L210.279 140.111L209.214 140.918C209.147 140.968 209.071 141.003 208.99 141.021C208.909 141.039 208.825 141.04 208.743 141.024C208.662 141.007 208.585 140.974 208.517 140.926C208.449 140.878 208.393 140.816 208.35 140.744C208.308 140.672 208.282 140.592 208.273 140.509C208.264 140.426 208.274 140.342 208.3 140.263C208.326 140.184 208.369 140.112 208.426 140.051C208.483 139.989 208.552 139.941 208.629 139.909L209.847 139.401L208.629 138.892C208.552 138.859 208.483 138.81 208.426 138.749C208.369 138.687 208.326 138.614 208.3 138.534C208.273 138.454 208.264 138.37 208.273 138.287C208.282 138.203 208.308 138.122 208.35 138.05C208.392 137.978 208.448 137.915 208.516 137.866C208.584 137.817 208.661 137.783 208.743 137.767C208.824 137.75 208.909 137.752 208.99 137.77C209.071 137.789 209.148 137.825 209.214 137.876L210.272 138.684L210.098 137.389C210.083 137.303 210.086 137.215 210.109 137.132C210.131 137.048 210.171 136.97 210.227 136.904C210.283 136.837 210.353 136.784 210.431 136.747C210.51 136.711 210.596 136.692 210.683 136.692C210.769 136.692 210.855 136.711 210.934 136.747C211.013 136.784 211.082 136.837 211.138 136.904C211.194 136.97 211.234 137.048 211.257 137.132C211.279 137.215 211.283 137.303 211.268 137.389L211.093 138.684L212.152 137.876C212.218 137.825 212.294 137.789 212.376 137.77C212.457 137.752 212.541 137.75 212.623 137.767C212.705 137.783 212.782 137.817 212.85 137.866C212.917 137.915 212.974 137.978 213.015 138.05C213.057 138.122 213.084 138.203 213.092 138.287C213.101 138.37 213.092 138.454 213.066 138.534C213.039 138.614 212.996 138.687 212.94 138.749C212.883 138.81 212.814 138.859 212.737 138.892L211.518 139.401L212.737 139.909C212.813 139.941 212.883 139.989 212.939 140.051C212.996 140.112 213.039 140.184 213.065 140.263C213.092 140.342 213.101 140.426 213.092 140.509C213.084 140.592 213.057 140.672 213.015 140.744C212.973 140.815 212.916 140.876 212.849 140.923C212.782 140.971 212.706 141.004 212.625 141.02C212.545 141.036 212.462 141.036 212.381 141.018C212.301 141.001 212.225 140.967 212.159 140.918Z" fill="#263238"/>
<path d="M221.606 140.918L220.548 140.111L220.722 141.406C220.737 141.491 220.734 141.579 220.711 141.663C220.689 141.746 220.648 141.824 220.593 141.891C220.537 141.957 220.467 142.011 220.388 142.047C220.31 142.084 220.224 142.102 220.137 142.102C220.051 142.102 219.965 142.084 219.887 142.047C219.808 142.011 219.739 141.957 219.683 141.891C219.628 141.824 219.588 141.746 219.567 141.662C219.545 141.578 219.543 141.491 219.559 141.406L219.733 140.111L218.675 140.918C218.608 140.968 218.531 141.003 218.449 141.021C218.368 141.04 218.283 141.041 218.201 141.024C218.119 141.008 218.042 140.975 217.973 140.926C217.905 140.878 217.848 140.816 217.805 140.744C217.764 140.672 217.739 140.591 217.731 140.508C217.724 140.425 217.734 140.342 217.761 140.263C217.788 140.184 217.831 140.112 217.888 140.051C217.944 139.99 218.014 139.941 218.09 139.909L219.302 139.401L218.09 138.892C218.013 138.859 217.944 138.81 217.887 138.749C217.83 138.687 217.787 138.614 217.76 138.535C217.733 138.455 217.723 138.371 217.731 138.288C217.739 138.204 217.764 138.123 217.805 138.05C217.847 137.977 217.904 137.915 217.972 137.866C218.041 137.817 218.118 137.783 218.201 137.767C218.283 137.75 218.368 137.751 218.45 137.77C218.531 137.789 218.608 137.825 218.675 137.876L219.733 138.684L219.559 137.389C219.543 137.304 219.545 137.216 219.567 137.132C219.588 137.048 219.628 136.97 219.683 136.904C219.739 136.837 219.808 136.784 219.887 136.747C219.965 136.711 220.051 136.692 220.137 136.692C220.224 136.692 220.31 136.711 220.388 136.747C220.467 136.784 220.537 136.837 220.593 136.904C220.648 136.97 220.689 137.048 220.711 137.132C220.734 137.215 220.737 137.303 220.722 137.389L220.548 138.684L221.606 137.876C221.672 137.825 221.749 137.789 221.83 137.77C221.911 137.752 221.996 137.75 222.077 137.767C222.159 137.783 222.236 137.817 222.304 137.866C222.372 137.915 222.428 137.978 222.469 138.05C222.512 138.122 222.538 138.203 222.547 138.287C222.556 138.37 222.547 138.454 222.52 138.534C222.494 138.614 222.451 138.687 222.394 138.749C222.337 138.81 222.268 138.859 222.191 138.892L220.98 139.401L222.191 139.909C222.268 139.941 222.337 139.989 222.394 140.051C222.451 140.112 222.493 140.184 222.52 140.263C222.546 140.342 222.555 140.426 222.547 140.509C222.538 140.592 222.512 140.672 222.469 140.744C222.427 140.816 222.37 140.878 222.303 140.926C222.235 140.974 222.158 141.007 222.077 141.024C221.995 141.04 221.911 141.039 221.83 141.021C221.749 141.003 221.673 140.968 221.606 140.918Z" fill="#263238"/>
<path d="M231.054 140.918L229.996 140.111L230.17 141.406C230.186 141.491 230.184 141.578 230.162 141.662C230.141 141.746 230.101 141.824 230.046 141.891C229.99 141.957 229.921 142.011 229.843 142.047C229.764 142.084 229.678 142.103 229.592 142.102C229.505 142.104 229.418 142.086 229.339 142.05C229.26 142.014 229.189 141.96 229.133 141.893C229.077 141.827 229.037 141.748 229.015 141.664C228.993 141.58 228.99 141.491 229.007 141.406L229.181 140.111L228.123 140.918C228.056 140.968 227.98 141.003 227.899 141.021C227.818 141.039 227.734 141.04 227.652 141.024C227.571 141.008 227.494 140.974 227.426 140.926C227.359 140.878 227.302 140.816 227.26 140.744C227.217 140.672 227.191 140.592 227.182 140.509C227.174 140.426 227.183 140.343 227.209 140.263C227.236 140.184 227.279 140.112 227.335 140.051C227.392 139.989 227.461 139.941 227.538 139.909L228.749 139.401L227.538 138.892C227.461 138.86 227.392 138.81 227.335 138.749C227.278 138.687 227.235 138.614 227.209 138.534C227.183 138.454 227.173 138.37 227.182 138.287C227.191 138.203 227.217 138.123 227.26 138.05C227.301 137.978 227.357 137.915 227.425 137.866C227.493 137.817 227.57 137.784 227.652 137.767C227.734 137.751 227.818 137.752 227.899 137.771C227.98 137.789 228.057 137.825 228.123 137.876L229.181 138.684L229.007 137.389C228.99 137.303 228.993 137.215 229.015 137.131C229.037 137.046 229.077 136.968 229.133 136.901C229.189 136.834 229.26 136.781 229.339 136.745C229.418 136.709 229.505 136.691 229.592 136.692C229.678 136.692 229.764 136.711 229.843 136.747C229.921 136.784 229.99 136.837 230.046 136.904C230.101 136.97 230.141 137.048 230.162 137.132C230.184 137.216 230.186 137.304 230.17 137.389L229.996 138.684L231.054 137.876C231.12 137.825 231.196 137.789 231.278 137.771C231.359 137.752 231.443 137.751 231.525 137.767C231.607 137.784 231.684 137.817 231.752 137.866C231.819 137.915 231.876 137.978 231.917 138.05C231.958 138.123 231.983 138.204 231.991 138.288C231.999 138.371 231.989 138.455 231.962 138.535C231.935 138.614 231.892 138.687 231.835 138.749C231.778 138.81 231.709 138.859 231.632 138.892L230.42 139.401L231.632 139.909C231.709 139.941 231.778 139.989 231.835 140.051C231.891 140.112 231.934 140.184 231.961 140.263C231.987 140.343 231.996 140.426 231.988 140.509C231.979 140.592 231.952 140.672 231.91 140.744C231.868 140.815 231.812 140.876 231.744 140.923C231.677 140.971 231.601 141.004 231.52 141.02C231.44 141.037 231.357 141.036 231.276 141.018C231.196 141.001 231.12 140.967 231.054 140.918Z" fill="#263238"/>
<path d="M240.543 140.918L239.478 140.111L239.652 141.406C239.668 141.491 239.666 141.578 239.644 141.662C239.623 141.746 239.583 141.824 239.528 141.891C239.472 141.957 239.403 142.011 239.324 142.047C239.246 142.084 239.16 142.102 239.074 142.102C238.987 142.102 238.901 142.084 238.823 142.047C238.744 142.011 238.674 141.957 238.618 141.891C238.563 141.824 238.522 141.746 238.5 141.663C238.477 141.579 238.474 141.491 238.489 141.406L238.663 140.111L237.605 140.918C237.538 140.968 237.462 141.003 237.381 141.021C237.3 141.039 237.216 141.04 237.134 141.024C237.053 141.007 236.976 140.974 236.908 140.926C236.841 140.878 236.784 140.816 236.742 140.744C236.699 140.672 236.673 140.592 236.664 140.509C236.656 140.426 236.665 140.342 236.691 140.263C236.717 140.184 236.76 140.112 236.817 140.051C236.874 139.989 236.943 139.941 237.02 139.909L238.238 139.401L237.02 138.892C236.943 138.859 236.874 138.81 236.817 138.749C236.76 138.687 236.717 138.614 236.691 138.534C236.664 138.454 236.655 138.37 236.664 138.287C236.673 138.203 236.699 138.122 236.742 138.05C236.783 137.978 236.839 137.915 236.907 137.866C236.975 137.817 237.052 137.783 237.134 137.767C237.215 137.75 237.3 137.752 237.381 137.77C237.462 137.789 237.539 137.825 237.605 137.876L238.663 138.684L238.489 137.389C238.474 137.303 238.477 137.215 238.5 137.132C238.522 137.048 238.563 136.97 238.618 136.904C238.674 136.837 238.744 136.784 238.823 136.747C238.901 136.711 238.987 136.692 239.074 136.692C239.16 136.692 239.246 136.711 239.324 136.747C239.403 136.784 239.472 136.837 239.528 136.904C239.583 136.97 239.623 137.048 239.644 137.132C239.666 137.216 239.668 137.304 239.652 137.389L239.478 138.684L240.543 137.876C240.609 137.825 240.685 137.789 240.767 137.77C240.848 137.752 240.932 137.75 241.014 137.767C241.096 137.783 241.173 137.817 241.241 137.866C241.308 137.915 241.365 137.978 241.406 138.05C241.447 138.123 241.473 138.203 241.481 138.286C241.489 138.37 241.48 138.454 241.454 138.533C241.427 138.612 241.385 138.685 241.329 138.747C241.273 138.809 241.204 138.859 241.128 138.892L239.909 139.401L241.121 139.909C241.197 139.941 241.267 139.99 241.323 140.051C241.38 140.112 241.423 140.184 241.45 140.263C241.477 140.342 241.487 140.425 241.48 140.508C241.472 140.591 241.447 140.672 241.406 140.744C241.364 140.816 241.307 140.878 241.239 140.926C241.172 140.974 241.095 141.007 241.013 141.024C240.932 141.04 240.848 141.039 240.767 141.021C240.686 141.003 240.609 140.968 240.543 140.918Z" fill="#263238"/>
<path d="M249.956 140.918L248.897 140.111L249.071 141.406C249.087 141.491 249.083 141.579 249.061 141.663C249.038 141.746 248.998 141.824 248.942 141.891C248.886 141.957 248.817 142.011 248.738 142.047C248.659 142.083 248.573 142.102 248.487 142.102C248.4 142.102 248.314 142.083 248.235 142.047C248.157 142.011 248.087 141.957 248.031 141.891C247.975 141.824 247.935 141.746 247.913 141.663C247.89 141.579 247.887 141.491 247.902 141.406L248.076 140.111L247.018 140.918C246.951 140.968 246.875 141.003 246.794 141.021C246.713 141.039 246.629 141.04 246.547 141.024C246.466 141.007 246.389 140.974 246.321 140.926C246.253 140.878 246.197 140.816 246.154 140.744C246.112 140.672 246.086 140.592 246.077 140.509C246.068 140.426 246.078 140.342 246.104 140.263C246.13 140.184 246.173 140.112 246.23 140.051C246.287 139.989 246.356 139.941 246.433 139.909L247.651 139.401L246.433 138.892C246.356 138.859 246.286 138.81 246.23 138.749C246.173 138.687 246.13 138.614 246.104 138.534C246.077 138.454 246.068 138.37 246.077 138.287C246.086 138.203 246.112 138.122 246.154 138.05C246.196 137.978 246.252 137.915 246.32 137.866C246.387 137.817 246.465 137.783 246.547 137.767C246.628 137.75 246.713 137.752 246.794 137.77C246.875 137.789 246.951 137.825 247.018 137.876L248.076 138.684L247.902 137.389C247.887 137.303 247.89 137.215 247.913 137.132C247.935 137.048 247.975 136.97 248.031 136.904C248.087 136.837 248.157 136.784 248.235 136.747C248.314 136.711 248.4 136.692 248.487 136.692C248.573 136.692 248.659 136.711 248.738 136.747C248.817 136.784 248.886 136.837 248.942 136.904C248.998 136.97 249.038 137.048 249.061 137.132C249.083 137.215 249.087 137.303 249.071 137.389L248.897 138.635L249.956 137.827C250.022 137.776 250.098 137.741 250.179 137.722C250.261 137.703 250.345 137.702 250.427 137.718C250.509 137.735 250.586 137.768 250.654 137.817C250.721 137.866 250.778 137.929 250.819 138.001C250.861 138.074 250.888 138.154 250.896 138.238C250.905 138.321 250.896 138.406 250.87 138.485C250.843 138.565 250.8 138.638 250.744 138.7C250.687 138.762 250.618 138.811 250.54 138.844L249.322 139.352L250.54 139.86C250.617 139.892 250.687 139.941 250.743 140.002C250.8 140.063 250.843 140.135 250.869 140.215C250.896 140.294 250.905 140.378 250.896 140.461C250.888 140.543 250.861 140.624 250.819 140.696C250.781 140.771 250.727 140.838 250.662 140.891C250.596 140.944 250.52 140.982 250.438 141.003C250.356 141.024 250.271 141.028 250.188 141.013C250.104 140.998 250.025 140.966 249.956 140.918Z" fill="#263238"/>
<path d="M265.753 139.373C265.753 139.373 263.824 141.775 261.45 141.775C259.076 141.775 257.155 139.373 257.155 139.373C257.155 139.373 259.076 136.964 261.429 136.964C263.782 136.964 265.753 139.373 265.753 139.373Z" fill="white" stroke="#263238" stroke-width="0.490925" stroke-linecap="round" stroke-linejoin="round"/>
<path d="M262.933 139.372C262.934 139.666 262.848 139.953 262.686 140.198C262.524 140.443 262.293 140.634 262.022 140.747C261.751 140.861 261.453 140.891 261.165 140.835C260.877 140.778 260.612 140.638 260.404 140.43C260.196 140.223 260.054 139.959 259.996 139.671C259.938 139.383 259.967 139.085 260.079 138.814C260.191 138.542 260.381 138.31 260.625 138.147C260.869 137.984 261.156 137.897 261.45 137.897C261.644 137.896 261.837 137.933 262.017 138.007C262.197 138.081 262.36 138.189 262.498 138.326C262.636 138.463 262.745 138.626 262.82 138.806C262.894 138.986 262.933 139.178 262.933 139.372Z" fill="#999999" stroke="#263238" stroke-width="0.490925" stroke-linecap="round" stroke-linejoin="round"/>
<path d="M249.162 203.703C249.162 203.703 241.19 220.168 234.187 211.814C227.183 203.459 239.018 200.326 239.018 200.326C239.018 200.326 224.76 202.011 224.76 194.283C224.76 186.555 234.911 191.387 234.911 191.387C234.911 191.387 221.725 181.104 228.144 176.767C232.613 173.745 243.363 184.655 243.363 184.655C243.363 184.655 239.255 173.989 244.059 173.745C248.863 173.501 252.037 188.971 252.037 188.971C252.037 188.971 254.69 177.574 259.521 180.853C264.353 184.132 255.727 196.789 255.727 196.789C255.727 196.789 261.937 190.656 263.629 195.007C265.321 199.358 255.727 202.255 255.727 202.255C255.727 202.255 255.658 218.205 250.346 216.269C245.033 214.334 249.162 203.703 249.162 203.703Z" fill="#92E3A9"/>
<path d="M266.156 239.459C266.156 239.459 266.156 202.741 244.309 191.623" stroke="#263238" stroke-width="0.490925" stroke-linecap="round" stroke-linejoin="round"/>
<path d="M252.121 197.485C252.121 197.485 246.022 198.571 239.137 206.063" stroke="#263238" stroke-width="0.490925" stroke-linecap="round" stroke-linejoin="round"/>
<path d="M247.853 193.782C247.853 193.782 241.128 195.836 234.625 195.091" stroke="#263238" stroke-width="0.490925" stroke-linecap="round" stroke-linejoin="round"/>
<path d="M249.747 195.251C252.888 193.147 255.368 190.194 256.897 186.736" stroke="#263238" stroke-width="0.490925" stroke-linecap="round" stroke-linejoin="round"/>
<path d="M290.607 214.531C290.607 214.531 297.332 228.42 303.243 221.374C309.154 214.329 299.163 211.676 299.163 211.676C299.163 211.676 311.194 213.103 311.194 206.58C311.194 200.056 302.63 204.129 302.63 204.129C302.63 204.129 313.77 195.455 308.339 191.792C304.566 189.251 295.494 198.448 295.494 198.448C295.494 198.448 298.975 189.453 294.888 189.251C290.802 189.049 288.156 202.096 288.156 202.096C288.156 202.096 285.914 192.475 281.842 195.246C277.769 198.017 285.044 208.696 285.044 208.696C285.044 208.696 279.802 203.517 278.375 207.193C276.947 210.868 285.044 213.305 285.044 213.305C285.044 213.305 285.1 226.756 289.583 225.141C294.067 223.525 290.607 214.531 290.607 214.531Z" fill="#92E3A9"/>
<path opacity="0.1" d="M290.607 214.531C290.607 214.531 297.332 228.42 303.243 221.374C309.154 214.329 299.163 211.676 299.163 211.676C299.163 211.676 311.194 213.103 311.194 206.58C311.194 200.056 302.63 204.129 302.63 204.129C302.63 204.129 313.77 195.455 308.339 191.792C304.566 189.251 295.494 198.448 295.494 198.448C295.494 198.448 298.975 189.453 294.888 189.251C290.802 189.049 288.156 202.096 288.156 202.096C288.156 202.096 285.914 192.475 281.842 195.246C277.769 198.017 285.044 208.696 285.044 208.696C285.044 208.696 279.802 203.517 278.375 207.193C276.947 210.868 285.044 213.305 285.044 213.305C285.044 213.305 285.1 226.756 289.583 225.141C294.067 223.525 290.607 214.531 290.607 214.531Z" fill="black"/>
<path d="M289.793 206.878C280.289 213.736 278.932 237.511 278.932 237.511" stroke="#263238" stroke-width="0.490925" stroke-linecap="round" stroke-linejoin="round"/>
<path d="M286.987 209.635C290.822 211.112 294.275 213.435 297.089 216.43" stroke="#263238" stroke-width="0.490925" stroke-linecap="round" stroke-linejoin="round"/>
<path d="M292.863 195.251C292.863 200.445 289.785 206.878 289.785 206.878L292.041 207.574" stroke="#263238" stroke-width="0.490925" stroke-linecap="round" stroke-linejoin="round"/>
<path d="M293.9 208.131C293.9 208.131 299.63 209.412 303.974 208.131" stroke="#263238" stroke-width="0.490925" stroke-linecap="round" stroke-linejoin="round"/>
<path d="M270.167 178.737C270.167 178.737 254.077 179.433 255.087 170.814C255.929 163.615 267.319 168.426 267.319 168.426C267.319 168.426 257.976 157.531 264.395 153.228C270.814 148.925 274.657 161.457 274.657 161.457C274.657 161.457 278.751 143.356 285.929 146.245C290.927 148.278 282.789 163.281 282.789 163.281C282.789 163.281 292.25 156.827 295.146 160.705C298.043 164.583 284.049 172.91 284.049 172.91C284.049 172.91 294.993 168.767 294.958 174.608C294.924 180.45 279.607 180.331 279.607 180.331C279.607 180.331 288.164 182.079 285.49 185.901C282.817 189.723 275.047 183.374 275.047 183.374C275.047 183.374 264.569 190.955 263.212 185.462C261.854 179.969 270.167 178.737 270.167 178.737Z" fill="#92E3A9"/>
<path opacity="0.2" d="M270.167 178.737C270.167 178.737 254.077 179.433 255.087 170.814C255.929 163.615 267.319 168.426 267.319 168.426C267.319 168.426 257.976 157.531 264.395 153.228C270.814 148.925 274.657 161.457 274.657 161.457C274.657 161.457 278.751 143.356 285.929 146.245C290.927 148.278 282.789 163.281 282.789 163.281C282.789 163.281 292.25 156.827 295.146 160.705C298.043 164.583 284.049 172.91 284.049 172.91C284.049 172.91 294.993 168.767 294.958 174.608C294.924 180.45 279.607 180.331 279.607 180.331C279.607 180.331 288.164 182.079 285.49 185.901C282.817 189.723 275.047 183.374 275.047 183.374C275.047 183.374 264.569 190.955 263.212 185.462C261.854 179.969 270.167 178.737 270.167 178.737Z" fill="white"/>
<path d="M272.387 239.46C272.387 239.46 269.818 194.011 278.925 163.573" stroke="#263238" stroke-width="0.490925" stroke-linecap="round" stroke-linejoin="round"/>
<path d="M261.213 171.872C261.213 171.872 267.994 171.301 276.008 175.701" stroke="#263238" stroke-width="0.490925" stroke-linecap="round" stroke-linejoin="round"/>
<path d="M266.853 157.56C266.853 157.56 273.634 164.201 276.397 173.746" stroke="#263238" stroke-width="0.490925" stroke-linecap="round" stroke-linejoin="round"/>
<path d="M277.003 170.932C277.003 170.932 281.41 166.059 286.987 164.806" stroke="#263238" stroke-width="0.490925" stroke-linecap="round" stroke-linejoin="round"/>
<path d="M289.646 234.962H254.996L257.781 266.382C257.811 266.712 257.963 267.02 258.208 267.244C258.452 267.468 258.772 267.593 259.104 267.593L259.8 275.356C259.831 275.687 259.985 275.995 260.231 276.219C260.477 276.443 260.797 276.567 261.13 276.567H283.513C283.845 276.567 284.164 276.442 284.409 276.218C284.654 275.994 284.806 275.686 284.836 275.356L285.532 267.593C285.864 267.593 286.185 267.468 286.431 267.244C286.677 267.02 286.83 266.713 286.862 266.382L289.646 234.962Z" fill="white" stroke="#263238" stroke-width="0.490925" stroke-linecap="round" stroke-linejoin="round"/>
<path d="M289.869 237.531H254.773C254.117 237.529 253.487 237.268 253.023 236.803C252.558 236.339 252.297 235.709 252.295 235.053C252.297 234.396 252.558 233.767 253.023 233.302C253.487 232.838 254.117 232.576 254.773 232.574H289.869C290.525 232.576 291.154 232.838 291.617 233.303C292.08 233.767 292.341 234.397 292.341 235.053C292.341 235.709 292.08 236.338 291.617 236.803C291.154 237.267 290.525 237.529 289.869 237.531Z" fill="#263238" stroke="#263238" stroke-width="0.490925" stroke-linecap="round" stroke-linejoin="round"/>
<path d="M279.141 267.685H281.438" stroke="#263238" stroke-width="0.490925" stroke-linecap="round" stroke-linejoin="round"/>
<path d="M263.198 267.685H276.836" stroke="#263238" stroke-width="0.490925" stroke-linecap="round" stroke-linejoin="round"/>
<path d="M195.471 9.37109H185.981V190.858H195.471C196.982 190.856 198.43 190.254 199.498 189.185C200.566 188.116 201.166 186.667 201.166 185.156V15.073C201.166 13.562 200.566 12.1127 199.498 11.0436C198.43 9.97449 196.982 9.37294 195.471 9.37109Z" fill="#999999" stroke="#263238" stroke-width="0.490925" stroke-linecap="round" stroke-linejoin="round"/>
<path d="M192.908 9.37109H110.331C107.448 9.37109 105.11 11.7089 105.11 14.5926V185.636C105.11 188.52 107.448 190.858 110.331 190.858H192.908C195.792 190.858 198.13 188.52 198.13 185.636V14.5926C198.13 11.7089 195.792 9.37109 192.908 9.37109Z" fill="#263238" stroke="#263238" stroke-width="0.490925" stroke-linecap="round" stroke-linejoin="round"/>
<path d="M167.727 17.3561C167.592 18.4681 167.056 19.4926 166.219 20.2364C165.381 20.9802 164.301 21.392 163.18 21.3941H139.273C138.151 21.3952 137.068 20.9847 136.229 20.2404C135.39 19.4962 134.853 18.4699 134.72 17.3561C134.579 16.2498 134.04 15.2328 133.203 14.4959C132.366 13.7589 131.289 13.3525 130.173 13.3529H113.36C112.149 13.3529 110.987 13.8327 110.128 14.6873C109.27 15.5419 108.785 16.7017 108.779 17.9131V182.294C108.781 183.508 109.264 184.672 110.123 185.531C110.982 186.39 112.146 186.873 113.36 186.875H189.88C191.095 186.875 192.26 186.392 193.119 185.533C193.978 184.674 194.461 183.509 194.461 182.294V17.9131C194.462 17.3112 194.344 16.7151 194.114 16.1589C193.884 15.6027 193.547 15.0973 193.121 14.6717C192.696 14.2462 192.19 13.9088 191.634 13.6789C191.078 13.449 190.482 13.3311 189.88 13.332H172.273C171.155 13.3322 170.075 13.7415 169.237 14.4828C168.4 15.224 167.863 16.246 167.727 17.3561Z" fill="#92E3A9"/>
<path opacity="0.4" d="M134.016 198.418H106.057L173.456 0H201.416L134.016 198.418Z" fill="white"/>
<path opacity="0.4" d="M153.566 198.418H146.13L213.537 0H220.972L153.566 198.418Z" fill="white"/>
<path d="M167.727 17.3561C167.592 18.4681 167.056 19.4926 166.219 20.2364C165.381 20.9802 164.301 21.392 163.18 21.3941H139.273C138.151 21.3952 137.068 20.9847 136.229 20.2404C135.39 19.4962 134.853 18.4699 134.72 17.3561V17.3561C134.579 16.2498 134.04 15.2328 133.203 14.4959C132.366 13.7589 131.289 13.3525 130.173 13.3529H113.36C112.149 13.3529 110.987 13.8327 110.128 14.6873C109.27 15.5419 108.785 16.7017 108.779 17.9131V182.294C108.781 183.508 109.264 184.672 110.123 185.531C110.982 186.39 112.146 186.873 113.36 186.875H189.88C191.095 186.875 192.26 186.392 193.119 185.533C193.978 184.674 194.461 183.509 194.461 182.294V17.9131C194.462 17.3112 194.344 16.7151 194.114 16.1589C193.884 15.6027 193.547 15.0973 193.121 14.6717C192.696 14.2462 192.19 13.9088 191.634 13.6789C191.078 13.449 190.482 13.3311 189.88 13.332H172.273C171.155 13.3322 170.075 13.7415 169.237 14.4828C168.4 15.224 167.863 16.246 167.727 17.3561V17.3561Z" stroke="#263238" stroke-width="0.490925" stroke-linecap="round" stroke-linejoin="round"/>
<path d="M143.395 15.7078C143.395 16.1208 143.272 16.5247 143.043 16.8681C142.813 17.2116 142.487 17.4793 142.105 17.6374C141.724 17.7955 141.304 17.8368 140.898 17.7562C140.493 17.6756 140.121 17.4767 139.829 17.1846C139.537 16.8925 139.338 16.5204 139.257 16.1152C139.177 15.7101 139.218 15.2901 139.376 14.9085C139.534 14.5268 139.802 14.2006 140.146 13.9711C140.489 13.7416 140.893 13.6191 141.306 13.6191C141.86 13.6191 142.391 13.8392 142.783 14.2309C143.174 14.6226 143.395 15.1538 143.395 15.7078Z" fill="#92E3A9" stroke="#263238" stroke-width="0.490925" stroke-linecap="round" stroke-linejoin="round"/>
<path d="M159.908 13.6807H149.34C148.803 13.6807 148.287 13.8941 147.907 14.2741C147.527 14.654 147.314 15.1693 147.314 15.7066C147.314 16.2439 147.527 16.7592 147.907 17.1392C148.287 17.5191 148.803 17.7326 149.34 17.7326H159.908C160.446 17.7326 160.961 17.5191 161.341 17.1392C161.721 16.7592 161.934 16.2439 161.934 15.7066C161.934 15.1693 161.721 14.654 161.341 14.2741C160.961 13.8941 160.446 13.6807 159.908 13.6807Z" fill="#999999" stroke="#263238" stroke-width="0.490925" stroke-linecap="round" stroke-linejoin="round"/>
<path d="M161.176 177.949H140.86C140.306 177.949 139.775 178.169 139.383 178.561C138.992 178.953 138.772 179.484 138.772 180.038C138.772 180.592 138.992 181.123 139.383 181.515C139.775 181.906 140.306 182.126 140.86 182.126H161.176C161.73 182.126 162.261 181.906 162.652 181.515C163.044 181.123 163.264 180.592 163.264 180.038C163.264 179.484 163.044 178.953 162.652 178.561C162.261 178.169 161.73 177.949 161.176 177.949Z" fill="#999999" stroke="#263238" stroke-width="0.490925" stroke-linecap="round" stroke-linejoin="round"/>
<path d="M202.203 55.5575V41.9815C202.203 41.6805 202.083 41.3919 201.871 41.1791C201.658 40.9662 201.369 40.8467 201.068 40.8467C200.767 40.8467 200.479 40.9662 200.266 41.1791C200.053 41.3919 199.933 41.6805 199.933 41.9815V55.5575C199.933 55.8584 200.053 56.1471 200.266 56.3599C200.479 56.5727 200.767 56.6923 201.068 56.6923C201.369 56.6923 201.658 56.5727 201.871 56.3599C202.083 56.1471 202.203 55.8584 202.203 55.5575Z" fill="#263238"/>
<path d="M202.203 65.6366V61.1182C202.203 60.8172 202.083 60.5286 201.871 60.3158C201.658 60.103 201.369 59.9834 201.068 59.9834C200.767 59.9834 200.479 60.103 200.266 60.3158C200.053 60.5286 199.933 60.8172 199.933 61.1182V65.6366C199.933 65.9376 200.053 66.2262 200.266 66.439C200.479 66.6518 200.767 66.7714 201.068 66.7714C201.369 66.7714 201.658 66.6518 201.871 66.439C202.083 66.2262 202.203 65.9376 202.203 65.6366Z" fill="#263238"/>
<path d="M204.312 75.6504H101.894V98.7226H204.312V75.6504Z" fill="white" stroke="#263238" stroke-width="0.490925" stroke-linecap="round" stroke-linejoin="round"/>
<path d="M114.272 89.622L112.616 88.3618L112.887 90.3878C112.905 90.5174 112.895 90.6493 112.858 90.7747C112.82 90.9001 112.757 91.0161 112.671 91.115C112.585 91.2138 112.48 91.2933 112.361 91.348C112.242 91.4026 112.113 91.4313 111.982 91.4321C111.851 91.4323 111.721 91.4044 111.601 91.3501C111.481 91.2959 111.375 91.2166 111.288 91.1176C111.202 91.0186 111.138 90.9023 111.1 90.7764C111.062 90.6505 111.052 90.518 111.07 90.3878L111.341 88.3618L109.657 89.622C109.553 89.701 109.434 89.7572 109.308 89.7868C109.181 89.8164 109.049 89.8188 108.922 89.7938C108.794 89.7688 108.673 89.717 108.567 89.6417C108.461 89.5665 108.372 89.4696 108.306 89.3574V89.3156C108.24 89.2027 108.2 89.077 108.186 88.9471C108.173 88.8171 108.188 88.6858 108.229 88.562C108.271 88.4381 108.338 88.3245 108.427 88.2288C108.516 88.1331 108.624 88.0574 108.745 88.0068L110.645 87.2131L108.745 86.4124C108.624 86.3618 108.516 86.2861 108.427 86.1904C108.338 86.0947 108.271 85.9811 108.229 85.8572C108.188 85.7334 108.173 85.6021 108.186 85.4721C108.2 85.3422 108.24 85.2165 108.306 85.1036V85.0688C108.367 84.9522 108.452 84.85 108.556 84.7692C108.66 84.6884 108.78 84.6309 108.908 84.6006C109.036 84.5702 109.169 84.5677 109.299 84.5932C109.428 84.6187 109.55 84.6717 109.657 84.7485L111.314 86.0086L111.042 83.9827C111.024 83.8528 111.034 83.7206 111.072 83.5951C111.11 83.4695 111.174 83.3536 111.261 83.2551C111.347 83.1567 111.454 83.0781 111.574 83.0246C111.693 82.9711 111.823 82.9441 111.954 82.9454C112.085 82.9451 112.214 82.9729 112.332 83.0268C112.451 83.0807 112.557 83.1595 112.643 83.2578C112.729 83.3561 112.793 83.4717 112.83 83.5968C112.867 83.7218 112.877 83.8534 112.859 83.9827L112.588 86.0086L114.245 84.7485C114.348 84.6698 114.468 84.614 114.595 84.5849C114.722 84.5558 114.853 84.554 114.981 84.5797C115.109 84.6054 115.23 84.6579 115.336 84.7338C115.441 84.8098 115.53 84.9073 115.595 85.02V85.0549C115.661 85.1678 115.702 85.2934 115.715 85.4234C115.728 85.5533 115.714 85.6846 115.672 85.8085C115.63 85.9323 115.563 86.0459 115.474 86.1417C115.385 86.2374 115.277 86.3131 115.157 86.3637L113.256 87.1644L115.157 87.958C115.277 88.0086 115.385 88.0843 115.474 88.1801C115.563 88.2758 115.63 88.3894 115.672 88.5132C115.714 88.6371 115.728 88.7684 115.715 88.8983C115.702 89.0283 115.661 89.1539 115.595 89.2669V89.3087C115.533 89.4206 115.449 89.5184 115.347 89.5957C115.245 89.673 115.128 89.7282 115.003 89.7577C114.879 89.7872 114.749 89.7903 114.623 89.767C114.498 89.7436 114.378 89.6942 114.272 89.622Z" fill="#263238"/>
<path d="M129.039 89.624L127.382 88.3638L127.653 90.3898C127.67 90.5198 127.659 90.6518 127.621 90.7772C127.583 90.9026 127.519 91.0185 127.432 91.1172C127.346 91.216 127.24 91.2952 127.121 91.3499C127.002 91.4045 126.872 91.4332 126.741 91.4341C126.611 91.4333 126.481 91.4047 126.363 91.35C126.244 91.2953 126.138 91.2159 126.052 91.117C125.967 91.0181 125.903 90.9021 125.866 90.7767C125.828 90.6513 125.818 90.5194 125.836 90.3898L126.101 88.3638L124.451 89.624C124.347 89.703 124.229 89.7592 124.102 89.7888C123.975 89.8184 123.844 89.8208 123.716 89.7958C123.588 89.7708 123.467 89.719 123.361 89.6437C123.255 89.5685 123.166 89.4716 123.1 89.3594V89.3176C123.035 89.2047 122.994 89.079 122.981 88.9491C122.967 88.8191 122.982 88.6879 123.023 88.564C123.065 88.4401 123.132 88.3266 123.221 88.2308C123.31 88.1351 123.418 88.0594 123.539 88.0088L125.432 87.2151L123.539 86.4145C123.418 86.3639 123.31 86.2882 123.221 86.1924C123.132 86.0967 123.065 85.9831 123.023 85.8592C122.982 85.7354 122.967 85.6041 122.981 85.4741C122.994 85.3442 123.035 85.2185 123.1 85.1056V85.0708C123.165 84.9581 123.254 84.8605 123.36 84.7846C123.466 84.7087 123.587 84.6561 123.714 84.6305C123.842 84.6048 123.974 84.6065 124.101 84.6357C124.228 84.6648 124.347 84.7205 124.451 84.7993L126.101 86.0594L125.836 84.0334C125.818 83.9042 125.828 83.7726 125.866 83.6475C125.903 83.5225 125.967 83.4069 126.052 83.3085C126.138 83.2102 126.244 83.1314 126.363 83.0775C126.482 83.0236 126.611 82.9959 126.741 82.9961C126.872 82.996 127.001 83.0238 127.12 83.0776C127.24 83.1315 127.346 83.2101 127.432 83.3083C127.519 83.4065 127.583 83.522 127.621 83.647C127.659 83.7721 127.67 83.9038 127.653 84.0334L127.382 86.0594L129.039 84.7993C129.142 84.7206 129.261 84.6649 129.387 84.6359C129.514 84.6068 129.645 84.6051 129.772 84.6308C129.899 84.6565 130.02 84.709 130.125 84.7849C130.23 84.8608 130.318 84.9583 130.382 85.0708V85.1056C130.448 85.2185 130.489 85.3442 130.502 85.4741C130.515 85.6041 130.501 85.7354 130.459 85.8592C130.418 85.9831 130.35 86.0967 130.261 86.1924C130.173 86.2882 130.064 86.3639 129.944 86.4145L128.043 87.2151L129.944 88.0088C130.064 88.0594 130.173 88.1351 130.261 88.2308C130.35 88.3266 130.418 88.4401 130.459 88.564C130.501 88.6879 130.515 88.8191 130.502 88.9491C130.489 89.079 130.448 89.2047 130.382 89.3176V89.3594C130.317 89.4714 130.229 89.5682 130.123 89.6434C130.018 89.7186 129.898 89.7704 129.77 89.7954C129.643 89.8205 129.512 89.8181 129.386 89.7886C129.26 89.759 129.142 89.7029 129.039 89.624Z" fill="#263238"/>
<path d="M143.771 89.624L142.121 88.3638L142.392 90.3898C142.409 90.5198 142.398 90.6518 142.36 90.7772C142.322 90.9026 142.257 91.0185 142.171 91.1172C142.085 91.216 141.979 91.2952 141.86 91.3499C141.741 91.4045 141.611 91.4332 141.48 91.4341C141.349 91.4332 141.22 91.4045 141.101 91.3499C140.981 91.2952 140.875 91.216 140.789 91.1172C140.703 91.0185 140.639 90.9026 140.6 90.7772C140.562 90.6518 140.551 90.5198 140.568 90.3898L140.84 88.3638L139.217 89.624C139.114 89.703 138.995 89.7592 138.868 89.7888C138.742 89.8184 138.61 89.8208 138.483 89.7958C138.355 89.7708 138.234 89.719 138.128 89.6437C138.022 89.5685 137.933 89.4716 137.867 89.3594V89.3176C137.801 89.2047 137.76 89.079 137.747 88.9491C137.734 88.8191 137.749 88.6879 137.79 88.564C137.832 88.4401 137.899 88.3266 137.988 88.2308C138.077 88.1351 138.185 88.0594 138.305 88.0088L140.206 87.2151L138.305 86.4145C138.185 86.3639 138.077 86.2882 137.988 86.1924C137.899 86.0967 137.832 85.9831 137.79 85.8592C137.749 85.7354 137.734 85.6041 137.747 85.4741C137.76 85.3442 137.801 85.2185 137.867 85.1056V85.0708C137.932 84.9581 138.021 84.8605 138.126 84.7846C138.232 84.7087 138.353 84.6561 138.481 84.6305C138.609 84.6048 138.74 84.6065 138.867 84.6357C138.994 84.6648 139.114 84.7205 139.217 84.7993L140.867 86.0594L140.596 84.0334C140.579 83.9038 140.59 83.7721 140.628 83.647C140.666 83.522 140.731 83.4065 140.817 83.3083C140.903 83.2101 141.01 83.1315 141.129 83.0776C141.248 83.0238 141.377 82.996 141.508 82.9961C141.639 82.996 141.768 83.0238 141.887 83.0776C142.006 83.1315 142.112 83.2101 142.199 83.3083C142.285 83.4065 142.35 83.522 142.388 83.647C142.426 83.7721 142.437 83.9038 142.42 84.0334L142.148 86.0594L143.771 84.7505C143.874 84.6718 143.994 84.616 144.121 84.5869C144.248 84.5578 144.379 84.556 144.507 84.5817C144.635 84.6074 144.756 84.6599 144.862 84.7359C144.967 84.8118 145.056 84.9093 145.121 85.0221V85.0569C145.188 85.1691 145.23 85.2944 145.245 85.4243C145.259 85.5542 145.245 85.6857 145.204 85.8098C145.163 85.9339 145.096 86.0478 145.007 86.1437C144.919 86.2396 144.81 86.3154 144.69 86.3657L142.789 87.1664L144.683 87.96C144.803 88.0106 144.911 88.0863 145 88.1821C145.089 88.2778 145.156 88.3914 145.198 88.5153C145.239 88.6391 145.254 88.7704 145.241 88.9003C145.228 89.0303 145.187 89.156 145.121 89.2689V89.3107C145.06 89.4267 144.974 89.5282 144.87 89.6083C144.765 89.6884 144.645 89.7452 144.517 89.7749C144.389 89.8045 144.256 89.8064 144.128 89.7804C143.999 89.7544 143.877 89.701 143.771 89.624Z" fill="#263238"/>
<path d="M158.565 89.624L156.908 88.3639L157.179 90.3898C157.197 90.5194 157.187 90.6513 157.15 90.7768C157.113 90.9022 157.049 91.0182 156.963 91.117C156.878 91.2159 156.772 91.2953 156.653 91.35C156.534 91.4047 156.405 91.4334 156.274 91.4341C156.143 91.4344 156.013 91.4064 155.893 91.3522C155.773 91.2979 155.667 91.2186 155.58 91.1196C155.494 91.0207 155.43 90.9043 155.392 90.7784C155.354 90.6525 155.344 90.52 155.362 90.3898L155.634 88.3639L153.977 89.624C153.873 89.703 153.754 89.7592 153.628 89.7888C153.501 89.8185 153.369 89.8209 153.242 89.7958C153.114 89.7708 152.993 89.719 152.887 89.6438C152.781 89.5685 152.692 89.4716 152.626 89.3594V89.3177C152.56 89.2047 152.52 89.0791 152.506 88.9491C152.493 88.8192 152.508 88.6879 152.549 88.564C152.591 88.4402 152.658 88.3266 152.747 88.2309C152.836 88.1351 152.944 88.0594 153.065 88.0088L154.965 87.2151L153.065 86.4145C152.944 86.3639 152.836 86.2882 152.747 86.1925C152.658 86.0967 152.591 85.9831 152.549 85.8593C152.508 85.7354 152.493 85.6041 152.506 85.4742C152.52 85.3442 152.56 85.2186 152.626 85.1056V85.0708C152.691 84.9581 152.78 84.8605 152.886 84.7846C152.992 84.7087 153.112 84.6562 153.24 84.6305C153.368 84.6048 153.5 84.6066 153.627 84.6357C153.754 84.6648 153.873 84.7206 153.977 84.7993L155.634 86.0594L155.362 84.0335C155.344 83.9036 155.354 83.7714 155.392 83.6459C155.43 83.5203 155.494 83.4044 155.581 83.3059C155.667 83.2075 155.774 83.1288 155.894 83.0754C156.013 83.0219 156.143 82.9949 156.274 82.9961C156.405 82.9959 156.534 83.0237 156.653 83.0776C156.771 83.1315 156.877 83.2102 156.963 83.3086C157.049 83.4069 157.113 83.5225 157.15 83.6476C157.187 83.7726 157.197 83.9042 157.179 84.0335L156.908 86.0594L158.565 84.7993C158.668 84.7206 158.788 84.6648 158.915 84.6357C159.042 84.6066 159.174 84.6048 159.301 84.6305C159.429 84.6562 159.55 84.7087 159.656 84.7846C159.762 84.8605 159.85 84.9581 159.915 85.0708V85.1056C159.981 85.2186 160.022 85.3442 160.035 85.4742C160.048 85.6041 160.034 85.7354 159.992 85.8593C159.951 85.9831 159.883 86.0967 159.794 86.1925C159.705 86.2882 159.597 86.3639 159.477 86.4145L157.583 87.2151L159.477 88.0088C159.597 88.0594 159.705 88.1351 159.794 88.2309C159.883 88.3266 159.951 88.4402 159.992 88.564C160.034 88.6879 160.048 88.8192 160.035 88.9491C160.022 89.0791 159.981 89.2047 159.915 89.3177V89.3594C159.849 89.4716 159.76 89.5685 159.654 89.6438C159.548 89.719 159.427 89.7708 159.3 89.7958C159.172 89.8209 159.04 89.8185 158.914 89.7888C158.787 89.7592 158.668 89.703 158.565 89.624Z" fill="#263238"/>
<path d="M173.331 89.624L171.674 88.3638L171.946 90.3898C171.962 90.5198 171.951 90.6518 171.913 90.7772C171.875 90.9026 171.811 91.0185 171.725 91.1172C171.638 91.216 171.532 91.2952 171.413 91.3499C171.294 91.4045 171.165 91.4332 171.034 91.4341C170.903 91.4333 170.774 91.4047 170.655 91.35C170.536 91.2953 170.43 91.2159 170.344 91.117C170.259 91.0181 170.195 90.9021 170.158 90.7767C170.121 90.6513 170.111 90.5194 170.129 90.3898L170.393 88.3638L168.743 89.624C168.64 89.703 168.521 89.7592 168.394 89.7888C168.267 89.8184 168.136 89.8208 168.008 89.7958C167.88 89.7708 167.76 89.719 167.653 89.6437C167.547 89.5685 167.458 89.4716 167.392 89.3594V89.3176C167.327 89.2047 167.286 89.079 167.273 88.9491C167.26 88.8191 167.274 88.6879 167.316 88.564C167.357 88.4401 167.425 88.3266 167.513 88.2308C167.602 88.1351 167.711 88.0594 167.831 88.0088L169.725 87.2151L167.831 86.4145C167.711 86.3639 167.602 86.2882 167.513 86.1924C167.425 86.0967 167.357 85.9831 167.316 85.8592C167.274 85.7354 167.26 85.6041 167.273 85.4741C167.286 85.3442 167.327 85.2185 167.392 85.1056V85.0708C167.458 84.9581 167.546 84.8605 167.652 84.7846C167.758 84.7087 167.879 84.6561 168.007 84.6305C168.134 84.6048 168.266 84.6065 168.393 84.6357C168.52 84.6648 168.639 84.7205 168.743 84.7993L170.393 86.0594L170.129 84.0334C170.111 83.9042 170.121 83.7726 170.158 83.6475C170.195 83.5225 170.259 83.4069 170.345 83.3085C170.43 83.2102 170.536 83.1314 170.655 83.0775C170.774 83.0236 170.903 82.9959 171.034 82.9961C171.164 82.996 171.294 83.0238 171.413 83.0776C171.532 83.1315 171.638 83.2101 171.724 83.3083C171.811 83.4065 171.875 83.522 171.913 83.647C171.951 83.7721 171.962 83.9038 171.946 84.0334L171.674 86.0594L173.331 84.7993C173.434 84.7206 173.553 84.6649 173.68 84.6359C173.806 84.6068 173.937 84.6051 174.064 84.6308C174.192 84.6565 174.312 84.709 174.417 84.7849C174.522 84.8608 174.61 84.9583 174.675 85.0708V85.1056C174.74 85.2185 174.781 85.3442 174.794 85.4741C174.808 85.6041 174.793 85.7354 174.751 85.8592C174.71 85.9831 174.643 86.0967 174.554 86.1924C174.465 86.2882 174.357 86.3639 174.236 86.4145L172.335 87.2151L174.236 88.0088C174.357 88.0594 174.465 88.1351 174.554 88.2308C174.643 88.3266 174.71 88.4401 174.751 88.564C174.793 88.6879 174.808 88.8191 174.794 88.9491C174.781 89.079 174.74 89.2047 174.675 89.3176V89.3594C174.61 89.4714 174.521 89.5682 174.416 89.6434C174.31 89.7186 174.19 89.7704 174.063 89.7954C173.936 89.8205 173.805 89.8181 173.678 89.7886C173.552 89.759 173.434 89.7029 173.331 89.624Z" fill="#263238"/>
<path d="M198.012 87.1863C198.012 87.1863 195.004 90.9388 191.293 90.9388C187.582 90.9388 184.582 87.1863 184.582 87.1863C184.582 87.1863 187.582 83.4268 191.293 83.4268C195.004 83.4268 198.012 87.1863 198.012 87.1863Z" fill="white" stroke="#263238" stroke-width="0.490925" stroke-linecap="round" stroke-linejoin="round"/>
<path d="M193.605 87.1854C193.605 87.6426 193.469 88.0895 193.215 88.4696C192.961 88.8497 192.6 89.1459 192.178 89.3209C191.756 89.4958 191.291 89.5416 190.842 89.4524C190.394 89.3632 189.982 89.1431 189.659 88.8198C189.336 88.4966 189.116 88.0847 189.026 87.6364C188.937 87.188 188.983 86.7232 189.158 86.3009C189.333 85.8785 189.629 85.5175 190.009 85.2636C190.389 85.0096 190.836 84.874 191.293 84.874C191.906 84.874 192.494 85.1175 192.928 85.551C193.361 85.9845 193.605 86.5724 193.605 87.1854Z" fill="#999999" stroke="#263238" stroke-width="0.490925" stroke-linecap="round" stroke-linejoin="round"/>
<path d="M121.826 110.244H115.72C114.194 110.244 112.957 111.482 112.957 113.008V120.875C112.957 122.402 114.194 123.639 115.72 123.639H121.826C123.353 123.639 124.59 122.402 124.59 120.875V113.008C124.59 111.482 123.353 110.244 121.826 110.244Z" fill="#92E3A9" stroke="#263238" stroke-width="0.490925" stroke-linecap="round" stroke-linejoin="round"/>
<path d="M134.803 110.244H128.698C127.171 110.244 125.934 111.482 125.934 113.008V120.875C125.934 122.402 127.171 123.639 128.698 123.639H134.803C136.33 123.639 137.567 122.402 137.567 120.875V113.008C137.567 111.482 136.33 110.244 134.803 110.244Z" fill="#92E3A9" stroke="#263238" stroke-width="0.490925" stroke-linecap="round" stroke-linejoin="round"/>
<path d="M147.773 110.244H141.668C140.141 110.244 138.904 111.482 138.904 113.008V120.875C138.904 122.402 140.141 123.639 141.668 123.639H147.773C149.3 123.639 150.537 122.402 150.537 120.875V113.008C150.537 111.482 149.3 110.244 147.773 110.244Z" fill="#92E3A9" stroke="#263238" stroke-width="0.490925" stroke-linecap="round" stroke-linejoin="round"/>
<path d="M160.744 110.244H154.638C153.112 110.244 151.874 111.482 151.874 113.008V120.875C151.874 122.402 153.112 123.639 154.638 123.639H160.744C162.27 123.639 163.508 122.402 163.508 120.875V113.008C163.508 111.482 162.27 110.244 160.744 110.244Z" fill="#92E3A9" stroke="#263238" stroke-width="0.490925" stroke-linecap="round" stroke-linejoin="round"/>
<path d="M173.721 110.244H167.615C166.089 110.244 164.852 111.482 164.852 113.008V120.875C164.852 122.402 166.089 123.639 167.615 123.639H173.721C175.248 123.639 176.485 122.402 176.485 120.875V113.008C176.485 111.482 175.248 110.244 173.721 110.244Z" fill="#92E3A9" stroke="#263238" stroke-width="0.490925" stroke-linecap="round" stroke-linejoin="round"/>
<path d="M186.691 110.244H180.586C179.059 110.244 177.822 111.482 177.822 113.008V120.875C177.822 122.402 179.059 123.639 180.586 123.639H186.691C188.218 123.639 189.455 122.402 189.455 120.875V113.008C189.455 111.482 188.218 110.244 186.691 110.244Z" fill="#92E3A9" stroke="#263238" stroke-width="0.490925" stroke-linecap="round" stroke-linejoin="round"/>
<path d="M128.314 125.77H122.209C120.682 125.77 119.445 127.007 119.445 128.533V136.401C119.445 137.927 120.682 139.165 122.209 139.165H128.314C129.841 139.165 131.078 137.927 131.078 136.401V128.533C131.078 127.007 129.841 125.77 128.314 125.77Z" fill="#92E3A9" stroke="#263238" stroke-width="0.490925" stroke-linecap="round" stroke-linejoin="round"/>
<path d="M141.285 125.77H135.179C133.653 125.77 132.415 127.007 132.415 128.533V136.401C132.415 137.927 133.653 139.165 135.179 139.165H141.285C142.811 139.165 144.049 137.927 144.049 136.401V128.533C144.049 127.007 142.811 125.77 141.285 125.77Z" fill="#92E3A9" stroke="#263238" stroke-width="0.490925" stroke-linecap="round" stroke-linejoin="round"/>
<path d="M154.262 125.77H148.157C146.63 125.77 145.393 127.007 145.393 128.533V136.401C145.393 137.927 146.63 139.165 148.157 139.165H154.262C155.789 139.165 157.026 137.927 157.026 136.401V128.533C157.026 127.007 155.789 125.77 154.262 125.77Z" fill="#92E3A9" stroke="#263238" stroke-width="0.490925" stroke-linecap="round" stroke-linejoin="round"/>
<path d="M167.233 125.77H161.127C159.6 125.77 158.363 127.007 158.363 128.533V136.401C158.363 137.927 159.6 139.165 161.127 139.165H167.233C168.759 139.165 169.997 137.927 169.997 136.401V128.533C169.997 127.007 168.759 125.77 167.233 125.77Z" fill="#92E3A9" stroke="#263238" stroke-width="0.490925" stroke-linecap="round" stroke-linejoin="round"/>
<path d="M180.203 125.77H174.097C172.571 125.77 171.333 127.007 171.333 128.533V136.401C171.333 137.927 172.571 139.165 174.097 139.165H180.203C181.73 139.165 182.967 137.927 182.967 136.401V128.533C182.967 127.007 181.73 125.77 180.203 125.77Z" fill="#92E3A9" stroke="#263238" stroke-width="0.490925" stroke-linecap="round" stroke-linejoin="round"/>
<path d="M121.826 141.295H115.72C114.194 141.295 112.957 142.532 112.957 144.059V151.926C112.957 153.452 114.194 154.69 115.72 154.69H121.826C123.353 154.69 124.59 153.452 124.59 151.926V144.059C124.59 142.532 123.353 141.295 121.826 141.295Z" fill="#92E3A9" stroke="#263238" stroke-width="0.490925" stroke-linecap="round" stroke-linejoin="round"/>
<path d="M134.803 141.295H128.698C127.171 141.295 125.934 142.532 125.934 144.059V151.926C125.934 153.452 127.171 154.69 128.698 154.69H134.803C136.33 154.69 137.567 153.452 137.567 151.926V144.059C137.567 142.532 136.33 141.295 134.803 141.295Z" fill="#92E3A9" stroke="#263238" stroke-width="0.490925" stroke-linecap="round" stroke-linejoin="round"/>
<path d="M147.773 141.295H141.668C140.141 141.295 138.904 142.532 138.904 144.059V151.926C138.904 153.452 140.141 154.69 141.668 154.69H147.773C149.3 154.69 150.537 153.452 150.537 151.926V144.059C150.537 142.532 149.3 141.295 147.773 141.295Z" fill="#92E3A9" stroke="#263238" stroke-width="0.490925" stroke-linecap="round" stroke-linejoin="round"/>
<path d="M160.744 141.295H154.638C153.112 141.295 151.874 142.532 151.874 144.059V151.926C151.874 153.452 153.112 154.69 154.638 154.69H160.744C162.27 154.69 163.508 153.452 163.508 151.926V144.059C163.508 142.532 162.27 141.295 160.744 141.295Z" fill="#92E3A9" stroke="#263238" stroke-width="0.490925" stroke-linecap="round" stroke-linejoin="round"/>
<path d="M173.721 141.295H167.615C166.089 141.295 164.852 142.532 164.852 144.059V151.926C164.852 153.452 166.089 154.69 167.615 154.69H173.721C175.248 154.69 176.485 153.452 176.485 151.926V144.059C176.485 142.532 175.248 141.295 173.721 141.295Z" fill="#92E3A9" stroke="#263238" stroke-width="0.490925" stroke-linecap="round" stroke-linejoin="round"/>
<path d="M186.691 141.295H180.586C179.059 141.295 177.822 142.532 177.822 144.059V151.926C177.822 153.452 179.059 154.69 180.586 154.69H186.691C188.218 154.69 189.455 153.452 189.455 151.926V144.059C189.455 142.532 188.218 141.295 186.691 141.295Z" fill="#92E3A9" stroke="#263238" stroke-width="0.490925" stroke-linecap="round" stroke-linejoin="round"/>
<path d="M128.314 156.82H122.209C120.682 156.82 119.445 158.058 119.445 159.584V167.451C119.445 168.978 120.682 170.215 122.209 170.215H128.314C129.841 170.215 131.078 168.978 131.078 167.451V159.584C131.078 158.058 129.841 156.82 128.314 156.82Z" fill="#92E3A9" stroke="#263238" stroke-width="0.490925" stroke-linecap="round" stroke-linejoin="round"/>
<path d="M141.285 156.82H135.179C133.653 156.82 132.415 158.058 132.415 159.584V167.451C132.415 168.978 133.653 170.215 135.179 170.215H141.285C142.811 170.215 144.049 168.978 144.049 167.451V159.584C144.049 158.058 142.811 156.82 141.285 156.82Z" fill="#92E3A9" stroke="#263238" stroke-width="0.490925" stroke-linecap="round" stroke-linejoin="round"/>
<path d="M154.262 156.82H148.157C146.63 156.82 145.393 158.058 145.393 159.584V167.451C145.393 168.978 146.63 170.215 148.157 170.215H154.262C155.789 170.215 157.026 168.978 157.026 167.451V159.584C157.026 158.058 155.789 156.82 154.262 156.82Z" fill="#92E3A9" stroke="#263238" stroke-width="0.490925" stroke-linecap="round" stroke-linejoin="round"/>
<path d="M167.233 156.82H161.127C159.6 156.82 158.363 158.058 158.363 159.584V167.451C158.363 168.978 159.6 170.215 161.127 170.215H167.233C168.759 170.215 169.997 168.978 169.997 167.451V159.584C169.997 158.058 168.759 156.82 167.233 156.82Z" fill="#92E3A9" stroke="#263238" stroke-width="0.490925" stroke-linecap="round" stroke-linejoin="round"/>
<path d="M180.203 156.82H174.097C172.571 156.82 171.333 158.058 171.333 159.584V167.451C171.333 168.978 172.571 170.215 174.097 170.215H180.203C181.73 170.215 182.967 168.978 182.967 167.451V159.584C182.967 158.058 181.73 156.82 180.203 156.82Z" fill="#92E3A9" stroke="#263238" stroke-width="0.490925" stroke-linecap="round" stroke-linejoin="round"/>
<path d="M168.163 57.1083C173.188 47.6473 169.591 35.9048 160.13 30.8807C150.669 25.8565 138.926 29.4533 133.902 38.9143C128.878 48.3753 132.475 60.1178 141.936 65.1419C151.397 70.1661 163.139 66.5693 168.163 57.1083Z" fill="white" stroke="#263238" stroke-width="0.490925" stroke-linecap="round" stroke-linejoin="round"/>
<path d="M151.032 67.3998C155.271 67.4087 159.394 66.0187 162.763 63.4453C158.217 61.7578 153.41 60.8812 148.56 60.8555C145.087 60.8822 141.644 61.5063 138.382 62.7004C141.897 65.7354 146.388 67.4035 151.032 67.3998Z" fill="#92E3A9" stroke="#263238" stroke-width="0.490925" stroke-linecap="round" stroke-linejoin="round"/>
<path d="M145.81 56.6581C145.81 56.6581 145.643 50.3365 143.868 45.7137C142.092 41.0909 141.083 34.2612 147.857 33.3143C154.631 32.3675 157.311 33.4884 161.189 33.1821C168.639 32.6042 160.43 41.1606 160.43 41.1606L150.454 45.0663C150.454 45.0663 146.994 56.9644 145.81 56.6581Z" fill="#263238" stroke="#263238" stroke-width="0.490925" stroke-linecap="round" stroke-linejoin="round"/>
<path d="M145.358 58.495L147.119 51.3311L151.993 52.807L153.462 58.6412C153.599 59.1995 153.857 59.7208 154.218 60.1683C154.579 60.6158 155.034 60.9786 155.55 61.2311C156.285 61.5724 156.985 61.9852 157.639 62.4634C157.639 62.4634 151.833 69.9058 140.687 62.4634C141.424 61.9263 142.223 61.4799 143.068 61.1336C143.631 60.9061 144.132 60.5483 144.53 60.0897C144.928 59.631 145.212 59.0845 145.358 58.495Z" fill="white"/>
<path d="M160.584 41.3813L161.224 45.649C161.288 46.0996 161.25 46.5588 161.113 46.9927L160.744 48.1553L160.96 50.9402C160.97 51.0838 160.97 51.2281 160.96 51.3718C160.862 52.7642 160.173 59.6009 156.086 59.9142C152.445 60.1927 148.811 56.4332 147.523 54.6509C147.201 54.2066 146.965 53.706 146.827 53.175L146.277 51.0098C145.758 51.0063 145.253 50.8387 144.836 50.531C144.418 50.2234 144.108 49.7915 143.951 49.2971C143.401 47.5496 142.489 46.4218 144.258 45.5515C146.026 44.6813 146.639 47.1528 146.639 47.1528C146.639 47.1528 147.098 44.2775 147.585 43.456C148.073 42.6344 149.577 41.8547 150.036 41.1515C150.296 40.5933 150.506 40.0132 150.663 39.418C150.663 39.418 156.044 40.4553 160.131 39.6268L160.584 41.3813Z" fill="#263238" stroke="#263238" stroke-width="0.490925" stroke-linecap="round" stroke-linejoin="round"/>
<path d="M145.358 58.495L147.119 51.3311L151.993 52.807L153.462 58.6412C153.599 59.1995 153.857 59.7208 154.218 60.1683C154.579 60.6158 155.034 60.9786 155.55 61.2311C156.285 61.5724 156.985 61.9852 157.639 62.4634C157.639 62.4634 151.833 69.9058 140.687 62.4634C141.424 61.9263 142.223 61.4799 143.068 61.1336C143.631 60.9061 144.132 60.5483 144.53 60.0897C144.928 59.631 145.212 59.0845 145.358 58.495V58.495Z" stroke="#263238" stroke-width="0.490925" stroke-linecap="round" stroke-linejoin="round"/>
<path d="M160.584 40.6236L161.224 44.8913C161.288 45.3419 161.25 45.8011 161.113 46.235L160.744 47.3976L160.96 50.1825C160.97 50.3285 160.97 50.4751 160.96 50.6211C160.862 52.0135 160.173 58.8502 156.086 59.1635C152.445 59.442 148.811 55.6825 147.523 53.9002C147.202 53.455 146.966 52.9547 146.827 52.4242L146.277 50.259C145.755 50.2585 145.248 50.0922 144.828 49.7844C144.407 49.4765 144.095 49.043 143.937 48.5464C143.387 46.7989 142.475 45.6711 144.244 44.8008C146.012 43.9306 146.639 46.3882 146.639 46.3882C146.639 46.3882 147.098 43.5128 147.585 42.6913C148.073 41.8698 149.577 41.09 150.036 40.3869C150.296 39.8287 150.506 39.2486 150.663 38.6533C150.663 38.6533 156.044 39.6907 160.131 38.8622L160.584 40.6236Z" fill="white" stroke="#263238" stroke-width="0.490925" stroke-linecap="round" stroke-linejoin="round"/>
<path d="M157.694 47.7461L159.031 50.9765C159.08 51.0816 159.101 51.1973 159.094 51.3129C159.087 51.4286 159.051 51.5405 158.989 51.6387C158.928 51.7369 158.843 51.8182 158.742 51.8752C158.641 51.9322 158.527 51.9631 158.411 51.9651L156.748 52.0765" stroke="#263238" stroke-width="0.368194" stroke-linecap="round" stroke-linejoin="round"/>
<path d="M153.552 53.2803C153.686 53.5554 153.878 53.7978 154.116 53.9903C154.353 54.1829 154.63 54.3209 154.927 54.3946C155.224 54.4683 155.534 54.4759 155.834 54.4169C156.134 54.3579 156.417 54.2337 156.664 54.0531" stroke="#263238" stroke-width="0.368194" stroke-linecap="round" stroke-linejoin="round"/>
<path d="M153.517 35.5268C146.304 34.7052 144.975 37.5527 144.975 37.5527" stroke="#7F7F7F" stroke-width="0.368194" stroke-linecap="round" stroke-linejoin="round"/>
<path d="M161.433 34.7393C159.363 35.2569 157.239 35.5303 155.104 35.5538" stroke="#7F7F7F" stroke-width="0.368194" stroke-linecap="round" stroke-linejoin="round"/>
<path d="M154.91 37.6018C156.964 37.6018 161.113 37.2189 162.77 35.3252" stroke="#7F7F7F" stroke-width="0.368194" stroke-linecap="round" stroke-linejoin="round"/>
<path d="M151.874 37.2539C152.407 37.3756 152.946 37.464 153.489 37.5185" stroke="#7F7F7F" stroke-width="0.368194" stroke-linecap="round" stroke-linejoin="round"/>
<path d="M154.798 47.2799C154.798 47.8368 154.576 48.2824 154.297 48.2824C154.019 48.2824 153.796 47.8368 153.796 47.2799C153.796 46.7229 154.026 46.2773 154.297 46.2773C154.569 46.2773 154.798 46.7299 154.798 47.2799Z" fill="#263238"/>
<path d="M159.519 47.1535C159.519 47.6338 159.324 48.0237 159.087 48.0237C158.85 48.0237 158.648 47.6338 158.648 47.1535C158.648 46.6731 158.843 46.2832 159.087 46.2832C159.331 46.2832 159.519 46.6661 159.519 47.1535Z" fill="#263238"/>
<path d="M152.661 45.803C152.661 45.803 153.26 44.0138 154.297 44.0625C154.617 44.0928 154.924 44.2048 155.189 44.3876C155.453 44.5704 155.666 44.8181 155.808 45.1068" stroke="#263238" stroke-width="0.368194" stroke-linecap="round" stroke-linejoin="round"/>
<path d="M159.846 45.0659C159.651 44.5856 159.352 44.0425 158.955 44.0704C158.259 44.1121 157.917 45.1147 157.917 45.1147" stroke="#263238" stroke-width="0.368194" stroke-linecap="round" stroke-linejoin="round"/>
<path d="M51.9345 129.599C53.3269 126.215 49.9224 115.981 48.3977 111.783C48.3091 111.54 48.1623 111.323 47.9701 111.15C47.7779 110.977 47.5463 110.854 47.2954 110.791C47.0446 110.729 46.7823 110.728 46.5314 110.791C46.2806 110.853 46.0489 110.976 45.8566 111.149C44.4642 112.381 42.8003 114.776 42.5218 119.218C42.5218 119.218 31.8977 137.925 31.8977 146.461C31.8977 154.46 47.7155 171.12 47.7155 171.12C49.499 170.566 51.0064 169.357 51.9345 167.737C51.9345 167.737 46.0237 153.116 41.4357 146.851C41.4287 146.858 50.368 133.344 51.9345 129.599Z" fill="#263238"/>
<path opacity="0.2" d="M50.1591 135.071C50.1591 135.071 45.0977 124.287 43.1971 125.255C41.2965 126.223 36.3673 144.407 38.254 147.304C40.1408 150.2 50.4307 170.647 53.0066 170.237C55.5826 169.826 50.1591 135.071 50.1591 135.071Z" fill="black"/>
<path d="M51.9345 129.599C53.3269 126.215 49.9224 115.981 48.3977 111.783C48.3091 111.54 48.1623 111.323 47.9701 111.15C47.7779 110.977 47.5463 110.854 47.2954 110.791C47.0446 110.729 46.7823 110.728 46.5314 110.791C46.2806 110.853 46.0489 110.976 45.8566 111.149C44.4642 112.381 42.8003 114.776 42.5218 119.218C42.5218 119.218 31.8977 137.925 31.8977 146.461C31.8977 154.46 47.7155 171.12 47.7155 171.12C49.499 170.566 51.0064 169.357 51.9345 167.737C51.9345 167.737 46.0237 153.116 41.4357 146.851C41.4287 146.858 50.368 133.344 51.9345 129.599Z" stroke="#263238" stroke-width="0.490925" stroke-linecap="round" stroke-linejoin="round"/>
<path d="M50.5905 166.415L52.9785 170.237C52.9785 170.237 60.4139 172.563 61.1867 175.02C61.9595 177.478 58.1513 180.903 55.8886 180.214C53.6259 179.525 49.9361 172.702 49.9361 172.702L46.9285 169.221L50.5905 166.415Z" fill="white" stroke="#263238" stroke-width="0.490925" stroke-linecap="round" stroke-linejoin="round"/>
<path d="M45.9053 170.153L47.5135 172.005C49.7751 171.373 51.7085 169.898 52.916 167.884L51.9414 165.565C51.9414 165.565 50.5698 168.782 45.9053 170.153Z" fill="#92E3A9" stroke="#263238" stroke-width="0.490925" stroke-linecap="round" stroke-linejoin="round"/>
<path d="M55.436 272.62L53.3473 281.288C53.278 281.578 53.2752 281.88 53.3394 282.172C53.4036 282.464 53.533 282.737 53.7179 282.971C53.9028 283.206 54.1384 283.395 54.407 283.526C54.6756 283.656 54.9703 283.724 55.2689 283.724H67.4664C67.7553 283.724 68.0407 283.661 68.3027 283.54C68.5647 283.418 68.797 283.241 68.9833 283.02C69.1696 282.799 69.3054 282.54 69.3813 282.261C69.4572 281.983 69.4714 281.691 69.4227 281.406C69.3283 280.754 69.0987 280.13 68.7486 279.572C68.3985 279.015 67.9357 278.537 67.3898 278.169C64.605 276.359 63.2822 270.691 63.2822 270.691L55.436 272.62Z" fill="#263238" stroke="#263238" stroke-width="0.490925" stroke-linecap="round" stroke-linejoin="round"/>
<path d="M85.4912 274.069C85.4912 274.069 83.521 276.903 83.2007 281.957C83.1904 282.186 83.2265 282.414 83.3068 282.628C83.3872 282.842 83.5102 283.038 83.6683 283.203C83.8265 283.368 84.0165 283.5 84.2269 283.59C84.4373 283.68 84.6637 283.726 84.8925 283.725H106.524C106.946 283.728 107.358 283.599 107.704 283.356C108.049 283.113 108.31 282.769 108.451 282.371C108.592 281.973 108.605 281.541 108.489 281.135C108.374 280.729 108.134 280.369 107.805 280.105C106.884 279.42 105.793 279.001 104.651 278.894C99.3457 278.198 94.6463 275.761 93.7969 272.628L85.4912 274.069Z" fill="#263238" stroke="#263238" stroke-width="0.490925" stroke-linecap="round" stroke-linejoin="round"/>
<path d="M51.9345 167.737C51.9345 167.737 49.4838 177.874 50.4516 199.763L51.0781 224.548C51.0781 224.548 47.5553 241.953 54.3155 273.463C54.3155 273.463 56.4041 278.127 64.8212 272.293L65.7959 224.22L74.6029 171.121L51.9345 167.737Z" fill="#999999"/>
<path opacity="0.2" d="M69.451 190.106C69.451 190.106 65.8586 204.427 64.4105 212.796C62.9624 221.164 54.3503 220.524 53.313 226.024C52.2757 231.524 62.3637 225.056 61.382 244.821C60.4004 264.586 56.8706 275.391 62.4124 275.231C67.9542 275.071 68.1143 259.497 68.1143 259.497L71.4909 212.03V205.43L72.2985 192.898L69.451 190.106Z" fill="black"/>
<path d="M51.9345 167.737C51.9345 167.737 49.4838 177.874 50.4516 199.763L51.0781 224.548C51.0781 224.548 47.5553 241.953 54.3155 273.463C54.3155 273.463 56.4041 278.127 64.8212 272.293L65.7959 224.22L74.6029 171.121L51.9345 167.737Z" stroke="#263238" stroke-width="0.490925" stroke-linecap="round" stroke-linejoin="round"/>
<path d="M53.3132 229.922C52.9387 230.417 52.5924 230.933 52.2759 231.467" stroke="#263238" stroke-width="0.490925" stroke-linecap="round" stroke-linejoin="round"/>
<path d="M53.7515 224.464C53.7515 224.464 61.8274 222.535 62.3774 224.464C62.8509 226.141 58.4857 224.171 54.1761 228.877" stroke="#263238" stroke-width="0.490925" stroke-linecap="round" stroke-linejoin="round"/>
<path d="M67.7522 193.587C74.018 203.703 82.8389 223.607 82.8389 223.607C82.8389 223.607 81.5092 225.912 82.8389 229.776C82.8389 229.776 79.3579 243.219 84.4054 275.363C84.4054 275.363 88.7497 278.148 95.0295 273.275C95.0295 273.275 98.1624 224.958 96.958 218.442C95.7535 211.925 84.4263 168.886 84.4263 168.886H59.53" fill="#999999"/>
<path opacity="0.2" d="M66.3389 194.29C66.3389 194.29 70.1332 196.219 77.4085 194.29C84.6838 192.362 78.6547 200.556 81.0636 209.495C83.4725 218.434 90.2396 222.535 89.1535 226.392C88.0674 230.249 84.8509 231.224 84.1617 241.604C83.4725 251.985 92.5788 271.158 88.9934 275.085C85.4079 279.011 76.7193 269.724 76.7193 269.724L69.4509 220.509L66.3389 194.29Z" fill="black"/>
<path d="M67.7522 193.587C74.018 203.703 82.8389 223.607 82.8389 223.607C82.8389 223.607 81.5092 225.912 82.8389 229.776C82.8389 229.776 79.3579 243.219 84.4054 275.363C84.4054 275.363 88.7497 278.148 95.0295 273.275C95.0295 273.275 98.1624 224.958 96.958 218.442C95.7535 211.925 84.4263 168.886 84.4263 168.886H59.53" stroke="#263238" stroke-width="0.490925" stroke-linecap="round" stroke-linejoin="round"/>
<path d="M87.4477 225.313C90.3091 224.882 93.9642 224.617 93.818 225.912C93.5813 228.084 88.4781 225.877 85.373 229.532" stroke="#263238" stroke-width="0.490925" stroke-linecap="round" stroke-linejoin="round"/>
<path d="M84.1616 225.912C84.1616 225.912 84.6629 225.8 85.4357 225.654" stroke="#263238" stroke-width="0.490925" stroke-linecap="round" stroke-linejoin="round"/>
<path d="M104.087 100.567L104.54 95.9717C104.54 95.9717 103.635 91.1888 104.087 89.5667C104.54 87.9445 108.508 77.6616 109.768 78.1141C111.028 78.5666 107.875 84.1572 107.965 85.7724C107.965 85.7724 109.643 85.8629 110.054 86.942C110.054 86.942 111.648 87.2135 111.738 88.6546C112.128 88.903 112.442 89.2525 112.648 89.6658C112.854 90.079 112.944 90.5405 112.908 91.0008C112.734 92.5325 109.664 96.6819 109.664 96.6819L109.845 102.634L104.087 100.567Z" fill="white" stroke="#263238" stroke-width="0.490925" stroke-linecap="round" stroke-linejoin="round"/>
<path d="M77.3946 92.8046C77.3946 92.8046 75.6192 89.3236 75.3616 88.0147C75.1737 87.1027 75.5496 85.2299 75.3616 84.3109C74.93 82.1875 71.9572 76.3463 71.9572 76.3463C71.8379 76.0952 71.6556 75.8794 71.4281 75.7197L69.6876 77.864H64.9673L57.7546 87.3881L61.3053 95.9375L60.2679 97.1698C60.9015 97.7964 61.3053 98.1584 61.3053 98.1584L60.2679 104.362L70.4325 105.392L70.6692 101.458H73.7604C74.1777 101.458 74.5779 101.293 74.873 100.998C75.168 100.702 75.3338 100.302 75.3338 99.885V94.4964L76.7262 94.0926C76.8606 94.0614 76.9866 94.0015 77.0956 93.9169C77.2046 93.8323 77.2939 93.7251 77.3574 93.6027C77.421 93.4803 77.4572 93.3455 77.4636 93.2077C77.47 93.0699 77.4465 92.9324 77.3946 92.8046Z" fill="white" stroke="#263238" stroke-width="0.490925" stroke-linecap="round" stroke-linejoin="round"/>
<path d="M52.8118 89.7067C56.9054 95.7358 61.3055 98.1586 61.3055 98.1586L63.039 93.8491C63.039 93.8491 59.558 93.4801 60.0801 90.0966C60.8947 85.1048 64.9536 89.5953 64.9536 89.5953L65.8308 85.7383C65.8308 85.7383 67.996 83.413 67.8428 82.5984C67.7269 82.0068 67.5734 81.4231 67.3833 80.851C67.3833 80.851 75.2156 73.3946 74.3871 69.2383C74.3871 69.2383 67.8637 70.5611 60.0801 72.0231C50.6048 73.7358 48.189 82.9117 52.8118 89.7067Z" fill="#263238" stroke="#263238" stroke-width="0.490925" stroke-linecap="round" stroke-linejoin="round"/>
<path d="M73.7882 101.459C73.7882 101.459 68.3369 100.533 66.2553 97.9783C64.1736 95.4233 65.8306 98.1593 66.8053 99.7258C68.8939 103.075 70.6692 101.459 73.7882 101.459Z" fill="#263238"/>
<path d="M70.4326 93.6201C70.8086 94.0458 71.2831 94.3731 71.8146 94.5733C72.3461 94.7736 72.9186 94.8407 73.482 94.7689" stroke="#263238" stroke-width="0.368194" stroke-linecap="round" stroke-linejoin="round"/>
<path d="M74.4007 86.9573C74.4007 87.4446 74.2197 87.8345 73.99 87.8345C73.7602 87.8345 73.5862 87.4446 73.5862 86.9573C73.5862 86.4699 73.7672 86.0801 73.99 86.0801C74.2128 86.0801 74.4007 86.4769 74.4007 86.9573Z" fill="#263238"/>
<path d="M74.3244 84.3945C73.7606 84.2708 73.1712 84.3513 72.6612 84.6216C72.1512 84.8919 71.7537 85.3344 71.5396 85.8704" stroke="#263238" stroke-width="0.368194" stroke-linecap="round" stroke-linejoin="round"/>
<path d="M54.9556 107.07C54.9556 107.07 54.9556 102.307 63.1638 103.045C73.1404 103.951 77.1645 109.061 77.1645 109.061L54.9556 107.07Z" fill="#92E3A9" stroke="#263238" stroke-width="0.490925" stroke-linecap="round" stroke-linejoin="round"/>
<path d="M71.0522 106.214C77.2693 106.91 88.1092 108.407 87.4618 125.123C86.8143 141.839 84.4054 168.872 84.4054 168.872C84.4054 168.872 53.313 182.156 49.7832 169.833C49.7832 169.833 51.3984 155.909 46.2465 134.236C41.0946 112.563 43.4269 103.199 71.0522 106.214Z" fill="#263238"/>
<path opacity="0.2" d="M89.0354 153.096C89.0354 153.096 84.9765 154.07 72.5423 147.303C53.0486 136.672 50.8625 121.07 45.3903 123.632C39.9181 126.194 50.7998 176.509 50.7998 176.509L70.9897 177.776H89.7037L89.0354 153.096Z" fill="black"/>
<path d="M71.0522 106.214C77.2693 106.91 88.1092 108.407 87.4618 125.123C86.8143 141.839 84.4054 168.872 84.4054 168.872C84.4054 168.872 53.313 182.156 49.7832 169.833C49.7832 169.833 51.3984 155.909 46.2465 134.236C41.0946 112.563 43.4269 103.199 71.0522 106.214Z" stroke="#263238" stroke-width="0.490925" stroke-linecap="round" stroke-linejoin="round"/>
<path d="M35.1629 146.154C34.8148 146.238 34.4458 146.342 34.0559 146.468" stroke="#7F7F7F" stroke-width="0.368194" stroke-linecap="round" stroke-linejoin="round"/>
<path d="M40.301 146.468C40.301 146.468 38.9921 145.535 36.1238 145.967" stroke="#7F7F7F" stroke-width="0.368194" stroke-linecap="round" stroke-linejoin="round"/>
<path d="M73.4541 106.52C73.4541 106.52 84.2244 106.59 89.0491 109.486C89.0491 109.486 97.5776 108.038 100.961 109.486L104.017 98.061C104.017 98.061 108.042 96.1256 109.97 99.0218C109.97 99.0218 111.418 116.427 109.009 117.854C106.6 119.281 87.4687 123.647 87.4687 123.647C87.4687 123.647 75.2503 119.971 73.4541 106.52Z" fill="#263238"/>
<path opacity="0.2" d="M87.3783 120.695C87.3783 120.695 86.8144 116.218 95.0366 116.796C103.259 117.374 109.657 117.534 110.471 113.67C111.286 109.806 120.302 103.122 117.433 115.633L114.53 128.165L97.2366 129.307L87.3783 120.695Z" fill="black"/>
<path d="M73.4541 106.52C73.4541 106.52 84.2244 106.59 89.0491 109.486C89.0491 109.486 97.5776 108.038 100.961 109.486L104.017 98.061C104.017 98.061 108.042 96.1256 109.97 99.0218C109.97 99.0218 111.418 116.427 109.009 117.854C106.6 119.281 87.4687 123.647 87.4687 123.647C87.4687 123.647 75.2503 119.971 73.4541 106.52Z" stroke="#263238" stroke-width="0.490925" stroke-linecap="round" stroke-linejoin="round"/>
<path d="M102.959 110.343C103.889 111.101 104.688 112.007 105.326 113.023" stroke="#7F7F7F" stroke-width="0.368194" stroke-linecap="round" stroke-linejoin="round"/>
<path d="M101.219 109.598C101.481 109.597 101.74 109.654 101.978 109.765" stroke="#7F7F7F" stroke-width="0.368194" stroke-linecap="round" stroke-linejoin="round"/>
<path d="M46.0168 129.307C45.6409 125.701 44.6244 119.08 45.0213 114.499" stroke="#7F7F7F" stroke-width="0.368194" stroke-linecap="round" stroke-linejoin="round"/>
<path d="M43.1689 120.694C43.1689 120.694 45.0487 131.834 45.9538 131.834" stroke="#7F7F7F" stroke-width="0.368194" stroke-linecap="round" stroke-linejoin="round"/>
<path d="M49.9292 162.063V168.315" stroke="#7F7F7F" stroke-width="0.368194" stroke-linecap="round" stroke-linejoin="round"/>
<path d="M60.5393 177.79C60.5393 177.79 61.5488 184.857 64.6539 189.222L60.5393 177.79Z" fill="#999999"/>
<path d="M60.5393 177.79C60.5393 177.79 61.5488 184.857 64.6539 189.222" stroke="#263238" stroke-width="0.490925" stroke-linecap="round" stroke-linejoin="round"/>
<path d="M103.14 96.7454L102.444 99.3353C102.444 99.3353 107.15 98.2214 111.313 100.456L110.889 97.4277C110.889 97.4277 108.194 95.4157 103.14 96.7454Z" fill="#92E3A9" stroke="#263238" stroke-width="0.490925" stroke-linecap="round" stroke-linejoin="round"/>
<path d="M77.4298 163.512C74.0393 165.016 67.3139 166.338 54.1069 165.036" stroke="#7F7F7F" stroke-width="0.368194" stroke-linecap="round" stroke-linejoin="round"/>
<path d="M80.8269 160.741C80.5382 161.381 80.0749 161.926 79.4902 162.315" stroke="#7F7F7F" stroke-width="0.368194" stroke-linecap="round" stroke-linejoin="round"/>
<path d="M90.1631 109.814L95.6561 113.212" stroke="#7F7F7F" stroke-width="0.368194" stroke-linecap="round" stroke-linejoin="round"/>
<path d="M81.5857 138.406C85.0969 134.274 87.2806 129.179 87.8515 123.786" stroke="#7F7F7F" stroke-width="0.368194" stroke-linecap="round" stroke-linejoin="round"/>
<path d="M78.3832 137.396C73.9196 142.552 68.3447 146.627 62.0781 149.316" stroke="#7F7F7F" stroke-width="0.368194" stroke-linecap="round" stroke-linejoin="round"/>
<path d="M81.1124 133.86C80.5902 134.612 80.0403 135.343 79.4624 136.06" stroke="#7F7F7F" stroke-width="0.368194" stroke-linecap="round" stroke-linejoin="round"/>
<path d="M82.79 131.34C82.5255 131.785 82.247 132.217 81.9685 132.649" stroke="#7F7F7F" stroke-width="0.368194" stroke-linecap="round" stroke-linejoin="round"/>
<path d="M52.6934 157.852C59.7393 161.071 67.5776 162.144 75.2295 160.936" stroke="#7F7F7F" stroke-width="0.368194" stroke-linecap="round" stroke-linejoin="round"/>
<path d="M71.5396 71.3968C72.2587 71.0836 72.9445 70.6988 73.5864 70.248" stroke="#7F7F7F" stroke-width="0.368194" stroke-linecap="round" stroke-linejoin="round"/>
<path d="M54.5799 87.8349C54.5799 87.8349 50.7159 80.7475 55.1786 76.8836C58.583 73.9456 64.6539 73.6671 69.5134 72.1494" stroke="#7F7F7F" stroke-width="0.368194" stroke-linecap="round" stroke-linejoin="round"/>
<path d="M57.8314 82.8003C57.6143 82.1561 57.5787 81.4645 57.7285 80.8014C57.8783 80.1383 58.2078 79.5292 58.6807 79.0408C61.3333 76.5206 69.0751 76.256 72.932 72.4199" stroke="#7F7F7F" stroke-width="0.368194" stroke-linecap="round" stroke-linejoin="round"/>
<path d="M59.4048 86.0789C59.085 85.6382 58.801 85.1726 58.5554 84.6865" stroke="#7F7F7F" stroke-width="0.368194" stroke-linecap="round" stroke-linejoin="round"/>
</svg>
