<svg width="32" height="32" viewBox="0 0 32 32" fill="none" xmlns="http://www.w3.org/2000/svg">
<path d="M30.345 11.8061L28.6073 4.95792C28.6073 4.95784 28.6072 4.95776 28.6072 4.95768C28.5001 4.53023 28.1099 4.23325 27.6674 4.23325H5.07397C4.63145 4.23325 4.2412 4.53026 4.1341 4.95775C4.13408 4.95781 4.13407 4.95786 4.13406 4.95792L2.39633 11.8061C2.39631 11.8062 2.39628 11.8063 2.39625 11.8064C2.3767 11.8817 2.36704 11.9602 2.36704 12.0385C2.36704 13.4875 3.05513 14.7681 4.10499 15.566V27.4489C4.10499 27.9781 4.54048 28.405 5.07397 28.405H13.7637C14.2972 28.405 14.7327 27.9781 14.7327 27.4489V21.5559H18.0086V27.4489C18.0086 27.9781 18.4441 28.405 18.9776 28.405H27.6674C28.2009 28.405 28.6363 27.9781 28.6363 27.4489V15.566C29.6862 14.7681 30.3743 13.4875 30.3743 12.0385C30.3743 11.9603 30.3647 11.8817 30.3451 11.8065C30.3451 11.8064 30.345 11.8062 30.345 11.8061ZM26.6984 26.4928H19.9466V20.5998C19.9466 20.0706 19.5111 19.6437 18.9776 19.6437H13.7637C13.2302 19.6437 12.7948 20.0706 12.7948 20.5998V26.4928H6.04295V16.3683C6.22101 16.3964 6.40488 16.4191 6.59468 16.4191C7.90683 16.4191 9.07801 15.7978 9.85334 14.8267C10.6287 15.7978 11.7999 16.4191 13.112 16.4191C14.4242 16.4191 15.5953 15.7978 16.3707 14.8267C17.146 15.7978 18.3172 16.4191 19.6293 16.4191C20.9415 16.4191 22.1127 15.7978 22.888 14.8267C23.6633 15.7978 24.8345 16.4191 26.1467 16.4191C26.3365 16.4191 26.5203 16.3964 26.6984 16.3683V26.4928ZM26.1467 14.5069C24.8912 14.5069 23.857 13.4062 23.857 12.0385C23.857 11.5093 23.4215 11.0823 22.888 11.0823C22.3545 11.0823 21.919 11.5093 21.919 12.0385C21.919 13.4062 20.8848 14.5069 19.6293 14.5069C18.3739 14.5069 17.3396 13.4062 17.3396 12.0385C17.3396 11.5093 16.9042 11.0823 16.3707 11.0823C15.8372 11.0823 15.4017 11.5093 15.4017 12.0385C15.4017 13.4062 14.3675 14.5069 13.112 14.5069C11.8565 14.5069 10.8223 13.4062 10.8223 12.0385C10.8223 11.5093 10.3868 11.0823 9.85334 11.0823C9.31985 11.0823 8.88437 11.5093 8.88437 12.0385C8.88437 13.4062 7.85016 14.5069 6.59468 14.5069C5.37335 14.5069 4.36092 13.4645 4.30721 12.1484L5.83129 6.14552H26.9118L28.4359 12.1483C28.3805 13.4645 27.368 14.5069 26.1467 14.5069Z" fill="#395B65" stroke="#395B65" stroke-width="0.2"/>
</svg>
