<svg width="48" height="48" viewBox="0 0 48 48" fill="none" xmlns="http://www.w3.org/2000/svg">
<path d="M38.345 19.8061L36.6073 12.9579C36.6073 12.9578 36.6072 12.9578 36.6072 12.9577C36.5001 12.5302 36.1099 12.2333 35.6674 12.2333H13.074C12.6315 12.2333 12.2412 12.5303 12.1341 12.9578C12.1341 12.9578 12.1341 12.9579 12.1341 12.9579L10.3963 19.8061C10.3963 19.8062 10.3963 19.8063 10.3963 19.8064C10.3767 19.8817 10.367 19.9602 10.367 20.0385C10.367 21.4875 11.0551 22.7681 12.105 23.566V35.4489C12.105 35.9781 12.5405 36.405 13.074 36.405H21.7637C22.2972 36.405 22.7327 35.9781 22.7327 35.4489V29.5559H26.0086V35.4489C26.0086 35.9781 26.4441 36.405 26.9776 36.405H35.6674C36.2009 36.405 36.6363 35.9781 36.6363 35.4489V23.566C37.6862 22.7681 38.3743 21.4875 38.3743 20.0385C38.3743 19.9602 38.3646 19.8815 38.345 19.8062C38.345 19.8062 38.345 19.8061 38.345 19.8061ZM34.6984 34.4928H27.9466V28.5998C27.9466 28.0706 27.5111 27.6437 26.9776 27.6437H21.7637C21.2302 27.6437 20.7948 28.0706 20.7948 28.5998V34.4928H14.0429V24.3683C14.221 24.3964 14.4049 24.4191 14.5947 24.4191C15.9068 24.4191 17.078 23.7978 17.8533 22.8267C18.6287 23.7978 19.7999 24.4191 21.112 24.4191C22.4242 24.4191 23.5953 23.7978 24.3707 22.8267C25.146 23.7978 26.3172 24.4191 27.6293 24.4191C28.9415 24.4191 30.1127 23.7978 30.888 22.8267C31.6633 23.7978 32.8345 24.4191 34.1467 24.4191C34.3365 24.4191 34.5203 24.3964 34.6984 24.3683V34.4928ZM34.1467 22.5069C32.8912 22.5069 31.857 21.4062 31.857 20.0385C31.857 19.5093 31.4215 19.0823 30.888 19.0823C30.3545 19.0823 29.919 19.5093 29.919 20.0385C29.919 21.4062 28.8848 22.5069 27.6293 22.5069C26.3739 22.5069 25.3396 21.4062 25.3396 20.0385C25.3396 19.5093 24.9042 19.0823 24.3707 19.0823C23.8372 19.0823 23.4017 19.5093 23.4017 20.0385C23.4017 21.4062 22.3675 22.5069 21.112 22.5069C19.8565 22.5069 18.8223 21.4062 18.8223 20.0385C18.8223 19.5093 18.3868 19.0823 17.8533 19.0823C17.3198 19.0823 16.8844 19.5093 16.8844 20.0385C16.8844 21.4062 15.8502 22.5069 14.5947 22.5069C13.3733 22.5069 12.3609 21.4645 12.3072 20.1484L13.8313 14.1455H34.9118L36.4359 20.1483C36.3804 21.4645 35.368 22.5069 34.1467 22.5069Z" fill="#395B65" stroke="#395B65" stroke-width="0.2"/>
</svg>
