<svg width="19" height="18" viewBox="0 0 19 18" fill="none" xmlns="http://www.w3.org/2000/svg">
<path fill-rule="evenodd" clip-rule="evenodd" d="M18.0941 1.90633C18.4125 2.22438 18.4127 2.74029 18.0947 3.05866L9.94655 11.215C9.79377 11.3679 9.58648 11.4538 9.3703 11.4539C9.15413 11.4539 8.94679 11.3681 8.79394 11.2152L6.34949 8.7708C6.03129 8.45259 6.03129 7.93668 6.34949 7.61847C6.6677 7.30027 7.18361 7.30027 7.50182 7.61847L9.36981 9.48647L16.9418 1.90691C17.2598 1.58855 17.7758 1.58829 18.0941 1.90633Z" fill="#44AD92"/>
<path d="M17.3102 6.52719C17.7591 6.38182 18.2453 6.62749 18.3469 7.08835C18.7127 8.74729 18.5966 10.4829 18.0028 12.0873C17.3099 13.9598 16.0066 15.5444 14.3032 16.5859C12.5997 17.6274 10.5953 18.0651 8.61273 17.8284C6.63019 17.5917 4.78508 16.6944 3.3747 15.2812C1.96432 13.8679 1.07081 12.021 0.838145 10.038C0.605482 8.05497 1.04722 6.05138 2.09217 4.35005C3.13712 2.64872 4.72444 1.34874 6.59834 0.659576C8.2039 0.0691007 9.93974 -0.0434988 11.5979 0.325649C12.0586 0.4282 12.3033 0.914854 12.157 1.36354C12.0107 1.81222 11.5287 2.05195 11.0658 1.95997C9.77538 1.70354 8.43331 1.80565 7.18823 2.26355C5.67461 2.82021 4.39248 3.87026 3.54843 5.24448C2.70439 6.61871 2.34758 8.23709 2.53551 9.83883C2.72344 11.4406 3.44516 12.9324 4.58438 14.0739C5.7236 15.2155 7.21396 15.9402 8.81532 16.1314C10.4167 16.3226 12.0358 15.9691 13.4117 15.1278C14.7877 14.2866 15.8403 13.0066 16.4 11.4941C16.8605 10.25 16.9653 8.9081 16.7115 7.61713C16.6205 7.15407 16.8612 6.67257 17.3102 6.52719Z" fill="#44AD92"/>
</svg>
