<svg width="32" height="32" viewBox="0 0 32 32" fill="none" xmlns="http://www.w3.org/2000/svg">
<path d="M28.5836 11.8217L16.4661 6.36881C16.1487 6.22455 15.8025 6.22455 15.514 6.36881L3.39649 11.8217C2.99257 11.9948 2.73291 12.3987 2.73291 12.8315C2.73291 13.2643 3.02142 13.6682 3.42534 13.8701L4.46398 14.3606V18.3998C4.46398 18.8037 4.78135 19.1211 5.18526 19.1211C5.58918 19.1211 5.90655 18.8037 5.90655 18.3998V15.1396L7.63762 16.0628V20.9675C7.63762 21.1695 7.69532 21.3426 7.81073 21.5157C7.92613 21.6888 10.5516 25.6126 15.8602 25.6126C21.3131 25.6126 23.8232 21.66 23.9386 21.5157C24.0251 21.3715 24.1117 21.1695 24.1117 20.9964V16.2648L28.699 13.9278C29.1029 13.7259 29.3337 13.3219 29.3337 12.8892C29.276 12.3987 28.9875 12.0237 28.5836 11.8217ZM22.0632 20.6502C21.4862 21.3426 19.5243 23.593 15.8602 23.593C12.2827 23.593 10.2342 21.3715 9.65721 20.6502V17.1015L15.4852 20.0732C15.6583 20.1597 15.8314 20.1885 16.0045 20.1885C16.1776 20.1885 16.3795 20.1597 16.5526 20.0732L22.0632 17.2745V20.6502ZM16.0045 17.7362L6.54127 12.9469L16.0045 8.6769L25.4677 12.9469L16.0045 17.7362ZM5.90655 20.1309C6.1085 20.3328 6.25276 20.6502 6.25276 20.9387C6.25276 21.2272 6.13736 21.5445 5.90655 21.7465C5.70459 21.9484 5.38722 22.0928 5.09871 22.0928C4.8102 22.0928 4.49283 21.9773 4.29087 21.7465C4.08892 21.5445 3.94466 21.2272 3.94466 20.9387C3.94466 20.6502 4.06007 20.3328 4.29087 20.1309C4.49283 19.9289 4.8102 19.7847 5.09871 19.7847C5.38722 19.7847 5.67574 19.9001 5.90655 20.1309Z" fill="#395B65"/>
</svg>
