<svg width="24" height="24" viewBox="0 0 24 24" fill="none" xmlns="http://www.w3.org/2000/svg">
<path fill-rule="evenodd" clip-rule="evenodd" d="M21.4812 4.01816C21.8393 4.37596 21.8396 4.95636 21.4818 5.31452L12.3152 14.4904C12.1433 14.6624 11.9101 14.7591 11.6669 14.7592C11.4237 14.7592 11.1904 14.6626 11.0185 14.4907L8.26849 11.7407C7.9105 11.3827 7.9105 10.8023 8.26849 10.4443C8.62647 10.0863 9.20687 10.0863 9.56485 10.4443L11.6663 12.5458L20.1848 4.01881C20.5426 3.66065 21.123 3.66036 21.4812 4.01816Z" fill="#44AD92"/>
<path d="M21.509 8.92104C22.0344 8.75091 22.6078 9.03687 22.7295 9.57557C23.1972 11.6454 23.0577 13.8143 22.3162 15.8178C21.4587 18.135 19.846 20.096 17.7379 21.3849C15.6299 22.6737 13.1494 23.2153 10.696 22.9224C8.2426 22.6295 5.95927 21.5192 4.21393 19.7703C2.46858 18.0214 1.36286 15.7358 1.07494 13.2818C0.787019 10.8278 1.33367 8.3484 2.6268 6.243C3.91993 4.1376 5.88423 2.52888 8.20318 1.67604C10.2082 0.938671 12.3773 0.803495 14.4462 1.27544C14.9847 1.39826 15.2695 1.97218 15.0983 2.49726C14.9271 3.02235 14.3616 3.30802 13.8207 3.19616C12.1839 2.85764 10.478 2.98092 8.89692 3.56239C7.00167 4.2594 5.39628 5.57419 4.33943 7.29489C3.28257 9.0156 2.83581 11.042 3.07112 13.0476C3.30643 15.0532 4.21012 16.9212 5.63656 18.3505C7.06301 19.7799 8.92914 20.6873 10.9342 20.9267C12.9394 21.1661 14.9667 20.7235 16.6895 19.6701C18.4124 18.6168 19.7304 17.014 20.4313 15.1202C21.016 13.5403 21.1427 11.8346 20.8075 10.1972C20.6968 9.65611 20.9836 9.09117 21.509 8.92104Z" fill="#44AD92"/>
</svg>
