<svg width="16" height="16" viewBox="0 0 16 16" fill="none" xmlns="http://www.w3.org/2000/svg">
<path fill-rule="evenodd" clip-rule="evenodd" d="M2.66663 3.33333C2.48981 3.33333 2.32025 3.40357 2.19522 3.5286C2.0702 3.65362 1.99996 3.82319 1.99996 4V13.3333C1.99996 13.5101 2.0702 13.6797 2.19522 13.8047C2.32025 13.9298 2.48982 14 2.66663 14H12C12.1768 14 12.3463 13.9298 12.4714 13.8047C12.5964 13.6797 12.6666 13.5101 12.6666 13.3333V9.77333C12.6666 9.40514 12.9651 9.10667 13.3333 9.10667C13.7015 9.10667 14 9.40514 14 9.77333V13.3333C14 13.8638 13.7892 14.3725 13.4142 14.7475C13.0391 15.1226 12.5304 15.3333 12 15.3333H2.66663C2.13619 15.3333 1.62748 15.1226 1.25241 14.7475C0.87734 14.3725 0.666626 13.8638 0.666626 13.3333V4C0.666626 3.46957 0.87734 2.96086 1.25241 2.58579C1.62749 2.21071 2.13619 2 2.66663 2H6.22663C6.59482 2 6.89329 2.29848 6.89329 2.66667C6.89329 3.03486 6.59482 3.33333 6.22663 3.33333H2.66663Z" fill="white"/>
<path fill-rule="evenodd" clip-rule="evenodd" d="M11.5286 0.861278C11.7889 0.600928 12.211 0.600928 12.4714 0.861278L15.138 3.52794C15.3984 3.78829 15.3984 4.2104 15.138 4.47075L8.47136 11.1374C8.34634 11.2624 8.17677 11.3327 7.99996 11.3327H5.33329C4.9651 11.3327 4.66663 11.0342 4.66663 10.666V7.99935C4.66663 7.82254 4.73686 7.65297 4.86189 7.52794L11.5286 0.861278ZM5.99996 8.27549V9.99935H7.72382L13.7238 3.99935L12 2.27549L5.99996 8.27549Z" fill="white"/>
</svg>
