<svg width="32" height="32" viewBox="0 0 32 32" fill="none" xmlns="http://www.w3.org/2000/svg">
<path fill-rule="evenodd" clip-rule="evenodd" d="M5.17157 2.5036C5.92172 1.75346 6.93913 1.33203 8 1.33203H18.6667C19.0203 1.33203 19.3594 1.47251 19.6095 1.72256L27.6095 9.72256C27.8595 9.9726 28 10.3117 28 10.6654V26.6654C28 27.7262 27.5786 28.7436 26.8284 29.4938C26.0783 30.2439 25.0609 30.6654 24 30.6654H8C6.93913 30.6654 5.92172 30.2439 5.17157 29.4938C4.42143 28.7436 4 27.7262 4 26.6654V5.33203C4 4.27117 4.42143 3.25375 5.17157 2.5036ZM8 3.9987C7.64638 3.9987 7.30724 4.13917 7.05719 4.38922C6.80714 4.63927 6.66667 4.97841 6.66667 5.33203V26.6654C6.66667 27.019 6.80714 27.3581 7.05719 27.6082C7.30724 27.8582 7.64638 27.9987 8 27.9987H24C24.3536 27.9987 24.6928 27.8582 24.9428 27.6082C25.1929 27.3581 25.3333 27.019 25.3333 26.6654V11.2176L18.1144 3.9987H8Z" fill="#395B65"/>
<path fill-rule="evenodd" clip-rule="evenodd" d="M18.6667 1.33203C19.403 1.33203 20 1.92898 20 2.66536V9.33203H26.6667C27.403 9.33203 28 9.92898 28 10.6654C28 11.4017 27.403 11.9987 26.6667 11.9987H18.6667C17.9303 11.9987 17.3333 11.4017 17.3333 10.6654V2.66536C17.3333 1.92898 17.9303 1.33203 18.6667 1.33203Z" fill="#395B65"/>
<path fill-rule="evenodd" clip-rule="evenodd" d="M9.33333 17.332C9.33333 16.5957 9.93029 15.9987 10.6667 15.9987H21.3333C22.0697 15.9987 22.6667 16.5957 22.6667 17.332C22.6667 18.0684 22.0697 18.6654 21.3333 18.6654H10.6667C9.93029 18.6654 9.33333 18.0684 9.33333 17.332Z" fill="#395B65"/>
<path fill-rule="evenodd" clip-rule="evenodd" d="M9.33333 22.6654C9.33333 21.929 9.93029 21.332 10.6667 21.332H21.3333C22.0697 21.332 22.6667 21.929 22.6667 22.6654C22.6667 23.4017 22.0697 23.9987 21.3333 23.9987H10.6667C9.93029 23.9987 9.33333 23.4017 9.33333 22.6654Z" fill="#395B65"/>
<path fill-rule="evenodd" clip-rule="evenodd" d="M9.33333 11.9987C9.33333 11.2623 9.93029 10.6654 10.6667 10.6654H13.3333C14.0697 10.6654 14.6667 11.2623 14.6667 11.9987C14.6667 12.7351 14.0697 13.332 13.3333 13.332H10.6667C9.93029 13.332 9.33333 12.7351 9.33333 11.9987Z" fill="#395B65"/>
</svg>
