<svg width="32" height="32" viewBox="0 0 32 32" fill="none" xmlns="http://www.w3.org/2000/svg">
<path d="M23.0202 16.8801C23.3668 17.2267 23.5535 17.7067 23.5535 18.2134C23.5535 18.6934 23.3668 19.1734 23.0202 19.52C22.6735 19.8667 22.1935 20.0801 21.6868 20.0801C21.2068 20.0801 20.7268 19.8667 20.3535 19.52C20.0068 19.1734 19.8202 18.6934 19.8202 18.2134C19.8202 17.7067 20.0335 17.2534 20.3535 16.8801C20.7002 16.5334 21.1802 16.3467 21.6868 16.3467C22.1935 16.3467 22.6735 16.5334 23.0202 16.8801ZM28.0068 12.72V24.5067C28.0068 25.7067 27.0468 26.6667 25.8468 26.6667H6.54017C5.12684 26.6667 4.00684 25.52 4.00684 24.1334V14.5334V12.2934V8.53337C4.00684 6.77337 5.44684 5.33337 7.20684 5.33337H21.9535C23.4202 5.33337 24.5402 6.53337 24.5402 8.00004V9.60004H25.0202C26.6735 9.60004 28.0068 11.0667 28.0068 12.72ZM5.98018 8.53337C5.98018 9.12004 6.46018 9.60004 7.04684 9.60004H22.4068V7.94672C22.4068 7.68005 22.1935 7.46671 21.9268 7.46671H7.04684C6.46018 7.46671 5.98018 7.94671 5.98018 8.53337ZM25.8735 12.72C25.8735 12.2667 25.5002 11.7334 25.0202 11.7334H6.56683C6.32683 11.7334 6.14017 12.0534 6.14017 12.2934V14.5334V24.1334C6.14017 24.3467 6.32684 24.5334 6.54017 24.5334H25.8468C25.8735 24.5334 25.8735 24.5067 25.8735 24.5067V12.72Z" fill="#395B65"/>
</svg>
